M48
; DRILL file {KiCad 5.1.10-88a1d61d58~90~ubuntu20.04.1} date Sat Jan 29 20:14:46 2022
; FORMAT={-:-/ absolute / metric / decimal}
; #@! TF.CreationDate,2022-01-29T20:14:46-05:00
; #@! TF.GenerationSoftware,Kicad,Pcbnew,5.1.10-88a1d61d58~90~ubuntu20.04.1
; #@! TF.FileFunction,Plated,1,4,PTH
FMAT,2
METRIC
T1C0.300
T2C0.550
T3C0.850
T4C1.000
%
G90
G05
T1
X40.386Y-39.624
X42.672Y-29.591
X43.815Y-34.925
X46.736Y-35.814
X47.371Y-44.196
X48.387Y-40.132
X48.387Y-41.656
X49.276Y-33.274
X49.657Y-36.195
X50.419Y-39.878
X51.435Y-26.162
X51.816Y-34.798
X51.816Y-43.307
X52.959Y-31.369
X57.785Y-38.989
X58.42Y-41.529
X58.42Y-45.593
X59.944Y-40.386
X60.579Y-37.973
X61.087Y-31.242
X61.468Y-27.559
X62.23Y-39.497
X65.151Y-35.56
X65.278Y-33.02
X66.294Y-42.418
X69.342Y-36.957
X70.866Y-37.755
X72.009Y-30.988
X72.771Y-30.988
X72.898Y-43.053
X74.295Y-41.275
X76.073Y-33.147
X76.073Y-36.195
X76.2Y-35.179
X78.306Y-39.169
X80.518Y-39.37
X81.661Y-36.83
X83.693Y-36.322
X84.01Y-34.608
T4
X86.296Y-43.434
X90.043Y-43.434
T2
G00X39.559Y-28.601
M15
G01X39.559Y-27.951
M16
G05
G00X47.309Y-28.601
M15
G01X47.309Y-27.951
M16
G05
T3
G00X39.709Y-32.351
M15
G01X39.709Y-31.801
M16
G05
G00X47.159Y-32.351
M15
G01X47.159Y-31.801
M16
G05
T0
M30
