G04 #@! TF.GenerationSoftware,KiCad,Pcbnew,5.1.10-88a1d61d58~90~ubuntu20.04.1*
G04 #@! TF.CreationDate,2022-01-29T20:14:16-05:00*
G04 #@! TF.ProjectId,slg,736c672e-6b69-4636-9164-5f7063625858,v1.0*
G04 #@! TF.SameCoordinates,Original*
G04 #@! TF.FileFunction,Paste,Top*
G04 #@! TF.FilePolarity,Positive*
%FSLAX46Y46*%
G04 Gerber Fmt 4.6, Leading zero omitted, Abs format (unit mm)*
G04 Created by KiCad (PCBNEW 5.1.10-88a1d61d58~90~ubuntu20.04.1) date 2022-01-29 20:14:16*
%MOMM*%
%LPD*%
G01*
G04 APERTURE LIST*
%ADD10R,1.500000X1.000000*%
%ADD11R,1.900000X1.100000*%
%ADD12R,0.650000X0.400000*%
%ADD13R,1.060000X0.650000*%
%ADD14R,0.580000X0.710000*%
%ADD15R,0.300000X0.750000*%
%ADD16R,0.650000X1.060000*%
%ADD17R,1.550000X1.300000*%
%ADD18R,0.900000X0.800000*%
%ADD19R,0.600000X0.522000*%
%ADD20C,0.300000*%
%ADD21R,0.450000X1.300000*%
%ADD22R,0.800000X0.800000*%
%ADD23R,2.500000X1.800000*%
G04 APERTURE END LIST*
G36*
G01*
X82175000Y-42695000D02*
X82175000Y-42395000D01*
G75*
G02*
X82325000Y-42245000I150000J0D01*
G01*
X83625000Y-42245000D01*
G75*
G02*
X83775000Y-42395000I0J-150000D01*
G01*
X83775000Y-42695000D01*
G75*
G02*
X83625000Y-42845000I-150000J0D01*
G01*
X82325000Y-42845000D01*
G75*
G02*
X82175000Y-42695000I0J150000D01*
G01*
G37*
G36*
G01*
X82175000Y-43965000D02*
X82175000Y-43665000D01*
G75*
G02*
X82325000Y-43515000I150000J0D01*
G01*
X83625000Y-43515000D01*
G75*
G02*
X83775000Y-43665000I0J-150000D01*
G01*
X83775000Y-43965000D01*
G75*
G02*
X83625000Y-44115000I-150000J0D01*
G01*
X82325000Y-44115000D01*
G75*
G02*
X82175000Y-43965000I0J150000D01*
G01*
G37*
G36*
G01*
X82175000Y-45235000D02*
X82175000Y-44935000D01*
G75*
G02*
X82325000Y-44785000I150000J0D01*
G01*
X83625000Y-44785000D01*
G75*
G02*
X83775000Y-44935000I0J-150000D01*
G01*
X83775000Y-45235000D01*
G75*
G02*
X83625000Y-45385000I-150000J0D01*
G01*
X82325000Y-45385000D01*
G75*
G02*
X82175000Y-45235000I0J150000D01*
G01*
G37*
G36*
G01*
X82175000Y-46505000D02*
X82175000Y-46205000D01*
G75*
G02*
X82325000Y-46055000I150000J0D01*
G01*
X83625000Y-46055000D01*
G75*
G02*
X83775000Y-46205000I0J-150000D01*
G01*
X83775000Y-46505000D01*
G75*
G02*
X83625000Y-46655000I-150000J0D01*
G01*
X82325000Y-46655000D01*
G75*
G02*
X82175000Y-46505000I0J150000D01*
G01*
G37*
G36*
G01*
X74975000Y-46505000D02*
X74975000Y-46205000D01*
G75*
G02*
X75125000Y-46055000I150000J0D01*
G01*
X76425000Y-46055000D01*
G75*
G02*
X76575000Y-46205000I0J-150000D01*
G01*
X76575000Y-46505000D01*
G75*
G02*
X76425000Y-46655000I-150000J0D01*
G01*
X75125000Y-46655000D01*
G75*
G02*
X74975000Y-46505000I0J150000D01*
G01*
G37*
G36*
G01*
X74975000Y-45235000D02*
X74975000Y-44935000D01*
G75*
G02*
X75125000Y-44785000I150000J0D01*
G01*
X76425000Y-44785000D01*
G75*
G02*
X76575000Y-44935000I0J-150000D01*
G01*
X76575000Y-45235000D01*
G75*
G02*
X76425000Y-45385000I-150000J0D01*
G01*
X75125000Y-45385000D01*
G75*
G02*
X74975000Y-45235000I0J150000D01*
G01*
G37*
G36*
G01*
X74975000Y-43965000D02*
X74975000Y-43665000D01*
G75*
G02*
X75125000Y-43515000I150000J0D01*
G01*
X76425000Y-43515000D01*
G75*
G02*
X76575000Y-43665000I0J-150000D01*
G01*
X76575000Y-43965000D01*
G75*
G02*
X76425000Y-44115000I-150000J0D01*
G01*
X75125000Y-44115000D01*
G75*
G02*
X74975000Y-43965000I0J150000D01*
G01*
G37*
G36*
G01*
X74975000Y-42695000D02*
X74975000Y-42395000D01*
G75*
G02*
X75125000Y-42245000I150000J0D01*
G01*
X76425000Y-42245000D01*
G75*
G02*
X76575000Y-42395000I0J-150000D01*
G01*
X76575000Y-42695000D01*
G75*
G02*
X76425000Y-42845000I-150000J0D01*
G01*
X75125000Y-42845000D01*
G75*
G02*
X74975000Y-42695000I0J150000D01*
G01*
G37*
G36*
G01*
X68744000Y-28782000D02*
X68744000Y-27457000D01*
G75*
G02*
X68819000Y-27382000I75000J0D01*
G01*
X68969000Y-27382000D01*
G75*
G02*
X69044000Y-27457000I0J-75000D01*
G01*
X69044000Y-28782000D01*
G75*
G02*
X68969000Y-28857000I-75000J0D01*
G01*
X68819000Y-28857000D01*
G75*
G02*
X68744000Y-28782000I0J75000D01*
G01*
G37*
G36*
G01*
X69244000Y-28782000D02*
X69244000Y-27457000D01*
G75*
G02*
X69319000Y-27382000I75000J0D01*
G01*
X69469000Y-27382000D01*
G75*
G02*
X69544000Y-27457000I0J-75000D01*
G01*
X69544000Y-28782000D01*
G75*
G02*
X69469000Y-28857000I-75000J0D01*
G01*
X69319000Y-28857000D01*
G75*
G02*
X69244000Y-28782000I0J75000D01*
G01*
G37*
G36*
G01*
X69744000Y-28782000D02*
X69744000Y-27457000D01*
G75*
G02*
X69819000Y-27382000I75000J0D01*
G01*
X69969000Y-27382000D01*
G75*
G02*
X70044000Y-27457000I0J-75000D01*
G01*
X70044000Y-28782000D01*
G75*
G02*
X69969000Y-28857000I-75000J0D01*
G01*
X69819000Y-28857000D01*
G75*
G02*
X69744000Y-28782000I0J75000D01*
G01*
G37*
G36*
G01*
X70244000Y-28782000D02*
X70244000Y-27457000D01*
G75*
G02*
X70319000Y-27382000I75000J0D01*
G01*
X70469000Y-27382000D01*
G75*
G02*
X70544000Y-27457000I0J-75000D01*
G01*
X70544000Y-28782000D01*
G75*
G02*
X70469000Y-28857000I-75000J0D01*
G01*
X70319000Y-28857000D01*
G75*
G02*
X70244000Y-28782000I0J75000D01*
G01*
G37*
G36*
G01*
X70744000Y-28782000D02*
X70744000Y-27457000D01*
G75*
G02*
X70819000Y-27382000I75000J0D01*
G01*
X70969000Y-27382000D01*
G75*
G02*
X71044000Y-27457000I0J-75000D01*
G01*
X71044000Y-28782000D01*
G75*
G02*
X70969000Y-28857000I-75000J0D01*
G01*
X70819000Y-28857000D01*
G75*
G02*
X70744000Y-28782000I0J75000D01*
G01*
G37*
G36*
G01*
X71244000Y-28782000D02*
X71244000Y-27457000D01*
G75*
G02*
X71319000Y-27382000I75000J0D01*
G01*
X71469000Y-27382000D01*
G75*
G02*
X71544000Y-27457000I0J-75000D01*
G01*
X71544000Y-28782000D01*
G75*
G02*
X71469000Y-28857000I-75000J0D01*
G01*
X71319000Y-28857000D01*
G75*
G02*
X71244000Y-28782000I0J75000D01*
G01*
G37*
G36*
G01*
X71744000Y-28782000D02*
X71744000Y-27457000D01*
G75*
G02*
X71819000Y-27382000I75000J0D01*
G01*
X71969000Y-27382000D01*
G75*
G02*
X72044000Y-27457000I0J-75000D01*
G01*
X72044000Y-28782000D01*
G75*
G02*
X71969000Y-28857000I-75000J0D01*
G01*
X71819000Y-28857000D01*
G75*
G02*
X71744000Y-28782000I0J75000D01*
G01*
G37*
G36*
G01*
X72244000Y-28782000D02*
X72244000Y-27457000D01*
G75*
G02*
X72319000Y-27382000I75000J0D01*
G01*
X72469000Y-27382000D01*
G75*
G02*
X72544000Y-27457000I0J-75000D01*
G01*
X72544000Y-28782000D01*
G75*
G02*
X72469000Y-28857000I-75000J0D01*
G01*
X72319000Y-28857000D01*
G75*
G02*
X72244000Y-28782000I0J75000D01*
G01*
G37*
G36*
G01*
X72744000Y-28782000D02*
X72744000Y-27457000D01*
G75*
G02*
X72819000Y-27382000I75000J0D01*
G01*
X72969000Y-27382000D01*
G75*
G02*
X73044000Y-27457000I0J-75000D01*
G01*
X73044000Y-28782000D01*
G75*
G02*
X72969000Y-28857000I-75000J0D01*
G01*
X72819000Y-28857000D01*
G75*
G02*
X72744000Y-28782000I0J75000D01*
G01*
G37*
G36*
G01*
X73244000Y-28782000D02*
X73244000Y-27457000D01*
G75*
G02*
X73319000Y-27382000I75000J0D01*
G01*
X73469000Y-27382000D01*
G75*
G02*
X73544000Y-27457000I0J-75000D01*
G01*
X73544000Y-28782000D01*
G75*
G02*
X73469000Y-28857000I-75000J0D01*
G01*
X73319000Y-28857000D01*
G75*
G02*
X73244000Y-28782000I0J75000D01*
G01*
G37*
G36*
G01*
X73744000Y-28782000D02*
X73744000Y-27457000D01*
G75*
G02*
X73819000Y-27382000I75000J0D01*
G01*
X73969000Y-27382000D01*
G75*
G02*
X74044000Y-27457000I0J-75000D01*
G01*
X74044000Y-28782000D01*
G75*
G02*
X73969000Y-28857000I-75000J0D01*
G01*
X73819000Y-28857000D01*
G75*
G02*
X73744000Y-28782000I0J75000D01*
G01*
G37*
G36*
G01*
X74244000Y-28782000D02*
X74244000Y-27457000D01*
G75*
G02*
X74319000Y-27382000I75000J0D01*
G01*
X74469000Y-27382000D01*
G75*
G02*
X74544000Y-27457000I0J-75000D01*
G01*
X74544000Y-28782000D01*
G75*
G02*
X74469000Y-28857000I-75000J0D01*
G01*
X74319000Y-28857000D01*
G75*
G02*
X74244000Y-28782000I0J75000D01*
G01*
G37*
G36*
G01*
X74744000Y-28782000D02*
X74744000Y-27457000D01*
G75*
G02*
X74819000Y-27382000I75000J0D01*
G01*
X74969000Y-27382000D01*
G75*
G02*
X75044000Y-27457000I0J-75000D01*
G01*
X75044000Y-28782000D01*
G75*
G02*
X74969000Y-28857000I-75000J0D01*
G01*
X74819000Y-28857000D01*
G75*
G02*
X74744000Y-28782000I0J75000D01*
G01*
G37*
G36*
G01*
X75244000Y-28782000D02*
X75244000Y-27457000D01*
G75*
G02*
X75319000Y-27382000I75000J0D01*
G01*
X75469000Y-27382000D01*
G75*
G02*
X75544000Y-27457000I0J-75000D01*
G01*
X75544000Y-28782000D01*
G75*
G02*
X75469000Y-28857000I-75000J0D01*
G01*
X75319000Y-28857000D01*
G75*
G02*
X75244000Y-28782000I0J75000D01*
G01*
G37*
G36*
G01*
X75744000Y-28782000D02*
X75744000Y-27457000D01*
G75*
G02*
X75819000Y-27382000I75000J0D01*
G01*
X75969000Y-27382000D01*
G75*
G02*
X76044000Y-27457000I0J-75000D01*
G01*
X76044000Y-28782000D01*
G75*
G02*
X75969000Y-28857000I-75000J0D01*
G01*
X75819000Y-28857000D01*
G75*
G02*
X75744000Y-28782000I0J75000D01*
G01*
G37*
G36*
G01*
X76244000Y-28782000D02*
X76244000Y-27457000D01*
G75*
G02*
X76319000Y-27382000I75000J0D01*
G01*
X76469000Y-27382000D01*
G75*
G02*
X76544000Y-27457000I0J-75000D01*
G01*
X76544000Y-28782000D01*
G75*
G02*
X76469000Y-28857000I-75000J0D01*
G01*
X76319000Y-28857000D01*
G75*
G02*
X76244000Y-28782000I0J75000D01*
G01*
G37*
G36*
G01*
X77569000Y-30107000D02*
X77569000Y-29957000D01*
G75*
G02*
X77644000Y-29882000I75000J0D01*
G01*
X78969000Y-29882000D01*
G75*
G02*
X79044000Y-29957000I0J-75000D01*
G01*
X79044000Y-30107000D01*
G75*
G02*
X78969000Y-30182000I-75000J0D01*
G01*
X77644000Y-30182000D01*
G75*
G02*
X77569000Y-30107000I0J75000D01*
G01*
G37*
G36*
G01*
X77569000Y-30607000D02*
X77569000Y-30457000D01*
G75*
G02*
X77644000Y-30382000I75000J0D01*
G01*
X78969000Y-30382000D01*
G75*
G02*
X79044000Y-30457000I0J-75000D01*
G01*
X79044000Y-30607000D01*
G75*
G02*
X78969000Y-30682000I-75000J0D01*
G01*
X77644000Y-30682000D01*
G75*
G02*
X77569000Y-30607000I0J75000D01*
G01*
G37*
G36*
G01*
X77569000Y-31107000D02*
X77569000Y-30957000D01*
G75*
G02*
X77644000Y-30882000I75000J0D01*
G01*
X78969000Y-30882000D01*
G75*
G02*
X79044000Y-30957000I0J-75000D01*
G01*
X79044000Y-31107000D01*
G75*
G02*
X78969000Y-31182000I-75000J0D01*
G01*
X77644000Y-31182000D01*
G75*
G02*
X77569000Y-31107000I0J75000D01*
G01*
G37*
G36*
G01*
X77569000Y-31607000D02*
X77569000Y-31457000D01*
G75*
G02*
X77644000Y-31382000I75000J0D01*
G01*
X78969000Y-31382000D01*
G75*
G02*
X79044000Y-31457000I0J-75000D01*
G01*
X79044000Y-31607000D01*
G75*
G02*
X78969000Y-31682000I-75000J0D01*
G01*
X77644000Y-31682000D01*
G75*
G02*
X77569000Y-31607000I0J75000D01*
G01*
G37*
G36*
G01*
X77569000Y-32107000D02*
X77569000Y-31957000D01*
G75*
G02*
X77644000Y-31882000I75000J0D01*
G01*
X78969000Y-31882000D01*
G75*
G02*
X79044000Y-31957000I0J-75000D01*
G01*
X79044000Y-32107000D01*
G75*
G02*
X78969000Y-32182000I-75000J0D01*
G01*
X77644000Y-32182000D01*
G75*
G02*
X77569000Y-32107000I0J75000D01*
G01*
G37*
G36*
G01*
X77569000Y-32607000D02*
X77569000Y-32457000D01*
G75*
G02*
X77644000Y-32382000I75000J0D01*
G01*
X78969000Y-32382000D01*
G75*
G02*
X79044000Y-32457000I0J-75000D01*
G01*
X79044000Y-32607000D01*
G75*
G02*
X78969000Y-32682000I-75000J0D01*
G01*
X77644000Y-32682000D01*
G75*
G02*
X77569000Y-32607000I0J75000D01*
G01*
G37*
G36*
G01*
X77569000Y-33107000D02*
X77569000Y-32957000D01*
G75*
G02*
X77644000Y-32882000I75000J0D01*
G01*
X78969000Y-32882000D01*
G75*
G02*
X79044000Y-32957000I0J-75000D01*
G01*
X79044000Y-33107000D01*
G75*
G02*
X78969000Y-33182000I-75000J0D01*
G01*
X77644000Y-33182000D01*
G75*
G02*
X77569000Y-33107000I0J75000D01*
G01*
G37*
G36*
G01*
X77569000Y-33607000D02*
X77569000Y-33457000D01*
G75*
G02*
X77644000Y-33382000I75000J0D01*
G01*
X78969000Y-33382000D01*
G75*
G02*
X79044000Y-33457000I0J-75000D01*
G01*
X79044000Y-33607000D01*
G75*
G02*
X78969000Y-33682000I-75000J0D01*
G01*
X77644000Y-33682000D01*
G75*
G02*
X77569000Y-33607000I0J75000D01*
G01*
G37*
G36*
G01*
X77569000Y-34107000D02*
X77569000Y-33957000D01*
G75*
G02*
X77644000Y-33882000I75000J0D01*
G01*
X78969000Y-33882000D01*
G75*
G02*
X79044000Y-33957000I0J-75000D01*
G01*
X79044000Y-34107000D01*
G75*
G02*
X78969000Y-34182000I-75000J0D01*
G01*
X77644000Y-34182000D01*
G75*
G02*
X77569000Y-34107000I0J75000D01*
G01*
G37*
G36*
G01*
X77569000Y-34607000D02*
X77569000Y-34457000D01*
G75*
G02*
X77644000Y-34382000I75000J0D01*
G01*
X78969000Y-34382000D01*
G75*
G02*
X79044000Y-34457000I0J-75000D01*
G01*
X79044000Y-34607000D01*
G75*
G02*
X78969000Y-34682000I-75000J0D01*
G01*
X77644000Y-34682000D01*
G75*
G02*
X77569000Y-34607000I0J75000D01*
G01*
G37*
G36*
G01*
X77569000Y-35107000D02*
X77569000Y-34957000D01*
G75*
G02*
X77644000Y-34882000I75000J0D01*
G01*
X78969000Y-34882000D01*
G75*
G02*
X79044000Y-34957000I0J-75000D01*
G01*
X79044000Y-35107000D01*
G75*
G02*
X78969000Y-35182000I-75000J0D01*
G01*
X77644000Y-35182000D01*
G75*
G02*
X77569000Y-35107000I0J75000D01*
G01*
G37*
G36*
G01*
X77569000Y-35607000D02*
X77569000Y-35457000D01*
G75*
G02*
X77644000Y-35382000I75000J0D01*
G01*
X78969000Y-35382000D01*
G75*
G02*
X79044000Y-35457000I0J-75000D01*
G01*
X79044000Y-35607000D01*
G75*
G02*
X78969000Y-35682000I-75000J0D01*
G01*
X77644000Y-35682000D01*
G75*
G02*
X77569000Y-35607000I0J75000D01*
G01*
G37*
G36*
G01*
X77569000Y-36107000D02*
X77569000Y-35957000D01*
G75*
G02*
X77644000Y-35882000I75000J0D01*
G01*
X78969000Y-35882000D01*
G75*
G02*
X79044000Y-35957000I0J-75000D01*
G01*
X79044000Y-36107000D01*
G75*
G02*
X78969000Y-36182000I-75000J0D01*
G01*
X77644000Y-36182000D01*
G75*
G02*
X77569000Y-36107000I0J75000D01*
G01*
G37*
G36*
G01*
X77569000Y-36607000D02*
X77569000Y-36457000D01*
G75*
G02*
X77644000Y-36382000I75000J0D01*
G01*
X78969000Y-36382000D01*
G75*
G02*
X79044000Y-36457000I0J-75000D01*
G01*
X79044000Y-36607000D01*
G75*
G02*
X78969000Y-36682000I-75000J0D01*
G01*
X77644000Y-36682000D01*
G75*
G02*
X77569000Y-36607000I0J75000D01*
G01*
G37*
G36*
G01*
X77569000Y-37107000D02*
X77569000Y-36957000D01*
G75*
G02*
X77644000Y-36882000I75000J0D01*
G01*
X78969000Y-36882000D01*
G75*
G02*
X79044000Y-36957000I0J-75000D01*
G01*
X79044000Y-37107000D01*
G75*
G02*
X78969000Y-37182000I-75000J0D01*
G01*
X77644000Y-37182000D01*
G75*
G02*
X77569000Y-37107000I0J75000D01*
G01*
G37*
G36*
G01*
X77569000Y-37607000D02*
X77569000Y-37457000D01*
G75*
G02*
X77644000Y-37382000I75000J0D01*
G01*
X78969000Y-37382000D01*
G75*
G02*
X79044000Y-37457000I0J-75000D01*
G01*
X79044000Y-37607000D01*
G75*
G02*
X78969000Y-37682000I-75000J0D01*
G01*
X77644000Y-37682000D01*
G75*
G02*
X77569000Y-37607000I0J75000D01*
G01*
G37*
G36*
G01*
X76244000Y-40107000D02*
X76244000Y-38782000D01*
G75*
G02*
X76319000Y-38707000I75000J0D01*
G01*
X76469000Y-38707000D01*
G75*
G02*
X76544000Y-38782000I0J-75000D01*
G01*
X76544000Y-40107000D01*
G75*
G02*
X76469000Y-40182000I-75000J0D01*
G01*
X76319000Y-40182000D01*
G75*
G02*
X76244000Y-40107000I0J75000D01*
G01*
G37*
G36*
G01*
X75744000Y-40107000D02*
X75744000Y-38782000D01*
G75*
G02*
X75819000Y-38707000I75000J0D01*
G01*
X75969000Y-38707000D01*
G75*
G02*
X76044000Y-38782000I0J-75000D01*
G01*
X76044000Y-40107000D01*
G75*
G02*
X75969000Y-40182000I-75000J0D01*
G01*
X75819000Y-40182000D01*
G75*
G02*
X75744000Y-40107000I0J75000D01*
G01*
G37*
G36*
G01*
X75244000Y-40107000D02*
X75244000Y-38782000D01*
G75*
G02*
X75319000Y-38707000I75000J0D01*
G01*
X75469000Y-38707000D01*
G75*
G02*
X75544000Y-38782000I0J-75000D01*
G01*
X75544000Y-40107000D01*
G75*
G02*
X75469000Y-40182000I-75000J0D01*
G01*
X75319000Y-40182000D01*
G75*
G02*
X75244000Y-40107000I0J75000D01*
G01*
G37*
G36*
G01*
X74744000Y-40107000D02*
X74744000Y-38782000D01*
G75*
G02*
X74819000Y-38707000I75000J0D01*
G01*
X74969000Y-38707000D01*
G75*
G02*
X75044000Y-38782000I0J-75000D01*
G01*
X75044000Y-40107000D01*
G75*
G02*
X74969000Y-40182000I-75000J0D01*
G01*
X74819000Y-40182000D01*
G75*
G02*
X74744000Y-40107000I0J75000D01*
G01*
G37*
G36*
G01*
X74244000Y-40107000D02*
X74244000Y-38782000D01*
G75*
G02*
X74319000Y-38707000I75000J0D01*
G01*
X74469000Y-38707000D01*
G75*
G02*
X74544000Y-38782000I0J-75000D01*
G01*
X74544000Y-40107000D01*
G75*
G02*
X74469000Y-40182000I-75000J0D01*
G01*
X74319000Y-40182000D01*
G75*
G02*
X74244000Y-40107000I0J75000D01*
G01*
G37*
G36*
G01*
X73744000Y-40107000D02*
X73744000Y-38782000D01*
G75*
G02*
X73819000Y-38707000I75000J0D01*
G01*
X73969000Y-38707000D01*
G75*
G02*
X74044000Y-38782000I0J-75000D01*
G01*
X74044000Y-40107000D01*
G75*
G02*
X73969000Y-40182000I-75000J0D01*
G01*
X73819000Y-40182000D01*
G75*
G02*
X73744000Y-40107000I0J75000D01*
G01*
G37*
G36*
G01*
X73244000Y-40107000D02*
X73244000Y-38782000D01*
G75*
G02*
X73319000Y-38707000I75000J0D01*
G01*
X73469000Y-38707000D01*
G75*
G02*
X73544000Y-38782000I0J-75000D01*
G01*
X73544000Y-40107000D01*
G75*
G02*
X73469000Y-40182000I-75000J0D01*
G01*
X73319000Y-40182000D01*
G75*
G02*
X73244000Y-40107000I0J75000D01*
G01*
G37*
G36*
G01*
X72744000Y-40107000D02*
X72744000Y-38782000D01*
G75*
G02*
X72819000Y-38707000I75000J0D01*
G01*
X72969000Y-38707000D01*
G75*
G02*
X73044000Y-38782000I0J-75000D01*
G01*
X73044000Y-40107000D01*
G75*
G02*
X72969000Y-40182000I-75000J0D01*
G01*
X72819000Y-40182000D01*
G75*
G02*
X72744000Y-40107000I0J75000D01*
G01*
G37*
G36*
G01*
X72244000Y-40107000D02*
X72244000Y-38782000D01*
G75*
G02*
X72319000Y-38707000I75000J0D01*
G01*
X72469000Y-38707000D01*
G75*
G02*
X72544000Y-38782000I0J-75000D01*
G01*
X72544000Y-40107000D01*
G75*
G02*
X72469000Y-40182000I-75000J0D01*
G01*
X72319000Y-40182000D01*
G75*
G02*
X72244000Y-40107000I0J75000D01*
G01*
G37*
G36*
G01*
X71744000Y-40107000D02*
X71744000Y-38782000D01*
G75*
G02*
X71819000Y-38707000I75000J0D01*
G01*
X71969000Y-38707000D01*
G75*
G02*
X72044000Y-38782000I0J-75000D01*
G01*
X72044000Y-40107000D01*
G75*
G02*
X71969000Y-40182000I-75000J0D01*
G01*
X71819000Y-40182000D01*
G75*
G02*
X71744000Y-40107000I0J75000D01*
G01*
G37*
G36*
G01*
X71244000Y-40107000D02*
X71244000Y-38782000D01*
G75*
G02*
X71319000Y-38707000I75000J0D01*
G01*
X71469000Y-38707000D01*
G75*
G02*
X71544000Y-38782000I0J-75000D01*
G01*
X71544000Y-40107000D01*
G75*
G02*
X71469000Y-40182000I-75000J0D01*
G01*
X71319000Y-40182000D01*
G75*
G02*
X71244000Y-40107000I0J75000D01*
G01*
G37*
G36*
G01*
X70744000Y-40107000D02*
X70744000Y-38782000D01*
G75*
G02*
X70819000Y-38707000I75000J0D01*
G01*
X70969000Y-38707000D01*
G75*
G02*
X71044000Y-38782000I0J-75000D01*
G01*
X71044000Y-40107000D01*
G75*
G02*
X70969000Y-40182000I-75000J0D01*
G01*
X70819000Y-40182000D01*
G75*
G02*
X70744000Y-40107000I0J75000D01*
G01*
G37*
G36*
G01*
X70244000Y-40107000D02*
X70244000Y-38782000D01*
G75*
G02*
X70319000Y-38707000I75000J0D01*
G01*
X70469000Y-38707000D01*
G75*
G02*
X70544000Y-38782000I0J-75000D01*
G01*
X70544000Y-40107000D01*
G75*
G02*
X70469000Y-40182000I-75000J0D01*
G01*
X70319000Y-40182000D01*
G75*
G02*
X70244000Y-40107000I0J75000D01*
G01*
G37*
G36*
G01*
X69744000Y-40107000D02*
X69744000Y-38782000D01*
G75*
G02*
X69819000Y-38707000I75000J0D01*
G01*
X69969000Y-38707000D01*
G75*
G02*
X70044000Y-38782000I0J-75000D01*
G01*
X70044000Y-40107000D01*
G75*
G02*
X69969000Y-40182000I-75000J0D01*
G01*
X69819000Y-40182000D01*
G75*
G02*
X69744000Y-40107000I0J75000D01*
G01*
G37*
G36*
G01*
X69244000Y-40107000D02*
X69244000Y-38782000D01*
G75*
G02*
X69319000Y-38707000I75000J0D01*
G01*
X69469000Y-38707000D01*
G75*
G02*
X69544000Y-38782000I0J-75000D01*
G01*
X69544000Y-40107000D01*
G75*
G02*
X69469000Y-40182000I-75000J0D01*
G01*
X69319000Y-40182000D01*
G75*
G02*
X69244000Y-40107000I0J75000D01*
G01*
G37*
G36*
G01*
X68744000Y-40107000D02*
X68744000Y-38782000D01*
G75*
G02*
X68819000Y-38707000I75000J0D01*
G01*
X68969000Y-38707000D01*
G75*
G02*
X69044000Y-38782000I0J-75000D01*
G01*
X69044000Y-40107000D01*
G75*
G02*
X68969000Y-40182000I-75000J0D01*
G01*
X68819000Y-40182000D01*
G75*
G02*
X68744000Y-40107000I0J75000D01*
G01*
G37*
G36*
G01*
X66244000Y-37607000D02*
X66244000Y-37457000D01*
G75*
G02*
X66319000Y-37382000I75000J0D01*
G01*
X67644000Y-37382000D01*
G75*
G02*
X67719000Y-37457000I0J-75000D01*
G01*
X67719000Y-37607000D01*
G75*
G02*
X67644000Y-37682000I-75000J0D01*
G01*
X66319000Y-37682000D01*
G75*
G02*
X66244000Y-37607000I0J75000D01*
G01*
G37*
G36*
G01*
X66244000Y-37107000D02*
X66244000Y-36957000D01*
G75*
G02*
X66319000Y-36882000I75000J0D01*
G01*
X67644000Y-36882000D01*
G75*
G02*
X67719000Y-36957000I0J-75000D01*
G01*
X67719000Y-37107000D01*
G75*
G02*
X67644000Y-37182000I-75000J0D01*
G01*
X66319000Y-37182000D01*
G75*
G02*
X66244000Y-37107000I0J75000D01*
G01*
G37*
G36*
G01*
X66244000Y-36607000D02*
X66244000Y-36457000D01*
G75*
G02*
X66319000Y-36382000I75000J0D01*
G01*
X67644000Y-36382000D01*
G75*
G02*
X67719000Y-36457000I0J-75000D01*
G01*
X67719000Y-36607000D01*
G75*
G02*
X67644000Y-36682000I-75000J0D01*
G01*
X66319000Y-36682000D01*
G75*
G02*
X66244000Y-36607000I0J75000D01*
G01*
G37*
G36*
G01*
X66244000Y-36107000D02*
X66244000Y-35957000D01*
G75*
G02*
X66319000Y-35882000I75000J0D01*
G01*
X67644000Y-35882000D01*
G75*
G02*
X67719000Y-35957000I0J-75000D01*
G01*
X67719000Y-36107000D01*
G75*
G02*
X67644000Y-36182000I-75000J0D01*
G01*
X66319000Y-36182000D01*
G75*
G02*
X66244000Y-36107000I0J75000D01*
G01*
G37*
G36*
G01*
X66244000Y-35607000D02*
X66244000Y-35457000D01*
G75*
G02*
X66319000Y-35382000I75000J0D01*
G01*
X67644000Y-35382000D01*
G75*
G02*
X67719000Y-35457000I0J-75000D01*
G01*
X67719000Y-35607000D01*
G75*
G02*
X67644000Y-35682000I-75000J0D01*
G01*
X66319000Y-35682000D01*
G75*
G02*
X66244000Y-35607000I0J75000D01*
G01*
G37*
G36*
G01*
X66244000Y-35107000D02*
X66244000Y-34957000D01*
G75*
G02*
X66319000Y-34882000I75000J0D01*
G01*
X67644000Y-34882000D01*
G75*
G02*
X67719000Y-34957000I0J-75000D01*
G01*
X67719000Y-35107000D01*
G75*
G02*
X67644000Y-35182000I-75000J0D01*
G01*
X66319000Y-35182000D01*
G75*
G02*
X66244000Y-35107000I0J75000D01*
G01*
G37*
G36*
G01*
X66244000Y-34607000D02*
X66244000Y-34457000D01*
G75*
G02*
X66319000Y-34382000I75000J0D01*
G01*
X67644000Y-34382000D01*
G75*
G02*
X67719000Y-34457000I0J-75000D01*
G01*
X67719000Y-34607000D01*
G75*
G02*
X67644000Y-34682000I-75000J0D01*
G01*
X66319000Y-34682000D01*
G75*
G02*
X66244000Y-34607000I0J75000D01*
G01*
G37*
G36*
G01*
X66244000Y-34107000D02*
X66244000Y-33957000D01*
G75*
G02*
X66319000Y-33882000I75000J0D01*
G01*
X67644000Y-33882000D01*
G75*
G02*
X67719000Y-33957000I0J-75000D01*
G01*
X67719000Y-34107000D01*
G75*
G02*
X67644000Y-34182000I-75000J0D01*
G01*
X66319000Y-34182000D01*
G75*
G02*
X66244000Y-34107000I0J75000D01*
G01*
G37*
G36*
G01*
X66244000Y-33607000D02*
X66244000Y-33457000D01*
G75*
G02*
X66319000Y-33382000I75000J0D01*
G01*
X67644000Y-33382000D01*
G75*
G02*
X67719000Y-33457000I0J-75000D01*
G01*
X67719000Y-33607000D01*
G75*
G02*
X67644000Y-33682000I-75000J0D01*
G01*
X66319000Y-33682000D01*
G75*
G02*
X66244000Y-33607000I0J75000D01*
G01*
G37*
G36*
G01*
X66244000Y-33107000D02*
X66244000Y-32957000D01*
G75*
G02*
X66319000Y-32882000I75000J0D01*
G01*
X67644000Y-32882000D01*
G75*
G02*
X67719000Y-32957000I0J-75000D01*
G01*
X67719000Y-33107000D01*
G75*
G02*
X67644000Y-33182000I-75000J0D01*
G01*
X66319000Y-33182000D01*
G75*
G02*
X66244000Y-33107000I0J75000D01*
G01*
G37*
G36*
G01*
X66244000Y-32607000D02*
X66244000Y-32457000D01*
G75*
G02*
X66319000Y-32382000I75000J0D01*
G01*
X67644000Y-32382000D01*
G75*
G02*
X67719000Y-32457000I0J-75000D01*
G01*
X67719000Y-32607000D01*
G75*
G02*
X67644000Y-32682000I-75000J0D01*
G01*
X66319000Y-32682000D01*
G75*
G02*
X66244000Y-32607000I0J75000D01*
G01*
G37*
G36*
G01*
X66244000Y-32107000D02*
X66244000Y-31957000D01*
G75*
G02*
X66319000Y-31882000I75000J0D01*
G01*
X67644000Y-31882000D01*
G75*
G02*
X67719000Y-31957000I0J-75000D01*
G01*
X67719000Y-32107000D01*
G75*
G02*
X67644000Y-32182000I-75000J0D01*
G01*
X66319000Y-32182000D01*
G75*
G02*
X66244000Y-32107000I0J75000D01*
G01*
G37*
G36*
G01*
X66244000Y-31607000D02*
X66244000Y-31457000D01*
G75*
G02*
X66319000Y-31382000I75000J0D01*
G01*
X67644000Y-31382000D01*
G75*
G02*
X67719000Y-31457000I0J-75000D01*
G01*
X67719000Y-31607000D01*
G75*
G02*
X67644000Y-31682000I-75000J0D01*
G01*
X66319000Y-31682000D01*
G75*
G02*
X66244000Y-31607000I0J75000D01*
G01*
G37*
G36*
G01*
X66244000Y-31107000D02*
X66244000Y-30957000D01*
G75*
G02*
X66319000Y-30882000I75000J0D01*
G01*
X67644000Y-30882000D01*
G75*
G02*
X67719000Y-30957000I0J-75000D01*
G01*
X67719000Y-31107000D01*
G75*
G02*
X67644000Y-31182000I-75000J0D01*
G01*
X66319000Y-31182000D01*
G75*
G02*
X66244000Y-31107000I0J75000D01*
G01*
G37*
G36*
G01*
X66244000Y-30607000D02*
X66244000Y-30457000D01*
G75*
G02*
X66319000Y-30382000I75000J0D01*
G01*
X67644000Y-30382000D01*
G75*
G02*
X67719000Y-30457000I0J-75000D01*
G01*
X67719000Y-30607000D01*
G75*
G02*
X67644000Y-30682000I-75000J0D01*
G01*
X66319000Y-30682000D01*
G75*
G02*
X66244000Y-30607000I0J75000D01*
G01*
G37*
G36*
G01*
X66244000Y-30107000D02*
X66244000Y-29957000D01*
G75*
G02*
X66319000Y-29882000I75000J0D01*
G01*
X67644000Y-29882000D01*
G75*
G02*
X67719000Y-29957000I0J-75000D01*
G01*
X67719000Y-30107000D01*
G75*
G02*
X67644000Y-30182000I-75000J0D01*
G01*
X66319000Y-30182000D01*
G75*
G02*
X66244000Y-30107000I0J75000D01*
G01*
G37*
D10*
X55462000Y-43612000D03*
X55462000Y-46812000D03*
X60362000Y-43612000D03*
X60362000Y-46812000D03*
G36*
G01*
X59940000Y-28377000D02*
X59440000Y-28377000D01*
G75*
G02*
X59215000Y-28152000I0J225000D01*
G01*
X59215000Y-27702000D01*
G75*
G02*
X59440000Y-27477000I225000J0D01*
G01*
X59940000Y-27477000D01*
G75*
G02*
X60165000Y-27702000I0J-225000D01*
G01*
X60165000Y-28152000D01*
G75*
G02*
X59940000Y-28377000I-225000J0D01*
G01*
G37*
G36*
G01*
X59940000Y-29927000D02*
X59440000Y-29927000D01*
G75*
G02*
X59215000Y-29702000I0J225000D01*
G01*
X59215000Y-29252000D01*
G75*
G02*
X59440000Y-29027000I225000J0D01*
G01*
X59940000Y-29027000D01*
G75*
G02*
X60165000Y-29252000I0J-225000D01*
G01*
X60165000Y-29702000D01*
G75*
G02*
X59940000Y-29927000I-225000J0D01*
G01*
G37*
D11*
X63373000Y-30542000D03*
X63373000Y-28132000D03*
D12*
X71694000Y-45354000D03*
X71694000Y-44054000D03*
X73594000Y-44704000D03*
X73594000Y-44054000D03*
X73594000Y-45354000D03*
D13*
X57869000Y-31181000D03*
X57869000Y-33081000D03*
X55669000Y-33081000D03*
X55669000Y-32131000D03*
X55669000Y-31181000D03*
D14*
X41510500Y-36392500D03*
X41510500Y-37267500D03*
X40785500Y-37267500D03*
X40785500Y-36392500D03*
D15*
X41898000Y-38280000D03*
X41398000Y-38280000D03*
X40898000Y-38280000D03*
X40398000Y-38280000D03*
X40398000Y-35380000D03*
X40898000Y-35380000D03*
X41398000Y-35380000D03*
X41898000Y-35380000D03*
D16*
X52390000Y-38524000D03*
X54290000Y-38524000D03*
X54290000Y-40724000D03*
X53340000Y-40724000D03*
X52390000Y-40724000D03*
D17*
X89319000Y-34254000D03*
X81369000Y-34254000D03*
X89319000Y-29754000D03*
X81369000Y-29754000D03*
G36*
G01*
X63163000Y-41169000D02*
X63163000Y-40619000D01*
G75*
G02*
X63363000Y-40419000I200000J0D01*
G01*
X63763000Y-40419000D01*
G75*
G02*
X63963000Y-40619000I0J-200000D01*
G01*
X63963000Y-41169000D01*
G75*
G02*
X63763000Y-41369000I-200000J0D01*
G01*
X63363000Y-41369000D01*
G75*
G02*
X63163000Y-41169000I0J200000D01*
G01*
G37*
G36*
G01*
X61513000Y-41169000D02*
X61513000Y-40619000D01*
G75*
G02*
X61713000Y-40419000I200000J0D01*
G01*
X62113000Y-40419000D01*
G75*
G02*
X62313000Y-40619000I0J-200000D01*
G01*
X62313000Y-41169000D01*
G75*
G02*
X62113000Y-41369000I-200000J0D01*
G01*
X61713000Y-41369000D01*
G75*
G02*
X61513000Y-41169000I0J200000D01*
G01*
G37*
G36*
G01*
X73196000Y-47392000D02*
X73196000Y-46842000D01*
G75*
G02*
X73396000Y-46642000I200000J0D01*
G01*
X73796000Y-46642000D01*
G75*
G02*
X73996000Y-46842000I0J-200000D01*
G01*
X73996000Y-47392000D01*
G75*
G02*
X73796000Y-47592000I-200000J0D01*
G01*
X73396000Y-47592000D01*
G75*
G02*
X73196000Y-47392000I0J200000D01*
G01*
G37*
G36*
G01*
X71546000Y-47392000D02*
X71546000Y-46842000D01*
G75*
G02*
X71746000Y-46642000I200000J0D01*
G01*
X72146000Y-46642000D01*
G75*
G02*
X72346000Y-46842000I0J-200000D01*
G01*
X72346000Y-47392000D01*
G75*
G02*
X72146000Y-47592000I-200000J0D01*
G01*
X71746000Y-47592000D01*
G75*
G02*
X71546000Y-47392000I0J200000D01*
G01*
G37*
G36*
G01*
X59646000Y-38714000D02*
X59646000Y-39264000D01*
G75*
G02*
X59446000Y-39464000I-200000J0D01*
G01*
X59046000Y-39464000D01*
G75*
G02*
X58846000Y-39264000I0J200000D01*
G01*
X58846000Y-38714000D01*
G75*
G02*
X59046000Y-38514000I200000J0D01*
G01*
X59446000Y-38514000D01*
G75*
G02*
X59646000Y-38714000I0J-200000D01*
G01*
G37*
G36*
G01*
X61296000Y-38714000D02*
X61296000Y-39264000D01*
G75*
G02*
X61096000Y-39464000I-200000J0D01*
G01*
X60696000Y-39464000D01*
G75*
G02*
X60496000Y-39264000I0J200000D01*
G01*
X60496000Y-38714000D01*
G75*
G02*
X60696000Y-38514000I200000J0D01*
G01*
X61096000Y-38514000D01*
G75*
G02*
X61296000Y-38714000I0J-200000D01*
G01*
G37*
G36*
G01*
X66442000Y-39199000D02*
X65892000Y-39199000D01*
G75*
G02*
X65692000Y-38999000I0J200000D01*
G01*
X65692000Y-38599000D01*
G75*
G02*
X65892000Y-38399000I200000J0D01*
G01*
X66442000Y-38399000D01*
G75*
G02*
X66642000Y-38599000I0J-200000D01*
G01*
X66642000Y-38999000D01*
G75*
G02*
X66442000Y-39199000I-200000J0D01*
G01*
G37*
G36*
G01*
X66442000Y-40849000D02*
X65892000Y-40849000D01*
G75*
G02*
X65692000Y-40649000I0J200000D01*
G01*
X65692000Y-40249000D01*
G75*
G02*
X65892000Y-40049000I200000J0D01*
G01*
X66442000Y-40049000D01*
G75*
G02*
X66642000Y-40249000I0J-200000D01*
G01*
X66642000Y-40649000D01*
G75*
G02*
X66442000Y-40849000I-200000J0D01*
G01*
G37*
G36*
G01*
X80943000Y-27707000D02*
X80943000Y-27157000D01*
G75*
G02*
X81143000Y-26957000I200000J0D01*
G01*
X81543000Y-26957000D01*
G75*
G02*
X81743000Y-27157000I0J-200000D01*
G01*
X81743000Y-27707000D01*
G75*
G02*
X81543000Y-27907000I-200000J0D01*
G01*
X81143000Y-27907000D01*
G75*
G02*
X80943000Y-27707000I0J200000D01*
G01*
G37*
G36*
G01*
X79293000Y-27707000D02*
X79293000Y-27157000D01*
G75*
G02*
X79493000Y-26957000I200000J0D01*
G01*
X79893000Y-26957000D01*
G75*
G02*
X80093000Y-27157000I0J-200000D01*
G01*
X80093000Y-27707000D01*
G75*
G02*
X79893000Y-27907000I-200000J0D01*
G01*
X79493000Y-27907000D01*
G75*
G02*
X79293000Y-27707000I0J200000D01*
G01*
G37*
G36*
G01*
X86720000Y-40303000D02*
X87270000Y-40303000D01*
G75*
G02*
X87470000Y-40503000I0J-200000D01*
G01*
X87470000Y-40903000D01*
G75*
G02*
X87270000Y-41103000I-200000J0D01*
G01*
X86720000Y-41103000D01*
G75*
G02*
X86520000Y-40903000I0J200000D01*
G01*
X86520000Y-40503000D01*
G75*
G02*
X86720000Y-40303000I200000J0D01*
G01*
G37*
G36*
G01*
X86720000Y-38653000D02*
X87270000Y-38653000D01*
G75*
G02*
X87470000Y-38853000I0J-200000D01*
G01*
X87470000Y-39253000D01*
G75*
G02*
X87270000Y-39453000I-200000J0D01*
G01*
X86720000Y-39453000D01*
G75*
G02*
X86520000Y-39253000I0J200000D01*
G01*
X86520000Y-38853000D01*
G75*
G02*
X86720000Y-38653000I200000J0D01*
G01*
G37*
G36*
G01*
X59415000Y-35477000D02*
X59965000Y-35477000D01*
G75*
G02*
X60165000Y-35677000I0J-200000D01*
G01*
X60165000Y-36077000D01*
G75*
G02*
X59965000Y-36277000I-200000J0D01*
G01*
X59415000Y-36277000D01*
G75*
G02*
X59215000Y-36077000I0J200000D01*
G01*
X59215000Y-35677000D01*
G75*
G02*
X59415000Y-35477000I200000J0D01*
G01*
G37*
G36*
G01*
X59415000Y-33827000D02*
X59965000Y-33827000D01*
G75*
G02*
X60165000Y-34027000I0J-200000D01*
G01*
X60165000Y-34427000D01*
G75*
G02*
X59965000Y-34627000I-200000J0D01*
G01*
X59415000Y-34627000D01*
G75*
G02*
X59215000Y-34427000I0J200000D01*
G01*
X59215000Y-34027000D01*
G75*
G02*
X59415000Y-33827000I200000J0D01*
G01*
G37*
G36*
G01*
X43032000Y-35415000D02*
X43582000Y-35415000D01*
G75*
G02*
X43782000Y-35615000I0J-200000D01*
G01*
X43782000Y-36015000D01*
G75*
G02*
X43582000Y-36215000I-200000J0D01*
G01*
X43032000Y-36215000D01*
G75*
G02*
X42832000Y-36015000I0J200000D01*
G01*
X42832000Y-35615000D01*
G75*
G02*
X43032000Y-35415000I200000J0D01*
G01*
G37*
G36*
G01*
X43032000Y-37065000D02*
X43582000Y-37065000D01*
G75*
G02*
X43782000Y-37265000I0J-200000D01*
G01*
X43782000Y-37665000D01*
G75*
G02*
X43582000Y-37865000I-200000J0D01*
G01*
X43032000Y-37865000D01*
G75*
G02*
X42832000Y-37665000I0J200000D01*
G01*
X42832000Y-37265000D01*
G75*
G02*
X43032000Y-37065000I200000J0D01*
G01*
G37*
G36*
G01*
X46082000Y-39645000D02*
X46082000Y-39095000D01*
G75*
G02*
X46282000Y-38895000I200000J0D01*
G01*
X46682000Y-38895000D01*
G75*
G02*
X46882000Y-39095000I0J-200000D01*
G01*
X46882000Y-39645000D01*
G75*
G02*
X46682000Y-39845000I-200000J0D01*
G01*
X46282000Y-39845000D01*
G75*
G02*
X46082000Y-39645000I0J200000D01*
G01*
G37*
G36*
G01*
X44432000Y-39645000D02*
X44432000Y-39095000D01*
G75*
G02*
X44632000Y-38895000I200000J0D01*
G01*
X45032000Y-38895000D01*
G75*
G02*
X45232000Y-39095000I0J-200000D01*
G01*
X45232000Y-39645000D01*
G75*
G02*
X45032000Y-39845000I-200000J0D01*
G01*
X44632000Y-39845000D01*
G75*
G02*
X44432000Y-39645000I0J200000D01*
G01*
G37*
G36*
G01*
X52749000Y-30501000D02*
X52749000Y-29951000D01*
G75*
G02*
X52949000Y-29751000I200000J0D01*
G01*
X53349000Y-29751000D01*
G75*
G02*
X53549000Y-29951000I0J-200000D01*
G01*
X53549000Y-30501000D01*
G75*
G02*
X53349000Y-30701000I-200000J0D01*
G01*
X52949000Y-30701000D01*
G75*
G02*
X52749000Y-30501000I0J200000D01*
G01*
G37*
G36*
G01*
X51099000Y-30501000D02*
X51099000Y-29951000D01*
G75*
G02*
X51299000Y-29751000I200000J0D01*
G01*
X51699000Y-29751000D01*
G75*
G02*
X51899000Y-29951000I0J-200000D01*
G01*
X51899000Y-30501000D01*
G75*
G02*
X51699000Y-30701000I-200000J0D01*
G01*
X51299000Y-30701000D01*
G75*
G02*
X51099000Y-30501000I0J200000D01*
G01*
G37*
G36*
G01*
X50059000Y-26944000D02*
X49509000Y-26944000D01*
G75*
G02*
X49309000Y-26744000I0J200000D01*
G01*
X49309000Y-26344000D01*
G75*
G02*
X49509000Y-26144000I200000J0D01*
G01*
X50059000Y-26144000D01*
G75*
G02*
X50259000Y-26344000I0J-200000D01*
G01*
X50259000Y-26744000D01*
G75*
G02*
X50059000Y-26944000I-200000J0D01*
G01*
G37*
G36*
G01*
X50059000Y-28594000D02*
X49509000Y-28594000D01*
G75*
G02*
X49309000Y-28394000I0J200000D01*
G01*
X49309000Y-27994000D01*
G75*
G02*
X49509000Y-27794000I200000J0D01*
G01*
X50059000Y-27794000D01*
G75*
G02*
X50259000Y-27994000I0J-200000D01*
G01*
X50259000Y-28394000D01*
G75*
G02*
X50059000Y-28594000I-200000J0D01*
G01*
G37*
G36*
G01*
X52407000Y-36301000D02*
X52407000Y-36851000D01*
G75*
G02*
X52207000Y-37051000I-200000J0D01*
G01*
X51807000Y-37051000D01*
G75*
G02*
X51607000Y-36851000I0J200000D01*
G01*
X51607000Y-36301000D01*
G75*
G02*
X51807000Y-36101000I200000J0D01*
G01*
X52207000Y-36101000D01*
G75*
G02*
X52407000Y-36301000I0J-200000D01*
G01*
G37*
G36*
G01*
X54057000Y-36301000D02*
X54057000Y-36851000D01*
G75*
G02*
X53857000Y-37051000I-200000J0D01*
G01*
X53457000Y-37051000D01*
G75*
G02*
X53257000Y-36851000I0J200000D01*
G01*
X53257000Y-36301000D01*
G75*
G02*
X53457000Y-36101000I200000J0D01*
G01*
X53857000Y-36101000D01*
G75*
G02*
X54057000Y-36301000I0J-200000D01*
G01*
G37*
G36*
G01*
X42185000Y-41676000D02*
X41635000Y-41676000D01*
G75*
G02*
X41435000Y-41476000I0J200000D01*
G01*
X41435000Y-41076000D01*
G75*
G02*
X41635000Y-40876000I200000J0D01*
G01*
X42185000Y-40876000D01*
G75*
G02*
X42385000Y-41076000I0J-200000D01*
G01*
X42385000Y-41476000D01*
G75*
G02*
X42185000Y-41676000I-200000J0D01*
G01*
G37*
G36*
G01*
X42185000Y-43326000D02*
X41635000Y-43326000D01*
G75*
G02*
X41435000Y-43126000I0J200000D01*
G01*
X41435000Y-42726000D01*
G75*
G02*
X41635000Y-42526000I200000J0D01*
G01*
X42185000Y-42526000D01*
G75*
G02*
X42385000Y-42726000I0J-200000D01*
G01*
X42385000Y-43126000D01*
G75*
G02*
X42185000Y-43326000I-200000J0D01*
G01*
G37*
D18*
X51578000Y-33274000D03*
X53578000Y-32324000D03*
X53578000Y-34224000D03*
D19*
X63627000Y-38650000D03*
X62727000Y-38650000D03*
X62727000Y-37828000D03*
X64527000Y-37828000D03*
X64527000Y-38650000D03*
D20*
X62965000Y-36576000D03*
X64289000Y-36576000D03*
X63627000Y-37238000D03*
X63627000Y-35914000D03*
G36*
G01*
X60914500Y-34099000D02*
X61259500Y-34099000D01*
G75*
G02*
X61407000Y-34246500I0J-147500D01*
G01*
X61407000Y-34541500D01*
G75*
G02*
X61259500Y-34689000I-147500J0D01*
G01*
X60914500Y-34689000D01*
G75*
G02*
X60767000Y-34541500I0J147500D01*
G01*
X60767000Y-34246500D01*
G75*
G02*
X60914500Y-34099000I147500J0D01*
G01*
G37*
G36*
G01*
X60914500Y-33129000D02*
X61259500Y-33129000D01*
G75*
G02*
X61407000Y-33276500I0J-147500D01*
G01*
X61407000Y-33571500D01*
G75*
G02*
X61259500Y-33719000I-147500J0D01*
G01*
X60914500Y-33719000D01*
G75*
G02*
X60767000Y-33571500I0J147500D01*
G01*
X60767000Y-33276500D01*
G75*
G02*
X60914500Y-33129000I147500J0D01*
G01*
G37*
G36*
G01*
X47511000Y-36381000D02*
X47511000Y-34231000D01*
G75*
G02*
X47761000Y-33981000I250000J0D01*
G01*
X48511000Y-33981000D01*
G75*
G02*
X48761000Y-34231000I0J-250000D01*
G01*
X48761000Y-36381000D01*
G75*
G02*
X48511000Y-36631000I-250000J0D01*
G01*
X47761000Y-36631000D01*
G75*
G02*
X47511000Y-36381000I0J250000D01*
G01*
G37*
G36*
G01*
X44711000Y-36381000D02*
X44711000Y-34231000D01*
G75*
G02*
X44961000Y-33981000I250000J0D01*
G01*
X45711000Y-33981000D01*
G75*
G02*
X45961000Y-34231000I0J-250000D01*
G01*
X45961000Y-36381000D01*
G75*
G02*
X45711000Y-36631000I-250000J0D01*
G01*
X44961000Y-36631000D01*
G75*
G02*
X44711000Y-36381000I0J250000D01*
G01*
G37*
D21*
X42134000Y-32126000D03*
X42784000Y-32126000D03*
X43434000Y-32126000D03*
X44084000Y-32126000D03*
X44734000Y-32126000D03*
D10*
X63336000Y-43612000D03*
X63336000Y-46812000D03*
X68236000Y-43612000D03*
X68236000Y-46812000D03*
D22*
X85483000Y-36957000D03*
X86983000Y-36957000D03*
G36*
G01*
X59946250Y-31628500D02*
X59433750Y-31628500D01*
G75*
G02*
X59215000Y-31409750I0J218750D01*
G01*
X59215000Y-30972250D01*
G75*
G02*
X59433750Y-30753500I218750J0D01*
G01*
X59946250Y-30753500D01*
G75*
G02*
X60165000Y-30972250I0J-218750D01*
G01*
X60165000Y-31409750D01*
G75*
G02*
X59946250Y-31628500I-218750J0D01*
G01*
G37*
G36*
G01*
X59946250Y-33203500D02*
X59433750Y-33203500D01*
G75*
G02*
X59215000Y-32984750I0J218750D01*
G01*
X59215000Y-32547250D01*
G75*
G02*
X59433750Y-32328500I218750J0D01*
G01*
X59946250Y-32328500D01*
G75*
G02*
X60165000Y-32547250I0J-218750D01*
G01*
X60165000Y-32984750D01*
G75*
G02*
X59946250Y-33203500I-218750J0D01*
G01*
G37*
G36*
G01*
X50040250Y-30638000D02*
X49527750Y-30638000D01*
G75*
G02*
X49309000Y-30419250I0J218750D01*
G01*
X49309000Y-29981750D01*
G75*
G02*
X49527750Y-29763000I218750J0D01*
G01*
X50040250Y-29763000D01*
G75*
G02*
X50259000Y-29981750I0J-218750D01*
G01*
X50259000Y-30419250D01*
G75*
G02*
X50040250Y-30638000I-218750J0D01*
G01*
G37*
G36*
G01*
X50040250Y-32213000D02*
X49527750Y-32213000D01*
G75*
G02*
X49309000Y-31994250I0J218750D01*
G01*
X49309000Y-31556750D01*
G75*
G02*
X49527750Y-31338000I218750J0D01*
G01*
X50040250Y-31338000D01*
G75*
G02*
X50259000Y-31556750I0J-218750D01*
G01*
X50259000Y-31994250D01*
G75*
G02*
X50040250Y-32213000I-218750J0D01*
G01*
G37*
D23*
X52610000Y-27686000D03*
X56610000Y-27686000D03*
G36*
G01*
X40388250Y-41788500D02*
X39875750Y-41788500D01*
G75*
G02*
X39657000Y-41569750I0J218750D01*
G01*
X39657000Y-41132250D01*
G75*
G02*
X39875750Y-40913500I218750J0D01*
G01*
X40388250Y-40913500D01*
G75*
G02*
X40607000Y-41132250I0J-218750D01*
G01*
X40607000Y-41569750D01*
G75*
G02*
X40388250Y-41788500I-218750J0D01*
G01*
G37*
G36*
G01*
X40388250Y-43363500D02*
X39875750Y-43363500D01*
G75*
G02*
X39657000Y-43144750I0J218750D01*
G01*
X39657000Y-42707250D01*
G75*
G02*
X39875750Y-42488500I218750J0D01*
G01*
X40388250Y-42488500D01*
G75*
G02*
X40607000Y-42707250I0J-218750D01*
G01*
X40607000Y-43144750D01*
G75*
G02*
X40388250Y-43363500I-218750J0D01*
G01*
G37*
G36*
G01*
X63048000Y-26293000D02*
X63048000Y-26793000D01*
G75*
G02*
X62823000Y-27018000I-225000J0D01*
G01*
X62373000Y-27018000D01*
G75*
G02*
X62148000Y-26793000I0J225000D01*
G01*
X62148000Y-26293000D01*
G75*
G02*
X62373000Y-26068000I225000J0D01*
G01*
X62823000Y-26068000D01*
G75*
G02*
X63048000Y-26293000I0J-225000D01*
G01*
G37*
G36*
G01*
X64598000Y-26293000D02*
X64598000Y-26793000D01*
G75*
G02*
X64373000Y-27018000I-225000J0D01*
G01*
X63923000Y-27018000D01*
G75*
G02*
X63698000Y-26793000I0J225000D01*
G01*
X63698000Y-26293000D01*
G75*
G02*
X63923000Y-26068000I225000J0D01*
G01*
X64373000Y-26068000D01*
G75*
G02*
X64598000Y-26293000I0J-225000D01*
G01*
G37*
G36*
G01*
X63698000Y-32635000D02*
X63698000Y-32135000D01*
G75*
G02*
X63923000Y-31910000I225000J0D01*
G01*
X64373000Y-31910000D01*
G75*
G02*
X64598000Y-32135000I0J-225000D01*
G01*
X64598000Y-32635000D01*
G75*
G02*
X64373000Y-32860000I-225000J0D01*
G01*
X63923000Y-32860000D01*
G75*
G02*
X63698000Y-32635000I0J225000D01*
G01*
G37*
G36*
G01*
X62148000Y-32635000D02*
X62148000Y-32135000D01*
G75*
G02*
X62373000Y-31910000I225000J0D01*
G01*
X62823000Y-31910000D01*
G75*
G02*
X63048000Y-32135000I0J-225000D01*
G01*
X63048000Y-32635000D01*
G75*
G02*
X62823000Y-32860000I-225000J0D01*
G01*
X62373000Y-32860000D01*
G75*
G02*
X62148000Y-32635000I0J225000D01*
G01*
G37*
G36*
G01*
X61384000Y-36630000D02*
X61044000Y-36630000D01*
G75*
G02*
X60904000Y-36490000I0J140000D01*
G01*
X60904000Y-36210000D01*
G75*
G02*
X61044000Y-36070000I140000J0D01*
G01*
X61384000Y-36070000D01*
G75*
G02*
X61524000Y-36210000I0J-140000D01*
G01*
X61524000Y-36490000D01*
G75*
G02*
X61384000Y-36630000I-140000J0D01*
G01*
G37*
G36*
G01*
X61384000Y-37590000D02*
X61044000Y-37590000D01*
G75*
G02*
X60904000Y-37450000I0J140000D01*
G01*
X60904000Y-37170000D01*
G75*
G02*
X61044000Y-37030000I140000J0D01*
G01*
X61384000Y-37030000D01*
G75*
G02*
X61524000Y-37170000I0J-140000D01*
G01*
X61524000Y-37450000D01*
G75*
G02*
X61384000Y-37590000I-140000J0D01*
G01*
G37*
G36*
G01*
X58192000Y-37168000D02*
X58192000Y-37508000D01*
G75*
G02*
X58052000Y-37648000I-140000J0D01*
G01*
X57772000Y-37648000D01*
G75*
G02*
X57632000Y-37508000I0J140000D01*
G01*
X57632000Y-37168000D01*
G75*
G02*
X57772000Y-37028000I140000J0D01*
G01*
X58052000Y-37028000D01*
G75*
G02*
X58192000Y-37168000I0J-140000D01*
G01*
G37*
G36*
G01*
X59152000Y-37168000D02*
X59152000Y-37508000D01*
G75*
G02*
X59012000Y-37648000I-140000J0D01*
G01*
X58732000Y-37648000D01*
G75*
G02*
X58592000Y-37508000I0J140000D01*
G01*
X58592000Y-37168000D01*
G75*
G02*
X58732000Y-37028000I140000J0D01*
G01*
X59012000Y-37028000D01*
G75*
G02*
X59152000Y-37168000I0J-140000D01*
G01*
G37*
G36*
G01*
X63653000Y-34501000D02*
X63653000Y-34841000D01*
G75*
G02*
X63513000Y-34981000I-140000J0D01*
G01*
X63233000Y-34981000D01*
G75*
G02*
X63093000Y-34841000I0J140000D01*
G01*
X63093000Y-34501000D01*
G75*
G02*
X63233000Y-34361000I140000J0D01*
G01*
X63513000Y-34361000D01*
G75*
G02*
X63653000Y-34501000I0J-140000D01*
G01*
G37*
G36*
G01*
X64613000Y-34501000D02*
X64613000Y-34841000D01*
G75*
G02*
X64473000Y-34981000I-140000J0D01*
G01*
X64193000Y-34981000D01*
G75*
G02*
X64053000Y-34841000I0J140000D01*
G01*
X64053000Y-34501000D01*
G75*
G02*
X64193000Y-34361000I140000J0D01*
G01*
X64473000Y-34361000D01*
G75*
G02*
X64613000Y-34501000I0J-140000D01*
G01*
G37*
G36*
G01*
X64053000Y-33825000D02*
X64053000Y-33485000D01*
G75*
G02*
X64193000Y-33345000I140000J0D01*
G01*
X64473000Y-33345000D01*
G75*
G02*
X64613000Y-33485000I0J-140000D01*
G01*
X64613000Y-33825000D01*
G75*
G02*
X64473000Y-33965000I-140000J0D01*
G01*
X64193000Y-33965000D01*
G75*
G02*
X64053000Y-33825000I0J140000D01*
G01*
G37*
G36*
G01*
X63093000Y-33825000D02*
X63093000Y-33485000D01*
G75*
G02*
X63233000Y-33345000I140000J0D01*
G01*
X63513000Y-33345000D01*
G75*
G02*
X63653000Y-33485000I0J-140000D01*
G01*
X63653000Y-33825000D01*
G75*
G02*
X63513000Y-33965000I-140000J0D01*
G01*
X63233000Y-33965000D01*
G75*
G02*
X63093000Y-33825000I0J140000D01*
G01*
G37*
G36*
G01*
X73479000Y-26332000D02*
X73479000Y-25992000D01*
G75*
G02*
X73619000Y-25852000I140000J0D01*
G01*
X73899000Y-25852000D01*
G75*
G02*
X74039000Y-25992000I0J-140000D01*
G01*
X74039000Y-26332000D01*
G75*
G02*
X73899000Y-26472000I-140000J0D01*
G01*
X73619000Y-26472000D01*
G75*
G02*
X73479000Y-26332000I0J140000D01*
G01*
G37*
G36*
G01*
X72519000Y-26332000D02*
X72519000Y-25992000D01*
G75*
G02*
X72659000Y-25852000I140000J0D01*
G01*
X72939000Y-25852000D01*
G75*
G02*
X73079000Y-25992000I0J-140000D01*
G01*
X73079000Y-26332000D01*
G75*
G02*
X72939000Y-26472000I-140000J0D01*
G01*
X72659000Y-26472000D01*
G75*
G02*
X72519000Y-26332000I0J140000D01*
G01*
G37*
G36*
G01*
X68916000Y-41105000D02*
X68916000Y-41445000D01*
G75*
G02*
X68776000Y-41585000I-140000J0D01*
G01*
X68496000Y-41585000D01*
G75*
G02*
X68356000Y-41445000I0J140000D01*
G01*
X68356000Y-41105000D01*
G75*
G02*
X68496000Y-40965000I140000J0D01*
G01*
X68776000Y-40965000D01*
G75*
G02*
X68916000Y-41105000I0J-140000D01*
G01*
G37*
G36*
G01*
X69876000Y-41105000D02*
X69876000Y-41445000D01*
G75*
G02*
X69736000Y-41585000I-140000J0D01*
G01*
X69456000Y-41585000D01*
G75*
G02*
X69316000Y-41445000I0J140000D01*
G01*
X69316000Y-41105000D01*
G75*
G02*
X69456000Y-40965000I140000J0D01*
G01*
X69736000Y-40965000D01*
G75*
G02*
X69876000Y-41105000I0J-140000D01*
G01*
G37*
G36*
G01*
X80348000Y-38046000D02*
X80688000Y-38046000D01*
G75*
G02*
X80828000Y-38186000I0J-140000D01*
G01*
X80828000Y-38466000D01*
G75*
G02*
X80688000Y-38606000I-140000J0D01*
G01*
X80348000Y-38606000D01*
G75*
G02*
X80208000Y-38466000I0J140000D01*
G01*
X80208000Y-38186000D01*
G75*
G02*
X80348000Y-38046000I140000J0D01*
G01*
G37*
G36*
G01*
X80348000Y-37086000D02*
X80688000Y-37086000D01*
G75*
G02*
X80828000Y-37226000I0J-140000D01*
G01*
X80828000Y-37506000D01*
G75*
G02*
X80688000Y-37646000I-140000J0D01*
G01*
X80348000Y-37646000D01*
G75*
G02*
X80208000Y-37506000I0J140000D01*
G01*
X80208000Y-37226000D01*
G75*
G02*
X80348000Y-37086000I140000J0D01*
G01*
G37*
G36*
G01*
X70793000Y-25992000D02*
X70793000Y-26332000D01*
G75*
G02*
X70653000Y-26472000I-140000J0D01*
G01*
X70373000Y-26472000D01*
G75*
G02*
X70233000Y-26332000I0J140000D01*
G01*
X70233000Y-25992000D01*
G75*
G02*
X70373000Y-25852000I140000J0D01*
G01*
X70653000Y-25852000D01*
G75*
G02*
X70793000Y-25992000I0J-140000D01*
G01*
G37*
G36*
G01*
X71753000Y-25992000D02*
X71753000Y-26332000D01*
G75*
G02*
X71613000Y-26472000I-140000J0D01*
G01*
X71333000Y-26472000D01*
G75*
G02*
X71193000Y-26332000I0J140000D01*
G01*
X71193000Y-25992000D01*
G75*
G02*
X71333000Y-25852000I140000J0D01*
G01*
X71613000Y-25852000D01*
G75*
G02*
X71753000Y-25992000I0J-140000D01*
G01*
G37*
G36*
G01*
X72207000Y-41652000D02*
X72207000Y-41152000D01*
G75*
G02*
X72432000Y-40927000I225000J0D01*
G01*
X72882000Y-40927000D01*
G75*
G02*
X73107000Y-41152000I0J-225000D01*
G01*
X73107000Y-41652000D01*
G75*
G02*
X72882000Y-41877000I-225000J0D01*
G01*
X72432000Y-41877000D01*
G75*
G02*
X72207000Y-41652000I0J225000D01*
G01*
G37*
G36*
G01*
X70657000Y-41652000D02*
X70657000Y-41152000D01*
G75*
G02*
X70882000Y-40927000I225000J0D01*
G01*
X71332000Y-40927000D01*
G75*
G02*
X71557000Y-41152000I0J-225000D01*
G01*
X71557000Y-41652000D01*
G75*
G02*
X71332000Y-41877000I-225000J0D01*
G01*
X70882000Y-41877000D01*
G75*
G02*
X70657000Y-41652000I0J225000D01*
G01*
G37*
G36*
G01*
X46402500Y-42004000D02*
X46402500Y-41054000D01*
G75*
G02*
X46652500Y-40804000I250000J0D01*
G01*
X47327500Y-40804000D01*
G75*
G02*
X47577500Y-41054000I0J-250000D01*
G01*
X47577500Y-42004000D01*
G75*
G02*
X47327500Y-42254000I-250000J0D01*
G01*
X46652500Y-42254000D01*
G75*
G02*
X46402500Y-42004000I0J250000D01*
G01*
G37*
G36*
G01*
X44327500Y-42004000D02*
X44327500Y-41054000D01*
G75*
G02*
X44577500Y-40804000I250000J0D01*
G01*
X45252500Y-40804000D01*
G75*
G02*
X45502500Y-41054000I0J-250000D01*
G01*
X45502500Y-42004000D01*
G75*
G02*
X45252500Y-42254000I-250000J0D01*
G01*
X44577500Y-42254000D01*
G75*
G02*
X44327500Y-42004000I0J250000D01*
G01*
G37*
G36*
G01*
X49563000Y-42973500D02*
X50513000Y-42973500D01*
G75*
G02*
X50763000Y-43223500I0J-250000D01*
G01*
X50763000Y-43898500D01*
G75*
G02*
X50513000Y-44148500I-250000J0D01*
G01*
X49563000Y-44148500D01*
G75*
G02*
X49313000Y-43898500I0J250000D01*
G01*
X49313000Y-43223500D01*
G75*
G02*
X49563000Y-42973500I250000J0D01*
G01*
G37*
G36*
G01*
X49563000Y-40898500D02*
X50513000Y-40898500D01*
G75*
G02*
X50763000Y-41148500I0J-250000D01*
G01*
X50763000Y-41823500D01*
G75*
G02*
X50513000Y-42073500I-250000J0D01*
G01*
X49563000Y-42073500D01*
G75*
G02*
X49313000Y-41823500I0J250000D01*
G01*
X49313000Y-41148500D01*
G75*
G02*
X49563000Y-40898500I250000J0D01*
G01*
G37*
G36*
G01*
X56825000Y-34929000D02*
X56825000Y-35429000D01*
G75*
G02*
X56600000Y-35654000I-225000J0D01*
G01*
X56150000Y-35654000D01*
G75*
G02*
X55925000Y-35429000I0J225000D01*
G01*
X55925000Y-34929000D01*
G75*
G02*
X56150000Y-34704000I225000J0D01*
G01*
X56600000Y-34704000D01*
G75*
G02*
X56825000Y-34929000I0J-225000D01*
G01*
G37*
G36*
G01*
X58375000Y-34929000D02*
X58375000Y-35429000D01*
G75*
G02*
X58150000Y-35654000I-225000J0D01*
G01*
X57700000Y-35654000D01*
G75*
G02*
X57475000Y-35429000I0J225000D01*
G01*
X57475000Y-34929000D01*
G75*
G02*
X57700000Y-34704000I225000J0D01*
G01*
X58150000Y-34704000D01*
G75*
G02*
X58375000Y-34929000I0J-225000D01*
G01*
G37*
G36*
G01*
X49704500Y-38575000D02*
X49704500Y-37625000D01*
G75*
G02*
X49954500Y-37375000I250000J0D01*
G01*
X50629500Y-37375000D01*
G75*
G02*
X50879500Y-37625000I0J-250000D01*
G01*
X50879500Y-38575000D01*
G75*
G02*
X50629500Y-38825000I-250000J0D01*
G01*
X49954500Y-38825000D01*
G75*
G02*
X49704500Y-38575000I0J250000D01*
G01*
G37*
G36*
G01*
X47629500Y-38575000D02*
X47629500Y-37625000D01*
G75*
G02*
X47879500Y-37375000I250000J0D01*
G01*
X48554500Y-37375000D01*
G75*
G02*
X48804500Y-37625000I0J-250000D01*
G01*
X48804500Y-38575000D01*
G75*
G02*
X48554500Y-38825000I-250000J0D01*
G01*
X47879500Y-38825000D01*
G75*
G02*
X47629500Y-38575000I0J250000D01*
G01*
G37*
G36*
G01*
X56138000Y-39949000D02*
X56638000Y-39949000D01*
G75*
G02*
X56863000Y-40174000I0J-225000D01*
G01*
X56863000Y-40624000D01*
G75*
G02*
X56638000Y-40849000I-225000J0D01*
G01*
X56138000Y-40849000D01*
G75*
G02*
X55913000Y-40624000I0J225000D01*
G01*
X55913000Y-40174000D01*
G75*
G02*
X56138000Y-39949000I225000J0D01*
G01*
G37*
G36*
G01*
X56138000Y-38399000D02*
X56638000Y-38399000D01*
G75*
G02*
X56863000Y-38624000I0J-225000D01*
G01*
X56863000Y-39074000D01*
G75*
G02*
X56638000Y-39299000I-225000J0D01*
G01*
X56138000Y-39299000D01*
G75*
G02*
X55913000Y-39074000I0J225000D01*
G01*
X55913000Y-38624000D01*
G75*
G02*
X56138000Y-38399000I225000J0D01*
G01*
G37*
M02*
