%FSLAX45Y45*%
G04 Gerber Fmt 4.5, Leading zero omitted, Abs format (unit mm)*
G04 Created by KiCad (PCBNEW 5.1.10-88a1d61d58~90~ubuntu20.04.1) date 2022-01-29 20:14:57*
%MOMM*%
%LPD*%
G01*
G04 APERTURE LIST*
%TA.AperFunction,Profile*%
%ADD10C,0.038100*%
%TD*%
%ADD11C,0.200000*%
%ADD12C,0.300000*%
G04 APERTURE END LIST*
D10*
X3800000Y-2700000D02*
X3800000Y-4600000D01*
X9000000Y-2500000D02*
X4000000Y-2500000D01*
X9200000Y-4600000D02*
X9200000Y-2700000D01*
X4000000Y-4800000D02*
X9000000Y-4800000D01*
X3800000Y-2700000D02*
G75*
G02*
X4000000Y-2500000I200000J0D01*
G01*
X9000000Y-2500000D02*
G75*
G02*
X9200000Y-2700000I0J-200000D01*
G01*
X9200000Y-4600000D02*
G75*
G02*
X9000000Y-4800000I-200000J0D01*
G01*
X4000000Y-4800000D02*
G75*
G02*
X3800000Y-4600000I0J200000D01*
G01*
D11*
X4023600Y-3947400D02*
X4053600Y-3977400D01*
X4053600Y-3947400D02*
X4023600Y-3977400D01*
X4252200Y-2944100D02*
X4282200Y-2974100D01*
X4282200Y-2944100D02*
X4252200Y-2974100D01*
X4366500Y-3477500D02*
X4396500Y-3507500D01*
X4396500Y-3477500D02*
X4366500Y-3507500D01*
X4658600Y-3566400D02*
X4688600Y-3596400D01*
X4688600Y-3566400D02*
X4658600Y-3596400D01*
X4722100Y-4404600D02*
X4752100Y-4434600D01*
X4752100Y-4404600D02*
X4722100Y-4434600D01*
X4823700Y-3998200D02*
X4853700Y-4028200D01*
X4853700Y-3998200D02*
X4823700Y-4028200D01*
X4823700Y-4150600D02*
X4853700Y-4180600D01*
X4853700Y-4150600D02*
X4823700Y-4180600D01*
X4912600Y-3312400D02*
X4942600Y-3342400D01*
X4942600Y-3312400D02*
X4912600Y-3342400D01*
X4950700Y-3604500D02*
X4980700Y-3634500D01*
X4980700Y-3604500D02*
X4950700Y-3634500D01*
X5026900Y-3972800D02*
X5056900Y-4002800D01*
X5056900Y-3972800D02*
X5026900Y-4002800D01*
X5128500Y-2601200D02*
X5158500Y-2631200D01*
X5158500Y-2601200D02*
X5128500Y-2631200D01*
X5166600Y-3464800D02*
X5196600Y-3494800D01*
X5196600Y-3464800D02*
X5166600Y-3494800D01*
X5166600Y-4315700D02*
X5196600Y-4345700D01*
X5196600Y-4315700D02*
X5166600Y-4345700D01*
X5280900Y-3121900D02*
X5310900Y-3151900D01*
X5310900Y-3121900D02*
X5280900Y-3151900D01*
X5763500Y-3883900D02*
X5793500Y-3913900D01*
X5793500Y-3883900D02*
X5763500Y-3913900D01*
X5827000Y-4137900D02*
X5857000Y-4167900D01*
X5857000Y-4137900D02*
X5827000Y-4167900D01*
X5827000Y-4544300D02*
X5857000Y-4574300D01*
X5857000Y-4544300D02*
X5827000Y-4574300D01*
X5979400Y-4023600D02*
X6009400Y-4053600D01*
X6009400Y-4023600D02*
X5979400Y-4053600D01*
X6042900Y-3782300D02*
X6072900Y-3812300D01*
X6072900Y-3782300D02*
X6042900Y-3812300D01*
X6093700Y-3109200D02*
X6123700Y-3139200D01*
X6123700Y-3109200D02*
X6093700Y-3139200D01*
X6131800Y-2740900D02*
X6161800Y-2770900D01*
X6161800Y-2740900D02*
X6131800Y-2770900D01*
X6208000Y-3934700D02*
X6238000Y-3964700D01*
X6238000Y-3934700D02*
X6208000Y-3964700D01*
X6500100Y-3541000D02*
X6530100Y-3571000D01*
X6530100Y-3541000D02*
X6500100Y-3571000D01*
X6512800Y-3287000D02*
X6542800Y-3317000D01*
X6542800Y-3287000D02*
X6512800Y-3317000D01*
X6614400Y-4226800D02*
X6644400Y-4256800D01*
X6644400Y-4226800D02*
X6614400Y-4256800D01*
X6919200Y-3680700D02*
X6949200Y-3710700D01*
X6949200Y-3680700D02*
X6919200Y-3710700D01*
X7071600Y-3760506D02*
X7101600Y-3790506D01*
X7101600Y-3760506D02*
X7071600Y-3790506D01*
X7185900Y-3083800D02*
X7215900Y-3113800D01*
X7215900Y-3083800D02*
X7185900Y-3113800D01*
X7262100Y-3083800D02*
X7292100Y-3113800D01*
X7292100Y-3083800D02*
X7262100Y-3113800D01*
X7274800Y-4290300D02*
X7304800Y-4320300D01*
X7304800Y-4290300D02*
X7274800Y-4320300D01*
X7414500Y-4112500D02*
X7444500Y-4142500D01*
X7444500Y-4112500D02*
X7414500Y-4142500D01*
X7592300Y-3299700D02*
X7622300Y-3329700D01*
X7622300Y-3299700D02*
X7592300Y-3329700D01*
X7592300Y-3604500D02*
X7622300Y-3634500D01*
X7622300Y-3604500D02*
X7592300Y-3634500D01*
X7605000Y-3502900D02*
X7635000Y-3532900D01*
X7635000Y-3502900D02*
X7605000Y-3532900D01*
X7815650Y-3901850D02*
X7845650Y-3931850D01*
X7845650Y-3901850D02*
X7815650Y-3931850D01*
X8036800Y-3922000D02*
X8066800Y-3952000D01*
X8066800Y-3922000D02*
X8036800Y-3952000D01*
X8151100Y-3668000D02*
X8181100Y-3698000D01*
X8181100Y-3668000D02*
X8151100Y-3698000D01*
X8354300Y-3617200D02*
X8384300Y-3647200D01*
X8384300Y-3617200D02*
X8354300Y-3647200D01*
X8386050Y-3445750D02*
X8416050Y-3475750D01*
X8416050Y-3445750D02*
X8386050Y-3475750D01*
X3983400Y-2827600D02*
G75*
G03*
X3983400Y-2827600I-27500J0D01*
G01*
X3973400Y-2860100D02*
X3973400Y-2795100D01*
X3938400Y-2860100D02*
X3938400Y-2795100D01*
X3973400Y-2795100D02*
G75*
G03*
X3938400Y-2795100I-17500J0D01*
G01*
X3938400Y-2860100D02*
G75*
G03*
X3973400Y-2860100I17500J0D01*
G01*
X4758400Y-2827600D02*
G75*
G03*
X4758400Y-2827600I-27500J0D01*
G01*
X4748400Y-2860100D02*
X4748400Y-2795100D01*
X4713400Y-2860100D02*
X4713400Y-2795100D01*
X4748400Y-2795100D02*
G75*
G03*
X4713400Y-2795100I-17500J0D01*
G01*
X4713400Y-2860100D02*
G75*
G03*
X4748400Y-2860100I17500J0D01*
G01*
X3970900Y-3165100D02*
X3970900Y-3250100D01*
X3928400Y-3207600D02*
X4013400Y-3207600D01*
X4003400Y-3235100D02*
X4003400Y-3180100D01*
X3938400Y-3235100D02*
X3938400Y-3180100D01*
X4003400Y-3180100D02*
G75*
G03*
X3938400Y-3180100I-32500J0D01*
G01*
X3938400Y-3235100D02*
G75*
G03*
X4003400Y-3235100I32500J0D01*
G01*
X4715900Y-3165100D02*
X4715900Y-3250100D01*
X4673400Y-3207600D02*
X4758400Y-3207600D01*
X4748400Y-3235100D02*
X4748400Y-3180100D01*
X4683400Y-3235100D02*
X4683400Y-3180100D01*
X4748400Y-3180100D02*
G75*
G03*
X4683400Y-3180100I-32500J0D01*
G01*
X4683400Y-3235100D02*
G75*
G03*
X4748400Y-3235100I32500J0D01*
G01*
X8665006Y-4378756D02*
X8665006Y-4308044D01*
X8594294Y-4308044D01*
X8594294Y-4378756D01*
X8665006Y-4378756D01*
X9039656Y-4378756D02*
X9039656Y-4308044D01*
X8968944Y-4308044D01*
X8968944Y-4378756D01*
X9039656Y-4378756D01*
D12*
X4084523Y-5267619D02*
X4084523Y-4967619D01*
X4155952Y-4967619D01*
X4198809Y-4981905D01*
X4227381Y-5010477D01*
X4241666Y-5039048D01*
X4255952Y-5096191D01*
X4255952Y-5139048D01*
X4241666Y-5196191D01*
X4227381Y-5224762D01*
X4198809Y-5253334D01*
X4155952Y-5267619D01*
X4084523Y-5267619D01*
X4384523Y-5267619D02*
X4384523Y-5067619D01*
X4384523Y-5124762D02*
X4398809Y-5096191D01*
X4413095Y-5081905D01*
X4441666Y-5067619D01*
X4470238Y-5067619D01*
X4570238Y-5267619D02*
X4570238Y-5067619D01*
X4570238Y-4967619D02*
X4555952Y-4981905D01*
X4570238Y-4996191D01*
X4584523Y-4981905D01*
X4570238Y-4967619D01*
X4570238Y-4996191D01*
X4755952Y-5267619D02*
X4727381Y-5253334D01*
X4713095Y-5224762D01*
X4713095Y-4967619D01*
X4913095Y-5267619D02*
X4884523Y-5253334D01*
X4870238Y-5224762D01*
X4870238Y-4967619D01*
X5255952Y-5267619D02*
X5255952Y-4967619D01*
X5355952Y-5181905D01*
X5455952Y-4967619D01*
X5455952Y-5267619D01*
X5727381Y-5267619D02*
X5727381Y-5110477D01*
X5713095Y-5081905D01*
X5684523Y-5067619D01*
X5627381Y-5067619D01*
X5598809Y-5081905D01*
X5727381Y-5253334D02*
X5698809Y-5267619D01*
X5627381Y-5267619D01*
X5598809Y-5253334D01*
X5584523Y-5224762D01*
X5584523Y-5196191D01*
X5598809Y-5167619D01*
X5627381Y-5153334D01*
X5698809Y-5153334D01*
X5727381Y-5139048D01*
X5870238Y-5067619D02*
X5870238Y-5367619D01*
X5870238Y-5081905D02*
X5898809Y-5067619D01*
X5955952Y-5067619D01*
X5984523Y-5081905D01*
X5998809Y-5096191D01*
X6013095Y-5124762D01*
X6013095Y-5210477D01*
X5998809Y-5239048D01*
X5984523Y-5253334D01*
X5955952Y-5267619D01*
X5898809Y-5267619D01*
X5870238Y-5253334D01*
X6141666Y-5239048D02*
X6155952Y-5253334D01*
X6141666Y-5267619D01*
X6127381Y-5253334D01*
X6141666Y-5239048D01*
X6141666Y-5267619D01*
X6141666Y-5081905D02*
X6155952Y-5096191D01*
X6141666Y-5110477D01*
X6127381Y-5096191D01*
X6141666Y-5081905D01*
X6141666Y-5110477D01*
X3768095Y-5746905D02*
X3798095Y-5776905D01*
X3798095Y-5746905D02*
X3768095Y-5776905D01*
X4141666Y-5597619D02*
X4170238Y-5597619D01*
X4198809Y-5611905D01*
X4213095Y-5626191D01*
X4227381Y-5654762D01*
X4241666Y-5711905D01*
X4241666Y-5783334D01*
X4227381Y-5840476D01*
X4213095Y-5869048D01*
X4198809Y-5883334D01*
X4170238Y-5897619D01*
X4141666Y-5897619D01*
X4113095Y-5883334D01*
X4098809Y-5869048D01*
X4084523Y-5840476D01*
X4070238Y-5783334D01*
X4070238Y-5711905D01*
X4084523Y-5654762D01*
X4098809Y-5626191D01*
X4113095Y-5611905D01*
X4141666Y-5597619D01*
X4370238Y-5869048D02*
X4384523Y-5883334D01*
X4370238Y-5897619D01*
X4355952Y-5883334D01*
X4370238Y-5869048D01*
X4370238Y-5897619D01*
X4484523Y-5597619D02*
X4670238Y-5597619D01*
X4570238Y-5711905D01*
X4613095Y-5711905D01*
X4641666Y-5726191D01*
X4655952Y-5740476D01*
X4670238Y-5769048D01*
X4670238Y-5840476D01*
X4655952Y-5869048D01*
X4641666Y-5883334D01*
X4613095Y-5897619D01*
X4527381Y-5897619D01*
X4498809Y-5883334D01*
X4484523Y-5869048D01*
X4855952Y-5597619D02*
X4884523Y-5597619D01*
X4913095Y-5611905D01*
X4927381Y-5626191D01*
X4941666Y-5654762D01*
X4955952Y-5711905D01*
X4955952Y-5783334D01*
X4941666Y-5840476D01*
X4927381Y-5869048D01*
X4913095Y-5883334D01*
X4884523Y-5897619D01*
X4855952Y-5897619D01*
X4827381Y-5883334D01*
X4813095Y-5869048D01*
X4798809Y-5840476D01*
X4784523Y-5783334D01*
X4784523Y-5711905D01*
X4798809Y-5654762D01*
X4813095Y-5626191D01*
X4827381Y-5611905D01*
X4855952Y-5597619D01*
X5141666Y-5597619D02*
X5170238Y-5597619D01*
X5198809Y-5611905D01*
X5213095Y-5626191D01*
X5227381Y-5654762D01*
X5241666Y-5711905D01*
X5241666Y-5783334D01*
X5227381Y-5840476D01*
X5213095Y-5869048D01*
X5198809Y-5883334D01*
X5170238Y-5897619D01*
X5141666Y-5897619D01*
X5113095Y-5883334D01*
X5098809Y-5869048D01*
X5084523Y-5840476D01*
X5070238Y-5783334D01*
X5070238Y-5711905D01*
X5084523Y-5654762D01*
X5098809Y-5626191D01*
X5113095Y-5611905D01*
X5141666Y-5597619D01*
X5370238Y-5897619D02*
X5370238Y-5697619D01*
X5370238Y-5726191D02*
X5384523Y-5711905D01*
X5413095Y-5697619D01*
X5455952Y-5697619D01*
X5484523Y-5711905D01*
X5498809Y-5740476D01*
X5498809Y-5897619D01*
X5498809Y-5740476D02*
X5513095Y-5711905D01*
X5541666Y-5697619D01*
X5584523Y-5697619D01*
X5613095Y-5711905D01*
X5627381Y-5740476D01*
X5627381Y-5897619D01*
X5770238Y-5897619D02*
X5770238Y-5697619D01*
X5770238Y-5726191D02*
X5784523Y-5711905D01*
X5813095Y-5697619D01*
X5855952Y-5697619D01*
X5884523Y-5711905D01*
X5898809Y-5740476D01*
X5898809Y-5897619D01*
X5898809Y-5740476D02*
X5913095Y-5711905D01*
X5941666Y-5697619D01*
X5984523Y-5697619D01*
X6013095Y-5711905D01*
X6027381Y-5740476D01*
X6027381Y-5897619D01*
X6613095Y-5583334D02*
X6355952Y-5969048D01*
X6998809Y-5597619D02*
X7027381Y-5597619D01*
X7055952Y-5611905D01*
X7070238Y-5626191D01*
X7084523Y-5654762D01*
X7098809Y-5711905D01*
X7098809Y-5783334D01*
X7084523Y-5840476D01*
X7070238Y-5869048D01*
X7055952Y-5883334D01*
X7027381Y-5897619D01*
X6998809Y-5897619D01*
X6970238Y-5883334D01*
X6955952Y-5869048D01*
X6941666Y-5840476D01*
X6927381Y-5783334D01*
X6927381Y-5711905D01*
X6941666Y-5654762D01*
X6955952Y-5626191D01*
X6970238Y-5611905D01*
X6998809Y-5597619D01*
X7227381Y-5869048D02*
X7241666Y-5883334D01*
X7227381Y-5897619D01*
X7213095Y-5883334D01*
X7227381Y-5869048D01*
X7227381Y-5897619D01*
X7427381Y-5597619D02*
X7455952Y-5597619D01*
X7484523Y-5611905D01*
X7498809Y-5626191D01*
X7513095Y-5654762D01*
X7527381Y-5711905D01*
X7527381Y-5783334D01*
X7513095Y-5840476D01*
X7498809Y-5869048D01*
X7484523Y-5883334D01*
X7455952Y-5897619D01*
X7427381Y-5897619D01*
X7398809Y-5883334D01*
X7384523Y-5869048D01*
X7370238Y-5840476D01*
X7355952Y-5783334D01*
X7355952Y-5711905D01*
X7370238Y-5654762D01*
X7384523Y-5626191D01*
X7398809Y-5611905D01*
X7427381Y-5597619D01*
X7813095Y-5897619D02*
X7641666Y-5897619D01*
X7727381Y-5897619D02*
X7727381Y-5597619D01*
X7698809Y-5640476D01*
X7670238Y-5669048D01*
X7641666Y-5683334D01*
X8098809Y-5897619D02*
X7927381Y-5897619D01*
X8013095Y-5897619D02*
X8013095Y-5597619D01*
X7984523Y-5640476D01*
X7955952Y-5669048D01*
X7927381Y-5683334D01*
X8270238Y-5726191D02*
X8241666Y-5711905D01*
X8227381Y-5697619D01*
X8213095Y-5669048D01*
X8213095Y-5654762D01*
X8227381Y-5626191D01*
X8241666Y-5611905D01*
X8270238Y-5597619D01*
X8327381Y-5597619D01*
X8355952Y-5611905D01*
X8370238Y-5626191D01*
X8384523Y-5654762D01*
X8384523Y-5669048D01*
X8370238Y-5697619D01*
X8355952Y-5711905D01*
X8327381Y-5726191D01*
X8270238Y-5726191D01*
X8241666Y-5740476D01*
X8227381Y-5754762D01*
X8213095Y-5783334D01*
X8213095Y-5840476D01*
X8227381Y-5869048D01*
X8241666Y-5883334D01*
X8270238Y-5897619D01*
X8327381Y-5897619D01*
X8355952Y-5883334D01*
X8370238Y-5869048D01*
X8384523Y-5840476D01*
X8384523Y-5783334D01*
X8370238Y-5754762D01*
X8355952Y-5740476D01*
X8327381Y-5726191D01*
X8498809Y-5597619D02*
X8498809Y-5654762D01*
X8613095Y-5597619D02*
X8613095Y-5654762D01*
X9055952Y-6011905D02*
X9041666Y-5997619D01*
X9013095Y-5954762D01*
X8998809Y-5926191D01*
X8984523Y-5883334D01*
X8970238Y-5811905D01*
X8970238Y-5754762D01*
X8984523Y-5683334D01*
X8998809Y-5640476D01*
X9013095Y-5611905D01*
X9041666Y-5569048D01*
X9055952Y-5554762D01*
X9141666Y-5597619D02*
X9327381Y-5597619D01*
X9227381Y-5711905D01*
X9270238Y-5711905D01*
X9298809Y-5726191D01*
X9313095Y-5740476D01*
X9327381Y-5769048D01*
X9327381Y-5840476D01*
X9313095Y-5869048D01*
X9298809Y-5883334D01*
X9270238Y-5897619D01*
X9184523Y-5897619D01*
X9155952Y-5883334D01*
X9141666Y-5869048D01*
X9470238Y-5897619D02*
X9527381Y-5897619D01*
X9555952Y-5883334D01*
X9570238Y-5869048D01*
X9598809Y-5826191D01*
X9613095Y-5769048D01*
X9613095Y-5654762D01*
X9598809Y-5626191D01*
X9584523Y-5611905D01*
X9555952Y-5597619D01*
X9498809Y-5597619D01*
X9470238Y-5611905D01*
X9455952Y-5626191D01*
X9441666Y-5654762D01*
X9441666Y-5726191D01*
X9455952Y-5754762D01*
X9470238Y-5769048D01*
X9498809Y-5783334D01*
X9555952Y-5783334D01*
X9584523Y-5769048D01*
X9598809Y-5754762D01*
X9613095Y-5726191D01*
X9970238Y-5897619D02*
X9970238Y-5597619D01*
X10098809Y-5897619D02*
X10098809Y-5740476D01*
X10084523Y-5711905D01*
X10055952Y-5697619D01*
X10013095Y-5697619D01*
X9984523Y-5711905D01*
X9970238Y-5726191D01*
X10284523Y-5897619D02*
X10255952Y-5883334D01*
X10241666Y-5869048D01*
X10227381Y-5840476D01*
X10227381Y-5754762D01*
X10241666Y-5726191D01*
X10255952Y-5711905D01*
X10284523Y-5697619D01*
X10327381Y-5697619D01*
X10355952Y-5711905D01*
X10370238Y-5726191D01*
X10384523Y-5754762D01*
X10384523Y-5840476D01*
X10370238Y-5869048D01*
X10355952Y-5883334D01*
X10327381Y-5897619D01*
X10284523Y-5897619D01*
X10555952Y-5897619D02*
X10527381Y-5883334D01*
X10513095Y-5854762D01*
X10513095Y-5597619D01*
X10784523Y-5883334D02*
X10755952Y-5897619D01*
X10698809Y-5897619D01*
X10670238Y-5883334D01*
X10655952Y-5854762D01*
X10655952Y-5740476D01*
X10670238Y-5711905D01*
X10698809Y-5697619D01*
X10755952Y-5697619D01*
X10784523Y-5711905D01*
X10798809Y-5740476D01*
X10798809Y-5769048D01*
X10655952Y-5797619D01*
X10913095Y-5883334D02*
X10941666Y-5897619D01*
X10998809Y-5897619D01*
X11027381Y-5883334D01*
X11041666Y-5854762D01*
X11041666Y-5840476D01*
X11027381Y-5811905D01*
X10998809Y-5797619D01*
X10955952Y-5797619D01*
X10927381Y-5783334D01*
X10913095Y-5754762D01*
X10913095Y-5740476D01*
X10927381Y-5711905D01*
X10955952Y-5697619D01*
X10998809Y-5697619D01*
X11027381Y-5711905D01*
X11141666Y-6011905D02*
X11155952Y-5997619D01*
X11184523Y-5954762D01*
X11198809Y-5926191D01*
X11213095Y-5883334D01*
X11227381Y-5811905D01*
X11227381Y-5754762D01*
X11213095Y-5683334D01*
X11198809Y-5640476D01*
X11184523Y-5611905D01*
X11155952Y-5569048D01*
X11141666Y-5554762D01*
X3798095Y-6157905D02*
G75*
G03*
X3798095Y-6157905I-27500J0D01*
G01*
X4141666Y-5993619D02*
X4170238Y-5993619D01*
X4198809Y-6007905D01*
X4213095Y-6022191D01*
X4227381Y-6050762D01*
X4241666Y-6107905D01*
X4241666Y-6179334D01*
X4227381Y-6236476D01*
X4213095Y-6265048D01*
X4198809Y-6279334D01*
X4170238Y-6293619D01*
X4141666Y-6293619D01*
X4113095Y-6279334D01*
X4098809Y-6265048D01*
X4084523Y-6236476D01*
X4070238Y-6179334D01*
X4070238Y-6107905D01*
X4084523Y-6050762D01*
X4098809Y-6022191D01*
X4113095Y-6007905D01*
X4141666Y-5993619D01*
X4370238Y-6265048D02*
X4384523Y-6279334D01*
X4370238Y-6293619D01*
X4355952Y-6279334D01*
X4370238Y-6265048D01*
X4370238Y-6293619D01*
X4655952Y-5993619D02*
X4513095Y-5993619D01*
X4498809Y-6136476D01*
X4513095Y-6122191D01*
X4541666Y-6107905D01*
X4613095Y-6107905D01*
X4641666Y-6122191D01*
X4655952Y-6136476D01*
X4670238Y-6165048D01*
X4670238Y-6236476D01*
X4655952Y-6265048D01*
X4641666Y-6279334D01*
X4613095Y-6293619D01*
X4541666Y-6293619D01*
X4513095Y-6279334D01*
X4498809Y-6265048D01*
X4941666Y-5993619D02*
X4798809Y-5993619D01*
X4784523Y-6136476D01*
X4798809Y-6122191D01*
X4827381Y-6107905D01*
X4898809Y-6107905D01*
X4927381Y-6122191D01*
X4941666Y-6136476D01*
X4955952Y-6165048D01*
X4955952Y-6236476D01*
X4941666Y-6265048D01*
X4927381Y-6279334D01*
X4898809Y-6293619D01*
X4827381Y-6293619D01*
X4798809Y-6279334D01*
X4784523Y-6265048D01*
X5141666Y-5993619D02*
X5170238Y-5993619D01*
X5198809Y-6007905D01*
X5213095Y-6022191D01*
X5227381Y-6050762D01*
X5241666Y-6107905D01*
X5241666Y-6179334D01*
X5227381Y-6236476D01*
X5213095Y-6265048D01*
X5198809Y-6279334D01*
X5170238Y-6293619D01*
X5141666Y-6293619D01*
X5113095Y-6279334D01*
X5098809Y-6265048D01*
X5084523Y-6236476D01*
X5070238Y-6179334D01*
X5070238Y-6107905D01*
X5084523Y-6050762D01*
X5098809Y-6022191D01*
X5113095Y-6007905D01*
X5141666Y-5993619D01*
X5370238Y-6293619D02*
X5370238Y-6093619D01*
X5370238Y-6122191D02*
X5384523Y-6107905D01*
X5413095Y-6093619D01*
X5455952Y-6093619D01*
X5484523Y-6107905D01*
X5498809Y-6136476D01*
X5498809Y-6293619D01*
X5498809Y-6136476D02*
X5513095Y-6107905D01*
X5541666Y-6093619D01*
X5584523Y-6093619D01*
X5613095Y-6107905D01*
X5627381Y-6136476D01*
X5627381Y-6293619D01*
X5770238Y-6293619D02*
X5770238Y-6093619D01*
X5770238Y-6122191D02*
X5784523Y-6107905D01*
X5813095Y-6093619D01*
X5855952Y-6093619D01*
X5884523Y-6107905D01*
X5898809Y-6136476D01*
X5898809Y-6293619D01*
X5898809Y-6136476D02*
X5913095Y-6107905D01*
X5941666Y-6093619D01*
X5984523Y-6093619D01*
X6013095Y-6107905D01*
X6027381Y-6136476D01*
X6027381Y-6293619D01*
X6613095Y-5979334D02*
X6355952Y-6365048D01*
X6998809Y-5993619D02*
X7027381Y-5993619D01*
X7055952Y-6007905D01*
X7070238Y-6022191D01*
X7084523Y-6050762D01*
X7098809Y-6107905D01*
X7098809Y-6179334D01*
X7084523Y-6236476D01*
X7070238Y-6265048D01*
X7055952Y-6279334D01*
X7027381Y-6293619D01*
X6998809Y-6293619D01*
X6970238Y-6279334D01*
X6955952Y-6265048D01*
X6941666Y-6236476D01*
X6927381Y-6179334D01*
X6927381Y-6107905D01*
X6941666Y-6050762D01*
X6955952Y-6022191D01*
X6970238Y-6007905D01*
X6998809Y-5993619D01*
X7227381Y-6265048D02*
X7241666Y-6279334D01*
X7227381Y-6293619D01*
X7213095Y-6279334D01*
X7227381Y-6265048D01*
X7227381Y-6293619D01*
X7427381Y-5993619D02*
X7455952Y-5993619D01*
X7484523Y-6007905D01*
X7498809Y-6022191D01*
X7513095Y-6050762D01*
X7527381Y-6107905D01*
X7527381Y-6179334D01*
X7513095Y-6236476D01*
X7498809Y-6265048D01*
X7484523Y-6279334D01*
X7455952Y-6293619D01*
X7427381Y-6293619D01*
X7398809Y-6279334D01*
X7384523Y-6265048D01*
X7370238Y-6236476D01*
X7355952Y-6179334D01*
X7355952Y-6107905D01*
X7370238Y-6050762D01*
X7384523Y-6022191D01*
X7398809Y-6007905D01*
X7427381Y-5993619D01*
X7641666Y-6022191D02*
X7655952Y-6007905D01*
X7684523Y-5993619D01*
X7755952Y-5993619D01*
X7784523Y-6007905D01*
X7798809Y-6022191D01*
X7813095Y-6050762D01*
X7813095Y-6079334D01*
X7798809Y-6122191D01*
X7627381Y-6293619D01*
X7813095Y-6293619D01*
X8098809Y-6293619D02*
X7927381Y-6293619D01*
X8013095Y-6293619D02*
X8013095Y-5993619D01*
X7984523Y-6036476D01*
X7955952Y-6065048D01*
X7927381Y-6079334D01*
X8198809Y-5993619D02*
X8398809Y-5993619D01*
X8270238Y-6293619D01*
X8498809Y-5993619D02*
X8498809Y-6050762D01*
X8613095Y-5993619D02*
X8613095Y-6050762D01*
X9055952Y-6407905D02*
X9041666Y-6393619D01*
X9013095Y-6350762D01*
X8998809Y-6322191D01*
X8984523Y-6279334D01*
X8970238Y-6207905D01*
X8970238Y-6150762D01*
X8984523Y-6079334D01*
X8998809Y-6036476D01*
X9013095Y-6007905D01*
X9041666Y-5965048D01*
X9055952Y-5950762D01*
X9227381Y-5993619D02*
X9255952Y-5993619D01*
X9284523Y-6007905D01*
X9298809Y-6022191D01*
X9313095Y-6050762D01*
X9327381Y-6107905D01*
X9327381Y-6179334D01*
X9313095Y-6236476D01*
X9298809Y-6265048D01*
X9284523Y-6279334D01*
X9255952Y-6293619D01*
X9227381Y-6293619D01*
X9198809Y-6279334D01*
X9184523Y-6265048D01*
X9170238Y-6236476D01*
X9155952Y-6179334D01*
X9155952Y-6107905D01*
X9170238Y-6050762D01*
X9184523Y-6022191D01*
X9198809Y-6007905D01*
X9227381Y-5993619D01*
X9684523Y-6293619D02*
X9684523Y-5993619D01*
X9813095Y-6293619D02*
X9813095Y-6136476D01*
X9798809Y-6107905D01*
X9770238Y-6093619D01*
X9727381Y-6093619D01*
X9698809Y-6107905D01*
X9684523Y-6122191D01*
X9998809Y-6293619D02*
X9970238Y-6279334D01*
X9955952Y-6265048D01*
X9941666Y-6236476D01*
X9941666Y-6150762D01*
X9955952Y-6122191D01*
X9970238Y-6107905D01*
X9998809Y-6093619D01*
X10041666Y-6093619D01*
X10070238Y-6107905D01*
X10084523Y-6122191D01*
X10098809Y-6150762D01*
X10098809Y-6236476D01*
X10084523Y-6265048D01*
X10070238Y-6279334D01*
X10041666Y-6293619D01*
X9998809Y-6293619D01*
X10270238Y-6293619D02*
X10241666Y-6279334D01*
X10227381Y-6250762D01*
X10227381Y-5993619D01*
X10498809Y-6279334D02*
X10470238Y-6293619D01*
X10413095Y-6293619D01*
X10384523Y-6279334D01*
X10370238Y-6250762D01*
X10370238Y-6136476D01*
X10384523Y-6107905D01*
X10413095Y-6093619D01*
X10470238Y-6093619D01*
X10498809Y-6107905D01*
X10513095Y-6136476D01*
X10513095Y-6165048D01*
X10370238Y-6193619D01*
X10627381Y-6279334D02*
X10655952Y-6293619D01*
X10713095Y-6293619D01*
X10741666Y-6279334D01*
X10755952Y-6250762D01*
X10755952Y-6236476D01*
X10741666Y-6207905D01*
X10713095Y-6193619D01*
X10670238Y-6193619D01*
X10641666Y-6179334D01*
X10627381Y-6150762D01*
X10627381Y-6136476D01*
X10641666Y-6107905D01*
X10670238Y-6093619D01*
X10713095Y-6093619D01*
X10741666Y-6107905D01*
X11113095Y-6179334D02*
X11341666Y-6179334D01*
X11227381Y-6293619D02*
X11227381Y-6065048D01*
X11698809Y-6022191D02*
X11713095Y-6007905D01*
X11741666Y-5993619D01*
X11813095Y-5993619D01*
X11841666Y-6007905D01*
X11855952Y-6022191D01*
X11870238Y-6050762D01*
X11870238Y-6079334D01*
X11855952Y-6122191D01*
X11684523Y-6293619D01*
X11870238Y-6293619D01*
X12213095Y-6279334D02*
X12241666Y-6293619D01*
X12298809Y-6293619D01*
X12327381Y-6279334D01*
X12341666Y-6250762D01*
X12341666Y-6236476D01*
X12327381Y-6207905D01*
X12298809Y-6193619D01*
X12255952Y-6193619D01*
X12227381Y-6179334D01*
X12213095Y-6150762D01*
X12213095Y-6136476D01*
X12227381Y-6107905D01*
X12255952Y-6093619D01*
X12298809Y-6093619D01*
X12327381Y-6107905D01*
X12513095Y-6293619D02*
X12484523Y-6279334D01*
X12470238Y-6250762D01*
X12470238Y-5993619D01*
X12670238Y-6293619D02*
X12641666Y-6279334D01*
X12627381Y-6265048D01*
X12613095Y-6236476D01*
X12613095Y-6150762D01*
X12627381Y-6122191D01*
X12641666Y-6107905D01*
X12670238Y-6093619D01*
X12713095Y-6093619D01*
X12741666Y-6107905D01*
X12755952Y-6122191D01*
X12770238Y-6150762D01*
X12770238Y-6236476D01*
X12755952Y-6265048D01*
X12741666Y-6279334D01*
X12713095Y-6293619D01*
X12670238Y-6293619D01*
X12855952Y-6093619D02*
X12970238Y-6093619D01*
X12898809Y-5993619D02*
X12898809Y-6250762D01*
X12913095Y-6279334D01*
X12941666Y-6293619D01*
X12970238Y-6293619D01*
X13055952Y-6279334D02*
X13084523Y-6293619D01*
X13141666Y-6293619D01*
X13170238Y-6279334D01*
X13184523Y-6250762D01*
X13184523Y-6236476D01*
X13170238Y-6207905D01*
X13141666Y-6193619D01*
X13098809Y-6193619D01*
X13070238Y-6179334D01*
X13055952Y-6150762D01*
X13055952Y-6136476D01*
X13070238Y-6107905D01*
X13098809Y-6093619D01*
X13141666Y-6093619D01*
X13170238Y-6107905D01*
X13284523Y-6407905D02*
X13298809Y-6393619D01*
X13327381Y-6350762D01*
X13341666Y-6322191D01*
X13355952Y-6279334D01*
X13370238Y-6207905D01*
X13370238Y-6150762D01*
X13355952Y-6079334D01*
X13341666Y-6036476D01*
X13327381Y-6007905D01*
X13298809Y-5965048D01*
X13284523Y-5950762D01*
X3755595Y-6511405D02*
X3755595Y-6596405D01*
X3713095Y-6553905D02*
X3798095Y-6553905D01*
X4141666Y-6389619D02*
X4170238Y-6389619D01*
X4198809Y-6403905D01*
X4213095Y-6418191D01*
X4227381Y-6446762D01*
X4241666Y-6503905D01*
X4241666Y-6575334D01*
X4227381Y-6632476D01*
X4213095Y-6661048D01*
X4198809Y-6675334D01*
X4170238Y-6689619D01*
X4141666Y-6689619D01*
X4113095Y-6675334D01*
X4098809Y-6661048D01*
X4084523Y-6632476D01*
X4070238Y-6575334D01*
X4070238Y-6503905D01*
X4084523Y-6446762D01*
X4098809Y-6418191D01*
X4113095Y-6403905D01*
X4141666Y-6389619D01*
X4370238Y-6661048D02*
X4384523Y-6675334D01*
X4370238Y-6689619D01*
X4355952Y-6675334D01*
X4370238Y-6661048D01*
X4370238Y-6689619D01*
X4555952Y-6518191D02*
X4527381Y-6503905D01*
X4513095Y-6489619D01*
X4498809Y-6461048D01*
X4498809Y-6446762D01*
X4513095Y-6418191D01*
X4527381Y-6403905D01*
X4555952Y-6389619D01*
X4613095Y-6389619D01*
X4641666Y-6403905D01*
X4655952Y-6418191D01*
X4670238Y-6446762D01*
X4670238Y-6461048D01*
X4655952Y-6489619D01*
X4641666Y-6503905D01*
X4613095Y-6518191D01*
X4555952Y-6518191D01*
X4527381Y-6532476D01*
X4513095Y-6546762D01*
X4498809Y-6575334D01*
X4498809Y-6632476D01*
X4513095Y-6661048D01*
X4527381Y-6675334D01*
X4555952Y-6689619D01*
X4613095Y-6689619D01*
X4641666Y-6675334D01*
X4655952Y-6661048D01*
X4670238Y-6632476D01*
X4670238Y-6575334D01*
X4655952Y-6546762D01*
X4641666Y-6532476D01*
X4613095Y-6518191D01*
X4941666Y-6389619D02*
X4798809Y-6389619D01*
X4784523Y-6532476D01*
X4798809Y-6518191D01*
X4827381Y-6503905D01*
X4898809Y-6503905D01*
X4927381Y-6518191D01*
X4941666Y-6532476D01*
X4955952Y-6561048D01*
X4955952Y-6632476D01*
X4941666Y-6661048D01*
X4927381Y-6675334D01*
X4898809Y-6689619D01*
X4827381Y-6689619D01*
X4798809Y-6675334D01*
X4784523Y-6661048D01*
X5141666Y-6389619D02*
X5170238Y-6389619D01*
X5198809Y-6403905D01*
X5213095Y-6418191D01*
X5227381Y-6446762D01*
X5241666Y-6503905D01*
X5241666Y-6575334D01*
X5227381Y-6632476D01*
X5213095Y-6661048D01*
X5198809Y-6675334D01*
X5170238Y-6689619D01*
X5141666Y-6689619D01*
X5113095Y-6675334D01*
X5098809Y-6661048D01*
X5084523Y-6632476D01*
X5070238Y-6575334D01*
X5070238Y-6503905D01*
X5084523Y-6446762D01*
X5098809Y-6418191D01*
X5113095Y-6403905D01*
X5141666Y-6389619D01*
X5370238Y-6689619D02*
X5370238Y-6489619D01*
X5370238Y-6518191D02*
X5384523Y-6503905D01*
X5413095Y-6489619D01*
X5455952Y-6489619D01*
X5484523Y-6503905D01*
X5498809Y-6532476D01*
X5498809Y-6689619D01*
X5498809Y-6532476D02*
X5513095Y-6503905D01*
X5541666Y-6489619D01*
X5584523Y-6489619D01*
X5613095Y-6503905D01*
X5627381Y-6532476D01*
X5627381Y-6689619D01*
X5770238Y-6689619D02*
X5770238Y-6489619D01*
X5770238Y-6518191D02*
X5784523Y-6503905D01*
X5813095Y-6489619D01*
X5855952Y-6489619D01*
X5884523Y-6503905D01*
X5898809Y-6532476D01*
X5898809Y-6689619D01*
X5898809Y-6532476D02*
X5913095Y-6503905D01*
X5941666Y-6489619D01*
X5984523Y-6489619D01*
X6013095Y-6503905D01*
X6027381Y-6532476D01*
X6027381Y-6689619D01*
X6613095Y-6375334D02*
X6355952Y-6761048D01*
X6998809Y-6389619D02*
X7027381Y-6389619D01*
X7055952Y-6403905D01*
X7070238Y-6418191D01*
X7084523Y-6446762D01*
X7098809Y-6503905D01*
X7098809Y-6575334D01*
X7084523Y-6632476D01*
X7070238Y-6661048D01*
X7055952Y-6675334D01*
X7027381Y-6689619D01*
X6998809Y-6689619D01*
X6970238Y-6675334D01*
X6955952Y-6661048D01*
X6941666Y-6632476D01*
X6927381Y-6575334D01*
X6927381Y-6503905D01*
X6941666Y-6446762D01*
X6955952Y-6418191D01*
X6970238Y-6403905D01*
X6998809Y-6389619D01*
X7227381Y-6661048D02*
X7241666Y-6675334D01*
X7227381Y-6689619D01*
X7213095Y-6675334D01*
X7227381Y-6661048D01*
X7227381Y-6689619D01*
X7427381Y-6389619D02*
X7455952Y-6389619D01*
X7484523Y-6403905D01*
X7498809Y-6418191D01*
X7513095Y-6446762D01*
X7527381Y-6503905D01*
X7527381Y-6575334D01*
X7513095Y-6632476D01*
X7498809Y-6661048D01*
X7484523Y-6675334D01*
X7455952Y-6689619D01*
X7427381Y-6689619D01*
X7398809Y-6675334D01*
X7384523Y-6661048D01*
X7370238Y-6632476D01*
X7355952Y-6575334D01*
X7355952Y-6503905D01*
X7370238Y-6446762D01*
X7384523Y-6418191D01*
X7398809Y-6403905D01*
X7427381Y-6389619D01*
X7627381Y-6389619D02*
X7813095Y-6389619D01*
X7713095Y-6503905D01*
X7755952Y-6503905D01*
X7784523Y-6518191D01*
X7798809Y-6532476D01*
X7813095Y-6561048D01*
X7813095Y-6632476D01*
X7798809Y-6661048D01*
X7784523Y-6675334D01*
X7755952Y-6689619D01*
X7670238Y-6689619D01*
X7641666Y-6675334D01*
X7627381Y-6661048D01*
X7913095Y-6389619D02*
X8098809Y-6389619D01*
X7998809Y-6503905D01*
X8041666Y-6503905D01*
X8070238Y-6518191D01*
X8084523Y-6532476D01*
X8098809Y-6561048D01*
X8098809Y-6632476D01*
X8084523Y-6661048D01*
X8070238Y-6675334D01*
X8041666Y-6689619D01*
X7955952Y-6689619D01*
X7927381Y-6675334D01*
X7913095Y-6661048D01*
X8370238Y-6389619D02*
X8227381Y-6389619D01*
X8213095Y-6532476D01*
X8227381Y-6518191D01*
X8255952Y-6503905D01*
X8327381Y-6503905D01*
X8355952Y-6518191D01*
X8370238Y-6532476D01*
X8384523Y-6561048D01*
X8384523Y-6632476D01*
X8370238Y-6661048D01*
X8355952Y-6675334D01*
X8327381Y-6689619D01*
X8255952Y-6689619D01*
X8227381Y-6675334D01*
X8213095Y-6661048D01*
X8498809Y-6389619D02*
X8498809Y-6446762D01*
X8613095Y-6389619D02*
X8613095Y-6446762D01*
X9055952Y-6803905D02*
X9041666Y-6789619D01*
X9013095Y-6746762D01*
X8998809Y-6718191D01*
X8984523Y-6675334D01*
X8970238Y-6603905D01*
X8970238Y-6546762D01*
X8984523Y-6475334D01*
X8998809Y-6432476D01*
X9013095Y-6403905D01*
X9041666Y-6361048D01*
X9055952Y-6346762D01*
X9227381Y-6389619D02*
X9255952Y-6389619D01*
X9284523Y-6403905D01*
X9298809Y-6418191D01*
X9313095Y-6446762D01*
X9327381Y-6503905D01*
X9327381Y-6575334D01*
X9313095Y-6632476D01*
X9298809Y-6661048D01*
X9284523Y-6675334D01*
X9255952Y-6689619D01*
X9227381Y-6689619D01*
X9198809Y-6675334D01*
X9184523Y-6661048D01*
X9170238Y-6632476D01*
X9155952Y-6575334D01*
X9155952Y-6503905D01*
X9170238Y-6446762D01*
X9184523Y-6418191D01*
X9198809Y-6403905D01*
X9227381Y-6389619D01*
X9684523Y-6689619D02*
X9684523Y-6389619D01*
X9813095Y-6689619D02*
X9813095Y-6532476D01*
X9798809Y-6503905D01*
X9770238Y-6489619D01*
X9727381Y-6489619D01*
X9698809Y-6503905D01*
X9684523Y-6518191D01*
X9998809Y-6689619D02*
X9970238Y-6675334D01*
X9955952Y-6661048D01*
X9941666Y-6632476D01*
X9941666Y-6546762D01*
X9955952Y-6518191D01*
X9970238Y-6503905D01*
X9998809Y-6489619D01*
X10041666Y-6489619D01*
X10070238Y-6503905D01*
X10084523Y-6518191D01*
X10098809Y-6546762D01*
X10098809Y-6632476D01*
X10084523Y-6661048D01*
X10070238Y-6675334D01*
X10041666Y-6689619D01*
X9998809Y-6689619D01*
X10270238Y-6689619D02*
X10241666Y-6675334D01*
X10227381Y-6646762D01*
X10227381Y-6389619D01*
X10498809Y-6675334D02*
X10470238Y-6689619D01*
X10413095Y-6689619D01*
X10384523Y-6675334D01*
X10370238Y-6646762D01*
X10370238Y-6532476D01*
X10384523Y-6503905D01*
X10413095Y-6489619D01*
X10470238Y-6489619D01*
X10498809Y-6503905D01*
X10513095Y-6532476D01*
X10513095Y-6561048D01*
X10370238Y-6589619D01*
X10627381Y-6675334D02*
X10655952Y-6689619D01*
X10713095Y-6689619D01*
X10741666Y-6675334D01*
X10755952Y-6646762D01*
X10755952Y-6632476D01*
X10741666Y-6603905D01*
X10713095Y-6589619D01*
X10670238Y-6589619D01*
X10641666Y-6575334D01*
X10627381Y-6546762D01*
X10627381Y-6532476D01*
X10641666Y-6503905D01*
X10670238Y-6489619D01*
X10713095Y-6489619D01*
X10741666Y-6503905D01*
X11113095Y-6575334D02*
X11341666Y-6575334D01*
X11227381Y-6689619D02*
X11227381Y-6461048D01*
X11698809Y-6418191D02*
X11713095Y-6403905D01*
X11741666Y-6389619D01*
X11813095Y-6389619D01*
X11841666Y-6403905D01*
X11855952Y-6418191D01*
X11870238Y-6446762D01*
X11870238Y-6475334D01*
X11855952Y-6518191D01*
X11684523Y-6689619D01*
X11870238Y-6689619D01*
X12213095Y-6675334D02*
X12241666Y-6689619D01*
X12298809Y-6689619D01*
X12327381Y-6675334D01*
X12341666Y-6646762D01*
X12341666Y-6632476D01*
X12327381Y-6603905D01*
X12298809Y-6589619D01*
X12255952Y-6589619D01*
X12227381Y-6575334D01*
X12213095Y-6546762D01*
X12213095Y-6532476D01*
X12227381Y-6503905D01*
X12255952Y-6489619D01*
X12298809Y-6489619D01*
X12327381Y-6503905D01*
X12513095Y-6689619D02*
X12484523Y-6675334D01*
X12470238Y-6646762D01*
X12470238Y-6389619D01*
X12670238Y-6689619D02*
X12641666Y-6675334D01*
X12627381Y-6661048D01*
X12613095Y-6632476D01*
X12613095Y-6546762D01*
X12627381Y-6518191D01*
X12641666Y-6503905D01*
X12670238Y-6489619D01*
X12713095Y-6489619D01*
X12741666Y-6503905D01*
X12755952Y-6518191D01*
X12770238Y-6546762D01*
X12770238Y-6632476D01*
X12755952Y-6661048D01*
X12741666Y-6675334D01*
X12713095Y-6689619D01*
X12670238Y-6689619D01*
X12855952Y-6489619D02*
X12970238Y-6489619D01*
X12898809Y-6389619D02*
X12898809Y-6646762D01*
X12913095Y-6675334D01*
X12941666Y-6689619D01*
X12970238Y-6689619D01*
X13055952Y-6675334D02*
X13084523Y-6689619D01*
X13141666Y-6689619D01*
X13170238Y-6675334D01*
X13184523Y-6646762D01*
X13184523Y-6632476D01*
X13170238Y-6603905D01*
X13141666Y-6589619D01*
X13098809Y-6589619D01*
X13070238Y-6575334D01*
X13055952Y-6546762D01*
X13055952Y-6532476D01*
X13070238Y-6503905D01*
X13098809Y-6489619D01*
X13141666Y-6489619D01*
X13170238Y-6503905D01*
X13284523Y-6803905D02*
X13298809Y-6789619D01*
X13327381Y-6746762D01*
X13341666Y-6718191D01*
X13355952Y-6675334D01*
X13370238Y-6603905D01*
X13370238Y-6546762D01*
X13355952Y-6475334D01*
X13341666Y-6432476D01*
X13327381Y-6403905D01*
X13298809Y-6361048D01*
X13284523Y-6346762D01*
X3783451Y-6985261D02*
X3783451Y-6914549D01*
X3712739Y-6914549D01*
X3712739Y-6985261D01*
X3783451Y-6985261D01*
X4241666Y-7085619D02*
X4070238Y-7085619D01*
X4155952Y-7085619D02*
X4155952Y-6785619D01*
X4127381Y-6828476D01*
X4098809Y-6857048D01*
X4070238Y-6871334D01*
X4370238Y-7057048D02*
X4384523Y-7071334D01*
X4370238Y-7085619D01*
X4355952Y-7071334D01*
X4370238Y-7057048D01*
X4370238Y-7085619D01*
X4570238Y-6785619D02*
X4598809Y-6785619D01*
X4627381Y-6799905D01*
X4641666Y-6814191D01*
X4655952Y-6842762D01*
X4670238Y-6899905D01*
X4670238Y-6971334D01*
X4655952Y-7028476D01*
X4641666Y-7057048D01*
X4627381Y-7071334D01*
X4598809Y-7085619D01*
X4570238Y-7085619D01*
X4541666Y-7071334D01*
X4527381Y-7057048D01*
X4513095Y-7028476D01*
X4498809Y-6971334D01*
X4498809Y-6899905D01*
X4513095Y-6842762D01*
X4527381Y-6814191D01*
X4541666Y-6799905D01*
X4570238Y-6785619D01*
X4855952Y-6785619D02*
X4884523Y-6785619D01*
X4913095Y-6799905D01*
X4927381Y-6814191D01*
X4941666Y-6842762D01*
X4955952Y-6899905D01*
X4955952Y-6971334D01*
X4941666Y-7028476D01*
X4927381Y-7057048D01*
X4913095Y-7071334D01*
X4884523Y-7085619D01*
X4855952Y-7085619D01*
X4827381Y-7071334D01*
X4813095Y-7057048D01*
X4798809Y-7028476D01*
X4784523Y-6971334D01*
X4784523Y-6899905D01*
X4798809Y-6842762D01*
X4813095Y-6814191D01*
X4827381Y-6799905D01*
X4855952Y-6785619D01*
X5141666Y-6785619D02*
X5170238Y-6785619D01*
X5198809Y-6799905D01*
X5213095Y-6814191D01*
X5227381Y-6842762D01*
X5241666Y-6899905D01*
X5241666Y-6971334D01*
X5227381Y-7028476D01*
X5213095Y-7057048D01*
X5198809Y-7071334D01*
X5170238Y-7085619D01*
X5141666Y-7085619D01*
X5113095Y-7071334D01*
X5098809Y-7057048D01*
X5084523Y-7028476D01*
X5070238Y-6971334D01*
X5070238Y-6899905D01*
X5084523Y-6842762D01*
X5098809Y-6814191D01*
X5113095Y-6799905D01*
X5141666Y-6785619D01*
X5370238Y-7085619D02*
X5370238Y-6885619D01*
X5370238Y-6914191D02*
X5384523Y-6899905D01*
X5413095Y-6885619D01*
X5455952Y-6885619D01*
X5484523Y-6899905D01*
X5498809Y-6928476D01*
X5498809Y-7085619D01*
X5498809Y-6928476D02*
X5513095Y-6899905D01*
X5541666Y-6885619D01*
X5584523Y-6885619D01*
X5613095Y-6899905D01*
X5627381Y-6928476D01*
X5627381Y-7085619D01*
X5770238Y-7085619D02*
X5770238Y-6885619D01*
X5770238Y-6914191D02*
X5784523Y-6899905D01*
X5813095Y-6885619D01*
X5855952Y-6885619D01*
X5884523Y-6899905D01*
X5898809Y-6928476D01*
X5898809Y-7085619D01*
X5898809Y-6928476D02*
X5913095Y-6899905D01*
X5941666Y-6885619D01*
X5984523Y-6885619D01*
X6013095Y-6899905D01*
X6027381Y-6928476D01*
X6027381Y-7085619D01*
X6613095Y-6771334D02*
X6355952Y-7157048D01*
X6998809Y-6785619D02*
X7027381Y-6785619D01*
X7055952Y-6799905D01*
X7070238Y-6814191D01*
X7084523Y-6842762D01*
X7098809Y-6899905D01*
X7098809Y-6971334D01*
X7084523Y-7028476D01*
X7070238Y-7057048D01*
X7055952Y-7071334D01*
X7027381Y-7085619D01*
X6998809Y-7085619D01*
X6970238Y-7071334D01*
X6955952Y-7057048D01*
X6941666Y-7028476D01*
X6927381Y-6971334D01*
X6927381Y-6899905D01*
X6941666Y-6842762D01*
X6955952Y-6814191D01*
X6970238Y-6799905D01*
X6998809Y-6785619D01*
X7227381Y-7057048D02*
X7241666Y-7071334D01*
X7227381Y-7085619D01*
X7213095Y-7071334D01*
X7227381Y-7057048D01*
X7227381Y-7085619D01*
X7427381Y-6785619D02*
X7455952Y-6785619D01*
X7484523Y-6799905D01*
X7498809Y-6814191D01*
X7513095Y-6842762D01*
X7527381Y-6899905D01*
X7527381Y-6971334D01*
X7513095Y-7028476D01*
X7498809Y-7057048D01*
X7484523Y-7071334D01*
X7455952Y-7085619D01*
X7427381Y-7085619D01*
X7398809Y-7071334D01*
X7384523Y-7057048D01*
X7370238Y-7028476D01*
X7355952Y-6971334D01*
X7355952Y-6899905D01*
X7370238Y-6842762D01*
X7384523Y-6814191D01*
X7398809Y-6799905D01*
X7427381Y-6785619D01*
X7627381Y-6785619D02*
X7813095Y-6785619D01*
X7713095Y-6899905D01*
X7755952Y-6899905D01*
X7784523Y-6914191D01*
X7798809Y-6928476D01*
X7813095Y-6957048D01*
X7813095Y-7028476D01*
X7798809Y-7057048D01*
X7784523Y-7071334D01*
X7755952Y-7085619D01*
X7670238Y-7085619D01*
X7641666Y-7071334D01*
X7627381Y-7057048D01*
X7955952Y-7085619D02*
X8013095Y-7085619D01*
X8041666Y-7071334D01*
X8055952Y-7057048D01*
X8084523Y-7014191D01*
X8098809Y-6957048D01*
X8098809Y-6842762D01*
X8084523Y-6814191D01*
X8070238Y-6799905D01*
X8041666Y-6785619D01*
X7984523Y-6785619D01*
X7955952Y-6799905D01*
X7941666Y-6814191D01*
X7927381Y-6842762D01*
X7927381Y-6914191D01*
X7941666Y-6942762D01*
X7955952Y-6957048D01*
X7984523Y-6971334D01*
X8041666Y-6971334D01*
X8070238Y-6957048D01*
X8084523Y-6942762D01*
X8098809Y-6914191D01*
X8355952Y-6885619D02*
X8355952Y-7085619D01*
X8284523Y-6771334D02*
X8213095Y-6985619D01*
X8398809Y-6985619D01*
X8498809Y-6785619D02*
X8498809Y-6842762D01*
X8613095Y-6785619D02*
X8613095Y-6842762D01*
X9055952Y-7199905D02*
X9041666Y-7185619D01*
X9013095Y-7142762D01*
X8998809Y-7114191D01*
X8984523Y-7071334D01*
X8970238Y-6999905D01*
X8970238Y-6942762D01*
X8984523Y-6871334D01*
X8998809Y-6828476D01*
X9013095Y-6799905D01*
X9041666Y-6757048D01*
X9055952Y-6742762D01*
X9155952Y-6814191D02*
X9170238Y-6799905D01*
X9198809Y-6785619D01*
X9270238Y-6785619D01*
X9298809Y-6799905D01*
X9313095Y-6814191D01*
X9327381Y-6842762D01*
X9327381Y-6871334D01*
X9313095Y-6914191D01*
X9141666Y-7085619D01*
X9327381Y-7085619D01*
X9684523Y-7085619D02*
X9684523Y-6785619D01*
X9813095Y-7085619D02*
X9813095Y-6928476D01*
X9798809Y-6899905D01*
X9770238Y-6885619D01*
X9727381Y-6885619D01*
X9698809Y-6899905D01*
X9684523Y-6914191D01*
X9998809Y-7085619D02*
X9970238Y-7071334D01*
X9955952Y-7057048D01*
X9941666Y-7028476D01*
X9941666Y-6942762D01*
X9955952Y-6914191D01*
X9970238Y-6899905D01*
X9998809Y-6885619D01*
X10041666Y-6885619D01*
X10070238Y-6899905D01*
X10084523Y-6914191D01*
X10098809Y-6942762D01*
X10098809Y-7028476D01*
X10084523Y-7057048D01*
X10070238Y-7071334D01*
X10041666Y-7085619D01*
X9998809Y-7085619D01*
X10270238Y-7085619D02*
X10241666Y-7071334D01*
X10227381Y-7042762D01*
X10227381Y-6785619D01*
X10498809Y-7071334D02*
X10470238Y-7085619D01*
X10413095Y-7085619D01*
X10384523Y-7071334D01*
X10370238Y-7042762D01*
X10370238Y-6928476D01*
X10384523Y-6899905D01*
X10413095Y-6885619D01*
X10470238Y-6885619D01*
X10498809Y-6899905D01*
X10513095Y-6928476D01*
X10513095Y-6957048D01*
X10370238Y-6985619D01*
X10627381Y-7071334D02*
X10655952Y-7085619D01*
X10713095Y-7085619D01*
X10741666Y-7071334D01*
X10755952Y-7042762D01*
X10755952Y-7028476D01*
X10741666Y-6999905D01*
X10713095Y-6985619D01*
X10670238Y-6985619D01*
X10641666Y-6971334D01*
X10627381Y-6942762D01*
X10627381Y-6928476D01*
X10641666Y-6899905D01*
X10670238Y-6885619D01*
X10713095Y-6885619D01*
X10741666Y-6899905D01*
X10855952Y-7199905D02*
X10870238Y-7185619D01*
X10898809Y-7142762D01*
X10913095Y-7114191D01*
X10927381Y-7071334D01*
X10941666Y-6999905D01*
X10941666Y-6942762D01*
X10927381Y-6871334D01*
X10913095Y-6828476D01*
X10898809Y-6799905D01*
X10870238Y-6757048D01*
X10855952Y-6742762D01*
M02*
