G04 #@! TF.GenerationSoftware,KiCad,Pcbnew,5.1.10-88a1d61d58~90~ubuntu20.04.1*
G04 #@! TF.CreationDate,2022-01-29T20:14:16-05:00*
G04 #@! TF.ProjectId,slg,736c672e-6b69-4636-9164-5f7063625858,v1.0*
G04 #@! TF.SameCoordinates,Original*
G04 #@! TF.FileFunction,Copper,L1,Top*
G04 #@! TF.FilePolarity,Positive*
%FSLAX46Y46*%
G04 Gerber Fmt 4.6, Leading zero omitted, Abs format (unit mm)*
G04 Created by KiCad (PCBNEW 5.1.10-88a1d61d58~90~ubuntu20.04.1) date 2022-01-29 20:14:16*
%MOMM*%
%LPD*%
G01*
G04 APERTURE LIST*
G04 #@! TA.AperFunction,EtchedComponent*
%ADD10C,0.300000*%
G04 #@! TD*
G04 #@! TA.AperFunction,ComponentPad*
%ADD11R,1.700000X1.700000*%
G04 #@! TD*
G04 #@! TA.AperFunction,SMDPad,CuDef*
%ADD12R,1.500000X1.000000*%
G04 #@! TD*
G04 #@! TA.AperFunction,SMDPad,CuDef*
%ADD13R,1.900000X1.100000*%
G04 #@! TD*
G04 #@! TA.AperFunction,SMDPad,CuDef*
%ADD14R,0.650000X0.400000*%
G04 #@! TD*
G04 #@! TA.AperFunction,SMDPad,CuDef*
%ADD15R,1.060000X0.650000*%
G04 #@! TD*
G04 #@! TA.AperFunction,SMDPad,CuDef*
%ADD16R,1.450000X1.750000*%
G04 #@! TD*
G04 #@! TA.AperFunction,SMDPad,CuDef*
%ADD17R,0.300000X0.750000*%
G04 #@! TD*
G04 #@! TA.AperFunction,SMDPad,CuDef*
%ADD18R,0.650000X1.060000*%
G04 #@! TD*
G04 #@! TA.AperFunction,SMDPad,CuDef*
%ADD19R,1.550000X1.300000*%
G04 #@! TD*
G04 #@! TA.AperFunction,SMDPad,CuDef*
%ADD20R,0.900000X0.800000*%
G04 #@! TD*
G04 #@! TA.AperFunction,SMDPad,CuDef*
%ADD21R,0.600000X0.522000*%
G04 #@! TD*
G04 #@! TA.AperFunction,SMDPad,CuDef*
%ADD22C,0.300000*%
G04 #@! TD*
G04 #@! TA.AperFunction,ComponentPad*
%ADD23O,1.150000X1.800000*%
G04 #@! TD*
G04 #@! TA.AperFunction,ComponentPad*
%ADD24O,1.450000X2.000000*%
G04 #@! TD*
G04 #@! TA.AperFunction,SMDPad,CuDef*
%ADD25R,0.450000X1.300000*%
G04 #@! TD*
G04 #@! TA.AperFunction,SMDPad,CuDef*
%ADD26R,0.800000X0.800000*%
G04 #@! TD*
G04 #@! TA.AperFunction,SMDPad,CuDef*
%ADD27R,2.500000X1.800000*%
G04 #@! TD*
G04 #@! TA.AperFunction,ViaPad*
%ADD28C,0.600000*%
G04 #@! TD*
G04 #@! TA.AperFunction,Conductor*
%ADD29C,0.127000*%
G04 #@! TD*
G04 #@! TA.AperFunction,Conductor*
%ADD30C,0.254000*%
G04 #@! TD*
G04 #@! TA.AperFunction,Conductor*
%ADD31C,0.152400*%
G04 #@! TD*
G04 APERTURE END LIST*
D10*
X64289000Y-36576000D02*
G75*
G03*
X64289000Y-36576000I-662000J0D01*
G01*
G04 #@! TA.AperFunction,SMDPad,CuDef*
G36*
G01*
X82175000Y-42695000D02*
X82175000Y-42395000D01*
G75*
G02*
X82325000Y-42245000I150000J0D01*
G01*
X83625000Y-42245000D01*
G75*
G02*
X83775000Y-42395000I0J-150000D01*
G01*
X83775000Y-42695000D01*
G75*
G02*
X83625000Y-42845000I-150000J0D01*
G01*
X82325000Y-42845000D01*
G75*
G02*
X82175000Y-42695000I0J150000D01*
G01*
G37*
G04 #@! TD.AperFunction*
G04 #@! TA.AperFunction,SMDPad,CuDef*
G36*
G01*
X82175000Y-43965000D02*
X82175000Y-43665000D01*
G75*
G02*
X82325000Y-43515000I150000J0D01*
G01*
X83625000Y-43515000D01*
G75*
G02*
X83775000Y-43665000I0J-150000D01*
G01*
X83775000Y-43965000D01*
G75*
G02*
X83625000Y-44115000I-150000J0D01*
G01*
X82325000Y-44115000D01*
G75*
G02*
X82175000Y-43965000I0J150000D01*
G01*
G37*
G04 #@! TD.AperFunction*
G04 #@! TA.AperFunction,SMDPad,CuDef*
G36*
G01*
X82175000Y-45235000D02*
X82175000Y-44935000D01*
G75*
G02*
X82325000Y-44785000I150000J0D01*
G01*
X83625000Y-44785000D01*
G75*
G02*
X83775000Y-44935000I0J-150000D01*
G01*
X83775000Y-45235000D01*
G75*
G02*
X83625000Y-45385000I-150000J0D01*
G01*
X82325000Y-45385000D01*
G75*
G02*
X82175000Y-45235000I0J150000D01*
G01*
G37*
G04 #@! TD.AperFunction*
G04 #@! TA.AperFunction,SMDPad,CuDef*
G36*
G01*
X82175000Y-46505000D02*
X82175000Y-46205000D01*
G75*
G02*
X82325000Y-46055000I150000J0D01*
G01*
X83625000Y-46055000D01*
G75*
G02*
X83775000Y-46205000I0J-150000D01*
G01*
X83775000Y-46505000D01*
G75*
G02*
X83625000Y-46655000I-150000J0D01*
G01*
X82325000Y-46655000D01*
G75*
G02*
X82175000Y-46505000I0J150000D01*
G01*
G37*
G04 #@! TD.AperFunction*
G04 #@! TA.AperFunction,SMDPad,CuDef*
G36*
G01*
X74975000Y-46505000D02*
X74975000Y-46205000D01*
G75*
G02*
X75125000Y-46055000I150000J0D01*
G01*
X76425000Y-46055000D01*
G75*
G02*
X76575000Y-46205000I0J-150000D01*
G01*
X76575000Y-46505000D01*
G75*
G02*
X76425000Y-46655000I-150000J0D01*
G01*
X75125000Y-46655000D01*
G75*
G02*
X74975000Y-46505000I0J150000D01*
G01*
G37*
G04 #@! TD.AperFunction*
G04 #@! TA.AperFunction,SMDPad,CuDef*
G36*
G01*
X74975000Y-45235000D02*
X74975000Y-44935000D01*
G75*
G02*
X75125000Y-44785000I150000J0D01*
G01*
X76425000Y-44785000D01*
G75*
G02*
X76575000Y-44935000I0J-150000D01*
G01*
X76575000Y-45235000D01*
G75*
G02*
X76425000Y-45385000I-150000J0D01*
G01*
X75125000Y-45385000D01*
G75*
G02*
X74975000Y-45235000I0J150000D01*
G01*
G37*
G04 #@! TD.AperFunction*
G04 #@! TA.AperFunction,SMDPad,CuDef*
G36*
G01*
X74975000Y-43965000D02*
X74975000Y-43665000D01*
G75*
G02*
X75125000Y-43515000I150000J0D01*
G01*
X76425000Y-43515000D01*
G75*
G02*
X76575000Y-43665000I0J-150000D01*
G01*
X76575000Y-43965000D01*
G75*
G02*
X76425000Y-44115000I-150000J0D01*
G01*
X75125000Y-44115000D01*
G75*
G02*
X74975000Y-43965000I0J150000D01*
G01*
G37*
G04 #@! TD.AperFunction*
G04 #@! TA.AperFunction,SMDPad,CuDef*
G36*
G01*
X74975000Y-42695000D02*
X74975000Y-42395000D01*
G75*
G02*
X75125000Y-42245000I150000J0D01*
G01*
X76425000Y-42245000D01*
G75*
G02*
X76575000Y-42395000I0J-150000D01*
G01*
X76575000Y-42695000D01*
G75*
G02*
X76425000Y-42845000I-150000J0D01*
G01*
X75125000Y-42845000D01*
G75*
G02*
X74975000Y-42695000I0J150000D01*
G01*
G37*
G04 #@! TD.AperFunction*
G04 #@! TA.AperFunction,SMDPad,CuDef*
G36*
G01*
X68744000Y-28782000D02*
X68744000Y-27457000D01*
G75*
G02*
X68819000Y-27382000I75000J0D01*
G01*
X68969000Y-27382000D01*
G75*
G02*
X69044000Y-27457000I0J-75000D01*
G01*
X69044000Y-28782000D01*
G75*
G02*
X68969000Y-28857000I-75000J0D01*
G01*
X68819000Y-28857000D01*
G75*
G02*
X68744000Y-28782000I0J75000D01*
G01*
G37*
G04 #@! TD.AperFunction*
G04 #@! TA.AperFunction,SMDPad,CuDef*
G36*
G01*
X69244000Y-28782000D02*
X69244000Y-27457000D01*
G75*
G02*
X69319000Y-27382000I75000J0D01*
G01*
X69469000Y-27382000D01*
G75*
G02*
X69544000Y-27457000I0J-75000D01*
G01*
X69544000Y-28782000D01*
G75*
G02*
X69469000Y-28857000I-75000J0D01*
G01*
X69319000Y-28857000D01*
G75*
G02*
X69244000Y-28782000I0J75000D01*
G01*
G37*
G04 #@! TD.AperFunction*
G04 #@! TA.AperFunction,SMDPad,CuDef*
G36*
G01*
X69744000Y-28782000D02*
X69744000Y-27457000D01*
G75*
G02*
X69819000Y-27382000I75000J0D01*
G01*
X69969000Y-27382000D01*
G75*
G02*
X70044000Y-27457000I0J-75000D01*
G01*
X70044000Y-28782000D01*
G75*
G02*
X69969000Y-28857000I-75000J0D01*
G01*
X69819000Y-28857000D01*
G75*
G02*
X69744000Y-28782000I0J75000D01*
G01*
G37*
G04 #@! TD.AperFunction*
G04 #@! TA.AperFunction,SMDPad,CuDef*
G36*
G01*
X70244000Y-28782000D02*
X70244000Y-27457000D01*
G75*
G02*
X70319000Y-27382000I75000J0D01*
G01*
X70469000Y-27382000D01*
G75*
G02*
X70544000Y-27457000I0J-75000D01*
G01*
X70544000Y-28782000D01*
G75*
G02*
X70469000Y-28857000I-75000J0D01*
G01*
X70319000Y-28857000D01*
G75*
G02*
X70244000Y-28782000I0J75000D01*
G01*
G37*
G04 #@! TD.AperFunction*
G04 #@! TA.AperFunction,SMDPad,CuDef*
G36*
G01*
X70744000Y-28782000D02*
X70744000Y-27457000D01*
G75*
G02*
X70819000Y-27382000I75000J0D01*
G01*
X70969000Y-27382000D01*
G75*
G02*
X71044000Y-27457000I0J-75000D01*
G01*
X71044000Y-28782000D01*
G75*
G02*
X70969000Y-28857000I-75000J0D01*
G01*
X70819000Y-28857000D01*
G75*
G02*
X70744000Y-28782000I0J75000D01*
G01*
G37*
G04 #@! TD.AperFunction*
G04 #@! TA.AperFunction,SMDPad,CuDef*
G36*
G01*
X71244000Y-28782000D02*
X71244000Y-27457000D01*
G75*
G02*
X71319000Y-27382000I75000J0D01*
G01*
X71469000Y-27382000D01*
G75*
G02*
X71544000Y-27457000I0J-75000D01*
G01*
X71544000Y-28782000D01*
G75*
G02*
X71469000Y-28857000I-75000J0D01*
G01*
X71319000Y-28857000D01*
G75*
G02*
X71244000Y-28782000I0J75000D01*
G01*
G37*
G04 #@! TD.AperFunction*
G04 #@! TA.AperFunction,SMDPad,CuDef*
G36*
G01*
X71744000Y-28782000D02*
X71744000Y-27457000D01*
G75*
G02*
X71819000Y-27382000I75000J0D01*
G01*
X71969000Y-27382000D01*
G75*
G02*
X72044000Y-27457000I0J-75000D01*
G01*
X72044000Y-28782000D01*
G75*
G02*
X71969000Y-28857000I-75000J0D01*
G01*
X71819000Y-28857000D01*
G75*
G02*
X71744000Y-28782000I0J75000D01*
G01*
G37*
G04 #@! TD.AperFunction*
G04 #@! TA.AperFunction,SMDPad,CuDef*
G36*
G01*
X72244000Y-28782000D02*
X72244000Y-27457000D01*
G75*
G02*
X72319000Y-27382000I75000J0D01*
G01*
X72469000Y-27382000D01*
G75*
G02*
X72544000Y-27457000I0J-75000D01*
G01*
X72544000Y-28782000D01*
G75*
G02*
X72469000Y-28857000I-75000J0D01*
G01*
X72319000Y-28857000D01*
G75*
G02*
X72244000Y-28782000I0J75000D01*
G01*
G37*
G04 #@! TD.AperFunction*
G04 #@! TA.AperFunction,SMDPad,CuDef*
G36*
G01*
X72744000Y-28782000D02*
X72744000Y-27457000D01*
G75*
G02*
X72819000Y-27382000I75000J0D01*
G01*
X72969000Y-27382000D01*
G75*
G02*
X73044000Y-27457000I0J-75000D01*
G01*
X73044000Y-28782000D01*
G75*
G02*
X72969000Y-28857000I-75000J0D01*
G01*
X72819000Y-28857000D01*
G75*
G02*
X72744000Y-28782000I0J75000D01*
G01*
G37*
G04 #@! TD.AperFunction*
G04 #@! TA.AperFunction,SMDPad,CuDef*
G36*
G01*
X73244000Y-28782000D02*
X73244000Y-27457000D01*
G75*
G02*
X73319000Y-27382000I75000J0D01*
G01*
X73469000Y-27382000D01*
G75*
G02*
X73544000Y-27457000I0J-75000D01*
G01*
X73544000Y-28782000D01*
G75*
G02*
X73469000Y-28857000I-75000J0D01*
G01*
X73319000Y-28857000D01*
G75*
G02*
X73244000Y-28782000I0J75000D01*
G01*
G37*
G04 #@! TD.AperFunction*
G04 #@! TA.AperFunction,SMDPad,CuDef*
G36*
G01*
X73744000Y-28782000D02*
X73744000Y-27457000D01*
G75*
G02*
X73819000Y-27382000I75000J0D01*
G01*
X73969000Y-27382000D01*
G75*
G02*
X74044000Y-27457000I0J-75000D01*
G01*
X74044000Y-28782000D01*
G75*
G02*
X73969000Y-28857000I-75000J0D01*
G01*
X73819000Y-28857000D01*
G75*
G02*
X73744000Y-28782000I0J75000D01*
G01*
G37*
G04 #@! TD.AperFunction*
G04 #@! TA.AperFunction,SMDPad,CuDef*
G36*
G01*
X74244000Y-28782000D02*
X74244000Y-27457000D01*
G75*
G02*
X74319000Y-27382000I75000J0D01*
G01*
X74469000Y-27382000D01*
G75*
G02*
X74544000Y-27457000I0J-75000D01*
G01*
X74544000Y-28782000D01*
G75*
G02*
X74469000Y-28857000I-75000J0D01*
G01*
X74319000Y-28857000D01*
G75*
G02*
X74244000Y-28782000I0J75000D01*
G01*
G37*
G04 #@! TD.AperFunction*
G04 #@! TA.AperFunction,SMDPad,CuDef*
G36*
G01*
X74744000Y-28782000D02*
X74744000Y-27457000D01*
G75*
G02*
X74819000Y-27382000I75000J0D01*
G01*
X74969000Y-27382000D01*
G75*
G02*
X75044000Y-27457000I0J-75000D01*
G01*
X75044000Y-28782000D01*
G75*
G02*
X74969000Y-28857000I-75000J0D01*
G01*
X74819000Y-28857000D01*
G75*
G02*
X74744000Y-28782000I0J75000D01*
G01*
G37*
G04 #@! TD.AperFunction*
G04 #@! TA.AperFunction,SMDPad,CuDef*
G36*
G01*
X75244000Y-28782000D02*
X75244000Y-27457000D01*
G75*
G02*
X75319000Y-27382000I75000J0D01*
G01*
X75469000Y-27382000D01*
G75*
G02*
X75544000Y-27457000I0J-75000D01*
G01*
X75544000Y-28782000D01*
G75*
G02*
X75469000Y-28857000I-75000J0D01*
G01*
X75319000Y-28857000D01*
G75*
G02*
X75244000Y-28782000I0J75000D01*
G01*
G37*
G04 #@! TD.AperFunction*
G04 #@! TA.AperFunction,SMDPad,CuDef*
G36*
G01*
X75744000Y-28782000D02*
X75744000Y-27457000D01*
G75*
G02*
X75819000Y-27382000I75000J0D01*
G01*
X75969000Y-27382000D01*
G75*
G02*
X76044000Y-27457000I0J-75000D01*
G01*
X76044000Y-28782000D01*
G75*
G02*
X75969000Y-28857000I-75000J0D01*
G01*
X75819000Y-28857000D01*
G75*
G02*
X75744000Y-28782000I0J75000D01*
G01*
G37*
G04 #@! TD.AperFunction*
G04 #@! TA.AperFunction,SMDPad,CuDef*
G36*
G01*
X76244000Y-28782000D02*
X76244000Y-27457000D01*
G75*
G02*
X76319000Y-27382000I75000J0D01*
G01*
X76469000Y-27382000D01*
G75*
G02*
X76544000Y-27457000I0J-75000D01*
G01*
X76544000Y-28782000D01*
G75*
G02*
X76469000Y-28857000I-75000J0D01*
G01*
X76319000Y-28857000D01*
G75*
G02*
X76244000Y-28782000I0J75000D01*
G01*
G37*
G04 #@! TD.AperFunction*
G04 #@! TA.AperFunction,SMDPad,CuDef*
G36*
G01*
X77569000Y-30107000D02*
X77569000Y-29957000D01*
G75*
G02*
X77644000Y-29882000I75000J0D01*
G01*
X78969000Y-29882000D01*
G75*
G02*
X79044000Y-29957000I0J-75000D01*
G01*
X79044000Y-30107000D01*
G75*
G02*
X78969000Y-30182000I-75000J0D01*
G01*
X77644000Y-30182000D01*
G75*
G02*
X77569000Y-30107000I0J75000D01*
G01*
G37*
G04 #@! TD.AperFunction*
G04 #@! TA.AperFunction,SMDPad,CuDef*
G36*
G01*
X77569000Y-30607000D02*
X77569000Y-30457000D01*
G75*
G02*
X77644000Y-30382000I75000J0D01*
G01*
X78969000Y-30382000D01*
G75*
G02*
X79044000Y-30457000I0J-75000D01*
G01*
X79044000Y-30607000D01*
G75*
G02*
X78969000Y-30682000I-75000J0D01*
G01*
X77644000Y-30682000D01*
G75*
G02*
X77569000Y-30607000I0J75000D01*
G01*
G37*
G04 #@! TD.AperFunction*
G04 #@! TA.AperFunction,SMDPad,CuDef*
G36*
G01*
X77569000Y-31107000D02*
X77569000Y-30957000D01*
G75*
G02*
X77644000Y-30882000I75000J0D01*
G01*
X78969000Y-30882000D01*
G75*
G02*
X79044000Y-30957000I0J-75000D01*
G01*
X79044000Y-31107000D01*
G75*
G02*
X78969000Y-31182000I-75000J0D01*
G01*
X77644000Y-31182000D01*
G75*
G02*
X77569000Y-31107000I0J75000D01*
G01*
G37*
G04 #@! TD.AperFunction*
G04 #@! TA.AperFunction,SMDPad,CuDef*
G36*
G01*
X77569000Y-31607000D02*
X77569000Y-31457000D01*
G75*
G02*
X77644000Y-31382000I75000J0D01*
G01*
X78969000Y-31382000D01*
G75*
G02*
X79044000Y-31457000I0J-75000D01*
G01*
X79044000Y-31607000D01*
G75*
G02*
X78969000Y-31682000I-75000J0D01*
G01*
X77644000Y-31682000D01*
G75*
G02*
X77569000Y-31607000I0J75000D01*
G01*
G37*
G04 #@! TD.AperFunction*
G04 #@! TA.AperFunction,SMDPad,CuDef*
G36*
G01*
X77569000Y-32107000D02*
X77569000Y-31957000D01*
G75*
G02*
X77644000Y-31882000I75000J0D01*
G01*
X78969000Y-31882000D01*
G75*
G02*
X79044000Y-31957000I0J-75000D01*
G01*
X79044000Y-32107000D01*
G75*
G02*
X78969000Y-32182000I-75000J0D01*
G01*
X77644000Y-32182000D01*
G75*
G02*
X77569000Y-32107000I0J75000D01*
G01*
G37*
G04 #@! TD.AperFunction*
G04 #@! TA.AperFunction,SMDPad,CuDef*
G36*
G01*
X77569000Y-32607000D02*
X77569000Y-32457000D01*
G75*
G02*
X77644000Y-32382000I75000J0D01*
G01*
X78969000Y-32382000D01*
G75*
G02*
X79044000Y-32457000I0J-75000D01*
G01*
X79044000Y-32607000D01*
G75*
G02*
X78969000Y-32682000I-75000J0D01*
G01*
X77644000Y-32682000D01*
G75*
G02*
X77569000Y-32607000I0J75000D01*
G01*
G37*
G04 #@! TD.AperFunction*
G04 #@! TA.AperFunction,SMDPad,CuDef*
G36*
G01*
X77569000Y-33107000D02*
X77569000Y-32957000D01*
G75*
G02*
X77644000Y-32882000I75000J0D01*
G01*
X78969000Y-32882000D01*
G75*
G02*
X79044000Y-32957000I0J-75000D01*
G01*
X79044000Y-33107000D01*
G75*
G02*
X78969000Y-33182000I-75000J0D01*
G01*
X77644000Y-33182000D01*
G75*
G02*
X77569000Y-33107000I0J75000D01*
G01*
G37*
G04 #@! TD.AperFunction*
G04 #@! TA.AperFunction,SMDPad,CuDef*
G36*
G01*
X77569000Y-33607000D02*
X77569000Y-33457000D01*
G75*
G02*
X77644000Y-33382000I75000J0D01*
G01*
X78969000Y-33382000D01*
G75*
G02*
X79044000Y-33457000I0J-75000D01*
G01*
X79044000Y-33607000D01*
G75*
G02*
X78969000Y-33682000I-75000J0D01*
G01*
X77644000Y-33682000D01*
G75*
G02*
X77569000Y-33607000I0J75000D01*
G01*
G37*
G04 #@! TD.AperFunction*
G04 #@! TA.AperFunction,SMDPad,CuDef*
G36*
G01*
X77569000Y-34107000D02*
X77569000Y-33957000D01*
G75*
G02*
X77644000Y-33882000I75000J0D01*
G01*
X78969000Y-33882000D01*
G75*
G02*
X79044000Y-33957000I0J-75000D01*
G01*
X79044000Y-34107000D01*
G75*
G02*
X78969000Y-34182000I-75000J0D01*
G01*
X77644000Y-34182000D01*
G75*
G02*
X77569000Y-34107000I0J75000D01*
G01*
G37*
G04 #@! TD.AperFunction*
G04 #@! TA.AperFunction,SMDPad,CuDef*
G36*
G01*
X77569000Y-34607000D02*
X77569000Y-34457000D01*
G75*
G02*
X77644000Y-34382000I75000J0D01*
G01*
X78969000Y-34382000D01*
G75*
G02*
X79044000Y-34457000I0J-75000D01*
G01*
X79044000Y-34607000D01*
G75*
G02*
X78969000Y-34682000I-75000J0D01*
G01*
X77644000Y-34682000D01*
G75*
G02*
X77569000Y-34607000I0J75000D01*
G01*
G37*
G04 #@! TD.AperFunction*
G04 #@! TA.AperFunction,SMDPad,CuDef*
G36*
G01*
X77569000Y-35107000D02*
X77569000Y-34957000D01*
G75*
G02*
X77644000Y-34882000I75000J0D01*
G01*
X78969000Y-34882000D01*
G75*
G02*
X79044000Y-34957000I0J-75000D01*
G01*
X79044000Y-35107000D01*
G75*
G02*
X78969000Y-35182000I-75000J0D01*
G01*
X77644000Y-35182000D01*
G75*
G02*
X77569000Y-35107000I0J75000D01*
G01*
G37*
G04 #@! TD.AperFunction*
G04 #@! TA.AperFunction,SMDPad,CuDef*
G36*
G01*
X77569000Y-35607000D02*
X77569000Y-35457000D01*
G75*
G02*
X77644000Y-35382000I75000J0D01*
G01*
X78969000Y-35382000D01*
G75*
G02*
X79044000Y-35457000I0J-75000D01*
G01*
X79044000Y-35607000D01*
G75*
G02*
X78969000Y-35682000I-75000J0D01*
G01*
X77644000Y-35682000D01*
G75*
G02*
X77569000Y-35607000I0J75000D01*
G01*
G37*
G04 #@! TD.AperFunction*
G04 #@! TA.AperFunction,SMDPad,CuDef*
G36*
G01*
X77569000Y-36107000D02*
X77569000Y-35957000D01*
G75*
G02*
X77644000Y-35882000I75000J0D01*
G01*
X78969000Y-35882000D01*
G75*
G02*
X79044000Y-35957000I0J-75000D01*
G01*
X79044000Y-36107000D01*
G75*
G02*
X78969000Y-36182000I-75000J0D01*
G01*
X77644000Y-36182000D01*
G75*
G02*
X77569000Y-36107000I0J75000D01*
G01*
G37*
G04 #@! TD.AperFunction*
G04 #@! TA.AperFunction,SMDPad,CuDef*
G36*
G01*
X77569000Y-36607000D02*
X77569000Y-36457000D01*
G75*
G02*
X77644000Y-36382000I75000J0D01*
G01*
X78969000Y-36382000D01*
G75*
G02*
X79044000Y-36457000I0J-75000D01*
G01*
X79044000Y-36607000D01*
G75*
G02*
X78969000Y-36682000I-75000J0D01*
G01*
X77644000Y-36682000D01*
G75*
G02*
X77569000Y-36607000I0J75000D01*
G01*
G37*
G04 #@! TD.AperFunction*
G04 #@! TA.AperFunction,SMDPad,CuDef*
G36*
G01*
X77569000Y-37107000D02*
X77569000Y-36957000D01*
G75*
G02*
X77644000Y-36882000I75000J0D01*
G01*
X78969000Y-36882000D01*
G75*
G02*
X79044000Y-36957000I0J-75000D01*
G01*
X79044000Y-37107000D01*
G75*
G02*
X78969000Y-37182000I-75000J0D01*
G01*
X77644000Y-37182000D01*
G75*
G02*
X77569000Y-37107000I0J75000D01*
G01*
G37*
G04 #@! TD.AperFunction*
G04 #@! TA.AperFunction,SMDPad,CuDef*
G36*
G01*
X77569000Y-37607000D02*
X77569000Y-37457000D01*
G75*
G02*
X77644000Y-37382000I75000J0D01*
G01*
X78969000Y-37382000D01*
G75*
G02*
X79044000Y-37457000I0J-75000D01*
G01*
X79044000Y-37607000D01*
G75*
G02*
X78969000Y-37682000I-75000J0D01*
G01*
X77644000Y-37682000D01*
G75*
G02*
X77569000Y-37607000I0J75000D01*
G01*
G37*
G04 #@! TD.AperFunction*
G04 #@! TA.AperFunction,SMDPad,CuDef*
G36*
G01*
X76244000Y-40107000D02*
X76244000Y-38782000D01*
G75*
G02*
X76319000Y-38707000I75000J0D01*
G01*
X76469000Y-38707000D01*
G75*
G02*
X76544000Y-38782000I0J-75000D01*
G01*
X76544000Y-40107000D01*
G75*
G02*
X76469000Y-40182000I-75000J0D01*
G01*
X76319000Y-40182000D01*
G75*
G02*
X76244000Y-40107000I0J75000D01*
G01*
G37*
G04 #@! TD.AperFunction*
G04 #@! TA.AperFunction,SMDPad,CuDef*
G36*
G01*
X75744000Y-40107000D02*
X75744000Y-38782000D01*
G75*
G02*
X75819000Y-38707000I75000J0D01*
G01*
X75969000Y-38707000D01*
G75*
G02*
X76044000Y-38782000I0J-75000D01*
G01*
X76044000Y-40107000D01*
G75*
G02*
X75969000Y-40182000I-75000J0D01*
G01*
X75819000Y-40182000D01*
G75*
G02*
X75744000Y-40107000I0J75000D01*
G01*
G37*
G04 #@! TD.AperFunction*
G04 #@! TA.AperFunction,SMDPad,CuDef*
G36*
G01*
X75244000Y-40107000D02*
X75244000Y-38782000D01*
G75*
G02*
X75319000Y-38707000I75000J0D01*
G01*
X75469000Y-38707000D01*
G75*
G02*
X75544000Y-38782000I0J-75000D01*
G01*
X75544000Y-40107000D01*
G75*
G02*
X75469000Y-40182000I-75000J0D01*
G01*
X75319000Y-40182000D01*
G75*
G02*
X75244000Y-40107000I0J75000D01*
G01*
G37*
G04 #@! TD.AperFunction*
G04 #@! TA.AperFunction,SMDPad,CuDef*
G36*
G01*
X74744000Y-40107000D02*
X74744000Y-38782000D01*
G75*
G02*
X74819000Y-38707000I75000J0D01*
G01*
X74969000Y-38707000D01*
G75*
G02*
X75044000Y-38782000I0J-75000D01*
G01*
X75044000Y-40107000D01*
G75*
G02*
X74969000Y-40182000I-75000J0D01*
G01*
X74819000Y-40182000D01*
G75*
G02*
X74744000Y-40107000I0J75000D01*
G01*
G37*
G04 #@! TD.AperFunction*
G04 #@! TA.AperFunction,SMDPad,CuDef*
G36*
G01*
X74244000Y-40107000D02*
X74244000Y-38782000D01*
G75*
G02*
X74319000Y-38707000I75000J0D01*
G01*
X74469000Y-38707000D01*
G75*
G02*
X74544000Y-38782000I0J-75000D01*
G01*
X74544000Y-40107000D01*
G75*
G02*
X74469000Y-40182000I-75000J0D01*
G01*
X74319000Y-40182000D01*
G75*
G02*
X74244000Y-40107000I0J75000D01*
G01*
G37*
G04 #@! TD.AperFunction*
G04 #@! TA.AperFunction,SMDPad,CuDef*
G36*
G01*
X73744000Y-40107000D02*
X73744000Y-38782000D01*
G75*
G02*
X73819000Y-38707000I75000J0D01*
G01*
X73969000Y-38707000D01*
G75*
G02*
X74044000Y-38782000I0J-75000D01*
G01*
X74044000Y-40107000D01*
G75*
G02*
X73969000Y-40182000I-75000J0D01*
G01*
X73819000Y-40182000D01*
G75*
G02*
X73744000Y-40107000I0J75000D01*
G01*
G37*
G04 #@! TD.AperFunction*
G04 #@! TA.AperFunction,SMDPad,CuDef*
G36*
G01*
X73244000Y-40107000D02*
X73244000Y-38782000D01*
G75*
G02*
X73319000Y-38707000I75000J0D01*
G01*
X73469000Y-38707000D01*
G75*
G02*
X73544000Y-38782000I0J-75000D01*
G01*
X73544000Y-40107000D01*
G75*
G02*
X73469000Y-40182000I-75000J0D01*
G01*
X73319000Y-40182000D01*
G75*
G02*
X73244000Y-40107000I0J75000D01*
G01*
G37*
G04 #@! TD.AperFunction*
G04 #@! TA.AperFunction,SMDPad,CuDef*
G36*
G01*
X72744000Y-40107000D02*
X72744000Y-38782000D01*
G75*
G02*
X72819000Y-38707000I75000J0D01*
G01*
X72969000Y-38707000D01*
G75*
G02*
X73044000Y-38782000I0J-75000D01*
G01*
X73044000Y-40107000D01*
G75*
G02*
X72969000Y-40182000I-75000J0D01*
G01*
X72819000Y-40182000D01*
G75*
G02*
X72744000Y-40107000I0J75000D01*
G01*
G37*
G04 #@! TD.AperFunction*
G04 #@! TA.AperFunction,SMDPad,CuDef*
G36*
G01*
X72244000Y-40107000D02*
X72244000Y-38782000D01*
G75*
G02*
X72319000Y-38707000I75000J0D01*
G01*
X72469000Y-38707000D01*
G75*
G02*
X72544000Y-38782000I0J-75000D01*
G01*
X72544000Y-40107000D01*
G75*
G02*
X72469000Y-40182000I-75000J0D01*
G01*
X72319000Y-40182000D01*
G75*
G02*
X72244000Y-40107000I0J75000D01*
G01*
G37*
G04 #@! TD.AperFunction*
G04 #@! TA.AperFunction,SMDPad,CuDef*
G36*
G01*
X71744000Y-40107000D02*
X71744000Y-38782000D01*
G75*
G02*
X71819000Y-38707000I75000J0D01*
G01*
X71969000Y-38707000D01*
G75*
G02*
X72044000Y-38782000I0J-75000D01*
G01*
X72044000Y-40107000D01*
G75*
G02*
X71969000Y-40182000I-75000J0D01*
G01*
X71819000Y-40182000D01*
G75*
G02*
X71744000Y-40107000I0J75000D01*
G01*
G37*
G04 #@! TD.AperFunction*
G04 #@! TA.AperFunction,SMDPad,CuDef*
G36*
G01*
X71244000Y-40107000D02*
X71244000Y-38782000D01*
G75*
G02*
X71319000Y-38707000I75000J0D01*
G01*
X71469000Y-38707000D01*
G75*
G02*
X71544000Y-38782000I0J-75000D01*
G01*
X71544000Y-40107000D01*
G75*
G02*
X71469000Y-40182000I-75000J0D01*
G01*
X71319000Y-40182000D01*
G75*
G02*
X71244000Y-40107000I0J75000D01*
G01*
G37*
G04 #@! TD.AperFunction*
G04 #@! TA.AperFunction,SMDPad,CuDef*
G36*
G01*
X70744000Y-40107000D02*
X70744000Y-38782000D01*
G75*
G02*
X70819000Y-38707000I75000J0D01*
G01*
X70969000Y-38707000D01*
G75*
G02*
X71044000Y-38782000I0J-75000D01*
G01*
X71044000Y-40107000D01*
G75*
G02*
X70969000Y-40182000I-75000J0D01*
G01*
X70819000Y-40182000D01*
G75*
G02*
X70744000Y-40107000I0J75000D01*
G01*
G37*
G04 #@! TD.AperFunction*
G04 #@! TA.AperFunction,SMDPad,CuDef*
G36*
G01*
X70244000Y-40107000D02*
X70244000Y-38782000D01*
G75*
G02*
X70319000Y-38707000I75000J0D01*
G01*
X70469000Y-38707000D01*
G75*
G02*
X70544000Y-38782000I0J-75000D01*
G01*
X70544000Y-40107000D01*
G75*
G02*
X70469000Y-40182000I-75000J0D01*
G01*
X70319000Y-40182000D01*
G75*
G02*
X70244000Y-40107000I0J75000D01*
G01*
G37*
G04 #@! TD.AperFunction*
G04 #@! TA.AperFunction,SMDPad,CuDef*
G36*
G01*
X69744000Y-40107000D02*
X69744000Y-38782000D01*
G75*
G02*
X69819000Y-38707000I75000J0D01*
G01*
X69969000Y-38707000D01*
G75*
G02*
X70044000Y-38782000I0J-75000D01*
G01*
X70044000Y-40107000D01*
G75*
G02*
X69969000Y-40182000I-75000J0D01*
G01*
X69819000Y-40182000D01*
G75*
G02*
X69744000Y-40107000I0J75000D01*
G01*
G37*
G04 #@! TD.AperFunction*
G04 #@! TA.AperFunction,SMDPad,CuDef*
G36*
G01*
X69244000Y-40107000D02*
X69244000Y-38782000D01*
G75*
G02*
X69319000Y-38707000I75000J0D01*
G01*
X69469000Y-38707000D01*
G75*
G02*
X69544000Y-38782000I0J-75000D01*
G01*
X69544000Y-40107000D01*
G75*
G02*
X69469000Y-40182000I-75000J0D01*
G01*
X69319000Y-40182000D01*
G75*
G02*
X69244000Y-40107000I0J75000D01*
G01*
G37*
G04 #@! TD.AperFunction*
G04 #@! TA.AperFunction,SMDPad,CuDef*
G36*
G01*
X68744000Y-40107000D02*
X68744000Y-38782000D01*
G75*
G02*
X68819000Y-38707000I75000J0D01*
G01*
X68969000Y-38707000D01*
G75*
G02*
X69044000Y-38782000I0J-75000D01*
G01*
X69044000Y-40107000D01*
G75*
G02*
X68969000Y-40182000I-75000J0D01*
G01*
X68819000Y-40182000D01*
G75*
G02*
X68744000Y-40107000I0J75000D01*
G01*
G37*
G04 #@! TD.AperFunction*
G04 #@! TA.AperFunction,SMDPad,CuDef*
G36*
G01*
X66244000Y-37607000D02*
X66244000Y-37457000D01*
G75*
G02*
X66319000Y-37382000I75000J0D01*
G01*
X67644000Y-37382000D01*
G75*
G02*
X67719000Y-37457000I0J-75000D01*
G01*
X67719000Y-37607000D01*
G75*
G02*
X67644000Y-37682000I-75000J0D01*
G01*
X66319000Y-37682000D01*
G75*
G02*
X66244000Y-37607000I0J75000D01*
G01*
G37*
G04 #@! TD.AperFunction*
G04 #@! TA.AperFunction,SMDPad,CuDef*
G36*
G01*
X66244000Y-37107000D02*
X66244000Y-36957000D01*
G75*
G02*
X66319000Y-36882000I75000J0D01*
G01*
X67644000Y-36882000D01*
G75*
G02*
X67719000Y-36957000I0J-75000D01*
G01*
X67719000Y-37107000D01*
G75*
G02*
X67644000Y-37182000I-75000J0D01*
G01*
X66319000Y-37182000D01*
G75*
G02*
X66244000Y-37107000I0J75000D01*
G01*
G37*
G04 #@! TD.AperFunction*
G04 #@! TA.AperFunction,SMDPad,CuDef*
G36*
G01*
X66244000Y-36607000D02*
X66244000Y-36457000D01*
G75*
G02*
X66319000Y-36382000I75000J0D01*
G01*
X67644000Y-36382000D01*
G75*
G02*
X67719000Y-36457000I0J-75000D01*
G01*
X67719000Y-36607000D01*
G75*
G02*
X67644000Y-36682000I-75000J0D01*
G01*
X66319000Y-36682000D01*
G75*
G02*
X66244000Y-36607000I0J75000D01*
G01*
G37*
G04 #@! TD.AperFunction*
G04 #@! TA.AperFunction,SMDPad,CuDef*
G36*
G01*
X66244000Y-36107000D02*
X66244000Y-35957000D01*
G75*
G02*
X66319000Y-35882000I75000J0D01*
G01*
X67644000Y-35882000D01*
G75*
G02*
X67719000Y-35957000I0J-75000D01*
G01*
X67719000Y-36107000D01*
G75*
G02*
X67644000Y-36182000I-75000J0D01*
G01*
X66319000Y-36182000D01*
G75*
G02*
X66244000Y-36107000I0J75000D01*
G01*
G37*
G04 #@! TD.AperFunction*
G04 #@! TA.AperFunction,SMDPad,CuDef*
G36*
G01*
X66244000Y-35607000D02*
X66244000Y-35457000D01*
G75*
G02*
X66319000Y-35382000I75000J0D01*
G01*
X67644000Y-35382000D01*
G75*
G02*
X67719000Y-35457000I0J-75000D01*
G01*
X67719000Y-35607000D01*
G75*
G02*
X67644000Y-35682000I-75000J0D01*
G01*
X66319000Y-35682000D01*
G75*
G02*
X66244000Y-35607000I0J75000D01*
G01*
G37*
G04 #@! TD.AperFunction*
G04 #@! TA.AperFunction,SMDPad,CuDef*
G36*
G01*
X66244000Y-35107000D02*
X66244000Y-34957000D01*
G75*
G02*
X66319000Y-34882000I75000J0D01*
G01*
X67644000Y-34882000D01*
G75*
G02*
X67719000Y-34957000I0J-75000D01*
G01*
X67719000Y-35107000D01*
G75*
G02*
X67644000Y-35182000I-75000J0D01*
G01*
X66319000Y-35182000D01*
G75*
G02*
X66244000Y-35107000I0J75000D01*
G01*
G37*
G04 #@! TD.AperFunction*
G04 #@! TA.AperFunction,SMDPad,CuDef*
G36*
G01*
X66244000Y-34607000D02*
X66244000Y-34457000D01*
G75*
G02*
X66319000Y-34382000I75000J0D01*
G01*
X67644000Y-34382000D01*
G75*
G02*
X67719000Y-34457000I0J-75000D01*
G01*
X67719000Y-34607000D01*
G75*
G02*
X67644000Y-34682000I-75000J0D01*
G01*
X66319000Y-34682000D01*
G75*
G02*
X66244000Y-34607000I0J75000D01*
G01*
G37*
G04 #@! TD.AperFunction*
G04 #@! TA.AperFunction,SMDPad,CuDef*
G36*
G01*
X66244000Y-34107000D02*
X66244000Y-33957000D01*
G75*
G02*
X66319000Y-33882000I75000J0D01*
G01*
X67644000Y-33882000D01*
G75*
G02*
X67719000Y-33957000I0J-75000D01*
G01*
X67719000Y-34107000D01*
G75*
G02*
X67644000Y-34182000I-75000J0D01*
G01*
X66319000Y-34182000D01*
G75*
G02*
X66244000Y-34107000I0J75000D01*
G01*
G37*
G04 #@! TD.AperFunction*
G04 #@! TA.AperFunction,SMDPad,CuDef*
G36*
G01*
X66244000Y-33607000D02*
X66244000Y-33457000D01*
G75*
G02*
X66319000Y-33382000I75000J0D01*
G01*
X67644000Y-33382000D01*
G75*
G02*
X67719000Y-33457000I0J-75000D01*
G01*
X67719000Y-33607000D01*
G75*
G02*
X67644000Y-33682000I-75000J0D01*
G01*
X66319000Y-33682000D01*
G75*
G02*
X66244000Y-33607000I0J75000D01*
G01*
G37*
G04 #@! TD.AperFunction*
G04 #@! TA.AperFunction,SMDPad,CuDef*
G36*
G01*
X66244000Y-33107000D02*
X66244000Y-32957000D01*
G75*
G02*
X66319000Y-32882000I75000J0D01*
G01*
X67644000Y-32882000D01*
G75*
G02*
X67719000Y-32957000I0J-75000D01*
G01*
X67719000Y-33107000D01*
G75*
G02*
X67644000Y-33182000I-75000J0D01*
G01*
X66319000Y-33182000D01*
G75*
G02*
X66244000Y-33107000I0J75000D01*
G01*
G37*
G04 #@! TD.AperFunction*
G04 #@! TA.AperFunction,SMDPad,CuDef*
G36*
G01*
X66244000Y-32607000D02*
X66244000Y-32457000D01*
G75*
G02*
X66319000Y-32382000I75000J0D01*
G01*
X67644000Y-32382000D01*
G75*
G02*
X67719000Y-32457000I0J-75000D01*
G01*
X67719000Y-32607000D01*
G75*
G02*
X67644000Y-32682000I-75000J0D01*
G01*
X66319000Y-32682000D01*
G75*
G02*
X66244000Y-32607000I0J75000D01*
G01*
G37*
G04 #@! TD.AperFunction*
G04 #@! TA.AperFunction,SMDPad,CuDef*
G36*
G01*
X66244000Y-32107000D02*
X66244000Y-31957000D01*
G75*
G02*
X66319000Y-31882000I75000J0D01*
G01*
X67644000Y-31882000D01*
G75*
G02*
X67719000Y-31957000I0J-75000D01*
G01*
X67719000Y-32107000D01*
G75*
G02*
X67644000Y-32182000I-75000J0D01*
G01*
X66319000Y-32182000D01*
G75*
G02*
X66244000Y-32107000I0J75000D01*
G01*
G37*
G04 #@! TD.AperFunction*
G04 #@! TA.AperFunction,SMDPad,CuDef*
G36*
G01*
X66244000Y-31607000D02*
X66244000Y-31457000D01*
G75*
G02*
X66319000Y-31382000I75000J0D01*
G01*
X67644000Y-31382000D01*
G75*
G02*
X67719000Y-31457000I0J-75000D01*
G01*
X67719000Y-31607000D01*
G75*
G02*
X67644000Y-31682000I-75000J0D01*
G01*
X66319000Y-31682000D01*
G75*
G02*
X66244000Y-31607000I0J75000D01*
G01*
G37*
G04 #@! TD.AperFunction*
G04 #@! TA.AperFunction,SMDPad,CuDef*
G36*
G01*
X66244000Y-31107000D02*
X66244000Y-30957000D01*
G75*
G02*
X66319000Y-30882000I75000J0D01*
G01*
X67644000Y-30882000D01*
G75*
G02*
X67719000Y-30957000I0J-75000D01*
G01*
X67719000Y-31107000D01*
G75*
G02*
X67644000Y-31182000I-75000J0D01*
G01*
X66319000Y-31182000D01*
G75*
G02*
X66244000Y-31107000I0J75000D01*
G01*
G37*
G04 #@! TD.AperFunction*
G04 #@! TA.AperFunction,SMDPad,CuDef*
G36*
G01*
X66244000Y-30607000D02*
X66244000Y-30457000D01*
G75*
G02*
X66319000Y-30382000I75000J0D01*
G01*
X67644000Y-30382000D01*
G75*
G02*
X67719000Y-30457000I0J-75000D01*
G01*
X67719000Y-30607000D01*
G75*
G02*
X67644000Y-30682000I-75000J0D01*
G01*
X66319000Y-30682000D01*
G75*
G02*
X66244000Y-30607000I0J75000D01*
G01*
G37*
G04 #@! TD.AperFunction*
G04 #@! TA.AperFunction,SMDPad,CuDef*
G36*
G01*
X66244000Y-30107000D02*
X66244000Y-29957000D01*
G75*
G02*
X66319000Y-29882000I75000J0D01*
G01*
X67644000Y-29882000D01*
G75*
G02*
X67719000Y-29957000I0J-75000D01*
G01*
X67719000Y-30107000D01*
G75*
G02*
X67644000Y-30182000I-75000J0D01*
G01*
X66319000Y-30182000D01*
G75*
G02*
X66244000Y-30107000I0J75000D01*
G01*
G37*
G04 #@! TD.AperFunction*
D11*
X86296500Y-43434000D03*
D12*
X55462000Y-43612000D03*
X55462000Y-46812000D03*
X60362000Y-43612000D03*
X60362000Y-46812000D03*
G04 #@! TA.AperFunction,SMDPad,CuDef*
G36*
G01*
X59940000Y-28377000D02*
X59440000Y-28377000D01*
G75*
G02*
X59215000Y-28152000I0J225000D01*
G01*
X59215000Y-27702000D01*
G75*
G02*
X59440000Y-27477000I225000J0D01*
G01*
X59940000Y-27477000D01*
G75*
G02*
X60165000Y-27702000I0J-225000D01*
G01*
X60165000Y-28152000D01*
G75*
G02*
X59940000Y-28377000I-225000J0D01*
G01*
G37*
G04 #@! TD.AperFunction*
G04 #@! TA.AperFunction,SMDPad,CuDef*
G36*
G01*
X59940000Y-29927000D02*
X59440000Y-29927000D01*
G75*
G02*
X59215000Y-29702000I0J225000D01*
G01*
X59215000Y-29252000D01*
G75*
G02*
X59440000Y-29027000I225000J0D01*
G01*
X59940000Y-29027000D01*
G75*
G02*
X60165000Y-29252000I0J-225000D01*
G01*
X60165000Y-29702000D01*
G75*
G02*
X59940000Y-29927000I-225000J0D01*
G01*
G37*
G04 #@! TD.AperFunction*
D13*
X63373000Y-30542000D03*
X63373000Y-28132000D03*
D14*
X71694000Y-45354000D03*
X71694000Y-44054000D03*
X73594000Y-44704000D03*
X73594000Y-44054000D03*
X73594000Y-45354000D03*
D15*
X57869000Y-31181000D03*
X57869000Y-33081000D03*
X55669000Y-33081000D03*
X55669000Y-32131000D03*
X55669000Y-31181000D03*
D16*
X41148000Y-36830000D03*
D17*
X41898000Y-38280000D03*
X41398000Y-38280000D03*
X40898000Y-38280000D03*
X40398000Y-38280000D03*
X40398000Y-35380000D03*
X40898000Y-35380000D03*
X41398000Y-35380000D03*
X41898000Y-35380000D03*
D18*
X52390000Y-38524000D03*
X54290000Y-38524000D03*
X54290000Y-40724000D03*
X53340000Y-40724000D03*
X52390000Y-40724000D03*
D11*
X90043000Y-43434000D03*
D19*
X89319000Y-34254000D03*
X81369000Y-34254000D03*
X89319000Y-29754000D03*
X81369000Y-29754000D03*
G04 #@! TA.AperFunction,SMDPad,CuDef*
G36*
G01*
X63163000Y-41169000D02*
X63163000Y-40619000D01*
G75*
G02*
X63363000Y-40419000I200000J0D01*
G01*
X63763000Y-40419000D01*
G75*
G02*
X63963000Y-40619000I0J-200000D01*
G01*
X63963000Y-41169000D01*
G75*
G02*
X63763000Y-41369000I-200000J0D01*
G01*
X63363000Y-41369000D01*
G75*
G02*
X63163000Y-41169000I0J200000D01*
G01*
G37*
G04 #@! TD.AperFunction*
G04 #@! TA.AperFunction,SMDPad,CuDef*
G36*
G01*
X61513000Y-41169000D02*
X61513000Y-40619000D01*
G75*
G02*
X61713000Y-40419000I200000J0D01*
G01*
X62113000Y-40419000D01*
G75*
G02*
X62313000Y-40619000I0J-200000D01*
G01*
X62313000Y-41169000D01*
G75*
G02*
X62113000Y-41369000I-200000J0D01*
G01*
X61713000Y-41369000D01*
G75*
G02*
X61513000Y-41169000I0J200000D01*
G01*
G37*
G04 #@! TD.AperFunction*
G04 #@! TA.AperFunction,SMDPad,CuDef*
G36*
G01*
X73196000Y-47392000D02*
X73196000Y-46842000D01*
G75*
G02*
X73396000Y-46642000I200000J0D01*
G01*
X73796000Y-46642000D01*
G75*
G02*
X73996000Y-46842000I0J-200000D01*
G01*
X73996000Y-47392000D01*
G75*
G02*
X73796000Y-47592000I-200000J0D01*
G01*
X73396000Y-47592000D01*
G75*
G02*
X73196000Y-47392000I0J200000D01*
G01*
G37*
G04 #@! TD.AperFunction*
G04 #@! TA.AperFunction,SMDPad,CuDef*
G36*
G01*
X71546000Y-47392000D02*
X71546000Y-46842000D01*
G75*
G02*
X71746000Y-46642000I200000J0D01*
G01*
X72146000Y-46642000D01*
G75*
G02*
X72346000Y-46842000I0J-200000D01*
G01*
X72346000Y-47392000D01*
G75*
G02*
X72146000Y-47592000I-200000J0D01*
G01*
X71746000Y-47592000D01*
G75*
G02*
X71546000Y-47392000I0J200000D01*
G01*
G37*
G04 #@! TD.AperFunction*
G04 #@! TA.AperFunction,SMDPad,CuDef*
G36*
G01*
X59646000Y-38714000D02*
X59646000Y-39264000D01*
G75*
G02*
X59446000Y-39464000I-200000J0D01*
G01*
X59046000Y-39464000D01*
G75*
G02*
X58846000Y-39264000I0J200000D01*
G01*
X58846000Y-38714000D01*
G75*
G02*
X59046000Y-38514000I200000J0D01*
G01*
X59446000Y-38514000D01*
G75*
G02*
X59646000Y-38714000I0J-200000D01*
G01*
G37*
G04 #@! TD.AperFunction*
G04 #@! TA.AperFunction,SMDPad,CuDef*
G36*
G01*
X61296000Y-38714000D02*
X61296000Y-39264000D01*
G75*
G02*
X61096000Y-39464000I-200000J0D01*
G01*
X60696000Y-39464000D01*
G75*
G02*
X60496000Y-39264000I0J200000D01*
G01*
X60496000Y-38714000D01*
G75*
G02*
X60696000Y-38514000I200000J0D01*
G01*
X61096000Y-38514000D01*
G75*
G02*
X61296000Y-38714000I0J-200000D01*
G01*
G37*
G04 #@! TD.AperFunction*
G04 #@! TA.AperFunction,SMDPad,CuDef*
G36*
G01*
X66442000Y-39199000D02*
X65892000Y-39199000D01*
G75*
G02*
X65692000Y-38999000I0J200000D01*
G01*
X65692000Y-38599000D01*
G75*
G02*
X65892000Y-38399000I200000J0D01*
G01*
X66442000Y-38399000D01*
G75*
G02*
X66642000Y-38599000I0J-200000D01*
G01*
X66642000Y-38999000D01*
G75*
G02*
X66442000Y-39199000I-200000J0D01*
G01*
G37*
G04 #@! TD.AperFunction*
G04 #@! TA.AperFunction,SMDPad,CuDef*
G36*
G01*
X66442000Y-40849000D02*
X65892000Y-40849000D01*
G75*
G02*
X65692000Y-40649000I0J200000D01*
G01*
X65692000Y-40249000D01*
G75*
G02*
X65892000Y-40049000I200000J0D01*
G01*
X66442000Y-40049000D01*
G75*
G02*
X66642000Y-40249000I0J-200000D01*
G01*
X66642000Y-40649000D01*
G75*
G02*
X66442000Y-40849000I-200000J0D01*
G01*
G37*
G04 #@! TD.AperFunction*
G04 #@! TA.AperFunction,SMDPad,CuDef*
G36*
G01*
X80943000Y-27707000D02*
X80943000Y-27157000D01*
G75*
G02*
X81143000Y-26957000I200000J0D01*
G01*
X81543000Y-26957000D01*
G75*
G02*
X81743000Y-27157000I0J-200000D01*
G01*
X81743000Y-27707000D01*
G75*
G02*
X81543000Y-27907000I-200000J0D01*
G01*
X81143000Y-27907000D01*
G75*
G02*
X80943000Y-27707000I0J200000D01*
G01*
G37*
G04 #@! TD.AperFunction*
G04 #@! TA.AperFunction,SMDPad,CuDef*
G36*
G01*
X79293000Y-27707000D02*
X79293000Y-27157000D01*
G75*
G02*
X79493000Y-26957000I200000J0D01*
G01*
X79893000Y-26957000D01*
G75*
G02*
X80093000Y-27157000I0J-200000D01*
G01*
X80093000Y-27707000D01*
G75*
G02*
X79893000Y-27907000I-200000J0D01*
G01*
X79493000Y-27907000D01*
G75*
G02*
X79293000Y-27707000I0J200000D01*
G01*
G37*
G04 #@! TD.AperFunction*
G04 #@! TA.AperFunction,SMDPad,CuDef*
G36*
G01*
X86720000Y-40303000D02*
X87270000Y-40303000D01*
G75*
G02*
X87470000Y-40503000I0J-200000D01*
G01*
X87470000Y-40903000D01*
G75*
G02*
X87270000Y-41103000I-200000J0D01*
G01*
X86720000Y-41103000D01*
G75*
G02*
X86520000Y-40903000I0J200000D01*
G01*
X86520000Y-40503000D01*
G75*
G02*
X86720000Y-40303000I200000J0D01*
G01*
G37*
G04 #@! TD.AperFunction*
G04 #@! TA.AperFunction,SMDPad,CuDef*
G36*
G01*
X86720000Y-38653000D02*
X87270000Y-38653000D01*
G75*
G02*
X87470000Y-38853000I0J-200000D01*
G01*
X87470000Y-39253000D01*
G75*
G02*
X87270000Y-39453000I-200000J0D01*
G01*
X86720000Y-39453000D01*
G75*
G02*
X86520000Y-39253000I0J200000D01*
G01*
X86520000Y-38853000D01*
G75*
G02*
X86720000Y-38653000I200000J0D01*
G01*
G37*
G04 #@! TD.AperFunction*
G04 #@! TA.AperFunction,SMDPad,CuDef*
G36*
G01*
X59415000Y-35477000D02*
X59965000Y-35477000D01*
G75*
G02*
X60165000Y-35677000I0J-200000D01*
G01*
X60165000Y-36077000D01*
G75*
G02*
X59965000Y-36277000I-200000J0D01*
G01*
X59415000Y-36277000D01*
G75*
G02*
X59215000Y-36077000I0J200000D01*
G01*
X59215000Y-35677000D01*
G75*
G02*
X59415000Y-35477000I200000J0D01*
G01*
G37*
G04 #@! TD.AperFunction*
G04 #@! TA.AperFunction,SMDPad,CuDef*
G36*
G01*
X59415000Y-33827000D02*
X59965000Y-33827000D01*
G75*
G02*
X60165000Y-34027000I0J-200000D01*
G01*
X60165000Y-34427000D01*
G75*
G02*
X59965000Y-34627000I-200000J0D01*
G01*
X59415000Y-34627000D01*
G75*
G02*
X59215000Y-34427000I0J200000D01*
G01*
X59215000Y-34027000D01*
G75*
G02*
X59415000Y-33827000I200000J0D01*
G01*
G37*
G04 #@! TD.AperFunction*
G04 #@! TA.AperFunction,SMDPad,CuDef*
G36*
G01*
X43032000Y-35415000D02*
X43582000Y-35415000D01*
G75*
G02*
X43782000Y-35615000I0J-200000D01*
G01*
X43782000Y-36015000D01*
G75*
G02*
X43582000Y-36215000I-200000J0D01*
G01*
X43032000Y-36215000D01*
G75*
G02*
X42832000Y-36015000I0J200000D01*
G01*
X42832000Y-35615000D01*
G75*
G02*
X43032000Y-35415000I200000J0D01*
G01*
G37*
G04 #@! TD.AperFunction*
G04 #@! TA.AperFunction,SMDPad,CuDef*
G36*
G01*
X43032000Y-37065000D02*
X43582000Y-37065000D01*
G75*
G02*
X43782000Y-37265000I0J-200000D01*
G01*
X43782000Y-37665000D01*
G75*
G02*
X43582000Y-37865000I-200000J0D01*
G01*
X43032000Y-37865000D01*
G75*
G02*
X42832000Y-37665000I0J200000D01*
G01*
X42832000Y-37265000D01*
G75*
G02*
X43032000Y-37065000I200000J0D01*
G01*
G37*
G04 #@! TD.AperFunction*
G04 #@! TA.AperFunction,SMDPad,CuDef*
G36*
G01*
X46082000Y-39645000D02*
X46082000Y-39095000D01*
G75*
G02*
X46282000Y-38895000I200000J0D01*
G01*
X46682000Y-38895000D01*
G75*
G02*
X46882000Y-39095000I0J-200000D01*
G01*
X46882000Y-39645000D01*
G75*
G02*
X46682000Y-39845000I-200000J0D01*
G01*
X46282000Y-39845000D01*
G75*
G02*
X46082000Y-39645000I0J200000D01*
G01*
G37*
G04 #@! TD.AperFunction*
G04 #@! TA.AperFunction,SMDPad,CuDef*
G36*
G01*
X44432000Y-39645000D02*
X44432000Y-39095000D01*
G75*
G02*
X44632000Y-38895000I200000J0D01*
G01*
X45032000Y-38895000D01*
G75*
G02*
X45232000Y-39095000I0J-200000D01*
G01*
X45232000Y-39645000D01*
G75*
G02*
X45032000Y-39845000I-200000J0D01*
G01*
X44632000Y-39845000D01*
G75*
G02*
X44432000Y-39645000I0J200000D01*
G01*
G37*
G04 #@! TD.AperFunction*
G04 #@! TA.AperFunction,SMDPad,CuDef*
G36*
G01*
X52749000Y-30501000D02*
X52749000Y-29951000D01*
G75*
G02*
X52949000Y-29751000I200000J0D01*
G01*
X53349000Y-29751000D01*
G75*
G02*
X53549000Y-29951000I0J-200000D01*
G01*
X53549000Y-30501000D01*
G75*
G02*
X53349000Y-30701000I-200000J0D01*
G01*
X52949000Y-30701000D01*
G75*
G02*
X52749000Y-30501000I0J200000D01*
G01*
G37*
G04 #@! TD.AperFunction*
G04 #@! TA.AperFunction,SMDPad,CuDef*
G36*
G01*
X51099000Y-30501000D02*
X51099000Y-29951000D01*
G75*
G02*
X51299000Y-29751000I200000J0D01*
G01*
X51699000Y-29751000D01*
G75*
G02*
X51899000Y-29951000I0J-200000D01*
G01*
X51899000Y-30501000D01*
G75*
G02*
X51699000Y-30701000I-200000J0D01*
G01*
X51299000Y-30701000D01*
G75*
G02*
X51099000Y-30501000I0J200000D01*
G01*
G37*
G04 #@! TD.AperFunction*
G04 #@! TA.AperFunction,SMDPad,CuDef*
G36*
G01*
X50059000Y-26944000D02*
X49509000Y-26944000D01*
G75*
G02*
X49309000Y-26744000I0J200000D01*
G01*
X49309000Y-26344000D01*
G75*
G02*
X49509000Y-26144000I200000J0D01*
G01*
X50059000Y-26144000D01*
G75*
G02*
X50259000Y-26344000I0J-200000D01*
G01*
X50259000Y-26744000D01*
G75*
G02*
X50059000Y-26944000I-200000J0D01*
G01*
G37*
G04 #@! TD.AperFunction*
G04 #@! TA.AperFunction,SMDPad,CuDef*
G36*
G01*
X50059000Y-28594000D02*
X49509000Y-28594000D01*
G75*
G02*
X49309000Y-28394000I0J200000D01*
G01*
X49309000Y-27994000D01*
G75*
G02*
X49509000Y-27794000I200000J0D01*
G01*
X50059000Y-27794000D01*
G75*
G02*
X50259000Y-27994000I0J-200000D01*
G01*
X50259000Y-28394000D01*
G75*
G02*
X50059000Y-28594000I-200000J0D01*
G01*
G37*
G04 #@! TD.AperFunction*
G04 #@! TA.AperFunction,SMDPad,CuDef*
G36*
G01*
X52407000Y-36301000D02*
X52407000Y-36851000D01*
G75*
G02*
X52207000Y-37051000I-200000J0D01*
G01*
X51807000Y-37051000D01*
G75*
G02*
X51607000Y-36851000I0J200000D01*
G01*
X51607000Y-36301000D01*
G75*
G02*
X51807000Y-36101000I200000J0D01*
G01*
X52207000Y-36101000D01*
G75*
G02*
X52407000Y-36301000I0J-200000D01*
G01*
G37*
G04 #@! TD.AperFunction*
G04 #@! TA.AperFunction,SMDPad,CuDef*
G36*
G01*
X54057000Y-36301000D02*
X54057000Y-36851000D01*
G75*
G02*
X53857000Y-37051000I-200000J0D01*
G01*
X53457000Y-37051000D01*
G75*
G02*
X53257000Y-36851000I0J200000D01*
G01*
X53257000Y-36301000D01*
G75*
G02*
X53457000Y-36101000I200000J0D01*
G01*
X53857000Y-36101000D01*
G75*
G02*
X54057000Y-36301000I0J-200000D01*
G01*
G37*
G04 #@! TD.AperFunction*
G04 #@! TA.AperFunction,SMDPad,CuDef*
G36*
G01*
X42185000Y-41676000D02*
X41635000Y-41676000D01*
G75*
G02*
X41435000Y-41476000I0J200000D01*
G01*
X41435000Y-41076000D01*
G75*
G02*
X41635000Y-40876000I200000J0D01*
G01*
X42185000Y-40876000D01*
G75*
G02*
X42385000Y-41076000I0J-200000D01*
G01*
X42385000Y-41476000D01*
G75*
G02*
X42185000Y-41676000I-200000J0D01*
G01*
G37*
G04 #@! TD.AperFunction*
G04 #@! TA.AperFunction,SMDPad,CuDef*
G36*
G01*
X42185000Y-43326000D02*
X41635000Y-43326000D01*
G75*
G02*
X41435000Y-43126000I0J200000D01*
G01*
X41435000Y-42726000D01*
G75*
G02*
X41635000Y-42526000I200000J0D01*
G01*
X42185000Y-42526000D01*
G75*
G02*
X42385000Y-42726000I0J-200000D01*
G01*
X42385000Y-43126000D01*
G75*
G02*
X42185000Y-43326000I-200000J0D01*
G01*
G37*
G04 #@! TD.AperFunction*
D20*
X51578000Y-33274000D03*
X53578000Y-32324000D03*
X53578000Y-34224000D03*
D21*
X63627000Y-38650000D03*
X62727000Y-38650000D03*
X62727000Y-37828000D03*
X64527000Y-37828000D03*
X64527000Y-38650000D03*
D22*
X62965000Y-36576000D03*
X64289000Y-36576000D03*
X63627000Y-37238000D03*
X63627000Y-35914000D03*
G04 #@! TA.AperFunction,SMDPad,CuDef*
G36*
G01*
X60914500Y-34099000D02*
X61259500Y-34099000D01*
G75*
G02*
X61407000Y-34246500I0J-147500D01*
G01*
X61407000Y-34541500D01*
G75*
G02*
X61259500Y-34689000I-147500J0D01*
G01*
X60914500Y-34689000D01*
G75*
G02*
X60767000Y-34541500I0J147500D01*
G01*
X60767000Y-34246500D01*
G75*
G02*
X60914500Y-34099000I147500J0D01*
G01*
G37*
G04 #@! TD.AperFunction*
G04 #@! TA.AperFunction,SMDPad,CuDef*
G36*
G01*
X60914500Y-33129000D02*
X61259500Y-33129000D01*
G75*
G02*
X61407000Y-33276500I0J-147500D01*
G01*
X61407000Y-33571500D01*
G75*
G02*
X61259500Y-33719000I-147500J0D01*
G01*
X60914500Y-33719000D01*
G75*
G02*
X60767000Y-33571500I0J147500D01*
G01*
X60767000Y-33276500D01*
G75*
G02*
X60914500Y-33129000I147500J0D01*
G01*
G37*
G04 #@! TD.AperFunction*
G04 #@! TA.AperFunction,SMDPad,CuDef*
G36*
G01*
X47511000Y-36381000D02*
X47511000Y-34231000D01*
G75*
G02*
X47761000Y-33981000I250000J0D01*
G01*
X48511000Y-33981000D01*
G75*
G02*
X48761000Y-34231000I0J-250000D01*
G01*
X48761000Y-36381000D01*
G75*
G02*
X48511000Y-36631000I-250000J0D01*
G01*
X47761000Y-36631000D01*
G75*
G02*
X47511000Y-36381000I0J250000D01*
G01*
G37*
G04 #@! TD.AperFunction*
G04 #@! TA.AperFunction,SMDPad,CuDef*
G36*
G01*
X44711000Y-36381000D02*
X44711000Y-34231000D01*
G75*
G02*
X44961000Y-33981000I250000J0D01*
G01*
X45711000Y-33981000D01*
G75*
G02*
X45961000Y-34231000I0J-250000D01*
G01*
X45961000Y-36381000D01*
G75*
G02*
X45711000Y-36631000I-250000J0D01*
G01*
X44961000Y-36631000D01*
G75*
G02*
X44711000Y-36381000I0J250000D01*
G01*
G37*
G04 #@! TD.AperFunction*
D23*
X39559000Y-28276000D03*
X47309000Y-28276000D03*
D24*
X39709000Y-32076000D03*
X47159000Y-32076000D03*
D25*
X42134000Y-32126000D03*
X42784000Y-32126000D03*
X43434000Y-32126000D03*
X44084000Y-32126000D03*
X44734000Y-32126000D03*
D12*
X63336000Y-43612000D03*
X63336000Y-46812000D03*
X68236000Y-43612000D03*
X68236000Y-46812000D03*
D26*
X85483000Y-36957000D03*
X86983000Y-36957000D03*
G04 #@! TA.AperFunction,SMDPad,CuDef*
G36*
G01*
X59946250Y-31628500D02*
X59433750Y-31628500D01*
G75*
G02*
X59215000Y-31409750I0J218750D01*
G01*
X59215000Y-30972250D01*
G75*
G02*
X59433750Y-30753500I218750J0D01*
G01*
X59946250Y-30753500D01*
G75*
G02*
X60165000Y-30972250I0J-218750D01*
G01*
X60165000Y-31409750D01*
G75*
G02*
X59946250Y-31628500I-218750J0D01*
G01*
G37*
G04 #@! TD.AperFunction*
G04 #@! TA.AperFunction,SMDPad,CuDef*
G36*
G01*
X59946250Y-33203500D02*
X59433750Y-33203500D01*
G75*
G02*
X59215000Y-32984750I0J218750D01*
G01*
X59215000Y-32547250D01*
G75*
G02*
X59433750Y-32328500I218750J0D01*
G01*
X59946250Y-32328500D01*
G75*
G02*
X60165000Y-32547250I0J-218750D01*
G01*
X60165000Y-32984750D01*
G75*
G02*
X59946250Y-33203500I-218750J0D01*
G01*
G37*
G04 #@! TD.AperFunction*
G04 #@! TA.AperFunction,SMDPad,CuDef*
G36*
G01*
X50040250Y-30638000D02*
X49527750Y-30638000D01*
G75*
G02*
X49309000Y-30419250I0J218750D01*
G01*
X49309000Y-29981750D01*
G75*
G02*
X49527750Y-29763000I218750J0D01*
G01*
X50040250Y-29763000D01*
G75*
G02*
X50259000Y-29981750I0J-218750D01*
G01*
X50259000Y-30419250D01*
G75*
G02*
X50040250Y-30638000I-218750J0D01*
G01*
G37*
G04 #@! TD.AperFunction*
G04 #@! TA.AperFunction,SMDPad,CuDef*
G36*
G01*
X50040250Y-32213000D02*
X49527750Y-32213000D01*
G75*
G02*
X49309000Y-31994250I0J218750D01*
G01*
X49309000Y-31556750D01*
G75*
G02*
X49527750Y-31338000I218750J0D01*
G01*
X50040250Y-31338000D01*
G75*
G02*
X50259000Y-31556750I0J-218750D01*
G01*
X50259000Y-31994250D01*
G75*
G02*
X50040250Y-32213000I-218750J0D01*
G01*
G37*
G04 #@! TD.AperFunction*
D27*
X52610000Y-27686000D03*
X56610000Y-27686000D03*
G04 #@! TA.AperFunction,SMDPad,CuDef*
G36*
G01*
X40388250Y-41788500D02*
X39875750Y-41788500D01*
G75*
G02*
X39657000Y-41569750I0J218750D01*
G01*
X39657000Y-41132250D01*
G75*
G02*
X39875750Y-40913500I218750J0D01*
G01*
X40388250Y-40913500D01*
G75*
G02*
X40607000Y-41132250I0J-218750D01*
G01*
X40607000Y-41569750D01*
G75*
G02*
X40388250Y-41788500I-218750J0D01*
G01*
G37*
G04 #@! TD.AperFunction*
G04 #@! TA.AperFunction,SMDPad,CuDef*
G36*
G01*
X40388250Y-43363500D02*
X39875750Y-43363500D01*
G75*
G02*
X39657000Y-43144750I0J218750D01*
G01*
X39657000Y-42707250D01*
G75*
G02*
X39875750Y-42488500I218750J0D01*
G01*
X40388250Y-42488500D01*
G75*
G02*
X40607000Y-42707250I0J-218750D01*
G01*
X40607000Y-43144750D01*
G75*
G02*
X40388250Y-43363500I-218750J0D01*
G01*
G37*
G04 #@! TD.AperFunction*
G04 #@! TA.AperFunction,SMDPad,CuDef*
G36*
G01*
X63048000Y-26293000D02*
X63048000Y-26793000D01*
G75*
G02*
X62823000Y-27018000I-225000J0D01*
G01*
X62373000Y-27018000D01*
G75*
G02*
X62148000Y-26793000I0J225000D01*
G01*
X62148000Y-26293000D01*
G75*
G02*
X62373000Y-26068000I225000J0D01*
G01*
X62823000Y-26068000D01*
G75*
G02*
X63048000Y-26293000I0J-225000D01*
G01*
G37*
G04 #@! TD.AperFunction*
G04 #@! TA.AperFunction,SMDPad,CuDef*
G36*
G01*
X64598000Y-26293000D02*
X64598000Y-26793000D01*
G75*
G02*
X64373000Y-27018000I-225000J0D01*
G01*
X63923000Y-27018000D01*
G75*
G02*
X63698000Y-26793000I0J225000D01*
G01*
X63698000Y-26293000D01*
G75*
G02*
X63923000Y-26068000I225000J0D01*
G01*
X64373000Y-26068000D01*
G75*
G02*
X64598000Y-26293000I0J-225000D01*
G01*
G37*
G04 #@! TD.AperFunction*
G04 #@! TA.AperFunction,SMDPad,CuDef*
G36*
G01*
X63698000Y-32635000D02*
X63698000Y-32135000D01*
G75*
G02*
X63923000Y-31910000I225000J0D01*
G01*
X64373000Y-31910000D01*
G75*
G02*
X64598000Y-32135000I0J-225000D01*
G01*
X64598000Y-32635000D01*
G75*
G02*
X64373000Y-32860000I-225000J0D01*
G01*
X63923000Y-32860000D01*
G75*
G02*
X63698000Y-32635000I0J225000D01*
G01*
G37*
G04 #@! TD.AperFunction*
G04 #@! TA.AperFunction,SMDPad,CuDef*
G36*
G01*
X62148000Y-32635000D02*
X62148000Y-32135000D01*
G75*
G02*
X62373000Y-31910000I225000J0D01*
G01*
X62823000Y-31910000D01*
G75*
G02*
X63048000Y-32135000I0J-225000D01*
G01*
X63048000Y-32635000D01*
G75*
G02*
X62823000Y-32860000I-225000J0D01*
G01*
X62373000Y-32860000D01*
G75*
G02*
X62148000Y-32635000I0J225000D01*
G01*
G37*
G04 #@! TD.AperFunction*
G04 #@! TA.AperFunction,SMDPad,CuDef*
G36*
G01*
X61384000Y-36630000D02*
X61044000Y-36630000D01*
G75*
G02*
X60904000Y-36490000I0J140000D01*
G01*
X60904000Y-36210000D01*
G75*
G02*
X61044000Y-36070000I140000J0D01*
G01*
X61384000Y-36070000D01*
G75*
G02*
X61524000Y-36210000I0J-140000D01*
G01*
X61524000Y-36490000D01*
G75*
G02*
X61384000Y-36630000I-140000J0D01*
G01*
G37*
G04 #@! TD.AperFunction*
G04 #@! TA.AperFunction,SMDPad,CuDef*
G36*
G01*
X61384000Y-37590000D02*
X61044000Y-37590000D01*
G75*
G02*
X60904000Y-37450000I0J140000D01*
G01*
X60904000Y-37170000D01*
G75*
G02*
X61044000Y-37030000I140000J0D01*
G01*
X61384000Y-37030000D01*
G75*
G02*
X61524000Y-37170000I0J-140000D01*
G01*
X61524000Y-37450000D01*
G75*
G02*
X61384000Y-37590000I-140000J0D01*
G01*
G37*
G04 #@! TD.AperFunction*
G04 #@! TA.AperFunction,SMDPad,CuDef*
G36*
G01*
X58192000Y-37168000D02*
X58192000Y-37508000D01*
G75*
G02*
X58052000Y-37648000I-140000J0D01*
G01*
X57772000Y-37648000D01*
G75*
G02*
X57632000Y-37508000I0J140000D01*
G01*
X57632000Y-37168000D01*
G75*
G02*
X57772000Y-37028000I140000J0D01*
G01*
X58052000Y-37028000D01*
G75*
G02*
X58192000Y-37168000I0J-140000D01*
G01*
G37*
G04 #@! TD.AperFunction*
G04 #@! TA.AperFunction,SMDPad,CuDef*
G36*
G01*
X59152000Y-37168000D02*
X59152000Y-37508000D01*
G75*
G02*
X59012000Y-37648000I-140000J0D01*
G01*
X58732000Y-37648000D01*
G75*
G02*
X58592000Y-37508000I0J140000D01*
G01*
X58592000Y-37168000D01*
G75*
G02*
X58732000Y-37028000I140000J0D01*
G01*
X59012000Y-37028000D01*
G75*
G02*
X59152000Y-37168000I0J-140000D01*
G01*
G37*
G04 #@! TD.AperFunction*
G04 #@! TA.AperFunction,SMDPad,CuDef*
G36*
G01*
X63653000Y-34501000D02*
X63653000Y-34841000D01*
G75*
G02*
X63513000Y-34981000I-140000J0D01*
G01*
X63233000Y-34981000D01*
G75*
G02*
X63093000Y-34841000I0J140000D01*
G01*
X63093000Y-34501000D01*
G75*
G02*
X63233000Y-34361000I140000J0D01*
G01*
X63513000Y-34361000D01*
G75*
G02*
X63653000Y-34501000I0J-140000D01*
G01*
G37*
G04 #@! TD.AperFunction*
G04 #@! TA.AperFunction,SMDPad,CuDef*
G36*
G01*
X64613000Y-34501000D02*
X64613000Y-34841000D01*
G75*
G02*
X64473000Y-34981000I-140000J0D01*
G01*
X64193000Y-34981000D01*
G75*
G02*
X64053000Y-34841000I0J140000D01*
G01*
X64053000Y-34501000D01*
G75*
G02*
X64193000Y-34361000I140000J0D01*
G01*
X64473000Y-34361000D01*
G75*
G02*
X64613000Y-34501000I0J-140000D01*
G01*
G37*
G04 #@! TD.AperFunction*
G04 #@! TA.AperFunction,SMDPad,CuDef*
G36*
G01*
X64053000Y-33825000D02*
X64053000Y-33485000D01*
G75*
G02*
X64193000Y-33345000I140000J0D01*
G01*
X64473000Y-33345000D01*
G75*
G02*
X64613000Y-33485000I0J-140000D01*
G01*
X64613000Y-33825000D01*
G75*
G02*
X64473000Y-33965000I-140000J0D01*
G01*
X64193000Y-33965000D01*
G75*
G02*
X64053000Y-33825000I0J140000D01*
G01*
G37*
G04 #@! TD.AperFunction*
G04 #@! TA.AperFunction,SMDPad,CuDef*
G36*
G01*
X63093000Y-33825000D02*
X63093000Y-33485000D01*
G75*
G02*
X63233000Y-33345000I140000J0D01*
G01*
X63513000Y-33345000D01*
G75*
G02*
X63653000Y-33485000I0J-140000D01*
G01*
X63653000Y-33825000D01*
G75*
G02*
X63513000Y-33965000I-140000J0D01*
G01*
X63233000Y-33965000D01*
G75*
G02*
X63093000Y-33825000I0J140000D01*
G01*
G37*
G04 #@! TD.AperFunction*
G04 #@! TA.AperFunction,SMDPad,CuDef*
G36*
G01*
X73479000Y-26332000D02*
X73479000Y-25992000D01*
G75*
G02*
X73619000Y-25852000I140000J0D01*
G01*
X73899000Y-25852000D01*
G75*
G02*
X74039000Y-25992000I0J-140000D01*
G01*
X74039000Y-26332000D01*
G75*
G02*
X73899000Y-26472000I-140000J0D01*
G01*
X73619000Y-26472000D01*
G75*
G02*
X73479000Y-26332000I0J140000D01*
G01*
G37*
G04 #@! TD.AperFunction*
G04 #@! TA.AperFunction,SMDPad,CuDef*
G36*
G01*
X72519000Y-26332000D02*
X72519000Y-25992000D01*
G75*
G02*
X72659000Y-25852000I140000J0D01*
G01*
X72939000Y-25852000D01*
G75*
G02*
X73079000Y-25992000I0J-140000D01*
G01*
X73079000Y-26332000D01*
G75*
G02*
X72939000Y-26472000I-140000J0D01*
G01*
X72659000Y-26472000D01*
G75*
G02*
X72519000Y-26332000I0J140000D01*
G01*
G37*
G04 #@! TD.AperFunction*
G04 #@! TA.AperFunction,SMDPad,CuDef*
G36*
G01*
X68916000Y-41105000D02*
X68916000Y-41445000D01*
G75*
G02*
X68776000Y-41585000I-140000J0D01*
G01*
X68496000Y-41585000D01*
G75*
G02*
X68356000Y-41445000I0J140000D01*
G01*
X68356000Y-41105000D01*
G75*
G02*
X68496000Y-40965000I140000J0D01*
G01*
X68776000Y-40965000D01*
G75*
G02*
X68916000Y-41105000I0J-140000D01*
G01*
G37*
G04 #@! TD.AperFunction*
G04 #@! TA.AperFunction,SMDPad,CuDef*
G36*
G01*
X69876000Y-41105000D02*
X69876000Y-41445000D01*
G75*
G02*
X69736000Y-41585000I-140000J0D01*
G01*
X69456000Y-41585000D01*
G75*
G02*
X69316000Y-41445000I0J140000D01*
G01*
X69316000Y-41105000D01*
G75*
G02*
X69456000Y-40965000I140000J0D01*
G01*
X69736000Y-40965000D01*
G75*
G02*
X69876000Y-41105000I0J-140000D01*
G01*
G37*
G04 #@! TD.AperFunction*
G04 #@! TA.AperFunction,SMDPad,CuDef*
G36*
G01*
X80348000Y-38046000D02*
X80688000Y-38046000D01*
G75*
G02*
X80828000Y-38186000I0J-140000D01*
G01*
X80828000Y-38466000D01*
G75*
G02*
X80688000Y-38606000I-140000J0D01*
G01*
X80348000Y-38606000D01*
G75*
G02*
X80208000Y-38466000I0J140000D01*
G01*
X80208000Y-38186000D01*
G75*
G02*
X80348000Y-38046000I140000J0D01*
G01*
G37*
G04 #@! TD.AperFunction*
G04 #@! TA.AperFunction,SMDPad,CuDef*
G36*
G01*
X80348000Y-37086000D02*
X80688000Y-37086000D01*
G75*
G02*
X80828000Y-37226000I0J-140000D01*
G01*
X80828000Y-37506000D01*
G75*
G02*
X80688000Y-37646000I-140000J0D01*
G01*
X80348000Y-37646000D01*
G75*
G02*
X80208000Y-37506000I0J140000D01*
G01*
X80208000Y-37226000D01*
G75*
G02*
X80348000Y-37086000I140000J0D01*
G01*
G37*
G04 #@! TD.AperFunction*
G04 #@! TA.AperFunction,SMDPad,CuDef*
G36*
G01*
X70793000Y-25992000D02*
X70793000Y-26332000D01*
G75*
G02*
X70653000Y-26472000I-140000J0D01*
G01*
X70373000Y-26472000D01*
G75*
G02*
X70233000Y-26332000I0J140000D01*
G01*
X70233000Y-25992000D01*
G75*
G02*
X70373000Y-25852000I140000J0D01*
G01*
X70653000Y-25852000D01*
G75*
G02*
X70793000Y-25992000I0J-140000D01*
G01*
G37*
G04 #@! TD.AperFunction*
G04 #@! TA.AperFunction,SMDPad,CuDef*
G36*
G01*
X71753000Y-25992000D02*
X71753000Y-26332000D01*
G75*
G02*
X71613000Y-26472000I-140000J0D01*
G01*
X71333000Y-26472000D01*
G75*
G02*
X71193000Y-26332000I0J140000D01*
G01*
X71193000Y-25992000D01*
G75*
G02*
X71333000Y-25852000I140000J0D01*
G01*
X71613000Y-25852000D01*
G75*
G02*
X71753000Y-25992000I0J-140000D01*
G01*
G37*
G04 #@! TD.AperFunction*
G04 #@! TA.AperFunction,SMDPad,CuDef*
G36*
G01*
X72207000Y-41652000D02*
X72207000Y-41152000D01*
G75*
G02*
X72432000Y-40927000I225000J0D01*
G01*
X72882000Y-40927000D01*
G75*
G02*
X73107000Y-41152000I0J-225000D01*
G01*
X73107000Y-41652000D01*
G75*
G02*
X72882000Y-41877000I-225000J0D01*
G01*
X72432000Y-41877000D01*
G75*
G02*
X72207000Y-41652000I0J225000D01*
G01*
G37*
G04 #@! TD.AperFunction*
G04 #@! TA.AperFunction,SMDPad,CuDef*
G36*
G01*
X70657000Y-41652000D02*
X70657000Y-41152000D01*
G75*
G02*
X70882000Y-40927000I225000J0D01*
G01*
X71332000Y-40927000D01*
G75*
G02*
X71557000Y-41152000I0J-225000D01*
G01*
X71557000Y-41652000D01*
G75*
G02*
X71332000Y-41877000I-225000J0D01*
G01*
X70882000Y-41877000D01*
G75*
G02*
X70657000Y-41652000I0J225000D01*
G01*
G37*
G04 #@! TD.AperFunction*
G04 #@! TA.AperFunction,SMDPad,CuDef*
G36*
G01*
X46402500Y-42004000D02*
X46402500Y-41054000D01*
G75*
G02*
X46652500Y-40804000I250000J0D01*
G01*
X47327500Y-40804000D01*
G75*
G02*
X47577500Y-41054000I0J-250000D01*
G01*
X47577500Y-42004000D01*
G75*
G02*
X47327500Y-42254000I-250000J0D01*
G01*
X46652500Y-42254000D01*
G75*
G02*
X46402500Y-42004000I0J250000D01*
G01*
G37*
G04 #@! TD.AperFunction*
G04 #@! TA.AperFunction,SMDPad,CuDef*
G36*
G01*
X44327500Y-42004000D02*
X44327500Y-41054000D01*
G75*
G02*
X44577500Y-40804000I250000J0D01*
G01*
X45252500Y-40804000D01*
G75*
G02*
X45502500Y-41054000I0J-250000D01*
G01*
X45502500Y-42004000D01*
G75*
G02*
X45252500Y-42254000I-250000J0D01*
G01*
X44577500Y-42254000D01*
G75*
G02*
X44327500Y-42004000I0J250000D01*
G01*
G37*
G04 #@! TD.AperFunction*
G04 #@! TA.AperFunction,SMDPad,CuDef*
G36*
G01*
X49563000Y-42973500D02*
X50513000Y-42973500D01*
G75*
G02*
X50763000Y-43223500I0J-250000D01*
G01*
X50763000Y-43898500D01*
G75*
G02*
X50513000Y-44148500I-250000J0D01*
G01*
X49563000Y-44148500D01*
G75*
G02*
X49313000Y-43898500I0J250000D01*
G01*
X49313000Y-43223500D01*
G75*
G02*
X49563000Y-42973500I250000J0D01*
G01*
G37*
G04 #@! TD.AperFunction*
G04 #@! TA.AperFunction,SMDPad,CuDef*
G36*
G01*
X49563000Y-40898500D02*
X50513000Y-40898500D01*
G75*
G02*
X50763000Y-41148500I0J-250000D01*
G01*
X50763000Y-41823500D01*
G75*
G02*
X50513000Y-42073500I-250000J0D01*
G01*
X49563000Y-42073500D01*
G75*
G02*
X49313000Y-41823500I0J250000D01*
G01*
X49313000Y-41148500D01*
G75*
G02*
X49563000Y-40898500I250000J0D01*
G01*
G37*
G04 #@! TD.AperFunction*
G04 #@! TA.AperFunction,SMDPad,CuDef*
G36*
G01*
X56825000Y-34929000D02*
X56825000Y-35429000D01*
G75*
G02*
X56600000Y-35654000I-225000J0D01*
G01*
X56150000Y-35654000D01*
G75*
G02*
X55925000Y-35429000I0J225000D01*
G01*
X55925000Y-34929000D01*
G75*
G02*
X56150000Y-34704000I225000J0D01*
G01*
X56600000Y-34704000D01*
G75*
G02*
X56825000Y-34929000I0J-225000D01*
G01*
G37*
G04 #@! TD.AperFunction*
G04 #@! TA.AperFunction,SMDPad,CuDef*
G36*
G01*
X58375000Y-34929000D02*
X58375000Y-35429000D01*
G75*
G02*
X58150000Y-35654000I-225000J0D01*
G01*
X57700000Y-35654000D01*
G75*
G02*
X57475000Y-35429000I0J225000D01*
G01*
X57475000Y-34929000D01*
G75*
G02*
X57700000Y-34704000I225000J0D01*
G01*
X58150000Y-34704000D01*
G75*
G02*
X58375000Y-34929000I0J-225000D01*
G01*
G37*
G04 #@! TD.AperFunction*
G04 #@! TA.AperFunction,SMDPad,CuDef*
G36*
G01*
X49704500Y-38575000D02*
X49704500Y-37625000D01*
G75*
G02*
X49954500Y-37375000I250000J0D01*
G01*
X50629500Y-37375000D01*
G75*
G02*
X50879500Y-37625000I0J-250000D01*
G01*
X50879500Y-38575000D01*
G75*
G02*
X50629500Y-38825000I-250000J0D01*
G01*
X49954500Y-38825000D01*
G75*
G02*
X49704500Y-38575000I0J250000D01*
G01*
G37*
G04 #@! TD.AperFunction*
G04 #@! TA.AperFunction,SMDPad,CuDef*
G36*
G01*
X47629500Y-38575000D02*
X47629500Y-37625000D01*
G75*
G02*
X47879500Y-37375000I250000J0D01*
G01*
X48554500Y-37375000D01*
G75*
G02*
X48804500Y-37625000I0J-250000D01*
G01*
X48804500Y-38575000D01*
G75*
G02*
X48554500Y-38825000I-250000J0D01*
G01*
X47879500Y-38825000D01*
G75*
G02*
X47629500Y-38575000I0J250000D01*
G01*
G37*
G04 #@! TD.AperFunction*
G04 #@! TA.AperFunction,SMDPad,CuDef*
G36*
G01*
X56138000Y-39949000D02*
X56638000Y-39949000D01*
G75*
G02*
X56863000Y-40174000I0J-225000D01*
G01*
X56863000Y-40624000D01*
G75*
G02*
X56638000Y-40849000I-225000J0D01*
G01*
X56138000Y-40849000D01*
G75*
G02*
X55913000Y-40624000I0J225000D01*
G01*
X55913000Y-40174000D01*
G75*
G02*
X56138000Y-39949000I225000J0D01*
G01*
G37*
G04 #@! TD.AperFunction*
G04 #@! TA.AperFunction,SMDPad,CuDef*
G36*
G01*
X56138000Y-38399000D02*
X56638000Y-38399000D01*
G75*
G02*
X56863000Y-38624000I0J-225000D01*
G01*
X56863000Y-39074000D01*
G75*
G02*
X56638000Y-39299000I-225000J0D01*
G01*
X56138000Y-39299000D01*
G75*
G02*
X55913000Y-39074000I0J225000D01*
G01*
X55913000Y-38624000D01*
G75*
G02*
X56138000Y-38399000I225000J0D01*
G01*
G37*
G04 #@! TD.AperFunction*
D28*
X42672000Y-29591000D03*
X51816000Y-43307000D03*
X48387000Y-41656000D03*
X78306500Y-39168500D03*
X80518000Y-39370000D03*
X61468000Y-27559000D03*
X65278000Y-33020000D03*
X65151000Y-35560000D03*
X58420000Y-45593000D03*
X58420000Y-41529000D03*
X66294000Y-42418000D03*
X72898000Y-43053000D03*
X84010500Y-34607500D03*
X51816000Y-34798000D03*
X51435000Y-26162000D03*
X49657000Y-36195000D03*
X52959000Y-31369000D03*
X47371000Y-44196000D03*
X62230000Y-39497000D03*
X76073000Y-36195000D03*
X70866000Y-37755058D03*
X57785000Y-38989000D03*
X61087000Y-31242000D03*
X60579000Y-37973000D03*
X81661000Y-36830000D03*
X50419000Y-39878000D03*
X49276000Y-33274000D03*
X83693000Y-36322000D03*
X74295000Y-41275000D03*
X46736000Y-35814000D03*
X40386000Y-39624000D03*
X43815000Y-34925000D03*
X48387000Y-40132000D03*
X59944000Y-40386000D03*
X69342000Y-36957000D03*
X72771000Y-30988000D03*
X72009000Y-30988000D03*
X76073000Y-33147000D03*
X76200000Y-35179000D03*
D29*
X66560000Y-33032000D02*
X66981500Y-33032000D01*
X65429000Y-32131000D02*
X64148000Y-32131000D01*
X41398000Y-35380000D02*
X41398000Y-35012098D01*
X41398000Y-36580000D02*
X41148000Y-36830000D01*
X41398000Y-35380000D02*
X41398000Y-36580000D01*
X50483000Y-38100000D02*
X52007000Y-36576000D01*
X50292000Y-38100000D02*
X50483000Y-38100000D01*
X43307000Y-37465000D02*
X43434000Y-37465000D01*
X41783000Y-37465000D02*
X41148000Y-36830000D01*
X43307000Y-37465000D02*
X41783000Y-37465000D01*
X41149000Y-41276000D02*
X41910000Y-41276000D01*
X39751000Y-36957000D02*
X39751000Y-39878000D01*
X39878000Y-36830000D02*
X39751000Y-36957000D01*
X39751000Y-39878000D02*
X41149000Y-41276000D01*
X41148000Y-36830000D02*
X39878000Y-36830000D01*
X42134000Y-32126000D02*
X42134000Y-30129000D01*
X42134000Y-30129000D02*
X42672000Y-29591000D01*
X50038000Y-43561000D02*
X51562000Y-43561000D01*
X51562000Y-43561000D02*
X51816000Y-43307000D01*
X47117000Y-41656000D02*
X46990000Y-41529000D01*
X48387000Y-41656000D02*
X47117000Y-41656000D01*
X55992499Y-40003499D02*
X56388000Y-40399000D01*
X53403501Y-40003499D02*
X55992499Y-40003499D01*
X53340000Y-40067000D02*
X53403501Y-40003499D01*
X56389501Y-32194501D02*
X56326000Y-32131000D01*
X56326000Y-32131000D02*
X55669000Y-32131000D01*
X56389501Y-35164499D02*
X56389501Y-32194501D01*
X56375000Y-35179000D02*
X56389501Y-35164499D01*
X56375000Y-35801000D02*
X57912000Y-37338000D01*
X56375000Y-35179000D02*
X56375000Y-35801000D01*
X59373000Y-35877000D02*
X57912000Y-37338000D01*
X59690000Y-35877000D02*
X59373000Y-35877000D01*
X73594000Y-42339000D02*
X72657000Y-41402000D01*
X73594000Y-44054000D02*
X73594000Y-42339000D01*
X71394000Y-40139000D02*
X72657000Y-41402000D01*
X71394000Y-39444500D02*
X71394000Y-40139000D01*
X79883009Y-31341785D02*
X79073224Y-30532000D01*
X80441599Y-35094501D02*
X79883009Y-34535911D01*
X82296401Y-35094501D02*
X80441599Y-35094501D01*
X79073224Y-30532000D02*
X78306500Y-30532000D01*
X82588510Y-34802392D02*
X82296401Y-35094501D01*
X79883009Y-34535911D02*
X79883009Y-31341785D01*
X81450745Y-26512481D02*
X82588510Y-27650246D01*
X73894000Y-27382000D02*
X74763519Y-26512481D01*
X73894000Y-28119500D02*
X73894000Y-27382000D01*
X66330000Y-33032000D02*
X66981500Y-33032000D01*
X65429000Y-32131000D02*
X66330000Y-33032000D01*
X64632064Y-35930064D02*
X63373000Y-34671000D01*
X64632064Y-37334936D02*
X64632064Y-35930064D01*
X64527000Y-37440000D02*
X64632064Y-37334936D01*
X64527000Y-37828000D02*
X64527000Y-37440000D01*
X60741000Y-35877000D02*
X61214000Y-36350000D01*
X59690000Y-35877000D02*
X60741000Y-35877000D01*
X63373000Y-34671000D02*
X63373000Y-34615000D01*
X74483038Y-26162000D02*
X74833519Y-26512481D01*
X73759000Y-26162000D02*
X74483038Y-26162000D01*
X74833519Y-26512481D02*
X81450745Y-26512481D01*
X74763519Y-26512481D02*
X74833519Y-26512481D01*
X73258490Y-25661490D02*
X73759000Y-26162000D01*
X71013510Y-25661490D02*
X73258490Y-25661490D01*
X70513000Y-26162000D02*
X71013510Y-25661490D01*
X78306500Y-37532000D02*
X78306500Y-38809500D01*
X78306500Y-38809500D02*
X78306500Y-39168500D01*
X80518000Y-38326000D02*
X80518000Y-39370000D01*
X86329490Y-32743510D02*
X89319000Y-29754000D01*
X86329490Y-39996266D02*
X86329490Y-32743510D01*
X86995000Y-40661776D02*
X86329490Y-39996266D01*
X86995000Y-40703000D02*
X86995000Y-40661776D01*
X61074000Y-26543000D02*
X59690000Y-27927000D01*
X62598000Y-26543000D02*
X61074000Y-26543000D01*
X62598000Y-26543000D02*
X62484000Y-26543000D01*
X62484000Y-26543000D02*
X61468000Y-27559000D01*
X64783000Y-33020000D02*
X64148000Y-32385000D01*
X64333000Y-33584000D02*
X64897000Y-33020000D01*
X64333000Y-33655000D02*
X64333000Y-33584000D01*
X64897000Y-33020000D02*
X64783000Y-33020000D01*
X65278000Y-33020000D02*
X64897000Y-33020000D01*
X62893000Y-34671000D02*
X61214000Y-36350000D01*
X63373000Y-34671000D02*
X62893000Y-34671000D01*
X64780936Y-35930064D02*
X65151000Y-35560000D01*
X64632064Y-35930064D02*
X64780936Y-35930064D01*
X53340000Y-40067000D02*
X53340000Y-40724000D01*
X53276499Y-40003499D02*
X53340000Y-40067000D01*
X52671597Y-40003499D02*
X53276499Y-40003499D01*
X51874499Y-39206401D02*
X52671597Y-40003499D01*
X51874499Y-36708501D02*
X51874499Y-39206401D01*
X52007000Y-36576000D02*
X51874499Y-36708501D01*
X60362000Y-46812000D02*
X59639000Y-46812000D01*
X59639000Y-46812000D02*
X58420000Y-45593000D01*
X67545499Y-47502501D02*
X68236000Y-46812000D01*
X61052501Y-47502501D02*
X67545499Y-47502501D01*
X60362000Y-46812000D02*
X61052501Y-47502501D01*
X73142000Y-44054000D02*
X73594000Y-44054000D01*
X73005490Y-44190510D02*
X73142000Y-44054000D01*
X73005490Y-47553754D02*
X73005490Y-44190510D01*
X73234246Y-47782510D02*
X73005490Y-47553754D01*
X74347490Y-47782510D02*
X73234246Y-47782510D01*
X75775000Y-46355000D02*
X74347490Y-47782510D01*
X62578510Y-41559510D02*
X61913000Y-40894000D01*
X68351490Y-41559510D02*
X62578510Y-41559510D01*
X68636000Y-41275000D02*
X68351490Y-41559510D01*
X68351490Y-41559510D02*
X67152490Y-41559510D01*
X67152490Y-41559510D02*
X66294000Y-42418000D01*
X73594000Y-42357000D02*
X73594000Y-42339000D01*
X72898000Y-43053000D02*
X73594000Y-42357000D01*
X82613500Y-34607500D02*
X82588510Y-34632490D01*
X84010500Y-34607500D02*
X82613500Y-34607500D01*
X82588510Y-34632490D02*
X82588510Y-34802392D01*
X82588510Y-27650246D02*
X82588510Y-34632490D01*
X40898000Y-35380000D02*
X41398000Y-35380000D01*
X44734000Y-32903000D02*
X44363000Y-33274000D01*
X44734000Y-32126000D02*
X44734000Y-32903000D01*
X40767000Y-33528000D02*
X39370000Y-34925000D01*
X39370000Y-40589000D02*
X40132000Y-41351000D01*
X39370000Y-34925000D02*
X39370000Y-40589000D01*
X40767000Y-33528000D02*
X41021000Y-33274000D01*
X41021000Y-33274000D02*
X40767000Y-33274000D01*
X44363000Y-33274000D02*
X41021000Y-33274000D01*
X53578000Y-34224000D02*
X53655000Y-34224000D01*
X53655000Y-34224000D02*
X55118000Y-35687000D01*
X55118000Y-37696000D02*
X54290000Y-38524000D01*
X55118000Y-35687000D02*
X55118000Y-37696000D01*
X54615000Y-38849000D02*
X54290000Y-38524000D01*
X56388000Y-38849000D02*
X54615000Y-38849000D01*
X50926000Y-27686000D02*
X49784000Y-26544000D01*
X52610000Y-27686000D02*
X50926000Y-27686000D01*
X53578000Y-34224000D02*
X52390000Y-34224000D01*
X52390000Y-34224000D02*
X51816000Y-34798000D01*
X52610000Y-27337000D02*
X52610000Y-27686000D01*
X51435000Y-26162000D02*
X52610000Y-27337000D01*
X46100000Y-26544000D02*
X49784000Y-26544000D01*
X45719000Y-26544000D02*
X46100000Y-26544000D01*
X44734000Y-27529000D02*
X45719000Y-26544000D01*
X44734000Y-32126000D02*
X44734000Y-27529000D01*
X56610000Y-30240000D02*
X55669000Y-31181000D01*
X56610000Y-27686000D02*
X56610000Y-30240000D01*
X54714000Y-30226000D02*
X55669000Y-31181000D01*
X53149000Y-30226000D02*
X54714000Y-30226000D01*
X54721000Y-31181000D02*
X55669000Y-31181000D01*
X53578000Y-32324000D02*
X54721000Y-31181000D01*
X55916902Y-31181000D02*
X56769000Y-32033098D01*
X55669000Y-31181000D02*
X55916902Y-31181000D01*
X44196000Y-34166000D02*
X45336000Y-35306000D01*
X44196000Y-34163000D02*
X44196000Y-34166000D01*
X40398000Y-34878000D02*
X41113000Y-34163000D01*
X41113000Y-34163000D02*
X44196000Y-34163000D01*
X40398000Y-35380000D02*
X40398000Y-34878000D01*
X44905000Y-38280000D02*
X45336000Y-37849000D01*
X45336000Y-37849000D02*
X45336000Y-35306000D01*
X41898000Y-38280000D02*
X44905000Y-38280000D01*
X45085000Y-38100000D02*
X44905000Y-38280000D01*
X48217000Y-38100000D02*
X45085000Y-38100000D01*
X48217000Y-38100000D02*
X48260000Y-38100000D01*
X49657000Y-36703000D02*
X49657000Y-36195000D01*
X48260000Y-38100000D02*
X49657000Y-36703000D01*
X52959000Y-31705000D02*
X53578000Y-32324000D01*
X52959000Y-31369000D02*
X52959000Y-31705000D01*
X56769000Y-34023000D02*
X57925000Y-35179000D01*
X56769000Y-32033098D02*
X56769000Y-34023000D01*
X50038000Y-41486000D02*
X50884000Y-41486000D01*
X50884000Y-41486000D02*
X51308000Y-41910000D01*
X54290000Y-41381000D02*
X54290000Y-40724000D01*
X53761000Y-41910000D02*
X54290000Y-41381000D01*
X51308000Y-41910000D02*
X53761000Y-41910000D01*
X50038000Y-41529000D02*
X50038000Y-41486000D01*
X47371000Y-44196000D02*
X50038000Y-41529000D01*
X40898000Y-38280000D02*
X41398000Y-38280000D01*
X41398000Y-38280000D02*
X41398000Y-39112000D01*
X41656000Y-39370000D02*
X44832000Y-39370000D01*
X41398000Y-39112000D02*
X41656000Y-39370000D01*
X44832000Y-41446000D02*
X44915000Y-41529000D01*
X44832000Y-39370000D02*
X44832000Y-41446000D01*
X44915000Y-41529000D02*
X44915000Y-44026000D01*
X44915000Y-44026000D02*
X46482000Y-45593000D01*
X53481000Y-45593000D02*
X55462000Y-43612000D01*
X46482000Y-45593000D02*
X53481000Y-45593000D01*
X65078000Y-45354000D02*
X63336000Y-43612000D01*
X71694000Y-45354000D02*
X65078000Y-45354000D01*
X55462000Y-43612000D02*
X56783000Y-42291000D01*
X62015000Y-42291000D02*
X63336000Y-43612000D01*
X56783000Y-42291000D02*
X62015000Y-42291000D01*
X70894000Y-41189000D02*
X71107000Y-41402000D01*
X70894000Y-39444500D02*
X70894000Y-41189000D01*
X61087000Y-32588000D02*
X61087000Y-33424000D01*
X59690000Y-31191000D02*
X59690000Y-29477000D01*
X59680000Y-31181000D02*
X59690000Y-31191000D01*
X57869000Y-31181000D02*
X59680000Y-31181000D01*
X72209501Y-42504501D02*
X71107000Y-41402000D01*
X72209501Y-46853499D02*
X72209501Y-42504501D01*
X71946000Y-47117000D02*
X72209501Y-46853499D01*
X78306500Y-28818500D02*
X79693000Y-27432000D01*
X78306500Y-30032000D02*
X78306500Y-28818500D01*
X69723000Y-41402000D02*
X69596000Y-41275000D01*
X71107000Y-41402000D02*
X69723000Y-41402000D01*
X61214000Y-37564000D02*
X61214000Y-37310000D01*
X62300000Y-38650000D02*
X61214000Y-37564000D01*
X62727000Y-38650000D02*
X62300000Y-38650000D01*
X62727000Y-39000000D02*
X62230000Y-39497000D01*
X62727000Y-38650000D02*
X62727000Y-39000000D01*
X76910000Y-37032000D02*
X78306500Y-37032000D01*
X76073000Y-36195000D02*
X76910000Y-37032000D01*
X70866000Y-39416500D02*
X70894000Y-39444500D01*
X70866000Y-37755058D02*
X70866000Y-39416500D01*
X70866000Y-36327552D02*
X70866000Y-37755058D01*
X78306500Y-30032000D02*
X77161552Y-30032000D01*
X76139276Y-31054276D02*
X70866000Y-36327552D01*
X77161552Y-30032000D02*
X76139276Y-31054276D01*
X75091276Y-31054276D02*
X76139276Y-31054276D01*
X72894000Y-28119500D02*
X72894000Y-28857000D01*
X74394000Y-30357000D02*
X75041000Y-31004000D01*
X74394000Y-28119500D02*
X74394000Y-30357000D01*
X75041000Y-31004000D02*
X75091276Y-31054276D01*
X72894000Y-28857000D02*
X75041000Y-31004000D01*
X58872000Y-37338000D02*
X58872000Y-37902000D01*
X58872000Y-37902000D02*
X57785000Y-38989000D01*
X61087000Y-31242000D02*
X61087000Y-32588000D01*
X61214000Y-37310000D02*
X61214000Y-37338000D01*
X61214000Y-37338000D02*
X60579000Y-37973000D01*
X82975000Y-39823000D02*
X80518000Y-37366000D01*
X82975000Y-42545000D02*
X82975000Y-39823000D01*
X80518000Y-37366000D02*
X81252000Y-37366000D01*
X81661000Y-36957000D02*
X81661000Y-36830000D01*
X81252000Y-37366000D02*
X81661000Y-36957000D01*
X72799000Y-28024500D02*
X72894000Y-28119500D01*
X72799000Y-26162000D02*
X72799000Y-28024500D01*
X71473000Y-26162000D02*
X72799000Y-26162000D01*
X61036000Y-31191000D02*
X61087000Y-31242000D01*
X59690000Y-31191000D02*
X61036000Y-31191000D01*
X66858500Y-33655000D02*
X66981500Y-33532000D01*
X64770000Y-34671000D02*
X65786000Y-33655000D01*
X64333000Y-34671000D02*
X64770000Y-34671000D01*
X65786000Y-33655000D02*
X66858500Y-33655000D01*
X62634000Y-34394000D02*
X63373000Y-33655000D01*
X61087000Y-34394000D02*
X62634000Y-34394000D01*
X64333000Y-34615000D02*
X63373000Y-33655000D01*
X64333000Y-34671000D02*
X64333000Y-34615000D01*
X66981500Y-30032000D02*
X66244000Y-30032000D01*
X63373000Y-31610000D02*
X62598000Y-32385000D01*
X63373000Y-30542000D02*
X63373000Y-31610000D01*
X63373000Y-30542000D02*
X63692000Y-30542000D01*
X63883000Y-30032000D02*
X66981500Y-30032000D01*
X63373000Y-30542000D02*
X63883000Y-30032000D01*
X64148000Y-27357000D02*
X63373000Y-28132000D01*
X64148000Y-26543000D02*
X64148000Y-27357000D01*
X67909510Y-29847020D02*
X67909510Y-30216980D01*
X66194490Y-28132000D02*
X67909510Y-29847020D01*
X67594490Y-30532000D02*
X66981500Y-30532000D01*
X67909510Y-30216980D02*
X67594490Y-30532000D01*
X63373000Y-28132000D02*
X66194490Y-28132000D01*
X40132000Y-42926000D02*
X41910000Y-42926000D01*
X49784000Y-28194000D02*
X49784000Y-30200500D01*
X52390000Y-40724000D02*
X51265000Y-40724000D01*
X51265000Y-40724000D02*
X50419000Y-39878000D01*
X49784000Y-32766000D02*
X49784000Y-31775500D01*
X49276000Y-33274000D02*
X49784000Y-32766000D01*
X59690000Y-32766000D02*
X59690000Y-34227000D01*
X85483000Y-36957000D02*
X84328000Y-36957000D01*
X84328000Y-36957000D02*
X83693000Y-36322000D01*
X75394000Y-40176000D02*
X75394000Y-39444500D01*
X74295000Y-41275000D02*
X75394000Y-40176000D01*
X86983000Y-39041000D02*
X86995000Y-39053000D01*
X86983000Y-36957000D02*
X86983000Y-39041000D01*
X63336000Y-46586000D02*
X60362000Y-43612000D01*
X63336000Y-46812000D02*
X63336000Y-46586000D01*
X71252000Y-43612000D02*
X71694000Y-44054000D01*
X68236000Y-43612000D02*
X71252000Y-43612000D01*
X44074000Y-32126000D02*
X44084000Y-32126000D01*
X47244000Y-35306000D02*
X48136000Y-35306000D01*
X46736000Y-35814000D02*
X47244000Y-35306000D01*
X40398000Y-39612000D02*
X40386000Y-39624000D01*
X40398000Y-38280000D02*
X40398000Y-39612000D01*
X59246000Y-38500586D02*
X59246000Y-38989000D01*
X60907096Y-36839490D02*
X59246000Y-38500586D01*
X61738490Y-36839490D02*
X60907096Y-36839490D01*
X62727000Y-37828000D02*
X61738490Y-36839490D01*
X66167000Y-40290000D02*
X64527000Y-38650000D01*
X66167000Y-40449000D02*
X66167000Y-40290000D01*
X52390000Y-37843000D02*
X53657000Y-36576000D01*
X52390000Y-38524000D02*
X52390000Y-37843000D01*
X52766000Y-33081000D02*
X55669000Y-33081000D01*
X52578000Y-32893000D02*
X52766000Y-33081000D01*
X52578000Y-32766000D02*
X52578000Y-32893000D01*
X51499000Y-31687000D02*
X52578000Y-32766000D01*
X51499000Y-30226000D02*
X51499000Y-31687000D01*
X42872000Y-35380000D02*
X43307000Y-35815000D01*
X41898000Y-35380000D02*
X42872000Y-35380000D01*
X43307000Y-35815000D02*
X43307000Y-35433000D01*
X43307000Y-35433000D02*
X43815000Y-34925000D01*
X47625000Y-39370000D02*
X46482000Y-39370000D01*
X48387000Y-40132000D02*
X47625000Y-39370000D01*
X82334501Y-28423501D02*
X82334501Y-33997499D01*
X81343000Y-27432000D02*
X82334501Y-28423501D01*
X82078000Y-34254000D02*
X81369000Y-34254000D01*
X82334501Y-33997499D02*
X82078000Y-34254000D01*
X74894000Y-26833000D02*
X74894000Y-28119500D01*
X74960510Y-26766490D02*
X74894000Y-26833000D01*
X80677490Y-26766490D02*
X74960510Y-26766490D01*
X81343000Y-27432000D02*
X80677490Y-26766490D01*
X66827490Y-38799000D02*
X67945000Y-37681490D01*
X66167000Y-38799000D02*
X66827490Y-38799000D01*
X67945000Y-37681490D02*
X68542490Y-37681490D01*
X69394000Y-38533000D02*
X69394000Y-39444500D01*
X68542490Y-37681490D02*
X69394000Y-38533000D01*
X60896000Y-38989000D02*
X60896000Y-39180000D01*
X59944000Y-40132000D02*
X59944000Y-40386000D01*
X60896000Y-39180000D02*
X59944000Y-40132000D01*
X69894000Y-37509000D02*
X69894000Y-39444500D01*
X69342000Y-36957000D02*
X69894000Y-37509000D01*
X75628000Y-45085000D02*
X75775000Y-45085000D01*
X73596000Y-47117000D02*
X75628000Y-45085000D01*
X75775000Y-45085000D02*
X76575000Y-45085000D01*
X82175000Y-43815000D02*
X82975000Y-43815000D01*
X81984490Y-44005510D02*
X82175000Y-43815000D01*
X82472934Y-45864490D02*
X81984490Y-45376046D01*
X83766046Y-45864490D02*
X82472934Y-45864490D01*
X81984490Y-45376046D02*
X81984490Y-44005510D01*
X83965510Y-46063954D02*
X83766046Y-45864490D01*
X83965510Y-46646046D02*
X83965510Y-46063954D01*
X83766046Y-46845510D02*
X83965510Y-46646046D01*
X80754510Y-46845510D02*
X83766046Y-46845510D01*
X78994000Y-45085000D02*
X80754510Y-46845510D01*
X75775000Y-45085000D02*
X78994000Y-45085000D01*
X72771000Y-30988000D02*
X72344529Y-30561529D01*
X72344529Y-28168971D02*
X72394000Y-28119500D01*
X72344529Y-30561529D02*
X72344529Y-28168971D01*
X71894000Y-28119500D02*
X71894000Y-30873000D01*
X71894000Y-30873000D02*
X72009000Y-30988000D01*
X79044000Y-32032000D02*
X79629000Y-31447000D01*
X78306500Y-32032000D02*
X79044000Y-32032000D01*
X76734510Y-40216980D02*
X76734510Y-38672020D01*
X74784490Y-42167000D02*
X76734510Y-40216980D01*
X74784490Y-43965510D02*
X74784490Y-42167000D01*
X76734510Y-38672020D02*
X74892490Y-36830000D01*
X74046000Y-44704000D02*
X74784490Y-43965510D01*
X73594000Y-44704000D02*
X74046000Y-44704000D01*
X78156500Y-32382000D02*
X78306500Y-32532000D01*
X75170776Y-32382000D02*
X78156500Y-32382000D01*
X74892490Y-32660286D02*
X75170776Y-32382000D01*
X74892490Y-36830000D02*
X74892490Y-32660286D01*
X78593000Y-35032000D02*
X78306500Y-35032000D01*
X75775000Y-43815000D02*
X76075000Y-43515000D01*
X77196000Y-35032000D02*
X78306500Y-35032000D01*
X76327000Y-34163000D02*
X77196000Y-35032000D01*
X75692000Y-34163000D02*
X76327000Y-34163000D01*
X75438000Y-36657062D02*
X75438000Y-34417000D01*
X77242528Y-38461590D02*
X75438000Y-36657062D01*
X77242528Y-43147472D02*
X77242529Y-41436693D01*
X75438000Y-34417000D02*
X75692000Y-34163000D01*
X77242529Y-41436693D02*
X77242528Y-38461590D01*
X76575000Y-43815000D02*
X77242528Y-43147472D01*
X75775000Y-43815000D02*
X76575000Y-43815000D01*
X78919490Y-35532000D02*
X78306500Y-35532000D01*
X76988520Y-41331480D02*
X76988519Y-38566805D01*
X75775000Y-42545000D02*
X76988520Y-41331480D01*
X76988519Y-38566805D02*
X75582499Y-37160785D01*
X75183990Y-36762276D02*
X75183990Y-34163010D01*
X75582499Y-37160785D02*
X75183990Y-36762276D01*
X76073000Y-33274000D02*
X76073000Y-33147000D01*
X75183990Y-34163010D02*
X76073000Y-33274000D01*
X76553000Y-35532000D02*
X78306500Y-35532000D01*
X76200000Y-35179000D02*
X76553000Y-35532000D01*
X83965510Y-44894490D02*
X83965510Y-37991510D01*
X83775000Y-45085000D02*
X83965510Y-44894490D01*
X82975000Y-45085000D02*
X83775000Y-45085000D01*
X82006000Y-36032000D02*
X78306500Y-36032000D01*
X83965510Y-37991510D02*
X82006000Y-36032000D01*
X79234510Y-36847020D02*
X78919490Y-36532000D01*
X78919490Y-36532000D02*
X78306500Y-36532000D01*
X79234510Y-43414510D02*
X79234510Y-36847020D01*
X82175000Y-46355000D02*
X79234510Y-43414510D01*
X82975000Y-46355000D02*
X82175000Y-46355000D01*
X63627000Y-38650000D02*
X63627000Y-40385000D01*
X63563000Y-40449000D02*
X63627000Y-40385000D01*
X63563000Y-40894000D02*
X63563000Y-40449000D01*
D30*
X41266057Y-39953591D02*
X41387403Y-40018452D01*
X41519070Y-40058393D01*
X41621691Y-40068500D01*
X41621701Y-40068500D01*
X41655999Y-40071878D01*
X41690297Y-40068500D01*
X43912662Y-40068500D01*
X43935169Y-40110608D01*
X44039394Y-40237606D01*
X44114581Y-40299310D01*
X44084114Y-40315595D01*
X43949538Y-40426038D01*
X43839095Y-40560614D01*
X43757028Y-40714150D01*
X43706492Y-40880746D01*
X43689428Y-41054000D01*
X43689428Y-42004000D01*
X43706492Y-42177254D01*
X43757028Y-42343850D01*
X43839095Y-42497386D01*
X43949538Y-42631962D01*
X44084114Y-42742405D01*
X44216501Y-42813167D01*
X44216501Y-43991692D01*
X44213122Y-44026000D01*
X44216501Y-44060308D01*
X44216501Y-44060309D01*
X44226608Y-44162930D01*
X44235612Y-44192612D01*
X44266549Y-44294598D01*
X44331409Y-44415943D01*
X44396826Y-44495653D01*
X44396830Y-44495657D01*
X44418698Y-44522303D01*
X44445344Y-44544171D01*
X45963829Y-46062657D01*
X45985697Y-46089303D01*
X46012343Y-46111171D01*
X46012346Y-46111174D01*
X46059343Y-46149743D01*
X46092057Y-46176591D01*
X46213403Y-46241452D01*
X46345070Y-46281393D01*
X46447691Y-46291500D01*
X46447702Y-46291500D01*
X46482000Y-46294878D01*
X46516298Y-46291500D01*
X53446702Y-46291500D01*
X53481000Y-46294878D01*
X53515298Y-46291500D01*
X53515309Y-46291500D01*
X53617930Y-46281393D01*
X53749597Y-46241452D01*
X53870943Y-46176591D01*
X53977303Y-46089303D01*
X53999175Y-46062652D01*
X55311756Y-44750072D01*
X56212000Y-44750072D01*
X56336482Y-44737812D01*
X56456180Y-44701502D01*
X56566494Y-44642537D01*
X56663185Y-44563185D01*
X56742537Y-44466494D01*
X56801502Y-44356180D01*
X56837812Y-44236482D01*
X56850072Y-44112000D01*
X56850072Y-43211756D01*
X57072329Y-42989500D01*
X58985993Y-42989500D01*
X58973928Y-43112000D01*
X58973928Y-44112000D01*
X58986188Y-44236482D01*
X59022498Y-44356180D01*
X59081463Y-44466494D01*
X59160815Y-44563185D01*
X59257506Y-44642537D01*
X59367820Y-44701502D01*
X59487518Y-44737812D01*
X59612000Y-44750072D01*
X60512245Y-44750072D01*
X61959247Y-46197075D01*
X61947928Y-46312000D01*
X61947928Y-47312000D01*
X61951272Y-47345950D01*
X61746728Y-47345950D01*
X61750072Y-47312000D01*
X61747000Y-47097750D01*
X61588250Y-46939000D01*
X60489000Y-46939000D01*
X60489000Y-46959000D01*
X60235000Y-46959000D01*
X60235000Y-46939000D01*
X59135750Y-46939000D01*
X58977000Y-47097750D01*
X58973928Y-47312000D01*
X58977272Y-47345950D01*
X56846728Y-47345950D01*
X56850072Y-47312000D01*
X56850072Y-46312000D01*
X58973928Y-46312000D01*
X58977000Y-46526250D01*
X59135750Y-46685000D01*
X60235000Y-46685000D01*
X60235000Y-45835750D01*
X60489000Y-45835750D01*
X60489000Y-46685000D01*
X61588250Y-46685000D01*
X61747000Y-46526250D01*
X61750072Y-46312000D01*
X61737812Y-46187518D01*
X61701502Y-46067820D01*
X61642537Y-45957506D01*
X61563185Y-45860815D01*
X61466494Y-45781463D01*
X61356180Y-45722498D01*
X61236482Y-45686188D01*
X61112000Y-45673928D01*
X60647750Y-45677000D01*
X60489000Y-45835750D01*
X60235000Y-45835750D01*
X60076250Y-45677000D01*
X59612000Y-45673928D01*
X59487518Y-45686188D01*
X59367820Y-45722498D01*
X59257506Y-45781463D01*
X59160815Y-45860815D01*
X59081463Y-45957506D01*
X59022498Y-46067820D01*
X58986188Y-46187518D01*
X58973928Y-46312000D01*
X56850072Y-46312000D01*
X56837812Y-46187518D01*
X56801502Y-46067820D01*
X56742537Y-45957506D01*
X56663185Y-45860815D01*
X56566494Y-45781463D01*
X56456180Y-45722498D01*
X56336482Y-45686188D01*
X56212000Y-45673928D01*
X54712000Y-45673928D01*
X54587518Y-45686188D01*
X54467820Y-45722498D01*
X54357506Y-45781463D01*
X54260815Y-45860815D01*
X54181463Y-45957506D01*
X54122498Y-46067820D01*
X54086188Y-46187518D01*
X54073928Y-46312000D01*
X54073928Y-47312000D01*
X54077272Y-47345950D01*
X40031985Y-47345950D01*
X39739180Y-47317240D01*
X39488294Y-47241493D01*
X39480241Y-47237211D01*
X39480241Y-43900208D01*
X39547858Y-43936350D01*
X39708592Y-43985108D01*
X39875750Y-44001572D01*
X40388250Y-44001572D01*
X40555408Y-43985108D01*
X40716142Y-43936350D01*
X40864275Y-43857171D01*
X40994115Y-43750615D01*
X41031389Y-43705196D01*
X41042394Y-43718606D01*
X41169392Y-43822831D01*
X41314284Y-43900278D01*
X41471500Y-43947969D01*
X41635000Y-43964072D01*
X42185000Y-43964072D01*
X42348500Y-43947969D01*
X42505716Y-43900278D01*
X42650608Y-43822831D01*
X42777606Y-43718606D01*
X42881831Y-43591608D01*
X42959278Y-43446716D01*
X43006969Y-43289500D01*
X43023072Y-43126000D01*
X43023072Y-42726000D01*
X43006969Y-42562500D01*
X42959278Y-42405284D01*
X42881831Y-42260392D01*
X42798137Y-42158410D01*
X42836185Y-42127185D01*
X42915537Y-42030494D01*
X42974502Y-41920180D01*
X43010812Y-41800482D01*
X43023072Y-41676000D01*
X43020000Y-41561750D01*
X42861250Y-41403000D01*
X42037000Y-41403000D01*
X42037000Y-41423000D01*
X41783000Y-41423000D01*
X41783000Y-41403000D01*
X41763000Y-41403000D01*
X41763000Y-41149000D01*
X41783000Y-41149000D01*
X41783000Y-40399750D01*
X42037000Y-40399750D01*
X42037000Y-41149000D01*
X42861250Y-41149000D01*
X43020000Y-40990250D01*
X43023072Y-40876000D01*
X43010812Y-40751518D01*
X42974502Y-40631820D01*
X42915537Y-40521506D01*
X42836185Y-40424815D01*
X42739494Y-40345463D01*
X42629180Y-40286498D01*
X42509482Y-40250188D01*
X42385000Y-40237928D01*
X42195750Y-40241000D01*
X42037000Y-40399750D01*
X41783000Y-40399750D01*
X41624250Y-40241000D01*
X41435000Y-40237928D01*
X41310518Y-40250188D01*
X41190820Y-40286498D01*
X41080506Y-40345463D01*
X40983815Y-40424815D01*
X40938151Y-40480457D01*
X40870396Y-40424852D01*
X40982028Y-40350262D01*
X41112262Y-40220028D01*
X41214586Y-40066889D01*
X41262667Y-39950809D01*
X41266057Y-39953591D01*
G04 #@! TA.AperFunction,Conductor*
D31*
G36*
X41266057Y-39953591D02*
G01*
X41387403Y-40018452D01*
X41519070Y-40058393D01*
X41621691Y-40068500D01*
X41621701Y-40068500D01*
X41655999Y-40071878D01*
X41690297Y-40068500D01*
X43912662Y-40068500D01*
X43935169Y-40110608D01*
X44039394Y-40237606D01*
X44114581Y-40299310D01*
X44084114Y-40315595D01*
X43949538Y-40426038D01*
X43839095Y-40560614D01*
X43757028Y-40714150D01*
X43706492Y-40880746D01*
X43689428Y-41054000D01*
X43689428Y-42004000D01*
X43706492Y-42177254D01*
X43757028Y-42343850D01*
X43839095Y-42497386D01*
X43949538Y-42631962D01*
X44084114Y-42742405D01*
X44216501Y-42813167D01*
X44216501Y-43991692D01*
X44213122Y-44026000D01*
X44216501Y-44060308D01*
X44216501Y-44060309D01*
X44226608Y-44162930D01*
X44235612Y-44192612D01*
X44266549Y-44294598D01*
X44331409Y-44415943D01*
X44396826Y-44495653D01*
X44396830Y-44495657D01*
X44418698Y-44522303D01*
X44445344Y-44544171D01*
X45963829Y-46062657D01*
X45985697Y-46089303D01*
X46012343Y-46111171D01*
X46012346Y-46111174D01*
X46059343Y-46149743D01*
X46092057Y-46176591D01*
X46213403Y-46241452D01*
X46345070Y-46281393D01*
X46447691Y-46291500D01*
X46447702Y-46291500D01*
X46482000Y-46294878D01*
X46516298Y-46291500D01*
X53446702Y-46291500D01*
X53481000Y-46294878D01*
X53515298Y-46291500D01*
X53515309Y-46291500D01*
X53617930Y-46281393D01*
X53749597Y-46241452D01*
X53870943Y-46176591D01*
X53977303Y-46089303D01*
X53999175Y-46062652D01*
X55311756Y-44750072D01*
X56212000Y-44750072D01*
X56336482Y-44737812D01*
X56456180Y-44701502D01*
X56566494Y-44642537D01*
X56663185Y-44563185D01*
X56742537Y-44466494D01*
X56801502Y-44356180D01*
X56837812Y-44236482D01*
X56850072Y-44112000D01*
X56850072Y-43211756D01*
X57072329Y-42989500D01*
X58985993Y-42989500D01*
X58973928Y-43112000D01*
X58973928Y-44112000D01*
X58986188Y-44236482D01*
X59022498Y-44356180D01*
X59081463Y-44466494D01*
X59160815Y-44563185D01*
X59257506Y-44642537D01*
X59367820Y-44701502D01*
X59487518Y-44737812D01*
X59612000Y-44750072D01*
X60512245Y-44750072D01*
X61959247Y-46197075D01*
X61947928Y-46312000D01*
X61947928Y-47312000D01*
X61951272Y-47345950D01*
X61746728Y-47345950D01*
X61750072Y-47312000D01*
X61747000Y-47097750D01*
X61588250Y-46939000D01*
X60489000Y-46939000D01*
X60489000Y-46959000D01*
X60235000Y-46959000D01*
X60235000Y-46939000D01*
X59135750Y-46939000D01*
X58977000Y-47097750D01*
X58973928Y-47312000D01*
X58977272Y-47345950D01*
X56846728Y-47345950D01*
X56850072Y-47312000D01*
X56850072Y-46312000D01*
X58973928Y-46312000D01*
X58977000Y-46526250D01*
X59135750Y-46685000D01*
X60235000Y-46685000D01*
X60235000Y-45835750D01*
X60489000Y-45835750D01*
X60489000Y-46685000D01*
X61588250Y-46685000D01*
X61747000Y-46526250D01*
X61750072Y-46312000D01*
X61737812Y-46187518D01*
X61701502Y-46067820D01*
X61642537Y-45957506D01*
X61563185Y-45860815D01*
X61466494Y-45781463D01*
X61356180Y-45722498D01*
X61236482Y-45686188D01*
X61112000Y-45673928D01*
X60647750Y-45677000D01*
X60489000Y-45835750D01*
X60235000Y-45835750D01*
X60076250Y-45677000D01*
X59612000Y-45673928D01*
X59487518Y-45686188D01*
X59367820Y-45722498D01*
X59257506Y-45781463D01*
X59160815Y-45860815D01*
X59081463Y-45957506D01*
X59022498Y-46067820D01*
X58986188Y-46187518D01*
X58973928Y-46312000D01*
X56850072Y-46312000D01*
X56837812Y-46187518D01*
X56801502Y-46067820D01*
X56742537Y-45957506D01*
X56663185Y-45860815D01*
X56566494Y-45781463D01*
X56456180Y-45722498D01*
X56336482Y-45686188D01*
X56212000Y-45673928D01*
X54712000Y-45673928D01*
X54587518Y-45686188D01*
X54467820Y-45722498D01*
X54357506Y-45781463D01*
X54260815Y-45860815D01*
X54181463Y-45957506D01*
X54122498Y-46067820D01*
X54086188Y-46187518D01*
X54073928Y-46312000D01*
X54073928Y-47312000D01*
X54077272Y-47345950D01*
X40031985Y-47345950D01*
X39739180Y-47317240D01*
X39488294Y-47241493D01*
X39480241Y-47237211D01*
X39480241Y-43900208D01*
X39547858Y-43936350D01*
X39708592Y-43985108D01*
X39875750Y-44001572D01*
X40388250Y-44001572D01*
X40555408Y-43985108D01*
X40716142Y-43936350D01*
X40864275Y-43857171D01*
X40994115Y-43750615D01*
X41031389Y-43705196D01*
X41042394Y-43718606D01*
X41169392Y-43822831D01*
X41314284Y-43900278D01*
X41471500Y-43947969D01*
X41635000Y-43964072D01*
X42185000Y-43964072D01*
X42348500Y-43947969D01*
X42505716Y-43900278D01*
X42650608Y-43822831D01*
X42777606Y-43718606D01*
X42881831Y-43591608D01*
X42959278Y-43446716D01*
X43006969Y-43289500D01*
X43023072Y-43126000D01*
X43023072Y-42726000D01*
X43006969Y-42562500D01*
X42959278Y-42405284D01*
X42881831Y-42260392D01*
X42798137Y-42158410D01*
X42836185Y-42127185D01*
X42915537Y-42030494D01*
X42974502Y-41920180D01*
X43010812Y-41800482D01*
X43023072Y-41676000D01*
X43020000Y-41561750D01*
X42861250Y-41403000D01*
X42037000Y-41403000D01*
X42037000Y-41423000D01*
X41783000Y-41423000D01*
X41783000Y-41403000D01*
X41763000Y-41403000D01*
X41763000Y-41149000D01*
X41783000Y-41149000D01*
X41783000Y-40399750D01*
X42037000Y-40399750D01*
X42037000Y-41149000D01*
X42861250Y-41149000D01*
X43020000Y-40990250D01*
X43023072Y-40876000D01*
X43010812Y-40751518D01*
X42974502Y-40631820D01*
X42915537Y-40521506D01*
X42836185Y-40424815D01*
X42739494Y-40345463D01*
X42629180Y-40286498D01*
X42509482Y-40250188D01*
X42385000Y-40237928D01*
X42195750Y-40241000D01*
X42037000Y-40399750D01*
X41783000Y-40399750D01*
X41624250Y-40241000D01*
X41435000Y-40237928D01*
X41310518Y-40250188D01*
X41190820Y-40286498D01*
X41080506Y-40345463D01*
X40983815Y-40424815D01*
X40938151Y-40480457D01*
X40870396Y-40424852D01*
X40982028Y-40350262D01*
X41112262Y-40220028D01*
X41214586Y-40066889D01*
X41262667Y-39950809D01*
X41266057Y-39953591D01*
G37*
G04 #@! TD.AperFunction*
D30*
X62586000Y-44750072D02*
X63486245Y-44750072D01*
X64559829Y-45823657D01*
X64581697Y-45850303D01*
X64608343Y-45872171D01*
X64608346Y-45872174D01*
X64688056Y-45937591D01*
X64809401Y-46002451D01*
X64809403Y-46002452D01*
X64941070Y-46042393D01*
X65043691Y-46052500D01*
X65043701Y-46052500D01*
X65077999Y-46055878D01*
X65112297Y-46052500D01*
X66904687Y-46052500D01*
X66896498Y-46067820D01*
X66860188Y-46187518D01*
X66847928Y-46312000D01*
X66851000Y-46526250D01*
X67009750Y-46685000D01*
X68109000Y-46685000D01*
X68109000Y-46665000D01*
X68363000Y-46665000D01*
X68363000Y-46685000D01*
X69462250Y-46685000D01*
X69621000Y-46526250D01*
X69624072Y-46312000D01*
X69611812Y-46187518D01*
X69575502Y-46067820D01*
X69567313Y-46052500D01*
X70975469Y-46052500D01*
X71014506Y-46084537D01*
X71124820Y-46143502D01*
X71239890Y-46178408D01*
X71153394Y-46249394D01*
X71049169Y-46376392D01*
X70971722Y-46521284D01*
X70924031Y-46678500D01*
X70907928Y-46842000D01*
X70907928Y-47345950D01*
X69620728Y-47345950D01*
X69624072Y-47312000D01*
X69621000Y-47097750D01*
X69462250Y-46939000D01*
X68363000Y-46939000D01*
X68363000Y-46959000D01*
X68109000Y-46959000D01*
X68109000Y-46939000D01*
X67009750Y-46939000D01*
X66851000Y-47097750D01*
X66847928Y-47312000D01*
X66851272Y-47345950D01*
X64720728Y-47345950D01*
X64724072Y-47312000D01*
X64724072Y-46312000D01*
X64711812Y-46187518D01*
X64675502Y-46067820D01*
X64616537Y-45957506D01*
X64537185Y-45860815D01*
X64440494Y-45781463D01*
X64330180Y-45722498D01*
X64210482Y-45686188D01*
X64086000Y-45673928D01*
X63411757Y-45673928D01*
X62477183Y-44739355D01*
X62586000Y-44750072D01*
G04 #@! TA.AperFunction,Conductor*
D31*
G36*
X62586000Y-44750072D02*
G01*
X63486245Y-44750072D01*
X64559829Y-45823657D01*
X64581697Y-45850303D01*
X64608343Y-45872171D01*
X64608346Y-45872174D01*
X64688056Y-45937591D01*
X64809401Y-46002451D01*
X64809403Y-46002452D01*
X64941070Y-46042393D01*
X65043691Y-46052500D01*
X65043701Y-46052500D01*
X65077999Y-46055878D01*
X65112297Y-46052500D01*
X66904687Y-46052500D01*
X66896498Y-46067820D01*
X66860188Y-46187518D01*
X66847928Y-46312000D01*
X66851000Y-46526250D01*
X67009750Y-46685000D01*
X68109000Y-46685000D01*
X68109000Y-46665000D01*
X68363000Y-46665000D01*
X68363000Y-46685000D01*
X69462250Y-46685000D01*
X69621000Y-46526250D01*
X69624072Y-46312000D01*
X69611812Y-46187518D01*
X69575502Y-46067820D01*
X69567313Y-46052500D01*
X70975469Y-46052500D01*
X71014506Y-46084537D01*
X71124820Y-46143502D01*
X71239890Y-46178408D01*
X71153394Y-46249394D01*
X71049169Y-46376392D01*
X70971722Y-46521284D01*
X70924031Y-46678500D01*
X70907928Y-46842000D01*
X70907928Y-47345950D01*
X69620728Y-47345950D01*
X69624072Y-47312000D01*
X69621000Y-47097750D01*
X69462250Y-46939000D01*
X68363000Y-46939000D01*
X68363000Y-46959000D01*
X68109000Y-46959000D01*
X68109000Y-46939000D01*
X67009750Y-46939000D01*
X66851000Y-47097750D01*
X66847928Y-47312000D01*
X66851272Y-47345950D01*
X64720728Y-47345950D01*
X64724072Y-47312000D01*
X64724072Y-46312000D01*
X64711812Y-46187518D01*
X64675502Y-46067820D01*
X64616537Y-45957506D01*
X64537185Y-45860815D01*
X64440494Y-45781463D01*
X64330180Y-45722498D01*
X64210482Y-45686188D01*
X64086000Y-45673928D01*
X63411757Y-45673928D01*
X62477183Y-44739355D01*
X62586000Y-44750072D01*
G37*
G04 #@! TD.AperFunction*
D30*
X80236344Y-47315173D02*
X80258207Y-47341813D01*
X80263248Y-47345950D01*
X74634072Y-47345950D01*
X74634072Y-47192788D01*
X74730820Y-47244502D01*
X74850518Y-47280812D01*
X74975000Y-47293072D01*
X75489250Y-47290000D01*
X75648000Y-47131250D01*
X75648000Y-46482000D01*
X75902000Y-46482000D01*
X75902000Y-47131250D01*
X76060750Y-47290000D01*
X76575000Y-47293072D01*
X76699482Y-47280812D01*
X76819180Y-47244502D01*
X76929494Y-47185537D01*
X77026185Y-47106185D01*
X77105537Y-47009494D01*
X77164502Y-46899180D01*
X77200812Y-46779482D01*
X77213072Y-46655000D01*
X77210000Y-46640750D01*
X77051250Y-46482000D01*
X75902000Y-46482000D01*
X75648000Y-46482000D01*
X75628000Y-46482000D01*
X75628000Y-46228000D01*
X75648000Y-46228000D01*
X75648000Y-46208000D01*
X75902000Y-46208000D01*
X75902000Y-46228000D01*
X77051250Y-46228000D01*
X77210000Y-46069250D01*
X77213072Y-46055000D01*
X77200812Y-45930518D01*
X77164502Y-45810820D01*
X77149899Y-45783500D01*
X78704673Y-45783500D01*
X80236344Y-47315173D01*
G04 #@! TA.AperFunction,Conductor*
D31*
G36*
X80236344Y-47315173D02*
G01*
X80258207Y-47341813D01*
X80263248Y-47345950D01*
X74634072Y-47345950D01*
X74634072Y-47192788D01*
X74730820Y-47244502D01*
X74850518Y-47280812D01*
X74975000Y-47293072D01*
X75489250Y-47290000D01*
X75648000Y-47131250D01*
X75648000Y-46482000D01*
X75902000Y-46482000D01*
X75902000Y-47131250D01*
X76060750Y-47290000D01*
X76575000Y-47293072D01*
X76699482Y-47280812D01*
X76819180Y-47244502D01*
X76929494Y-47185537D01*
X77026185Y-47106185D01*
X77105537Y-47009494D01*
X77164502Y-46899180D01*
X77200812Y-46779482D01*
X77213072Y-46655000D01*
X77210000Y-46640750D01*
X77051250Y-46482000D01*
X75902000Y-46482000D01*
X75648000Y-46482000D01*
X75628000Y-46482000D01*
X75628000Y-46228000D01*
X75648000Y-46228000D01*
X75648000Y-46208000D01*
X75902000Y-46208000D01*
X75902000Y-46228000D01*
X77051250Y-46228000D01*
X77210000Y-46069250D01*
X77213072Y-46055000D01*
X77200812Y-45930518D01*
X77164502Y-45810820D01*
X77149899Y-45783500D01*
X78704673Y-45783500D01*
X80236344Y-47315173D01*
G37*
G04 #@! TD.AperFunction*
D30*
X91237889Y-26479637D02*
X91315386Y-26729990D01*
X91345951Y-27020790D01*
X91345950Y-42134966D01*
X91344185Y-42132815D01*
X91247494Y-42053463D01*
X91137180Y-41994498D01*
X91017482Y-41958188D01*
X90893000Y-41945928D01*
X89193000Y-41945928D01*
X89068518Y-41958188D01*
X88948820Y-41994498D01*
X88838506Y-42053463D01*
X88741815Y-42132815D01*
X88662463Y-42229506D01*
X88603498Y-42339820D01*
X88567188Y-42459518D01*
X88554928Y-42584000D01*
X88554928Y-44284000D01*
X88567188Y-44408482D01*
X88603498Y-44528180D01*
X88662463Y-44638494D01*
X88741815Y-44735185D01*
X88838506Y-44814537D01*
X88948820Y-44873502D01*
X89068518Y-44909812D01*
X89193000Y-44922072D01*
X90893000Y-44922072D01*
X91017482Y-44909812D01*
X91137180Y-44873502D01*
X91247494Y-44814537D01*
X91344185Y-44735185D01*
X91345950Y-44733034D01*
X91345950Y-45968015D01*
X91317240Y-46260820D01*
X91241493Y-46511706D01*
X91118458Y-46743101D01*
X90952820Y-46946193D01*
X90750888Y-47113245D01*
X90520363Y-47237889D01*
X90270009Y-47315386D01*
X89979219Y-47345950D01*
X84257308Y-47345950D01*
X84262349Y-47341813D01*
X84284221Y-47315162D01*
X84435166Y-47164217D01*
X84461812Y-47142349D01*
X84483681Y-47115702D01*
X84483684Y-47115699D01*
X84549101Y-47035989D01*
X84560366Y-47014913D01*
X84613962Y-46914643D01*
X84653903Y-46782976D01*
X84664010Y-46680355D01*
X84664010Y-46680344D01*
X84667388Y-46646046D01*
X84664010Y-46611748D01*
X84664010Y-46098252D01*
X84667388Y-46063954D01*
X84664010Y-46029656D01*
X84664010Y-46029645D01*
X84653903Y-45927024D01*
X84613962Y-45795357D01*
X84549101Y-45674011D01*
X84461813Y-45567651D01*
X84435162Y-45545779D01*
X84370046Y-45480663D01*
X84371302Y-45476525D01*
X84435166Y-45412661D01*
X84461812Y-45390793D01*
X84483681Y-45364146D01*
X84483684Y-45364143D01*
X84549101Y-45284433D01*
X84573323Y-45239117D01*
X84613962Y-45163087D01*
X84653903Y-45031420D01*
X84664010Y-44928799D01*
X84664010Y-44928788D01*
X84667388Y-44894490D01*
X84664010Y-44860192D01*
X84664010Y-42584000D01*
X84808428Y-42584000D01*
X84808428Y-44284000D01*
X84820688Y-44408482D01*
X84856998Y-44528180D01*
X84915963Y-44638494D01*
X84995315Y-44735185D01*
X85092006Y-44814537D01*
X85202320Y-44873502D01*
X85322018Y-44909812D01*
X85446500Y-44922072D01*
X87146500Y-44922072D01*
X87270982Y-44909812D01*
X87390680Y-44873502D01*
X87500994Y-44814537D01*
X87597685Y-44735185D01*
X87677037Y-44638494D01*
X87736002Y-44528180D01*
X87772312Y-44408482D01*
X87784572Y-44284000D01*
X87784572Y-42584000D01*
X87772312Y-42459518D01*
X87736002Y-42339820D01*
X87677037Y-42229506D01*
X87597685Y-42132815D01*
X87500994Y-42053463D01*
X87390680Y-41994498D01*
X87270982Y-41958188D01*
X87146500Y-41945928D01*
X85446500Y-41945928D01*
X85322018Y-41958188D01*
X85202320Y-41994498D01*
X85092006Y-42053463D01*
X84995315Y-42132815D01*
X84915963Y-42229506D01*
X84856998Y-42339820D01*
X84820688Y-42459518D01*
X84808428Y-42584000D01*
X84664010Y-42584000D01*
X84664010Y-41103000D01*
X85881928Y-41103000D01*
X85894188Y-41227482D01*
X85930498Y-41347180D01*
X85989463Y-41457494D01*
X86068815Y-41554185D01*
X86165506Y-41633537D01*
X86275820Y-41692502D01*
X86395518Y-41728812D01*
X86520000Y-41741072D01*
X86709250Y-41738000D01*
X86868000Y-41579250D01*
X86868000Y-40830000D01*
X87122000Y-40830000D01*
X87122000Y-41579250D01*
X87280750Y-41738000D01*
X87470000Y-41741072D01*
X87594482Y-41728812D01*
X87714180Y-41692502D01*
X87824494Y-41633537D01*
X87921185Y-41554185D01*
X88000537Y-41457494D01*
X88059502Y-41347180D01*
X88095812Y-41227482D01*
X88108072Y-41103000D01*
X88105000Y-40988750D01*
X87946250Y-40830000D01*
X87122000Y-40830000D01*
X86868000Y-40830000D01*
X86043750Y-40830000D01*
X85885000Y-40988750D01*
X85881928Y-41103000D01*
X84664010Y-41103000D01*
X84664010Y-38025808D01*
X84667388Y-37991510D01*
X84664010Y-37957212D01*
X84664010Y-37957201D01*
X84653903Y-37854580D01*
X84642486Y-37816942D01*
X84728506Y-37887537D01*
X84838820Y-37946502D01*
X84958518Y-37982812D01*
X85083000Y-37995072D01*
X85883000Y-37995072D01*
X86007482Y-37982812D01*
X86127180Y-37946502D01*
X86233000Y-37889939D01*
X86284500Y-37917467D01*
X86284501Y-38140076D01*
X86254392Y-38156169D01*
X86127394Y-38260394D01*
X86023169Y-38387392D01*
X85945722Y-38532284D01*
X85898031Y-38689500D01*
X85881928Y-38853000D01*
X85881928Y-39253000D01*
X85898031Y-39416500D01*
X85945722Y-39573716D01*
X86023169Y-39718608D01*
X86106863Y-39820590D01*
X86068815Y-39851815D01*
X85989463Y-39948506D01*
X85930498Y-40058820D01*
X85894188Y-40178518D01*
X85881928Y-40303000D01*
X85885000Y-40417250D01*
X86043750Y-40576000D01*
X86868000Y-40576000D01*
X86868000Y-40556000D01*
X87122000Y-40556000D01*
X87122000Y-40576000D01*
X87946250Y-40576000D01*
X88105000Y-40417250D01*
X88108072Y-40303000D01*
X88095812Y-40178518D01*
X88059502Y-40058820D01*
X88000537Y-39948506D01*
X87921185Y-39851815D01*
X87883137Y-39820590D01*
X87966831Y-39718608D01*
X88044278Y-39573716D01*
X88091969Y-39416500D01*
X88108072Y-39253000D01*
X88108072Y-38853000D01*
X88091969Y-38689500D01*
X88044278Y-38532284D01*
X87966831Y-38387392D01*
X87862606Y-38260394D01*
X87735608Y-38156169D01*
X87681500Y-38127247D01*
X87681500Y-37917467D01*
X87737494Y-37887537D01*
X87834185Y-37808185D01*
X87913537Y-37711494D01*
X87972502Y-37601180D01*
X88008812Y-37481482D01*
X88021072Y-37357000D01*
X88021072Y-36557000D01*
X88008812Y-36432518D01*
X87972502Y-36312820D01*
X87913537Y-36202506D01*
X87834185Y-36105815D01*
X87737494Y-36026463D01*
X87627180Y-35967498D01*
X87507482Y-35931188D01*
X87383000Y-35918928D01*
X86583000Y-35918928D01*
X86458518Y-35931188D01*
X86338820Y-35967498D01*
X86233000Y-36024061D01*
X86127180Y-35967498D01*
X86007482Y-35931188D01*
X85883000Y-35918928D01*
X85083000Y-35918928D01*
X84958518Y-35931188D01*
X84838820Y-35967498D01*
X84728506Y-36026463D01*
X84631815Y-36105815D01*
X84608876Y-36133767D01*
X84592068Y-36049271D01*
X84521586Y-35879111D01*
X84419262Y-35725972D01*
X84289028Y-35595738D01*
X84135889Y-35493414D01*
X83965729Y-35422932D01*
X83785089Y-35387000D01*
X83600911Y-35387000D01*
X83420271Y-35422932D01*
X83250111Y-35493414D01*
X83096972Y-35595738D01*
X82966738Y-35725972D01*
X82864414Y-35879111D01*
X82857538Y-35895711D01*
X82524175Y-35562348D01*
X82502303Y-35535697D01*
X82426155Y-35473204D01*
X82498494Y-35434537D01*
X82595185Y-35355185D01*
X82674537Y-35258494D01*
X82733502Y-35148180D01*
X82769812Y-35028482D01*
X82782072Y-34904000D01*
X82782072Y-34537756D01*
X82804157Y-34515670D01*
X82830804Y-34493802D01*
X82852672Y-34467156D01*
X82852675Y-34467153D01*
X82918092Y-34387442D01*
X82929057Y-34366928D01*
X82982953Y-34266096D01*
X83022894Y-34134429D01*
X83033001Y-34031808D01*
X83033001Y-34031798D01*
X83036379Y-33997500D01*
X83033001Y-33963202D01*
X83033001Y-33604000D01*
X87905928Y-33604000D01*
X87905928Y-34904000D01*
X87918188Y-35028482D01*
X87954498Y-35148180D01*
X88013463Y-35258494D01*
X88092815Y-35355185D01*
X88189506Y-35434537D01*
X88299820Y-35493502D01*
X88419518Y-35529812D01*
X88544000Y-35542072D01*
X90094000Y-35542072D01*
X90218482Y-35529812D01*
X90338180Y-35493502D01*
X90448494Y-35434537D01*
X90545185Y-35355185D01*
X90624537Y-35258494D01*
X90683502Y-35148180D01*
X90719812Y-35028482D01*
X90732072Y-34904000D01*
X90732072Y-33604000D01*
X90719812Y-33479518D01*
X90683502Y-33359820D01*
X90624537Y-33249506D01*
X90545185Y-33152815D01*
X90448494Y-33073463D01*
X90338180Y-33014498D01*
X90218482Y-32978188D01*
X90094000Y-32965928D01*
X88544000Y-32965928D01*
X88419518Y-32978188D01*
X88299820Y-33014498D01*
X88189506Y-33073463D01*
X88092815Y-33152815D01*
X88013463Y-33249506D01*
X87954498Y-33359820D01*
X87918188Y-33479518D01*
X87905928Y-33604000D01*
X83033001Y-33604000D01*
X83033001Y-30404000D01*
X87905928Y-30404000D01*
X87918188Y-30528482D01*
X87954498Y-30648180D01*
X88013463Y-30758494D01*
X88092815Y-30855185D01*
X88189506Y-30934537D01*
X88299820Y-30993502D01*
X88419518Y-31029812D01*
X88544000Y-31042072D01*
X89033250Y-31039000D01*
X89192000Y-30880250D01*
X89192000Y-29881000D01*
X89446000Y-29881000D01*
X89446000Y-30880250D01*
X89604750Y-31039000D01*
X90094000Y-31042072D01*
X90218482Y-31029812D01*
X90338180Y-30993502D01*
X90448494Y-30934537D01*
X90545185Y-30855185D01*
X90624537Y-30758494D01*
X90683502Y-30648180D01*
X90719812Y-30528482D01*
X90732072Y-30404000D01*
X90729000Y-30039750D01*
X90570250Y-29881000D01*
X89446000Y-29881000D01*
X89192000Y-29881000D01*
X88067750Y-29881000D01*
X87909000Y-30039750D01*
X87905928Y-30404000D01*
X83033001Y-30404000D01*
X83033001Y-29104000D01*
X87905928Y-29104000D01*
X87909000Y-29468250D01*
X88067750Y-29627000D01*
X89192000Y-29627000D01*
X89192000Y-28627750D01*
X89446000Y-28627750D01*
X89446000Y-29627000D01*
X90570250Y-29627000D01*
X90729000Y-29468250D01*
X90732072Y-29104000D01*
X90719812Y-28979518D01*
X90683502Y-28859820D01*
X90624537Y-28749506D01*
X90545185Y-28652815D01*
X90448494Y-28573463D01*
X90338180Y-28514498D01*
X90218482Y-28478188D01*
X90094000Y-28465928D01*
X89604750Y-28469000D01*
X89446000Y-28627750D01*
X89192000Y-28627750D01*
X89033250Y-28469000D01*
X88544000Y-28465928D01*
X88419518Y-28478188D01*
X88299820Y-28514498D01*
X88189506Y-28573463D01*
X88092815Y-28652815D01*
X88013463Y-28749506D01*
X87954498Y-28859820D01*
X87918188Y-28979518D01*
X87905928Y-29104000D01*
X83033001Y-29104000D01*
X83033001Y-28457798D01*
X83036379Y-28423500D01*
X83033001Y-28389202D01*
X83033001Y-28389192D01*
X83022894Y-28286571D01*
X82982953Y-28154904D01*
X82982368Y-28153809D01*
X82918092Y-28033557D01*
X82852675Y-27953846D01*
X82852663Y-27953834D01*
X82830803Y-27927198D01*
X82804168Y-27905339D01*
X82381072Y-27482244D01*
X82381072Y-27157000D01*
X82364969Y-26993500D01*
X82317278Y-26836284D01*
X82239831Y-26691392D01*
X82135606Y-26564394D01*
X82008608Y-26460169D01*
X81925974Y-26416000D01*
X91203481Y-26416000D01*
X91237889Y-26479637D01*
G04 #@! TA.AperFunction,Conductor*
D31*
G36*
X91237889Y-26479637D02*
G01*
X91315386Y-26729990D01*
X91345951Y-27020790D01*
X91345950Y-42134966D01*
X91344185Y-42132815D01*
X91247494Y-42053463D01*
X91137180Y-41994498D01*
X91017482Y-41958188D01*
X90893000Y-41945928D01*
X89193000Y-41945928D01*
X89068518Y-41958188D01*
X88948820Y-41994498D01*
X88838506Y-42053463D01*
X88741815Y-42132815D01*
X88662463Y-42229506D01*
X88603498Y-42339820D01*
X88567188Y-42459518D01*
X88554928Y-42584000D01*
X88554928Y-44284000D01*
X88567188Y-44408482D01*
X88603498Y-44528180D01*
X88662463Y-44638494D01*
X88741815Y-44735185D01*
X88838506Y-44814537D01*
X88948820Y-44873502D01*
X89068518Y-44909812D01*
X89193000Y-44922072D01*
X90893000Y-44922072D01*
X91017482Y-44909812D01*
X91137180Y-44873502D01*
X91247494Y-44814537D01*
X91344185Y-44735185D01*
X91345950Y-44733034D01*
X91345950Y-45968015D01*
X91317240Y-46260820D01*
X91241493Y-46511706D01*
X91118458Y-46743101D01*
X90952820Y-46946193D01*
X90750888Y-47113245D01*
X90520363Y-47237889D01*
X90270009Y-47315386D01*
X89979219Y-47345950D01*
X84257308Y-47345950D01*
X84262349Y-47341813D01*
X84284221Y-47315162D01*
X84435166Y-47164217D01*
X84461812Y-47142349D01*
X84483681Y-47115702D01*
X84483684Y-47115699D01*
X84549101Y-47035989D01*
X84560366Y-47014913D01*
X84613962Y-46914643D01*
X84653903Y-46782976D01*
X84664010Y-46680355D01*
X84664010Y-46680344D01*
X84667388Y-46646046D01*
X84664010Y-46611748D01*
X84664010Y-46098252D01*
X84667388Y-46063954D01*
X84664010Y-46029656D01*
X84664010Y-46029645D01*
X84653903Y-45927024D01*
X84613962Y-45795357D01*
X84549101Y-45674011D01*
X84461813Y-45567651D01*
X84435162Y-45545779D01*
X84370046Y-45480663D01*
X84371302Y-45476525D01*
X84435166Y-45412661D01*
X84461812Y-45390793D01*
X84483681Y-45364146D01*
X84483684Y-45364143D01*
X84549101Y-45284433D01*
X84573323Y-45239117D01*
X84613962Y-45163087D01*
X84653903Y-45031420D01*
X84664010Y-44928799D01*
X84664010Y-44928788D01*
X84667388Y-44894490D01*
X84664010Y-44860192D01*
X84664010Y-42584000D01*
X84808428Y-42584000D01*
X84808428Y-44284000D01*
X84820688Y-44408482D01*
X84856998Y-44528180D01*
X84915963Y-44638494D01*
X84995315Y-44735185D01*
X85092006Y-44814537D01*
X85202320Y-44873502D01*
X85322018Y-44909812D01*
X85446500Y-44922072D01*
X87146500Y-44922072D01*
X87270982Y-44909812D01*
X87390680Y-44873502D01*
X87500994Y-44814537D01*
X87597685Y-44735185D01*
X87677037Y-44638494D01*
X87736002Y-44528180D01*
X87772312Y-44408482D01*
X87784572Y-44284000D01*
X87784572Y-42584000D01*
X87772312Y-42459518D01*
X87736002Y-42339820D01*
X87677037Y-42229506D01*
X87597685Y-42132815D01*
X87500994Y-42053463D01*
X87390680Y-41994498D01*
X87270982Y-41958188D01*
X87146500Y-41945928D01*
X85446500Y-41945928D01*
X85322018Y-41958188D01*
X85202320Y-41994498D01*
X85092006Y-42053463D01*
X84995315Y-42132815D01*
X84915963Y-42229506D01*
X84856998Y-42339820D01*
X84820688Y-42459518D01*
X84808428Y-42584000D01*
X84664010Y-42584000D01*
X84664010Y-41103000D01*
X85881928Y-41103000D01*
X85894188Y-41227482D01*
X85930498Y-41347180D01*
X85989463Y-41457494D01*
X86068815Y-41554185D01*
X86165506Y-41633537D01*
X86275820Y-41692502D01*
X86395518Y-41728812D01*
X86520000Y-41741072D01*
X86709250Y-41738000D01*
X86868000Y-41579250D01*
X86868000Y-40830000D01*
X87122000Y-40830000D01*
X87122000Y-41579250D01*
X87280750Y-41738000D01*
X87470000Y-41741072D01*
X87594482Y-41728812D01*
X87714180Y-41692502D01*
X87824494Y-41633537D01*
X87921185Y-41554185D01*
X88000537Y-41457494D01*
X88059502Y-41347180D01*
X88095812Y-41227482D01*
X88108072Y-41103000D01*
X88105000Y-40988750D01*
X87946250Y-40830000D01*
X87122000Y-40830000D01*
X86868000Y-40830000D01*
X86043750Y-40830000D01*
X85885000Y-40988750D01*
X85881928Y-41103000D01*
X84664010Y-41103000D01*
X84664010Y-38025808D01*
X84667388Y-37991510D01*
X84664010Y-37957212D01*
X84664010Y-37957201D01*
X84653903Y-37854580D01*
X84642486Y-37816942D01*
X84728506Y-37887537D01*
X84838820Y-37946502D01*
X84958518Y-37982812D01*
X85083000Y-37995072D01*
X85883000Y-37995072D01*
X86007482Y-37982812D01*
X86127180Y-37946502D01*
X86233000Y-37889939D01*
X86284500Y-37917467D01*
X86284501Y-38140076D01*
X86254392Y-38156169D01*
X86127394Y-38260394D01*
X86023169Y-38387392D01*
X85945722Y-38532284D01*
X85898031Y-38689500D01*
X85881928Y-38853000D01*
X85881928Y-39253000D01*
X85898031Y-39416500D01*
X85945722Y-39573716D01*
X86023169Y-39718608D01*
X86106863Y-39820590D01*
X86068815Y-39851815D01*
X85989463Y-39948506D01*
X85930498Y-40058820D01*
X85894188Y-40178518D01*
X85881928Y-40303000D01*
X85885000Y-40417250D01*
X86043750Y-40576000D01*
X86868000Y-40576000D01*
X86868000Y-40556000D01*
X87122000Y-40556000D01*
X87122000Y-40576000D01*
X87946250Y-40576000D01*
X88105000Y-40417250D01*
X88108072Y-40303000D01*
X88095812Y-40178518D01*
X88059502Y-40058820D01*
X88000537Y-39948506D01*
X87921185Y-39851815D01*
X87883137Y-39820590D01*
X87966831Y-39718608D01*
X88044278Y-39573716D01*
X88091969Y-39416500D01*
X88108072Y-39253000D01*
X88108072Y-38853000D01*
X88091969Y-38689500D01*
X88044278Y-38532284D01*
X87966831Y-38387392D01*
X87862606Y-38260394D01*
X87735608Y-38156169D01*
X87681500Y-38127247D01*
X87681500Y-37917467D01*
X87737494Y-37887537D01*
X87834185Y-37808185D01*
X87913537Y-37711494D01*
X87972502Y-37601180D01*
X88008812Y-37481482D01*
X88021072Y-37357000D01*
X88021072Y-36557000D01*
X88008812Y-36432518D01*
X87972502Y-36312820D01*
X87913537Y-36202506D01*
X87834185Y-36105815D01*
X87737494Y-36026463D01*
X87627180Y-35967498D01*
X87507482Y-35931188D01*
X87383000Y-35918928D01*
X86583000Y-35918928D01*
X86458518Y-35931188D01*
X86338820Y-35967498D01*
X86233000Y-36024061D01*
X86127180Y-35967498D01*
X86007482Y-35931188D01*
X85883000Y-35918928D01*
X85083000Y-35918928D01*
X84958518Y-35931188D01*
X84838820Y-35967498D01*
X84728506Y-36026463D01*
X84631815Y-36105815D01*
X84608876Y-36133767D01*
X84592068Y-36049271D01*
X84521586Y-35879111D01*
X84419262Y-35725972D01*
X84289028Y-35595738D01*
X84135889Y-35493414D01*
X83965729Y-35422932D01*
X83785089Y-35387000D01*
X83600911Y-35387000D01*
X83420271Y-35422932D01*
X83250111Y-35493414D01*
X83096972Y-35595738D01*
X82966738Y-35725972D01*
X82864414Y-35879111D01*
X82857538Y-35895711D01*
X82524175Y-35562348D01*
X82502303Y-35535697D01*
X82426155Y-35473204D01*
X82498494Y-35434537D01*
X82595185Y-35355185D01*
X82674537Y-35258494D01*
X82733502Y-35148180D01*
X82769812Y-35028482D01*
X82782072Y-34904000D01*
X82782072Y-34537756D01*
X82804157Y-34515670D01*
X82830804Y-34493802D01*
X82852672Y-34467156D01*
X82852675Y-34467153D01*
X82918092Y-34387442D01*
X82929057Y-34366928D01*
X82982953Y-34266096D01*
X83022894Y-34134429D01*
X83033001Y-34031808D01*
X83033001Y-34031798D01*
X83036379Y-33997500D01*
X83033001Y-33963202D01*
X83033001Y-33604000D01*
X87905928Y-33604000D01*
X87905928Y-34904000D01*
X87918188Y-35028482D01*
X87954498Y-35148180D01*
X88013463Y-35258494D01*
X88092815Y-35355185D01*
X88189506Y-35434537D01*
X88299820Y-35493502D01*
X88419518Y-35529812D01*
X88544000Y-35542072D01*
X90094000Y-35542072D01*
X90218482Y-35529812D01*
X90338180Y-35493502D01*
X90448494Y-35434537D01*
X90545185Y-35355185D01*
X90624537Y-35258494D01*
X90683502Y-35148180D01*
X90719812Y-35028482D01*
X90732072Y-34904000D01*
X90732072Y-33604000D01*
X90719812Y-33479518D01*
X90683502Y-33359820D01*
X90624537Y-33249506D01*
X90545185Y-33152815D01*
X90448494Y-33073463D01*
X90338180Y-33014498D01*
X90218482Y-32978188D01*
X90094000Y-32965928D01*
X88544000Y-32965928D01*
X88419518Y-32978188D01*
X88299820Y-33014498D01*
X88189506Y-33073463D01*
X88092815Y-33152815D01*
X88013463Y-33249506D01*
X87954498Y-33359820D01*
X87918188Y-33479518D01*
X87905928Y-33604000D01*
X83033001Y-33604000D01*
X83033001Y-30404000D01*
X87905928Y-30404000D01*
X87918188Y-30528482D01*
X87954498Y-30648180D01*
X88013463Y-30758494D01*
X88092815Y-30855185D01*
X88189506Y-30934537D01*
X88299820Y-30993502D01*
X88419518Y-31029812D01*
X88544000Y-31042072D01*
X89033250Y-31039000D01*
X89192000Y-30880250D01*
X89192000Y-29881000D01*
X89446000Y-29881000D01*
X89446000Y-30880250D01*
X89604750Y-31039000D01*
X90094000Y-31042072D01*
X90218482Y-31029812D01*
X90338180Y-30993502D01*
X90448494Y-30934537D01*
X90545185Y-30855185D01*
X90624537Y-30758494D01*
X90683502Y-30648180D01*
X90719812Y-30528482D01*
X90732072Y-30404000D01*
X90729000Y-30039750D01*
X90570250Y-29881000D01*
X89446000Y-29881000D01*
X89192000Y-29881000D01*
X88067750Y-29881000D01*
X87909000Y-30039750D01*
X87905928Y-30404000D01*
X83033001Y-30404000D01*
X83033001Y-29104000D01*
X87905928Y-29104000D01*
X87909000Y-29468250D01*
X88067750Y-29627000D01*
X89192000Y-29627000D01*
X89192000Y-28627750D01*
X89446000Y-28627750D01*
X89446000Y-29627000D01*
X90570250Y-29627000D01*
X90729000Y-29468250D01*
X90732072Y-29104000D01*
X90719812Y-28979518D01*
X90683502Y-28859820D01*
X90624537Y-28749506D01*
X90545185Y-28652815D01*
X90448494Y-28573463D01*
X90338180Y-28514498D01*
X90218482Y-28478188D01*
X90094000Y-28465928D01*
X89604750Y-28469000D01*
X89446000Y-28627750D01*
X89192000Y-28627750D01*
X89033250Y-28469000D01*
X88544000Y-28465928D01*
X88419518Y-28478188D01*
X88299820Y-28514498D01*
X88189506Y-28573463D01*
X88092815Y-28652815D01*
X88013463Y-28749506D01*
X87954498Y-28859820D01*
X87918188Y-28979518D01*
X87905928Y-29104000D01*
X83033001Y-29104000D01*
X83033001Y-28457798D01*
X83036379Y-28423500D01*
X83033001Y-28389202D01*
X83033001Y-28389192D01*
X83022894Y-28286571D01*
X82982953Y-28154904D01*
X82982368Y-28153809D01*
X82918092Y-28033557D01*
X82852675Y-27953846D01*
X82852663Y-27953834D01*
X82830803Y-27927198D01*
X82804168Y-27905339D01*
X82381072Y-27482244D01*
X82381072Y-27157000D01*
X82364969Y-26993500D01*
X82317278Y-26836284D01*
X82239831Y-26691392D01*
X82135606Y-26564394D01*
X82008608Y-26460169D01*
X81925974Y-26416000D01*
X91203481Y-26416000D01*
X91237889Y-26479637D01*
G37*
G04 #@! TD.AperFunction*
D30*
X55418700Y-39550351D02*
X55382463Y-39594506D01*
X55323498Y-39704820D01*
X55287188Y-39824518D01*
X55274928Y-39949000D01*
X55278000Y-40113250D01*
X55436750Y-40272000D01*
X56261000Y-40272000D01*
X56261000Y-40252000D01*
X56515000Y-40252000D01*
X56515000Y-40272000D01*
X57339250Y-40272000D01*
X57498000Y-40113250D01*
X57501072Y-39949000D01*
X57494339Y-39880641D01*
X57512271Y-39888068D01*
X57692911Y-39924000D01*
X57877089Y-39924000D01*
X58057729Y-39888068D01*
X58227889Y-39817586D01*
X58352848Y-39734091D01*
X58453394Y-39856606D01*
X58580392Y-39960831D01*
X58725284Y-40038278D01*
X58882500Y-40085969D01*
X59046000Y-40102072D01*
X59049571Y-40102072D01*
X59044932Y-40113271D01*
X59009000Y-40293911D01*
X59009000Y-40478089D01*
X59044932Y-40658729D01*
X59115414Y-40828889D01*
X59217738Y-40982028D01*
X59347972Y-41112262D01*
X59501111Y-41214586D01*
X59671271Y-41285068D01*
X59851911Y-41321000D01*
X60036089Y-41321000D01*
X60216729Y-41285068D01*
X60386889Y-41214586D01*
X60540028Y-41112262D01*
X60670262Y-40982028D01*
X60772586Y-40828889D01*
X60843068Y-40658729D01*
X60876122Y-40492557D01*
X60878000Y-40608250D01*
X61036750Y-40767000D01*
X61786000Y-40767000D01*
X61786000Y-40747000D01*
X62040000Y-40747000D01*
X62040000Y-40767000D01*
X62060000Y-40767000D01*
X62060000Y-41021000D01*
X62040000Y-41021000D01*
X62040000Y-41041000D01*
X61786000Y-41041000D01*
X61786000Y-41021000D01*
X61036750Y-41021000D01*
X60878000Y-41179750D01*
X60874928Y-41369000D01*
X60887188Y-41493482D01*
X60917225Y-41592500D01*
X56817297Y-41592500D01*
X56782999Y-41589122D01*
X56748701Y-41592500D01*
X56748691Y-41592500D01*
X56646070Y-41602607D01*
X56514403Y-41642548D01*
X56514401Y-41642549D01*
X56393056Y-41707409D01*
X56313345Y-41772826D01*
X56313337Y-41772834D01*
X56286697Y-41794697D01*
X56264833Y-41821338D01*
X55612244Y-42473928D01*
X54712000Y-42473928D01*
X54587518Y-42486188D01*
X54467820Y-42522498D01*
X54357506Y-42581463D01*
X54260815Y-42660815D01*
X54181463Y-42757506D01*
X54122498Y-42867820D01*
X54086188Y-42987518D01*
X54073928Y-43112000D01*
X54073928Y-44012244D01*
X53191673Y-44894500D01*
X47994790Y-44894500D01*
X48097262Y-44792028D01*
X48199586Y-44638889D01*
X48270068Y-44468729D01*
X48306000Y-44288089D01*
X48306000Y-44248827D01*
X48677691Y-43877137D01*
X48674928Y-44148500D01*
X48687188Y-44272982D01*
X48723498Y-44392680D01*
X48782463Y-44502994D01*
X48861815Y-44599685D01*
X48958506Y-44679037D01*
X49068820Y-44738002D01*
X49188518Y-44774312D01*
X49313000Y-44786572D01*
X49752250Y-44783500D01*
X49911000Y-44624750D01*
X49911000Y-43688000D01*
X50165000Y-43688000D01*
X50165000Y-44624750D01*
X50323750Y-44783500D01*
X50763000Y-44786572D01*
X50887482Y-44774312D01*
X51007180Y-44738002D01*
X51117494Y-44679037D01*
X51214185Y-44599685D01*
X51293537Y-44502994D01*
X51352502Y-44392680D01*
X51388812Y-44272982D01*
X51401072Y-44148500D01*
X51398000Y-43846750D01*
X51239250Y-43688000D01*
X50165000Y-43688000D01*
X49911000Y-43688000D01*
X49891000Y-43688000D01*
X49891000Y-43434000D01*
X49911000Y-43434000D01*
X49911000Y-43414000D01*
X50165000Y-43414000D01*
X50165000Y-43434000D01*
X51239250Y-43434000D01*
X51398000Y-43275250D01*
X51401072Y-42973500D01*
X51388812Y-42849018D01*
X51352502Y-42729320D01*
X51293537Y-42619006D01*
X51285901Y-42609702D01*
X51308000Y-42611878D01*
X51342298Y-42608500D01*
X53726702Y-42608500D01*
X53761000Y-42611878D01*
X53795298Y-42608500D01*
X53795309Y-42608500D01*
X53897930Y-42598393D01*
X54029597Y-42558452D01*
X54150943Y-42493591D01*
X54257303Y-42406303D01*
X54279175Y-42379652D01*
X54759661Y-41899167D01*
X54786302Y-41877303D01*
X54799080Y-41861733D01*
X54859180Y-41843502D01*
X54969494Y-41784537D01*
X55066185Y-41705185D01*
X55145537Y-41608494D01*
X55204502Y-41498180D01*
X55240812Y-41378482D01*
X55253072Y-41254000D01*
X55253072Y-40849000D01*
X55274928Y-40849000D01*
X55287188Y-40973482D01*
X55323498Y-41093180D01*
X55382463Y-41203494D01*
X55461815Y-41300185D01*
X55558506Y-41379537D01*
X55668820Y-41438502D01*
X55788518Y-41474812D01*
X55913000Y-41487072D01*
X56102250Y-41484000D01*
X56261000Y-41325250D01*
X56261000Y-40526000D01*
X56515000Y-40526000D01*
X56515000Y-41325250D01*
X56673750Y-41484000D01*
X56863000Y-41487072D01*
X56987482Y-41474812D01*
X57107180Y-41438502D01*
X57217494Y-41379537D01*
X57314185Y-41300185D01*
X57393537Y-41203494D01*
X57452502Y-41093180D01*
X57488812Y-40973482D01*
X57501072Y-40849000D01*
X57498000Y-40684750D01*
X57339250Y-40526000D01*
X56515000Y-40526000D01*
X56261000Y-40526000D01*
X55436750Y-40526000D01*
X55278000Y-40684750D01*
X55274928Y-40849000D01*
X55253072Y-40849000D01*
X55253072Y-40194000D01*
X55240812Y-40069518D01*
X55204502Y-39949820D01*
X55145537Y-39839506D01*
X55066185Y-39742815D01*
X54969494Y-39663463D01*
X54895665Y-39624000D01*
X54969494Y-39584537D01*
X55014624Y-39547500D01*
X55417177Y-39547500D01*
X55418700Y-39550351D01*
G04 #@! TA.AperFunction,Conductor*
D31*
G36*
X55418700Y-39550351D02*
G01*
X55382463Y-39594506D01*
X55323498Y-39704820D01*
X55287188Y-39824518D01*
X55274928Y-39949000D01*
X55278000Y-40113250D01*
X55436750Y-40272000D01*
X56261000Y-40272000D01*
X56261000Y-40252000D01*
X56515000Y-40252000D01*
X56515000Y-40272000D01*
X57339250Y-40272000D01*
X57498000Y-40113250D01*
X57501072Y-39949000D01*
X57494339Y-39880641D01*
X57512271Y-39888068D01*
X57692911Y-39924000D01*
X57877089Y-39924000D01*
X58057729Y-39888068D01*
X58227889Y-39817586D01*
X58352848Y-39734091D01*
X58453394Y-39856606D01*
X58580392Y-39960831D01*
X58725284Y-40038278D01*
X58882500Y-40085969D01*
X59046000Y-40102072D01*
X59049571Y-40102072D01*
X59044932Y-40113271D01*
X59009000Y-40293911D01*
X59009000Y-40478089D01*
X59044932Y-40658729D01*
X59115414Y-40828889D01*
X59217738Y-40982028D01*
X59347972Y-41112262D01*
X59501111Y-41214586D01*
X59671271Y-41285068D01*
X59851911Y-41321000D01*
X60036089Y-41321000D01*
X60216729Y-41285068D01*
X60386889Y-41214586D01*
X60540028Y-41112262D01*
X60670262Y-40982028D01*
X60772586Y-40828889D01*
X60843068Y-40658729D01*
X60876122Y-40492557D01*
X60878000Y-40608250D01*
X61036750Y-40767000D01*
X61786000Y-40767000D01*
X61786000Y-40747000D01*
X62040000Y-40747000D01*
X62040000Y-40767000D01*
X62060000Y-40767000D01*
X62060000Y-41021000D01*
X62040000Y-41021000D01*
X62040000Y-41041000D01*
X61786000Y-41041000D01*
X61786000Y-41021000D01*
X61036750Y-41021000D01*
X60878000Y-41179750D01*
X60874928Y-41369000D01*
X60887188Y-41493482D01*
X60917225Y-41592500D01*
X56817297Y-41592500D01*
X56782999Y-41589122D01*
X56748701Y-41592500D01*
X56748691Y-41592500D01*
X56646070Y-41602607D01*
X56514403Y-41642548D01*
X56514401Y-41642549D01*
X56393056Y-41707409D01*
X56313345Y-41772826D01*
X56313337Y-41772834D01*
X56286697Y-41794697D01*
X56264833Y-41821338D01*
X55612244Y-42473928D01*
X54712000Y-42473928D01*
X54587518Y-42486188D01*
X54467820Y-42522498D01*
X54357506Y-42581463D01*
X54260815Y-42660815D01*
X54181463Y-42757506D01*
X54122498Y-42867820D01*
X54086188Y-42987518D01*
X54073928Y-43112000D01*
X54073928Y-44012244D01*
X53191673Y-44894500D01*
X47994790Y-44894500D01*
X48097262Y-44792028D01*
X48199586Y-44638889D01*
X48270068Y-44468729D01*
X48306000Y-44288089D01*
X48306000Y-44248827D01*
X48677691Y-43877137D01*
X48674928Y-44148500D01*
X48687188Y-44272982D01*
X48723498Y-44392680D01*
X48782463Y-44502994D01*
X48861815Y-44599685D01*
X48958506Y-44679037D01*
X49068820Y-44738002D01*
X49188518Y-44774312D01*
X49313000Y-44786572D01*
X49752250Y-44783500D01*
X49911000Y-44624750D01*
X49911000Y-43688000D01*
X50165000Y-43688000D01*
X50165000Y-44624750D01*
X50323750Y-44783500D01*
X50763000Y-44786572D01*
X50887482Y-44774312D01*
X51007180Y-44738002D01*
X51117494Y-44679037D01*
X51214185Y-44599685D01*
X51293537Y-44502994D01*
X51352502Y-44392680D01*
X51388812Y-44272982D01*
X51401072Y-44148500D01*
X51398000Y-43846750D01*
X51239250Y-43688000D01*
X50165000Y-43688000D01*
X49911000Y-43688000D01*
X49891000Y-43688000D01*
X49891000Y-43434000D01*
X49911000Y-43434000D01*
X49911000Y-43414000D01*
X50165000Y-43414000D01*
X50165000Y-43434000D01*
X51239250Y-43434000D01*
X51398000Y-43275250D01*
X51401072Y-42973500D01*
X51388812Y-42849018D01*
X51352502Y-42729320D01*
X51293537Y-42619006D01*
X51285901Y-42609702D01*
X51308000Y-42611878D01*
X51342298Y-42608500D01*
X53726702Y-42608500D01*
X53761000Y-42611878D01*
X53795298Y-42608500D01*
X53795309Y-42608500D01*
X53897930Y-42598393D01*
X54029597Y-42558452D01*
X54150943Y-42493591D01*
X54257303Y-42406303D01*
X54279175Y-42379652D01*
X54759661Y-41899167D01*
X54786302Y-41877303D01*
X54799080Y-41861733D01*
X54859180Y-41843502D01*
X54969494Y-41784537D01*
X55066185Y-41705185D01*
X55145537Y-41608494D01*
X55204502Y-41498180D01*
X55240812Y-41378482D01*
X55253072Y-41254000D01*
X55253072Y-40849000D01*
X55274928Y-40849000D01*
X55287188Y-40973482D01*
X55323498Y-41093180D01*
X55382463Y-41203494D01*
X55461815Y-41300185D01*
X55558506Y-41379537D01*
X55668820Y-41438502D01*
X55788518Y-41474812D01*
X55913000Y-41487072D01*
X56102250Y-41484000D01*
X56261000Y-41325250D01*
X56261000Y-40526000D01*
X56515000Y-40526000D01*
X56515000Y-41325250D01*
X56673750Y-41484000D01*
X56863000Y-41487072D01*
X56987482Y-41474812D01*
X57107180Y-41438502D01*
X57217494Y-41379537D01*
X57314185Y-41300185D01*
X57393537Y-41203494D01*
X57452502Y-41093180D01*
X57488812Y-40973482D01*
X57501072Y-40849000D01*
X57498000Y-40684750D01*
X57339250Y-40526000D01*
X56515000Y-40526000D01*
X56261000Y-40526000D01*
X55436750Y-40526000D01*
X55278000Y-40684750D01*
X55274928Y-40849000D01*
X55253072Y-40849000D01*
X55253072Y-40194000D01*
X55240812Y-40069518D01*
X55204502Y-39949820D01*
X55145537Y-39839506D01*
X55066185Y-39742815D01*
X54969494Y-39663463D01*
X54895665Y-39624000D01*
X54969494Y-39584537D01*
X55014624Y-39547500D01*
X55417177Y-39547500D01*
X55418700Y-39550351D01*
G37*
G04 #@! TD.AperFunction*
D30*
X48674928Y-41148500D02*
X48674928Y-41823500D01*
X48682168Y-41897005D01*
X48203598Y-42375574D01*
X48215572Y-42254000D01*
X48212500Y-41814750D01*
X48053750Y-41656000D01*
X47117000Y-41656000D01*
X47117000Y-42730250D01*
X47275750Y-42889000D01*
X47577500Y-42892072D01*
X47699074Y-42880098D01*
X47318173Y-43261000D01*
X47278911Y-43261000D01*
X47098271Y-43296932D01*
X46928111Y-43367414D01*
X46774972Y-43469738D01*
X46644738Y-43599972D01*
X46542414Y-43753111D01*
X46471932Y-43923271D01*
X46436000Y-44103911D01*
X46436000Y-44288089D01*
X46471932Y-44468729D01*
X46542414Y-44638889D01*
X46596173Y-44719345D01*
X45613500Y-43736673D01*
X45613500Y-42813167D01*
X45745886Y-42742405D01*
X45880462Y-42631962D01*
X45885842Y-42625406D01*
X45951315Y-42705185D01*
X46048006Y-42784537D01*
X46158320Y-42843502D01*
X46278018Y-42879812D01*
X46402500Y-42892072D01*
X46704250Y-42889000D01*
X46863000Y-42730250D01*
X46863000Y-41656000D01*
X46843000Y-41656000D01*
X46843000Y-41402000D01*
X46863000Y-41402000D01*
X46863000Y-41382000D01*
X47117000Y-41382000D01*
X47117000Y-41402000D01*
X48053750Y-41402000D01*
X48212500Y-41243250D01*
X48213845Y-41050875D01*
X48294911Y-41067000D01*
X48479089Y-41067000D01*
X48659729Y-41031068D01*
X48687632Y-41019510D01*
X48674928Y-41148500D01*
G04 #@! TA.AperFunction,Conductor*
D31*
G36*
X48674928Y-41148500D02*
G01*
X48674928Y-41823500D01*
X48682168Y-41897005D01*
X48203598Y-42375574D01*
X48215572Y-42254000D01*
X48212500Y-41814750D01*
X48053750Y-41656000D01*
X47117000Y-41656000D01*
X47117000Y-42730250D01*
X47275750Y-42889000D01*
X47577500Y-42892072D01*
X47699074Y-42880098D01*
X47318173Y-43261000D01*
X47278911Y-43261000D01*
X47098271Y-43296932D01*
X46928111Y-43367414D01*
X46774972Y-43469738D01*
X46644738Y-43599972D01*
X46542414Y-43753111D01*
X46471932Y-43923271D01*
X46436000Y-44103911D01*
X46436000Y-44288089D01*
X46471932Y-44468729D01*
X46542414Y-44638889D01*
X46596173Y-44719345D01*
X45613500Y-43736673D01*
X45613500Y-42813167D01*
X45745886Y-42742405D01*
X45880462Y-42631962D01*
X45885842Y-42625406D01*
X45951315Y-42705185D01*
X46048006Y-42784537D01*
X46158320Y-42843502D01*
X46278018Y-42879812D01*
X46402500Y-42892072D01*
X46704250Y-42889000D01*
X46863000Y-42730250D01*
X46863000Y-41656000D01*
X46843000Y-41656000D01*
X46843000Y-41402000D01*
X46863000Y-41402000D01*
X46863000Y-41382000D01*
X47117000Y-41382000D01*
X47117000Y-41402000D01*
X48053750Y-41402000D01*
X48212500Y-41243250D01*
X48213845Y-41050875D01*
X48294911Y-41067000D01*
X48479089Y-41067000D01*
X48659729Y-41031068D01*
X48687632Y-41019510D01*
X48674928Y-41148500D01*
G37*
G04 #@! TD.AperFunction*
D30*
X68160207Y-38509119D02*
X68119629Y-38642887D01*
X68105928Y-38782000D01*
X68105928Y-40107000D01*
X68119629Y-40246113D01*
X68154934Y-40362497D01*
X68109122Y-40376623D01*
X67999079Y-40436092D01*
X67902753Y-40515887D01*
X67823844Y-40612941D01*
X67765386Y-40723524D01*
X67729625Y-40843387D01*
X67717935Y-40967923D01*
X67721000Y-40989250D01*
X67879750Y-41148000D01*
X68509000Y-41148000D01*
X68509000Y-41128000D01*
X68677928Y-41128000D01*
X68677928Y-41445000D01*
X68692878Y-41596794D01*
X68737155Y-41742755D01*
X68763000Y-41791108D01*
X68763000Y-42061250D01*
X68921750Y-42220000D01*
X69043348Y-42210235D01*
X69162878Y-42173377D01*
X69172509Y-42168172D01*
X69304206Y-42208122D01*
X69456000Y-42223072D01*
X69736000Y-42223072D01*
X69887794Y-42208122D01*
X70033755Y-42163845D01*
X70148803Y-42102351D01*
X70164382Y-42131497D01*
X70271716Y-42262284D01*
X70402503Y-42369618D01*
X70551717Y-42449375D01*
X70713623Y-42498488D01*
X70882000Y-42515072D01*
X71232244Y-42515072D01*
X71511002Y-42793830D01*
X71511002Y-42960637D01*
X71388930Y-42923607D01*
X71286309Y-42913500D01*
X71286298Y-42913500D01*
X71252000Y-42910122D01*
X71217702Y-42913500D01*
X69589359Y-42913500D01*
X69575502Y-42867820D01*
X69516537Y-42757506D01*
X69437185Y-42660815D01*
X69340494Y-42581463D01*
X69230180Y-42522498D01*
X69110482Y-42486188D01*
X68986000Y-42473928D01*
X67486000Y-42473928D01*
X67361518Y-42486188D01*
X67241820Y-42522498D01*
X67131506Y-42581463D01*
X67034815Y-42660815D01*
X66955463Y-42757506D01*
X66896498Y-42867820D01*
X66860188Y-42987518D01*
X66847928Y-43112000D01*
X66847928Y-44112000D01*
X66860188Y-44236482D01*
X66896498Y-44356180D01*
X66955463Y-44466494D01*
X67034815Y-44563185D01*
X67131506Y-44642537D01*
X67155758Y-44655500D01*
X65367328Y-44655500D01*
X64724072Y-44012244D01*
X64724072Y-43112000D01*
X64711812Y-42987518D01*
X64675502Y-42867820D01*
X64616537Y-42757506D01*
X64537185Y-42660815D01*
X64440494Y-42581463D01*
X64330180Y-42522498D01*
X64210482Y-42486188D01*
X64086000Y-42473928D01*
X63185756Y-42473928D01*
X62630916Y-41919089D01*
X62667494Y-41899537D01*
X62764185Y-41820185D01*
X62795410Y-41782137D01*
X62897392Y-41865831D01*
X63042284Y-41943278D01*
X63199500Y-41990969D01*
X63363000Y-42007072D01*
X63763000Y-42007072D01*
X63926500Y-41990969D01*
X64083716Y-41943278D01*
X64228608Y-41865831D01*
X64355606Y-41761606D01*
X64459831Y-41634608D01*
X64487909Y-41582077D01*
X67717935Y-41582077D01*
X67729625Y-41706613D01*
X67765386Y-41826476D01*
X67823844Y-41937059D01*
X67902753Y-42034113D01*
X67999079Y-42113908D01*
X68109122Y-42173377D01*
X68228652Y-42210235D01*
X68350250Y-42220000D01*
X68509000Y-42061250D01*
X68509000Y-41402000D01*
X67879750Y-41402000D01*
X67721000Y-41560750D01*
X67717935Y-41582077D01*
X64487909Y-41582077D01*
X64537278Y-41489716D01*
X64584969Y-41332500D01*
X64601072Y-41169000D01*
X64601072Y-40619000D01*
X64584969Y-40455500D01*
X64537278Y-40298284D01*
X64459831Y-40153392D01*
X64355606Y-40026394D01*
X64325500Y-40001687D01*
X64325500Y-39549072D01*
X64438244Y-39549072D01*
X65061481Y-40172309D01*
X65053928Y-40249000D01*
X65053928Y-40649000D01*
X65070031Y-40812500D01*
X65117722Y-40969716D01*
X65195169Y-41114608D01*
X65299394Y-41241606D01*
X65426392Y-41345831D01*
X65571284Y-41423278D01*
X65728500Y-41470969D01*
X65892000Y-41487072D01*
X66442000Y-41487072D01*
X66605500Y-41470969D01*
X66762716Y-41423278D01*
X66907608Y-41345831D01*
X67034606Y-41241606D01*
X67138831Y-41114608D01*
X67216278Y-40969716D01*
X67263969Y-40812500D01*
X67280072Y-40649000D01*
X67280072Y-40249000D01*
X67263969Y-40085500D01*
X67216278Y-39928284D01*
X67138831Y-39783392D01*
X67034606Y-39656394D01*
X66995134Y-39624000D01*
X67034606Y-39591606D01*
X67138831Y-39464608D01*
X67168766Y-39408604D01*
X67217433Y-39382591D01*
X67323793Y-39295303D01*
X67345665Y-39268652D01*
X68223372Y-38390946D01*
X68160207Y-38509119D01*
G04 #@! TA.AperFunction,Conductor*
D31*
G36*
X68160207Y-38509119D02*
G01*
X68119629Y-38642887D01*
X68105928Y-38782000D01*
X68105928Y-40107000D01*
X68119629Y-40246113D01*
X68154934Y-40362497D01*
X68109122Y-40376623D01*
X67999079Y-40436092D01*
X67902753Y-40515887D01*
X67823844Y-40612941D01*
X67765386Y-40723524D01*
X67729625Y-40843387D01*
X67717935Y-40967923D01*
X67721000Y-40989250D01*
X67879750Y-41148000D01*
X68509000Y-41148000D01*
X68509000Y-41128000D01*
X68677928Y-41128000D01*
X68677928Y-41445000D01*
X68692878Y-41596794D01*
X68737155Y-41742755D01*
X68763000Y-41791108D01*
X68763000Y-42061250D01*
X68921750Y-42220000D01*
X69043348Y-42210235D01*
X69162878Y-42173377D01*
X69172509Y-42168172D01*
X69304206Y-42208122D01*
X69456000Y-42223072D01*
X69736000Y-42223072D01*
X69887794Y-42208122D01*
X70033755Y-42163845D01*
X70148803Y-42102351D01*
X70164382Y-42131497D01*
X70271716Y-42262284D01*
X70402503Y-42369618D01*
X70551717Y-42449375D01*
X70713623Y-42498488D01*
X70882000Y-42515072D01*
X71232244Y-42515072D01*
X71511002Y-42793830D01*
X71511002Y-42960637D01*
X71388930Y-42923607D01*
X71286309Y-42913500D01*
X71286298Y-42913500D01*
X71252000Y-42910122D01*
X71217702Y-42913500D01*
X69589359Y-42913500D01*
X69575502Y-42867820D01*
X69516537Y-42757506D01*
X69437185Y-42660815D01*
X69340494Y-42581463D01*
X69230180Y-42522498D01*
X69110482Y-42486188D01*
X68986000Y-42473928D01*
X67486000Y-42473928D01*
X67361518Y-42486188D01*
X67241820Y-42522498D01*
X67131506Y-42581463D01*
X67034815Y-42660815D01*
X66955463Y-42757506D01*
X66896498Y-42867820D01*
X66860188Y-42987518D01*
X66847928Y-43112000D01*
X66847928Y-44112000D01*
X66860188Y-44236482D01*
X66896498Y-44356180D01*
X66955463Y-44466494D01*
X67034815Y-44563185D01*
X67131506Y-44642537D01*
X67155758Y-44655500D01*
X65367328Y-44655500D01*
X64724072Y-44012244D01*
X64724072Y-43112000D01*
X64711812Y-42987518D01*
X64675502Y-42867820D01*
X64616537Y-42757506D01*
X64537185Y-42660815D01*
X64440494Y-42581463D01*
X64330180Y-42522498D01*
X64210482Y-42486188D01*
X64086000Y-42473928D01*
X63185756Y-42473928D01*
X62630916Y-41919089D01*
X62667494Y-41899537D01*
X62764185Y-41820185D01*
X62795410Y-41782137D01*
X62897392Y-41865831D01*
X63042284Y-41943278D01*
X63199500Y-41990969D01*
X63363000Y-42007072D01*
X63763000Y-42007072D01*
X63926500Y-41990969D01*
X64083716Y-41943278D01*
X64228608Y-41865831D01*
X64355606Y-41761606D01*
X64459831Y-41634608D01*
X64487909Y-41582077D01*
X67717935Y-41582077D01*
X67729625Y-41706613D01*
X67765386Y-41826476D01*
X67823844Y-41937059D01*
X67902753Y-42034113D01*
X67999079Y-42113908D01*
X68109122Y-42173377D01*
X68228652Y-42210235D01*
X68350250Y-42220000D01*
X68509000Y-42061250D01*
X68509000Y-41402000D01*
X67879750Y-41402000D01*
X67721000Y-41560750D01*
X67717935Y-41582077D01*
X64487909Y-41582077D01*
X64537278Y-41489716D01*
X64584969Y-41332500D01*
X64601072Y-41169000D01*
X64601072Y-40619000D01*
X64584969Y-40455500D01*
X64537278Y-40298284D01*
X64459831Y-40153392D01*
X64355606Y-40026394D01*
X64325500Y-40001687D01*
X64325500Y-39549072D01*
X64438244Y-39549072D01*
X65061481Y-40172309D01*
X65053928Y-40249000D01*
X65053928Y-40649000D01*
X65070031Y-40812500D01*
X65117722Y-40969716D01*
X65195169Y-41114608D01*
X65299394Y-41241606D01*
X65426392Y-41345831D01*
X65571284Y-41423278D01*
X65728500Y-41470969D01*
X65892000Y-41487072D01*
X66442000Y-41487072D01*
X66605500Y-41470969D01*
X66762716Y-41423278D01*
X66907608Y-41345831D01*
X67034606Y-41241606D01*
X67138831Y-41114608D01*
X67216278Y-40969716D01*
X67263969Y-40812500D01*
X67280072Y-40649000D01*
X67280072Y-40249000D01*
X67263969Y-40085500D01*
X67216278Y-39928284D01*
X67138831Y-39783392D01*
X67034606Y-39656394D01*
X66995134Y-39624000D01*
X67034606Y-39591606D01*
X67138831Y-39464608D01*
X67168766Y-39408604D01*
X67217433Y-39382591D01*
X67323793Y-39295303D01*
X67345665Y-39268652D01*
X68223372Y-38390946D01*
X68160207Y-38509119D01*
G37*
G04 #@! TD.AperFunction*
D30*
X80645000Y-38480827D02*
X80645000Y-39082250D01*
X80803750Y-39241000D01*
X80825077Y-39244065D01*
X80949613Y-39232375D01*
X81069476Y-39196614D01*
X81180059Y-39138156D01*
X81247498Y-39083325D01*
X82276501Y-40112329D01*
X82276500Y-41611705D01*
X82171255Y-41622071D01*
X82023418Y-41666916D01*
X81887171Y-41739742D01*
X81767749Y-41837749D01*
X81669742Y-41957171D01*
X81596916Y-42093418D01*
X81552071Y-42241255D01*
X81536928Y-42395000D01*
X81536928Y-42695000D01*
X81552071Y-42848745D01*
X81596916Y-42996582D01*
X81669742Y-43132829D01*
X81708454Y-43180000D01*
X81669742Y-43227171D01*
X81596916Y-43363418D01*
X81578698Y-43423475D01*
X81514834Y-43487339D01*
X81488188Y-43509207D01*
X81466320Y-43535853D01*
X81466316Y-43535857D01*
X81400899Y-43615567D01*
X81336039Y-43736912D01*
X81321877Y-43783599D01*
X81296098Y-43868580D01*
X81285991Y-43971201D01*
X81282612Y-44005510D01*
X81285991Y-44039818D01*
X81285991Y-44478163D01*
X79933010Y-43125183D01*
X79933010Y-39178897D01*
X79966524Y-39196614D01*
X80086387Y-39232375D01*
X80210923Y-39244065D01*
X80232250Y-39241000D01*
X80391000Y-39082250D01*
X80391000Y-38453000D01*
X80371000Y-38453000D01*
X80371000Y-38284072D01*
X80448245Y-38284072D01*
X80645000Y-38480827D01*
G04 #@! TA.AperFunction,Conductor*
D31*
G36*
X80645000Y-38480827D02*
G01*
X80645000Y-39082250D01*
X80803750Y-39241000D01*
X80825077Y-39244065D01*
X80949613Y-39232375D01*
X81069476Y-39196614D01*
X81180059Y-39138156D01*
X81247498Y-39083325D01*
X82276501Y-40112329D01*
X82276500Y-41611705D01*
X82171255Y-41622071D01*
X82023418Y-41666916D01*
X81887171Y-41739742D01*
X81767749Y-41837749D01*
X81669742Y-41957171D01*
X81596916Y-42093418D01*
X81552071Y-42241255D01*
X81536928Y-42395000D01*
X81536928Y-42695000D01*
X81552071Y-42848745D01*
X81596916Y-42996582D01*
X81669742Y-43132829D01*
X81708454Y-43180000D01*
X81669742Y-43227171D01*
X81596916Y-43363418D01*
X81578698Y-43423475D01*
X81514834Y-43487339D01*
X81488188Y-43509207D01*
X81466320Y-43535853D01*
X81466316Y-43535857D01*
X81400899Y-43615567D01*
X81336039Y-43736912D01*
X81321877Y-43783599D01*
X81296098Y-43868580D01*
X81285991Y-43971201D01*
X81282612Y-44005510D01*
X81285991Y-44039818D01*
X81285991Y-44478163D01*
X79933010Y-43125183D01*
X79933010Y-39178897D01*
X79966524Y-39196614D01*
X80086387Y-39232375D01*
X80210923Y-39244065D01*
X80232250Y-39241000D01*
X80391000Y-39082250D01*
X80391000Y-38453000D01*
X80371000Y-38453000D01*
X80371000Y-38284072D01*
X80448245Y-38284072D01*
X80645000Y-38480827D01*
G37*
G04 #@! TD.AperFunction*
D30*
X78433500Y-38158250D02*
X78536011Y-38260761D01*
X78536010Y-43380212D01*
X78532632Y-43414510D01*
X78536010Y-43448808D01*
X78536010Y-43448818D01*
X78546117Y-43551439D01*
X78584531Y-43678071D01*
X78586059Y-43683108D01*
X78650919Y-43804453D01*
X78716336Y-43884163D01*
X78716339Y-43884166D01*
X78738207Y-43910812D01*
X78764854Y-43932681D01*
X79275753Y-44443580D01*
X79262597Y-44436548D01*
X79130930Y-44396607D01*
X79028309Y-44386500D01*
X79028298Y-44386500D01*
X78994000Y-44383122D01*
X78959702Y-44386500D01*
X77088986Y-44386500D01*
X77153084Y-44266582D01*
X77171301Y-44206526D01*
X77712195Y-43665634D01*
X77738830Y-43643775D01*
X77760689Y-43617140D01*
X77760702Y-43617127D01*
X77826119Y-43537416D01*
X77890979Y-43416071D01*
X77930920Y-43284402D01*
X77944406Y-43147473D01*
X77941027Y-43113165D01*
X77941029Y-41402385D01*
X77941029Y-41402384D01*
X77941027Y-38495898D01*
X77944406Y-38461590D01*
X77930920Y-38324660D01*
X77928786Y-38317624D01*
X78020750Y-38317000D01*
X78179500Y-38158250D01*
X78179500Y-37820072D01*
X78433500Y-37820072D01*
X78433500Y-38158250D01*
G04 #@! TA.AperFunction,Conductor*
D31*
G36*
X78433500Y-38158250D02*
G01*
X78536011Y-38260761D01*
X78536010Y-43380212D01*
X78532632Y-43414510D01*
X78536010Y-43448808D01*
X78536010Y-43448818D01*
X78546117Y-43551439D01*
X78584531Y-43678071D01*
X78586059Y-43683108D01*
X78650919Y-43804453D01*
X78716336Y-43884163D01*
X78716339Y-43884166D01*
X78738207Y-43910812D01*
X78764854Y-43932681D01*
X79275753Y-44443580D01*
X79262597Y-44436548D01*
X79130930Y-44396607D01*
X79028309Y-44386500D01*
X79028298Y-44386500D01*
X78994000Y-44383122D01*
X78959702Y-44386500D01*
X77088986Y-44386500D01*
X77153084Y-44266582D01*
X77171301Y-44206526D01*
X77712195Y-43665634D01*
X77738830Y-43643775D01*
X77760689Y-43617140D01*
X77760702Y-43617127D01*
X77826119Y-43537416D01*
X77890979Y-43416071D01*
X77930920Y-43284402D01*
X77944406Y-43147473D01*
X77941027Y-43113165D01*
X77941029Y-41402385D01*
X77941029Y-41402384D01*
X77941027Y-38495898D01*
X77944406Y-38461590D01*
X77930920Y-38324660D01*
X77928786Y-38317624D01*
X78020750Y-38317000D01*
X78179500Y-38158250D01*
X78179500Y-37820072D01*
X78433500Y-37820072D01*
X78433500Y-38158250D01*
G37*
G04 #@! TD.AperFunction*
D30*
X73852111Y-42103586D02*
X74022271Y-42174068D01*
X74084528Y-42186452D01*
X74085991Y-42201308D01*
X74085990Y-43241347D01*
X74027986Y-43225305D01*
X73903239Y-43216123D01*
X73879750Y-43219000D01*
X73721000Y-43377750D01*
X73721000Y-43865928D01*
X73467000Y-43865928D01*
X73467000Y-43377750D01*
X73308250Y-43219000D01*
X73284761Y-43216123D01*
X73160014Y-43225305D01*
X73039456Y-43258647D01*
X72927719Y-43314868D01*
X72908001Y-43330251D01*
X72908001Y-42538799D01*
X72911379Y-42504501D01*
X72908771Y-42478021D01*
X72942750Y-42512000D01*
X73107000Y-42515072D01*
X73231482Y-42502812D01*
X73351180Y-42466502D01*
X73461494Y-42407537D01*
X73558185Y-42328185D01*
X73637537Y-42231494D01*
X73696502Y-42121180D01*
X73727164Y-42020100D01*
X73852111Y-42103586D01*
G04 #@! TA.AperFunction,Conductor*
D31*
G36*
X73852111Y-42103586D02*
G01*
X74022271Y-42174068D01*
X74084528Y-42186452D01*
X74085991Y-42201308D01*
X74085990Y-43241347D01*
X74027986Y-43225305D01*
X73903239Y-43216123D01*
X73879750Y-43219000D01*
X73721000Y-43377750D01*
X73721000Y-43865928D01*
X73467000Y-43865928D01*
X73467000Y-43377750D01*
X73308250Y-43219000D01*
X73284761Y-43216123D01*
X73160014Y-43225305D01*
X73039456Y-43258647D01*
X72927719Y-43314868D01*
X72908001Y-43330251D01*
X72908001Y-42538799D01*
X72911379Y-42504501D01*
X72908771Y-42478021D01*
X72942750Y-42512000D01*
X73107000Y-42515072D01*
X73231482Y-42502812D01*
X73351180Y-42466502D01*
X73461494Y-42407537D01*
X73558185Y-42328185D01*
X73637537Y-42231494D01*
X73696502Y-42121180D01*
X73727164Y-42020100D01*
X73852111Y-42103586D01*
G37*
G04 #@! TD.AperFunction*
D30*
X72784000Y-41275000D02*
X72804000Y-41275000D01*
X72804000Y-41529000D01*
X72784000Y-41529000D01*
X72784000Y-41549000D01*
X72530000Y-41549000D01*
X72530000Y-41529000D01*
X72510000Y-41529000D01*
X72510000Y-41275000D01*
X72530000Y-41275000D01*
X72530000Y-41255000D01*
X72784000Y-41255000D01*
X72784000Y-41275000D01*
G04 #@! TA.AperFunction,Conductor*
D31*
G36*
X72784000Y-41275000D02*
G01*
X72804000Y-41275000D01*
X72804000Y-41529000D01*
X72784000Y-41529000D01*
X72784000Y-41549000D01*
X72530000Y-41549000D01*
X72530000Y-41529000D01*
X72510000Y-41529000D01*
X72510000Y-41275000D01*
X72530000Y-41275000D01*
X72530000Y-41255000D01*
X72784000Y-41255000D01*
X72784000Y-41275000D01*
G37*
G04 #@! TD.AperFunction*
D30*
X53375498Y-39298180D02*
X53434463Y-39408494D01*
X53513815Y-39505185D01*
X53604853Y-39579897D01*
X53467000Y-39717750D01*
X53467000Y-39799859D01*
X53434463Y-39839506D01*
X53375498Y-39949820D01*
X53340000Y-40066841D01*
X53304502Y-39949820D01*
X53245537Y-39839506D01*
X53213000Y-39799859D01*
X53213000Y-39717750D01*
X53075147Y-39579897D01*
X53166185Y-39505185D01*
X53245537Y-39408494D01*
X53304502Y-39298180D01*
X53340000Y-39181159D01*
X53375498Y-39298180D01*
G04 #@! TA.AperFunction,Conductor*
D31*
G36*
X53375498Y-39298180D02*
G01*
X53434463Y-39408494D01*
X53513815Y-39505185D01*
X53604853Y-39579897D01*
X53467000Y-39717750D01*
X53467000Y-39799859D01*
X53434463Y-39839506D01*
X53375498Y-39949820D01*
X53340000Y-40066841D01*
X53304502Y-39949820D01*
X53245537Y-39839506D01*
X53213000Y-39799859D01*
X53213000Y-39717750D01*
X53075147Y-39579897D01*
X53166185Y-39505185D01*
X53245537Y-39408494D01*
X53304502Y-39298180D01*
X53340000Y-39181159D01*
X53375498Y-39298180D01*
G37*
G04 #@! TD.AperFunction*
D30*
X50419000Y-37973000D02*
X50439000Y-37973000D01*
X50439000Y-38227000D01*
X50419000Y-38227000D01*
X50419000Y-38247000D01*
X50165000Y-38247000D01*
X50165000Y-38227000D01*
X50145000Y-38227000D01*
X50145000Y-37973000D01*
X50165000Y-37973000D01*
X50165000Y-37953000D01*
X50419000Y-37953000D01*
X50419000Y-37973000D01*
G04 #@! TA.AperFunction,Conductor*
D31*
G36*
X50419000Y-37973000D02*
G01*
X50439000Y-37973000D01*
X50439000Y-38227000D01*
X50419000Y-38227000D01*
X50419000Y-38247000D01*
X50165000Y-38247000D01*
X50165000Y-38227000D01*
X50145000Y-38227000D01*
X50145000Y-37973000D01*
X50165000Y-37973000D01*
X50165000Y-37953000D01*
X50419000Y-37953000D01*
X50419000Y-37973000D01*
G37*
G04 #@! TD.AperFunction*
D30*
X65619629Y-34817887D02*
X65605928Y-34957000D01*
X65605928Y-35107000D01*
X65619629Y-35246113D01*
X65630515Y-35282000D01*
X65619629Y-35317887D01*
X65605928Y-35457000D01*
X65605928Y-35607000D01*
X65619629Y-35746113D01*
X65630515Y-35782000D01*
X65619629Y-35817887D01*
X65605928Y-35957000D01*
X65605928Y-36107000D01*
X65619629Y-36246113D01*
X65630515Y-36282000D01*
X65619629Y-36317887D01*
X65605928Y-36457000D01*
X65605928Y-36607000D01*
X65619629Y-36746113D01*
X65630515Y-36782000D01*
X65619629Y-36817887D01*
X65605928Y-36957000D01*
X65605928Y-37107000D01*
X65619629Y-37246113D01*
X65630515Y-37282000D01*
X65619629Y-37317887D01*
X65605928Y-37457000D01*
X65605928Y-37607000D01*
X65619629Y-37746113D01*
X65637392Y-37804668D01*
X65571284Y-37824722D01*
X65426392Y-37902169D01*
X65329740Y-37981490D01*
X65303250Y-37955000D01*
X65292288Y-37955000D01*
X65278185Y-37937815D01*
X65181494Y-37858463D01*
X65071180Y-37799498D01*
X64951482Y-37763188D01*
X64827000Y-37750928D01*
X64496411Y-37750928D01*
X64557655Y-37710006D01*
X64586661Y-37681000D01*
X64654000Y-37681000D01*
X64654000Y-37701000D01*
X65303250Y-37701000D01*
X65462000Y-37542250D01*
X65450192Y-37430004D01*
X65411491Y-37311058D01*
X65350328Y-37201947D01*
X65269054Y-37106865D01*
X65170793Y-37029466D01*
X65059319Y-36972724D01*
X65037828Y-36966672D01*
X65086936Y-36719791D01*
X65086936Y-36432209D01*
X65030831Y-36150152D01*
X64920778Y-35884461D01*
X64761006Y-35645345D01*
X64697675Y-35582014D01*
X64770755Y-35559845D01*
X64905274Y-35487943D01*
X65023180Y-35391180D01*
X65115999Y-35278080D01*
X65159943Y-35254591D01*
X65266303Y-35167303D01*
X65288175Y-35140652D01*
X65623412Y-34805415D01*
X65619629Y-34817887D01*
G04 #@! TA.AperFunction,Conductor*
D31*
G36*
X65619629Y-34817887D02*
G01*
X65605928Y-34957000D01*
X65605928Y-35107000D01*
X65619629Y-35246113D01*
X65630515Y-35282000D01*
X65619629Y-35317887D01*
X65605928Y-35457000D01*
X65605928Y-35607000D01*
X65619629Y-35746113D01*
X65630515Y-35782000D01*
X65619629Y-35817887D01*
X65605928Y-35957000D01*
X65605928Y-36107000D01*
X65619629Y-36246113D01*
X65630515Y-36282000D01*
X65619629Y-36317887D01*
X65605928Y-36457000D01*
X65605928Y-36607000D01*
X65619629Y-36746113D01*
X65630515Y-36782000D01*
X65619629Y-36817887D01*
X65605928Y-36957000D01*
X65605928Y-37107000D01*
X65619629Y-37246113D01*
X65630515Y-37282000D01*
X65619629Y-37317887D01*
X65605928Y-37457000D01*
X65605928Y-37607000D01*
X65619629Y-37746113D01*
X65637392Y-37804668D01*
X65571284Y-37824722D01*
X65426392Y-37902169D01*
X65329740Y-37981490D01*
X65303250Y-37955000D01*
X65292288Y-37955000D01*
X65278185Y-37937815D01*
X65181494Y-37858463D01*
X65071180Y-37799498D01*
X64951482Y-37763188D01*
X64827000Y-37750928D01*
X64496411Y-37750928D01*
X64557655Y-37710006D01*
X64586661Y-37681000D01*
X64654000Y-37681000D01*
X64654000Y-37701000D01*
X65303250Y-37701000D01*
X65462000Y-37542250D01*
X65450192Y-37430004D01*
X65411491Y-37311058D01*
X65350328Y-37201947D01*
X65269054Y-37106865D01*
X65170793Y-37029466D01*
X65059319Y-36972724D01*
X65037828Y-36966672D01*
X65086936Y-36719791D01*
X65086936Y-36432209D01*
X65030831Y-36150152D01*
X64920778Y-35884461D01*
X64761006Y-35645345D01*
X64697675Y-35582014D01*
X64770755Y-35559845D01*
X64905274Y-35487943D01*
X65023180Y-35391180D01*
X65115999Y-35278080D01*
X65159943Y-35254591D01*
X65266303Y-35167303D01*
X65288175Y-35140652D01*
X65623412Y-34805415D01*
X65619629Y-34817887D01*
G37*
G04 #@! TD.AperFunction*
D30*
X56502000Y-35052000D02*
X56522000Y-35052000D01*
X56522000Y-35306000D01*
X56502000Y-35306000D01*
X56502000Y-36130250D01*
X56660750Y-36289000D01*
X56825000Y-36292072D01*
X56949482Y-36279812D01*
X57069180Y-36243502D01*
X57179494Y-36184537D01*
X57223649Y-36148300D01*
X57369717Y-36226375D01*
X57531623Y-36275488D01*
X57700000Y-36292072D01*
X58150000Y-36292072D01*
X58318377Y-36275488D01*
X58480283Y-36226375D01*
X58579718Y-36173225D01*
X58576928Y-36277000D01*
X58589188Y-36401482D01*
X58589928Y-36403921D01*
X58580206Y-36404878D01*
X58448509Y-36444828D01*
X58438878Y-36439623D01*
X58319348Y-36402765D01*
X58197750Y-36393000D01*
X58039000Y-36551750D01*
X58039000Y-36821892D01*
X58013155Y-36870245D01*
X57968878Y-37016206D01*
X57953928Y-37168000D01*
X57953928Y-37485000D01*
X57785000Y-37485000D01*
X57785000Y-37465000D01*
X57155750Y-37465000D01*
X56997000Y-37623750D01*
X56993935Y-37645077D01*
X57005625Y-37769613D01*
X57032946Y-37861189D01*
X56968283Y-37826625D01*
X56806377Y-37777512D01*
X56638000Y-37760928D01*
X56138000Y-37760928D01*
X55969623Y-37777512D01*
X55807717Y-37826625D01*
X55806975Y-37827022D01*
X55816500Y-37730309D01*
X55816500Y-37730298D01*
X55819878Y-37696000D01*
X55816500Y-37661702D01*
X55816500Y-37030923D01*
X56993935Y-37030923D01*
X56997000Y-37052250D01*
X57155750Y-37211000D01*
X57785000Y-37211000D01*
X57785000Y-36551750D01*
X57626250Y-36393000D01*
X57504652Y-36402765D01*
X57385122Y-36439623D01*
X57275079Y-36499092D01*
X57178753Y-36578887D01*
X57099844Y-36675941D01*
X57041386Y-36786524D01*
X57005625Y-36906387D01*
X56993935Y-37030923D01*
X55816500Y-37030923D01*
X55816500Y-36281386D01*
X55925000Y-36292072D01*
X56089250Y-36289000D01*
X56248000Y-36130250D01*
X56248000Y-35306000D01*
X56228000Y-35306000D01*
X56228000Y-35052000D01*
X56248000Y-35052000D01*
X56248000Y-35032000D01*
X56502000Y-35032000D01*
X56502000Y-35052000D01*
G04 #@! TA.AperFunction,Conductor*
D31*
G36*
X56502000Y-35052000D02*
G01*
X56522000Y-35052000D01*
X56522000Y-35306000D01*
X56502000Y-35306000D01*
X56502000Y-36130250D01*
X56660750Y-36289000D01*
X56825000Y-36292072D01*
X56949482Y-36279812D01*
X57069180Y-36243502D01*
X57179494Y-36184537D01*
X57223649Y-36148300D01*
X57369717Y-36226375D01*
X57531623Y-36275488D01*
X57700000Y-36292072D01*
X58150000Y-36292072D01*
X58318377Y-36275488D01*
X58480283Y-36226375D01*
X58579718Y-36173225D01*
X58576928Y-36277000D01*
X58589188Y-36401482D01*
X58589928Y-36403921D01*
X58580206Y-36404878D01*
X58448509Y-36444828D01*
X58438878Y-36439623D01*
X58319348Y-36402765D01*
X58197750Y-36393000D01*
X58039000Y-36551750D01*
X58039000Y-36821892D01*
X58013155Y-36870245D01*
X57968878Y-37016206D01*
X57953928Y-37168000D01*
X57953928Y-37485000D01*
X57785000Y-37485000D01*
X57785000Y-37465000D01*
X57155750Y-37465000D01*
X56997000Y-37623750D01*
X56993935Y-37645077D01*
X57005625Y-37769613D01*
X57032946Y-37861189D01*
X56968283Y-37826625D01*
X56806377Y-37777512D01*
X56638000Y-37760928D01*
X56138000Y-37760928D01*
X55969623Y-37777512D01*
X55807717Y-37826625D01*
X55806975Y-37827022D01*
X55816500Y-37730309D01*
X55816500Y-37730298D01*
X55819878Y-37696000D01*
X55816500Y-37661702D01*
X55816500Y-37030923D01*
X56993935Y-37030923D01*
X56997000Y-37052250D01*
X57155750Y-37211000D01*
X57785000Y-37211000D01*
X57785000Y-36551750D01*
X57626250Y-36393000D01*
X57504652Y-36402765D01*
X57385122Y-36439623D01*
X57275079Y-36499092D01*
X57178753Y-36578887D01*
X57099844Y-36675941D01*
X57041386Y-36786524D01*
X57005625Y-36906387D01*
X56993935Y-37030923D01*
X55816500Y-37030923D01*
X55816500Y-36281386D01*
X55925000Y-36292072D01*
X56089250Y-36289000D01*
X56248000Y-36130250D01*
X56248000Y-35306000D01*
X56228000Y-35306000D01*
X56228000Y-35052000D01*
X56248000Y-35052000D01*
X56248000Y-35032000D01*
X56502000Y-35032000D01*
X56502000Y-35052000D01*
G37*
G04 #@! TD.AperFunction*
D30*
X44467614Y-37119405D02*
X44621150Y-37201472D01*
X44637500Y-37206432D01*
X44637500Y-37559673D01*
X44615673Y-37581500D01*
X43160000Y-37581500D01*
X43160000Y-37338000D01*
X43180000Y-37338000D01*
X43180000Y-37318000D01*
X43434000Y-37318000D01*
X43434000Y-37338000D01*
X44258250Y-37338000D01*
X44417000Y-37179250D01*
X44419667Y-37080056D01*
X44467614Y-37119405D01*
G04 #@! TA.AperFunction,Conductor*
D31*
G36*
X44467614Y-37119405D02*
G01*
X44621150Y-37201472D01*
X44637500Y-37206432D01*
X44637500Y-37559673D01*
X44615673Y-37581500D01*
X43160000Y-37581500D01*
X43160000Y-37338000D01*
X43180000Y-37338000D01*
X43180000Y-37318000D01*
X43434000Y-37318000D01*
X43434000Y-37338000D01*
X44258250Y-37338000D01*
X44417000Y-37179250D01*
X44419667Y-37080056D01*
X44467614Y-37119405D01*
G37*
G04 #@! TD.AperFunction*
D30*
X41275000Y-36703000D02*
X41295000Y-36703000D01*
X41295000Y-36957000D01*
X41275000Y-36957000D01*
X41275000Y-36977000D01*
X41021000Y-36977000D01*
X41021000Y-36957000D01*
X41001000Y-36957000D01*
X41001000Y-36703000D01*
X41021000Y-36703000D01*
X41021000Y-36683000D01*
X41275000Y-36683000D01*
X41275000Y-36703000D01*
G04 #@! TA.AperFunction,Conductor*
D31*
G36*
X41275000Y-36703000D02*
G01*
X41295000Y-36703000D01*
X41295000Y-36957000D01*
X41275000Y-36957000D01*
X41275000Y-36977000D01*
X41021000Y-36977000D01*
X41021000Y-36957000D01*
X41001000Y-36957000D01*
X41001000Y-36703000D01*
X41021000Y-36703000D01*
X41021000Y-36683000D01*
X41275000Y-36683000D01*
X41275000Y-36703000D01*
G37*
G04 #@! TD.AperFunction*
D30*
X50502188Y-32749518D02*
X50489928Y-32874000D01*
X50489928Y-33674000D01*
X50502188Y-33798482D01*
X50538498Y-33918180D01*
X50597463Y-34028494D01*
X50676815Y-34125185D01*
X50773506Y-34204537D01*
X50883820Y-34263502D01*
X51003518Y-34299812D01*
X51023076Y-34301738D01*
X50987414Y-34355111D01*
X50916932Y-34525271D01*
X50881000Y-34705911D01*
X50881000Y-34890089D01*
X50916932Y-35070729D01*
X50987414Y-35240889D01*
X51089738Y-35394028D01*
X51219972Y-35524262D01*
X51272846Y-35559591D01*
X51252506Y-35570463D01*
X51155815Y-35649815D01*
X51076463Y-35746506D01*
X51017498Y-35856820D01*
X50981188Y-35976518D01*
X50968928Y-36101000D01*
X50972000Y-36290250D01*
X51130750Y-36449000D01*
X51880000Y-36449000D01*
X51880000Y-36429000D01*
X52134000Y-36429000D01*
X52134000Y-36449000D01*
X52154000Y-36449000D01*
X52154000Y-36703000D01*
X52134000Y-36703000D01*
X52134000Y-36723000D01*
X51880000Y-36723000D01*
X51880000Y-36703000D01*
X51130750Y-36703000D01*
X51065807Y-36767943D01*
X51003982Y-36749188D01*
X50879500Y-36736928D01*
X50577750Y-36740000D01*
X50419002Y-36898748D01*
X50419002Y-36740000D01*
X50417358Y-36740000D01*
X50485586Y-36637889D01*
X50556068Y-36467729D01*
X50592000Y-36287089D01*
X50592000Y-36102911D01*
X50556068Y-35922271D01*
X50485586Y-35752111D01*
X50383262Y-35598972D01*
X50253028Y-35468738D01*
X50099889Y-35366414D01*
X49929729Y-35295932D01*
X49749089Y-35260000D01*
X49564911Y-35260000D01*
X49399072Y-35292988D01*
X49399072Y-34231000D01*
X49396351Y-34203378D01*
X49548729Y-34173068D01*
X49718889Y-34102586D01*
X49872028Y-34000262D01*
X50002262Y-33870028D01*
X50104586Y-33716889D01*
X50175068Y-33546729D01*
X50211000Y-33366089D01*
X50211000Y-33326828D01*
X50253661Y-33284167D01*
X50280302Y-33262303D01*
X50302167Y-33235661D01*
X50302173Y-33235655D01*
X50367591Y-33155944D01*
X50432451Y-33034599D01*
X50432452Y-33034596D01*
X50472393Y-32902930D01*
X50482500Y-32800309D01*
X50482500Y-32800299D01*
X50485878Y-32766001D01*
X50482500Y-32731703D01*
X50482500Y-32724724D01*
X50514975Y-32707366D01*
X50502188Y-32749518D01*
G04 #@! TA.AperFunction,Conductor*
D31*
G36*
X50502188Y-32749518D02*
G01*
X50489928Y-32874000D01*
X50489928Y-33674000D01*
X50502188Y-33798482D01*
X50538498Y-33918180D01*
X50597463Y-34028494D01*
X50676815Y-34125185D01*
X50773506Y-34204537D01*
X50883820Y-34263502D01*
X51003518Y-34299812D01*
X51023076Y-34301738D01*
X50987414Y-34355111D01*
X50916932Y-34525271D01*
X50881000Y-34705911D01*
X50881000Y-34890089D01*
X50916932Y-35070729D01*
X50987414Y-35240889D01*
X51089738Y-35394028D01*
X51219972Y-35524262D01*
X51272846Y-35559591D01*
X51252506Y-35570463D01*
X51155815Y-35649815D01*
X51076463Y-35746506D01*
X51017498Y-35856820D01*
X50981188Y-35976518D01*
X50968928Y-36101000D01*
X50972000Y-36290250D01*
X51130750Y-36449000D01*
X51880000Y-36449000D01*
X51880000Y-36429000D01*
X52134000Y-36429000D01*
X52134000Y-36449000D01*
X52154000Y-36449000D01*
X52154000Y-36703000D01*
X52134000Y-36703000D01*
X52134000Y-36723000D01*
X51880000Y-36723000D01*
X51880000Y-36703000D01*
X51130750Y-36703000D01*
X51065807Y-36767943D01*
X51003982Y-36749188D01*
X50879500Y-36736928D01*
X50577750Y-36740000D01*
X50419002Y-36898748D01*
X50419002Y-36740000D01*
X50417358Y-36740000D01*
X50485586Y-36637889D01*
X50556068Y-36467729D01*
X50592000Y-36287089D01*
X50592000Y-36102911D01*
X50556068Y-35922271D01*
X50485586Y-35752111D01*
X50383262Y-35598972D01*
X50253028Y-35468738D01*
X50099889Y-35366414D01*
X49929729Y-35295932D01*
X49749089Y-35260000D01*
X49564911Y-35260000D01*
X49399072Y-35292988D01*
X49399072Y-34231000D01*
X49396351Y-34203378D01*
X49548729Y-34173068D01*
X49718889Y-34102586D01*
X49872028Y-34000262D01*
X50002262Y-33870028D01*
X50104586Y-33716889D01*
X50175068Y-33546729D01*
X50211000Y-33366089D01*
X50211000Y-33326828D01*
X50253661Y-33284167D01*
X50280302Y-33262303D01*
X50302167Y-33235661D01*
X50302173Y-33235655D01*
X50367591Y-33155944D01*
X50432451Y-33034599D01*
X50432452Y-33034596D01*
X50472393Y-32902930D01*
X50482500Y-32800309D01*
X50482500Y-32800299D01*
X50485878Y-32766001D01*
X50482500Y-32731703D01*
X50482500Y-32724724D01*
X50514975Y-32707366D01*
X50502188Y-32749518D01*
G37*
G04 #@! TD.AperFunction*
D30*
X59817000Y-35750000D02*
X59837000Y-35750000D01*
X59837000Y-36004000D01*
X59817000Y-36004000D01*
X59817000Y-36024000D01*
X59563000Y-36024000D01*
X59563000Y-36004000D01*
X59543000Y-36004000D01*
X59543000Y-35750000D01*
X59563000Y-35750000D01*
X59563000Y-35730000D01*
X59817000Y-35730000D01*
X59817000Y-35750000D01*
G04 #@! TA.AperFunction,Conductor*
D31*
G36*
X59817000Y-35750000D02*
G01*
X59837000Y-35750000D01*
X59837000Y-36004000D01*
X59817000Y-36004000D01*
X59817000Y-36024000D01*
X59563000Y-36024000D01*
X59563000Y-36004000D01*
X59543000Y-36004000D01*
X59543000Y-35750000D01*
X59563000Y-35750000D01*
X59563000Y-35730000D01*
X59817000Y-35730000D01*
X59817000Y-35750000D01*
G37*
G04 #@! TD.AperFunction*
D30*
X80550394Y-28299606D02*
X80677392Y-28403831D01*
X80793566Y-28465928D01*
X80594000Y-28465928D01*
X80469518Y-28478188D01*
X80349820Y-28514498D01*
X80239506Y-28573463D01*
X80142815Y-28652815D01*
X80063463Y-28749506D01*
X80004498Y-28859820D01*
X79968188Y-28979518D01*
X79955928Y-29104000D01*
X79955928Y-30404000D01*
X79968188Y-30528482D01*
X80004498Y-30648180D01*
X80063463Y-30758494D01*
X80142815Y-30855185D01*
X80239506Y-30934537D01*
X80349820Y-30993502D01*
X80469518Y-31029812D01*
X80594000Y-31042072D01*
X81636001Y-31042072D01*
X81636002Y-32965928D01*
X80594000Y-32965928D01*
X80469518Y-32978188D01*
X80349820Y-33014498D01*
X80239506Y-33073463D01*
X80142815Y-33152815D01*
X80063463Y-33249506D01*
X80004498Y-33359820D01*
X79968188Y-33479518D01*
X79955928Y-33604000D01*
X79955928Y-34904000D01*
X79968188Y-35028482D01*
X80004498Y-35148180D01*
X80063463Y-35258494D01*
X80125019Y-35333500D01*
X79669909Y-35333500D01*
X79668371Y-35317887D01*
X79657485Y-35282000D01*
X79668371Y-35246113D01*
X79682072Y-35107000D01*
X79682072Y-34957000D01*
X79668371Y-34817887D01*
X79657485Y-34782000D01*
X79668371Y-34746113D01*
X79682072Y-34607000D01*
X79682072Y-34457000D01*
X79668371Y-34317887D01*
X79657485Y-34282000D01*
X79668371Y-34246113D01*
X79682072Y-34107000D01*
X79682072Y-33957000D01*
X79668371Y-33817887D01*
X79657485Y-33782000D01*
X79668371Y-33746113D01*
X79682072Y-33607000D01*
X79682072Y-33457000D01*
X79668371Y-33317887D01*
X79657485Y-33282000D01*
X79668371Y-33246113D01*
X79682072Y-33107000D01*
X79682072Y-32957000D01*
X79668371Y-32817887D01*
X79657485Y-32782000D01*
X79668371Y-32746113D01*
X79682072Y-32607000D01*
X79682072Y-32457000D01*
X79675326Y-32388502D01*
X80147174Y-31916654D01*
X80212591Y-31836944D01*
X80277451Y-31715598D01*
X80317392Y-31583930D01*
X80330878Y-31447000D01*
X80317392Y-31310071D01*
X80277451Y-31178402D01*
X80212591Y-31057057D01*
X80125303Y-30950697D01*
X80018943Y-30863409D01*
X79897598Y-30798549D01*
X79765929Y-30758608D01*
X79675086Y-30749661D01*
X79679000Y-30713750D01*
X79603018Y-30637768D01*
X79561898Y-30560838D01*
X79538231Y-30532000D01*
X79561898Y-30503162D01*
X79603018Y-30426232D01*
X79679000Y-30350250D01*
X79667868Y-30248117D01*
X79667814Y-30247949D01*
X79668371Y-30246113D01*
X79682072Y-30107000D01*
X79682072Y-29957000D01*
X79668371Y-29817887D01*
X79627793Y-29684119D01*
X79561898Y-29560838D01*
X79473218Y-29452782D01*
X79365162Y-29364102D01*
X79241881Y-29298207D01*
X79108113Y-29257629D01*
X79005000Y-29247474D01*
X79005000Y-29107827D01*
X79567756Y-28545072D01*
X79893000Y-28545072D01*
X80056500Y-28528969D01*
X80213716Y-28481278D01*
X80358608Y-28403831D01*
X80485606Y-28299606D01*
X80518000Y-28260134D01*
X80550394Y-28299606D01*
G04 #@! TA.AperFunction,Conductor*
D31*
G36*
X80550394Y-28299606D02*
G01*
X80677392Y-28403831D01*
X80793566Y-28465928D01*
X80594000Y-28465928D01*
X80469518Y-28478188D01*
X80349820Y-28514498D01*
X80239506Y-28573463D01*
X80142815Y-28652815D01*
X80063463Y-28749506D01*
X80004498Y-28859820D01*
X79968188Y-28979518D01*
X79955928Y-29104000D01*
X79955928Y-30404000D01*
X79968188Y-30528482D01*
X80004498Y-30648180D01*
X80063463Y-30758494D01*
X80142815Y-30855185D01*
X80239506Y-30934537D01*
X80349820Y-30993502D01*
X80469518Y-31029812D01*
X80594000Y-31042072D01*
X81636001Y-31042072D01*
X81636002Y-32965928D01*
X80594000Y-32965928D01*
X80469518Y-32978188D01*
X80349820Y-33014498D01*
X80239506Y-33073463D01*
X80142815Y-33152815D01*
X80063463Y-33249506D01*
X80004498Y-33359820D01*
X79968188Y-33479518D01*
X79955928Y-33604000D01*
X79955928Y-34904000D01*
X79968188Y-35028482D01*
X80004498Y-35148180D01*
X80063463Y-35258494D01*
X80125019Y-35333500D01*
X79669909Y-35333500D01*
X79668371Y-35317887D01*
X79657485Y-35282000D01*
X79668371Y-35246113D01*
X79682072Y-35107000D01*
X79682072Y-34957000D01*
X79668371Y-34817887D01*
X79657485Y-34782000D01*
X79668371Y-34746113D01*
X79682072Y-34607000D01*
X79682072Y-34457000D01*
X79668371Y-34317887D01*
X79657485Y-34282000D01*
X79668371Y-34246113D01*
X79682072Y-34107000D01*
X79682072Y-33957000D01*
X79668371Y-33817887D01*
X79657485Y-33782000D01*
X79668371Y-33746113D01*
X79682072Y-33607000D01*
X79682072Y-33457000D01*
X79668371Y-33317887D01*
X79657485Y-33282000D01*
X79668371Y-33246113D01*
X79682072Y-33107000D01*
X79682072Y-32957000D01*
X79668371Y-32817887D01*
X79657485Y-32782000D01*
X79668371Y-32746113D01*
X79682072Y-32607000D01*
X79682072Y-32457000D01*
X79675326Y-32388502D01*
X80147174Y-31916654D01*
X80212591Y-31836944D01*
X80277451Y-31715598D01*
X80317392Y-31583930D01*
X80330878Y-31447000D01*
X80317392Y-31310071D01*
X80277451Y-31178402D01*
X80212591Y-31057057D01*
X80125303Y-30950697D01*
X80018943Y-30863409D01*
X79897598Y-30798549D01*
X79765929Y-30758608D01*
X79675086Y-30749661D01*
X79679000Y-30713750D01*
X79603018Y-30637768D01*
X79561898Y-30560838D01*
X79538231Y-30532000D01*
X79561898Y-30503162D01*
X79603018Y-30426232D01*
X79679000Y-30350250D01*
X79667868Y-30248117D01*
X79667814Y-30247949D01*
X79668371Y-30246113D01*
X79682072Y-30107000D01*
X79682072Y-29957000D01*
X79668371Y-29817887D01*
X79627793Y-29684119D01*
X79561898Y-29560838D01*
X79473218Y-29452782D01*
X79365162Y-29364102D01*
X79241881Y-29298207D01*
X79108113Y-29257629D01*
X79005000Y-29247474D01*
X79005000Y-29107827D01*
X79567756Y-28545072D01*
X79893000Y-28545072D01*
X80056500Y-28528969D01*
X80213716Y-28481278D01*
X80358608Y-28403831D01*
X80485606Y-28299606D01*
X80518000Y-28260134D01*
X80550394Y-28299606D01*
G37*
G04 #@! TD.AperFunction*
D30*
X63414928Y-34684756D02*
X63414928Y-34818000D01*
X63246000Y-34818000D01*
X63246000Y-34798000D01*
X63226000Y-34798000D01*
X63226000Y-34789827D01*
X63373000Y-34642827D01*
X63414928Y-34684756D01*
G04 #@! TA.AperFunction,Conductor*
D31*
G36*
X63414928Y-34684756D02*
G01*
X63414928Y-34818000D01*
X63246000Y-34818000D01*
X63246000Y-34798000D01*
X63226000Y-34798000D01*
X63226000Y-34789827D01*
X63373000Y-34642827D01*
X63414928Y-34684756D01*
G37*
G04 #@! TD.AperFunction*
D30*
X64460000Y-33528000D02*
X64480000Y-33528000D01*
X64480000Y-33723617D01*
X64473000Y-33722928D01*
X64428756Y-33722928D01*
X64291072Y-33585245D01*
X64291072Y-33508000D01*
X64460000Y-33508000D01*
X64460000Y-33528000D01*
G04 #@! TA.AperFunction,Conductor*
D31*
G36*
X64460000Y-33528000D02*
G01*
X64480000Y-33528000D01*
X64480000Y-33723617D01*
X64473000Y-33722928D01*
X64428756Y-33722928D01*
X64291072Y-33585245D01*
X64291072Y-33508000D01*
X64460000Y-33508000D01*
X64460000Y-33528000D01*
G37*
G04 #@! TD.AperFunction*
D30*
X65619629Y-30746113D02*
X65630515Y-30782000D01*
X65619629Y-30817887D01*
X65605928Y-30957000D01*
X65605928Y-31107000D01*
X65619629Y-31246113D01*
X65630515Y-31282000D01*
X65619629Y-31317887D01*
X65605928Y-31457000D01*
X65605928Y-31607000D01*
X65619629Y-31746113D01*
X65630515Y-31782000D01*
X65619629Y-31817887D01*
X65605928Y-31957000D01*
X65605928Y-32107000D01*
X65619629Y-32246113D01*
X65630515Y-32282000D01*
X65619629Y-32317887D01*
X65605928Y-32457000D01*
X65605928Y-32607000D01*
X65619629Y-32746113D01*
X65620186Y-32747949D01*
X65620132Y-32748117D01*
X65609000Y-32850250D01*
X65663748Y-32904998D01*
X65609000Y-32904998D01*
X65609000Y-32978762D01*
X65517403Y-33006548D01*
X65517401Y-33006549D01*
X65396056Y-33071409D01*
X65316346Y-33136826D01*
X65316343Y-33136829D01*
X65289697Y-33158697D01*
X65267829Y-33185343D01*
X65237171Y-33216001D01*
X65203614Y-33103524D01*
X65193503Y-33084397D01*
X65223812Y-32984482D01*
X65236072Y-32860000D01*
X65233000Y-32670750D01*
X65074250Y-32512000D01*
X64275000Y-32512000D01*
X64275000Y-32532000D01*
X64021000Y-32532000D01*
X64021000Y-32512000D01*
X64001000Y-32512000D01*
X64001000Y-32258000D01*
X64021000Y-32258000D01*
X64021000Y-32238000D01*
X64275000Y-32238000D01*
X64275000Y-32258000D01*
X65074250Y-32258000D01*
X65233000Y-32099250D01*
X65236072Y-31910000D01*
X65223812Y-31785518D01*
X65187502Y-31665820D01*
X65128537Y-31555506D01*
X65049185Y-31458815D01*
X64952494Y-31379463D01*
X64903395Y-31353218D01*
X64912502Y-31336180D01*
X64948812Y-31216482D01*
X64961072Y-31092000D01*
X64961072Y-30730500D01*
X65618091Y-30730500D01*
X65619629Y-30746113D01*
G04 #@! TA.AperFunction,Conductor*
D31*
G36*
X65619629Y-30746113D02*
G01*
X65630515Y-30782000D01*
X65619629Y-30817887D01*
X65605928Y-30957000D01*
X65605928Y-31107000D01*
X65619629Y-31246113D01*
X65630515Y-31282000D01*
X65619629Y-31317887D01*
X65605928Y-31457000D01*
X65605928Y-31607000D01*
X65619629Y-31746113D01*
X65630515Y-31782000D01*
X65619629Y-31817887D01*
X65605928Y-31957000D01*
X65605928Y-32107000D01*
X65619629Y-32246113D01*
X65630515Y-32282000D01*
X65619629Y-32317887D01*
X65605928Y-32457000D01*
X65605928Y-32607000D01*
X65619629Y-32746113D01*
X65620186Y-32747949D01*
X65620132Y-32748117D01*
X65609000Y-32850250D01*
X65663748Y-32904998D01*
X65609000Y-32904998D01*
X65609000Y-32978762D01*
X65517403Y-33006548D01*
X65517401Y-33006549D01*
X65396056Y-33071409D01*
X65316346Y-33136826D01*
X65316343Y-33136829D01*
X65289697Y-33158697D01*
X65267829Y-33185343D01*
X65237171Y-33216001D01*
X65203614Y-33103524D01*
X65193503Y-33084397D01*
X65223812Y-32984482D01*
X65236072Y-32860000D01*
X65233000Y-32670750D01*
X65074250Y-32512000D01*
X64275000Y-32512000D01*
X64275000Y-32532000D01*
X64021000Y-32532000D01*
X64021000Y-32512000D01*
X64001000Y-32512000D01*
X64001000Y-32258000D01*
X64021000Y-32258000D01*
X64021000Y-32238000D01*
X64275000Y-32238000D01*
X64275000Y-32258000D01*
X65074250Y-32258000D01*
X65233000Y-32099250D01*
X65236072Y-31910000D01*
X65223812Y-31785518D01*
X65187502Y-31665820D01*
X65128537Y-31555506D01*
X65049185Y-31458815D01*
X64952494Y-31379463D01*
X64903395Y-31353218D01*
X64912502Y-31336180D01*
X64948812Y-31216482D01*
X64961072Y-31092000D01*
X64961072Y-30730500D01*
X65618091Y-30730500D01*
X65619629Y-30746113D01*
G37*
G04 #@! TD.AperFunction*
D30*
X44264344Y-27010829D02*
X44237698Y-27032697D01*
X44215830Y-27059343D01*
X44215826Y-27059347D01*
X44150409Y-27139057D01*
X44085549Y-27260402D01*
X44074734Y-27296056D01*
X44045608Y-27392070D01*
X44035576Y-27493930D01*
X44032122Y-27529000D01*
X44035501Y-27563308D01*
X44035500Y-30837928D01*
X43859000Y-30837928D01*
X43759000Y-30847777D01*
X43659000Y-30837928D01*
X43209000Y-30837928D01*
X43109000Y-30847777D01*
X43009000Y-30837928D01*
X42559000Y-30837928D01*
X42455535Y-30848118D01*
X42390750Y-30841000D01*
X42358503Y-30873247D01*
X42314820Y-30886498D01*
X42204506Y-30945463D01*
X42107815Y-31024815D01*
X42036000Y-31112322D01*
X42036000Y-30999750D01*
X41969000Y-30932750D01*
X41969000Y-30924061D01*
X41929226Y-30724102D01*
X41851205Y-30535744D01*
X41737937Y-30366226D01*
X41593774Y-30222063D01*
X41424256Y-30108795D01*
X41235898Y-30030774D01*
X41035939Y-29991000D01*
X40832061Y-29991000D01*
X40632102Y-30030774D01*
X40443744Y-30108795D01*
X40274226Y-30222063D01*
X40130063Y-30366226D01*
X40051558Y-30483718D01*
X39975607Y-30460678D01*
X39709000Y-30434420D01*
X39480241Y-30456950D01*
X39480241Y-29809097D01*
X39559000Y-29816854D01*
X39796200Y-29793492D01*
X40024286Y-29724303D01*
X40234491Y-29611946D01*
X40418739Y-29460739D01*
X40569946Y-29276492D01*
X40682303Y-29066287D01*
X40751492Y-28838201D01*
X40769000Y-28660437D01*
X40769000Y-27891564D01*
X40751492Y-27713800D01*
X40682303Y-27485713D01*
X40569946Y-27275508D01*
X40418739Y-27091261D01*
X40234492Y-26940054D01*
X40024287Y-26827697D01*
X39796201Y-26758508D01*
X39559000Y-26735146D01*
X39480241Y-26742903D01*
X39480241Y-26416000D01*
X44859172Y-26416000D01*
X44264344Y-27010829D01*
G04 #@! TA.AperFunction,Conductor*
D31*
G36*
X44264344Y-27010829D02*
G01*
X44237698Y-27032697D01*
X44215830Y-27059343D01*
X44215826Y-27059347D01*
X44150409Y-27139057D01*
X44085549Y-27260402D01*
X44074734Y-27296056D01*
X44045608Y-27392070D01*
X44035576Y-27493930D01*
X44032122Y-27529000D01*
X44035501Y-27563308D01*
X44035500Y-30837928D01*
X43859000Y-30837928D01*
X43759000Y-30847777D01*
X43659000Y-30837928D01*
X43209000Y-30837928D01*
X43109000Y-30847777D01*
X43009000Y-30837928D01*
X42559000Y-30837928D01*
X42455535Y-30848118D01*
X42390750Y-30841000D01*
X42358503Y-30873247D01*
X42314820Y-30886498D01*
X42204506Y-30945463D01*
X42107815Y-31024815D01*
X42036000Y-31112322D01*
X42036000Y-30999750D01*
X41969000Y-30932750D01*
X41969000Y-30924061D01*
X41929226Y-30724102D01*
X41851205Y-30535744D01*
X41737937Y-30366226D01*
X41593774Y-30222063D01*
X41424256Y-30108795D01*
X41235898Y-30030774D01*
X41035939Y-29991000D01*
X40832061Y-29991000D01*
X40632102Y-30030774D01*
X40443744Y-30108795D01*
X40274226Y-30222063D01*
X40130063Y-30366226D01*
X40051558Y-30483718D01*
X39975607Y-30460678D01*
X39709000Y-30434420D01*
X39480241Y-30456950D01*
X39480241Y-29809097D01*
X39559000Y-29816854D01*
X39796200Y-29793492D01*
X40024286Y-29724303D01*
X40234491Y-29611946D01*
X40418739Y-29460739D01*
X40569946Y-29276492D01*
X40682303Y-29066287D01*
X40751492Y-28838201D01*
X40769000Y-28660437D01*
X40769000Y-27891564D01*
X40751492Y-27713800D01*
X40682303Y-27485713D01*
X40569946Y-27275508D01*
X40418739Y-27091261D01*
X40234492Y-26940054D01*
X40024287Y-26827697D01*
X39796201Y-26758508D01*
X39559000Y-26735146D01*
X39480241Y-26742903D01*
X39480241Y-26416000D01*
X44859172Y-26416000D01*
X44264344Y-27010829D01*
G37*
G04 #@! TD.AperFunction*
D30*
X62745000Y-26670000D02*
X62725000Y-26670000D01*
X62725000Y-26690000D01*
X62471000Y-26690000D01*
X62471000Y-26670000D01*
X61671750Y-26670000D01*
X61513000Y-26828750D01*
X61509928Y-27018000D01*
X61522188Y-27142482D01*
X61558498Y-27262180D01*
X61617463Y-27372494D01*
X61696815Y-27469185D01*
X61788619Y-27544526D01*
X61784928Y-27582000D01*
X61784928Y-28682000D01*
X61797188Y-28806482D01*
X61833498Y-28926180D01*
X61892463Y-29036494D01*
X61971815Y-29133185D01*
X62068506Y-29212537D01*
X62178820Y-29271502D01*
X62298518Y-29307812D01*
X62423000Y-29320072D01*
X64323000Y-29320072D01*
X64447482Y-29307812D01*
X64567180Y-29271502D01*
X64677494Y-29212537D01*
X64774185Y-29133185D01*
X64853537Y-29036494D01*
X64912502Y-28926180D01*
X64941526Y-28830500D01*
X65905163Y-28830500D01*
X66318627Y-29243965D01*
X66179887Y-29257629D01*
X66046119Y-29298207D01*
X65980090Y-29333500D01*
X63917298Y-29333500D01*
X63883000Y-29330122D01*
X63848702Y-29333500D01*
X63848691Y-29333500D01*
X63746070Y-29343607D01*
X63712046Y-29353928D01*
X62423000Y-29353928D01*
X62298518Y-29366188D01*
X62178820Y-29402498D01*
X62068506Y-29461463D01*
X61971815Y-29540815D01*
X61892463Y-29637506D01*
X61833498Y-29747820D01*
X61797188Y-29867518D01*
X61784928Y-29992000D01*
X61784928Y-30617638D01*
X61683028Y-30515738D01*
X61529889Y-30413414D01*
X61359729Y-30342932D01*
X61179089Y-30307000D01*
X60994911Y-30307000D01*
X60814271Y-30342932D01*
X60644111Y-30413414D01*
X60609622Y-30436459D01*
X60552115Y-30366385D01*
X60518238Y-30338583D01*
X60550284Y-30312284D01*
X60657618Y-30181497D01*
X60737375Y-30032283D01*
X60786488Y-29870377D01*
X60803072Y-29702000D01*
X60803072Y-29252000D01*
X60786488Y-29083623D01*
X60737375Y-28921717D01*
X60659300Y-28775649D01*
X60695537Y-28731494D01*
X60754502Y-28621180D01*
X60790812Y-28501482D01*
X60803072Y-28377000D01*
X60800000Y-28212750D01*
X60641250Y-28054000D01*
X59817000Y-28054000D01*
X59817000Y-28074000D01*
X59563000Y-28074000D01*
X59563000Y-28054000D01*
X58738750Y-28054000D01*
X58580000Y-28212750D01*
X58576928Y-28377000D01*
X58589188Y-28501482D01*
X58625498Y-28621180D01*
X58684463Y-28731494D01*
X58720700Y-28775649D01*
X58642625Y-28921717D01*
X58593512Y-29083623D01*
X58576928Y-29252000D01*
X58576928Y-29702000D01*
X58593512Y-29870377D01*
X58642625Y-30032283D01*
X58722382Y-30181497D01*
X58829716Y-30312284D01*
X58861762Y-30338583D01*
X58827885Y-30366385D01*
X58818014Y-30378413D01*
X58753494Y-30325463D01*
X58643180Y-30266498D01*
X58523482Y-30230188D01*
X58399000Y-30217928D01*
X57339000Y-30217928D01*
X57309986Y-30220786D01*
X57308500Y-30205702D01*
X57308500Y-29224072D01*
X57860000Y-29224072D01*
X57984482Y-29211812D01*
X58104180Y-29175502D01*
X58214494Y-29116537D01*
X58311185Y-29037185D01*
X58390537Y-28940494D01*
X58449502Y-28830180D01*
X58485812Y-28710482D01*
X58498072Y-28586000D01*
X58498072Y-27477000D01*
X58576928Y-27477000D01*
X58580000Y-27641250D01*
X58738750Y-27800000D01*
X59563000Y-27800000D01*
X59563000Y-27000750D01*
X59817000Y-27000750D01*
X59817000Y-27800000D01*
X60641250Y-27800000D01*
X60800000Y-27641250D01*
X60803072Y-27477000D01*
X60790812Y-27352518D01*
X60754502Y-27232820D01*
X60695537Y-27122506D01*
X60616185Y-27025815D01*
X60519494Y-26946463D01*
X60409180Y-26887498D01*
X60289482Y-26851188D01*
X60165000Y-26838928D01*
X59975750Y-26842000D01*
X59817000Y-27000750D01*
X59563000Y-27000750D01*
X59404250Y-26842000D01*
X59215000Y-26838928D01*
X59090518Y-26851188D01*
X58970820Y-26887498D01*
X58860506Y-26946463D01*
X58763815Y-27025815D01*
X58684463Y-27122506D01*
X58625498Y-27232820D01*
X58589188Y-27352518D01*
X58576928Y-27477000D01*
X58498072Y-27477000D01*
X58498072Y-26786000D01*
X58485812Y-26661518D01*
X58449502Y-26541820D01*
X58390537Y-26431506D01*
X58377812Y-26416000D01*
X62745000Y-26416000D01*
X62745000Y-26670000D01*
G04 #@! TA.AperFunction,Conductor*
D31*
G36*
X62745000Y-26670000D02*
G01*
X62725000Y-26670000D01*
X62725000Y-26690000D01*
X62471000Y-26690000D01*
X62471000Y-26670000D01*
X61671750Y-26670000D01*
X61513000Y-26828750D01*
X61509928Y-27018000D01*
X61522188Y-27142482D01*
X61558498Y-27262180D01*
X61617463Y-27372494D01*
X61696815Y-27469185D01*
X61788619Y-27544526D01*
X61784928Y-27582000D01*
X61784928Y-28682000D01*
X61797188Y-28806482D01*
X61833498Y-28926180D01*
X61892463Y-29036494D01*
X61971815Y-29133185D01*
X62068506Y-29212537D01*
X62178820Y-29271502D01*
X62298518Y-29307812D01*
X62423000Y-29320072D01*
X64323000Y-29320072D01*
X64447482Y-29307812D01*
X64567180Y-29271502D01*
X64677494Y-29212537D01*
X64774185Y-29133185D01*
X64853537Y-29036494D01*
X64912502Y-28926180D01*
X64941526Y-28830500D01*
X65905163Y-28830500D01*
X66318627Y-29243965D01*
X66179887Y-29257629D01*
X66046119Y-29298207D01*
X65980090Y-29333500D01*
X63917298Y-29333500D01*
X63883000Y-29330122D01*
X63848702Y-29333500D01*
X63848691Y-29333500D01*
X63746070Y-29343607D01*
X63712046Y-29353928D01*
X62423000Y-29353928D01*
X62298518Y-29366188D01*
X62178820Y-29402498D01*
X62068506Y-29461463D01*
X61971815Y-29540815D01*
X61892463Y-29637506D01*
X61833498Y-29747820D01*
X61797188Y-29867518D01*
X61784928Y-29992000D01*
X61784928Y-30617638D01*
X61683028Y-30515738D01*
X61529889Y-30413414D01*
X61359729Y-30342932D01*
X61179089Y-30307000D01*
X60994911Y-30307000D01*
X60814271Y-30342932D01*
X60644111Y-30413414D01*
X60609622Y-30436459D01*
X60552115Y-30366385D01*
X60518238Y-30338583D01*
X60550284Y-30312284D01*
X60657618Y-30181497D01*
X60737375Y-30032283D01*
X60786488Y-29870377D01*
X60803072Y-29702000D01*
X60803072Y-29252000D01*
X60786488Y-29083623D01*
X60737375Y-28921717D01*
X60659300Y-28775649D01*
X60695537Y-28731494D01*
X60754502Y-28621180D01*
X60790812Y-28501482D01*
X60803072Y-28377000D01*
X60800000Y-28212750D01*
X60641250Y-28054000D01*
X59817000Y-28054000D01*
X59817000Y-28074000D01*
X59563000Y-28074000D01*
X59563000Y-28054000D01*
X58738750Y-28054000D01*
X58580000Y-28212750D01*
X58576928Y-28377000D01*
X58589188Y-28501482D01*
X58625498Y-28621180D01*
X58684463Y-28731494D01*
X58720700Y-28775649D01*
X58642625Y-28921717D01*
X58593512Y-29083623D01*
X58576928Y-29252000D01*
X58576928Y-29702000D01*
X58593512Y-29870377D01*
X58642625Y-30032283D01*
X58722382Y-30181497D01*
X58829716Y-30312284D01*
X58861762Y-30338583D01*
X58827885Y-30366385D01*
X58818014Y-30378413D01*
X58753494Y-30325463D01*
X58643180Y-30266498D01*
X58523482Y-30230188D01*
X58399000Y-30217928D01*
X57339000Y-30217928D01*
X57309986Y-30220786D01*
X57308500Y-30205702D01*
X57308500Y-29224072D01*
X57860000Y-29224072D01*
X57984482Y-29211812D01*
X58104180Y-29175502D01*
X58214494Y-29116537D01*
X58311185Y-29037185D01*
X58390537Y-28940494D01*
X58449502Y-28830180D01*
X58485812Y-28710482D01*
X58498072Y-28586000D01*
X58498072Y-27477000D01*
X58576928Y-27477000D01*
X58580000Y-27641250D01*
X58738750Y-27800000D01*
X59563000Y-27800000D01*
X59563000Y-27000750D01*
X59817000Y-27000750D01*
X59817000Y-27800000D01*
X60641250Y-27800000D01*
X60800000Y-27641250D01*
X60803072Y-27477000D01*
X60790812Y-27352518D01*
X60754502Y-27232820D01*
X60695537Y-27122506D01*
X60616185Y-27025815D01*
X60519494Y-26946463D01*
X60409180Y-26887498D01*
X60289482Y-26851188D01*
X60165000Y-26838928D01*
X59975750Y-26842000D01*
X59817000Y-27000750D01*
X59563000Y-27000750D01*
X59404250Y-26842000D01*
X59215000Y-26838928D01*
X59090518Y-26851188D01*
X58970820Y-26887498D01*
X58860506Y-26946463D01*
X58763815Y-27025815D01*
X58684463Y-27122506D01*
X58625498Y-27232820D01*
X58589188Y-27352518D01*
X58576928Y-27477000D01*
X58498072Y-27477000D01*
X58498072Y-26786000D01*
X58485812Y-26661518D01*
X58449502Y-26541820D01*
X58390537Y-26431506D01*
X58377812Y-26416000D01*
X62745000Y-26416000D01*
X62745000Y-26670000D01*
G37*
G04 #@! TD.AperFunction*
M02*
