%FSLAX45Y45*%
G04 Gerber Fmt 4.5, Leading zero omitted, Abs format (unit mm)*
G04 Created by KiCad (PCBNEW 5.1.10-88a1d61d58~90~ubuntu20.04.1) date 2022-01-29 20:14:57*
%MOMM*%
%LPD*%
G01*
G04 APERTURE LIST*
%TA.AperFunction,Profile*%
%ADD10C,0.038100*%
%TD*%
%ADD11C,0.200000*%
%ADD12C,0.300000*%
G04 APERTURE END LIST*
D10*
X3800000Y-2700000D02*
X3800000Y-4600000D01*
X9000000Y-2500000D02*
X4000000Y-2500000D01*
X9200000Y-4600000D02*
X9200000Y-2700000D01*
X4000000Y-4800000D02*
X9000000Y-4800000D01*
X3800000Y-2700000D02*
G75*
G02*
X4000000Y-2500000I200000J0D01*
G01*
X9000000Y-2500000D02*
G75*
G02*
X9200000Y-2700000I0J-200000D01*
G01*
X9200000Y-4600000D02*
G75*
G02*
X9000000Y-4800000I-200000J0D01*
G01*
X4000000Y-4800000D02*
G75*
G02*
X3800000Y-4600000I0J200000D01*
G01*
D11*
X6346450Y-3641350D02*
X6378950Y-3673850D01*
X6378950Y-3641350D02*
X6346450Y-3673850D01*
X4133400Y-3102600D02*
G75*
G03*
X4133400Y-3102600I-40000J0D01*
G01*
X4633400Y-3102600D02*
G75*
G03*
X4633400Y-3102600I-40000J0D01*
G01*
D12*
X4084523Y-5267619D02*
X4084523Y-4967619D01*
X4155952Y-4967619D01*
X4198809Y-4981905D01*
X4227381Y-5010477D01*
X4241666Y-5039048D01*
X4255952Y-5096191D01*
X4255952Y-5139048D01*
X4241666Y-5196191D01*
X4227381Y-5224762D01*
X4198809Y-5253334D01*
X4155952Y-5267619D01*
X4084523Y-5267619D01*
X4384523Y-5267619D02*
X4384523Y-5067619D01*
X4384523Y-5124762D02*
X4398809Y-5096191D01*
X4413095Y-5081905D01*
X4441666Y-5067619D01*
X4470238Y-5067619D01*
X4570238Y-5267619D02*
X4570238Y-5067619D01*
X4570238Y-4967619D02*
X4555952Y-4981905D01*
X4570238Y-4996191D01*
X4584523Y-4981905D01*
X4570238Y-4967619D01*
X4570238Y-4996191D01*
X4755952Y-5267619D02*
X4727381Y-5253334D01*
X4713095Y-5224762D01*
X4713095Y-4967619D01*
X4913095Y-5267619D02*
X4884523Y-5253334D01*
X4870238Y-5224762D01*
X4870238Y-4967619D01*
X5255952Y-5267619D02*
X5255952Y-4967619D01*
X5355952Y-5181905D01*
X5455952Y-4967619D01*
X5455952Y-5267619D01*
X5727381Y-5267619D02*
X5727381Y-5110477D01*
X5713095Y-5081905D01*
X5684523Y-5067619D01*
X5627381Y-5067619D01*
X5598809Y-5081905D01*
X5727381Y-5253334D02*
X5698809Y-5267619D01*
X5627381Y-5267619D01*
X5598809Y-5253334D01*
X5584523Y-5224762D01*
X5584523Y-5196191D01*
X5598809Y-5167619D01*
X5627381Y-5153334D01*
X5698809Y-5153334D01*
X5727381Y-5139048D01*
X5870238Y-5067619D02*
X5870238Y-5367619D01*
X5870238Y-5081905D02*
X5898809Y-5067619D01*
X5955952Y-5067619D01*
X5984523Y-5081905D01*
X5998809Y-5096191D01*
X6013095Y-5124762D01*
X6013095Y-5210477D01*
X5998809Y-5239048D01*
X5984523Y-5253334D01*
X5955952Y-5267619D01*
X5898809Y-5267619D01*
X5870238Y-5253334D01*
X6141666Y-5239048D02*
X6155952Y-5253334D01*
X6141666Y-5267619D01*
X6127381Y-5253334D01*
X6141666Y-5239048D01*
X6141666Y-5267619D01*
X6141666Y-5081905D02*
X6155952Y-5096191D01*
X6141666Y-5110477D01*
X6127381Y-5096191D01*
X6141666Y-5081905D01*
X6141666Y-5110477D01*
X3765595Y-5745655D02*
X3798095Y-5778155D01*
X3798095Y-5745655D02*
X3765595Y-5778155D01*
X4141666Y-5597619D02*
X4170238Y-5597619D01*
X4198809Y-5611905D01*
X4213095Y-5626191D01*
X4227381Y-5654762D01*
X4241666Y-5711905D01*
X4241666Y-5783334D01*
X4227381Y-5840476D01*
X4213095Y-5869048D01*
X4198809Y-5883334D01*
X4170238Y-5897619D01*
X4141666Y-5897619D01*
X4113095Y-5883334D01*
X4098809Y-5869048D01*
X4084523Y-5840476D01*
X4070238Y-5783334D01*
X4070238Y-5711905D01*
X4084523Y-5654762D01*
X4098809Y-5626191D01*
X4113095Y-5611905D01*
X4141666Y-5597619D01*
X4370238Y-5869048D02*
X4384523Y-5883334D01*
X4370238Y-5897619D01*
X4355952Y-5883334D01*
X4370238Y-5869048D01*
X4370238Y-5897619D01*
X4484523Y-5597619D02*
X4670238Y-5597619D01*
X4570238Y-5711905D01*
X4613095Y-5711905D01*
X4641666Y-5726191D01*
X4655952Y-5740476D01*
X4670238Y-5769048D01*
X4670238Y-5840476D01*
X4655952Y-5869048D01*
X4641666Y-5883334D01*
X4613095Y-5897619D01*
X4527381Y-5897619D01*
X4498809Y-5883334D01*
X4484523Y-5869048D01*
X4784523Y-5626191D02*
X4798809Y-5611905D01*
X4827381Y-5597619D01*
X4898809Y-5597619D01*
X4927381Y-5611905D01*
X4941666Y-5626191D01*
X4955952Y-5654762D01*
X4955952Y-5683334D01*
X4941666Y-5726191D01*
X4770238Y-5897619D01*
X4955952Y-5897619D01*
X5227381Y-5597619D02*
X5084523Y-5597619D01*
X5070238Y-5740476D01*
X5084523Y-5726191D01*
X5113095Y-5711905D01*
X5184523Y-5711905D01*
X5213095Y-5726191D01*
X5227381Y-5740476D01*
X5241666Y-5769048D01*
X5241666Y-5840476D01*
X5227381Y-5869048D01*
X5213095Y-5883334D01*
X5184523Y-5897619D01*
X5113095Y-5897619D01*
X5084523Y-5883334D01*
X5070238Y-5869048D01*
X5370238Y-5897619D02*
X5370238Y-5697619D01*
X5370238Y-5726191D02*
X5384523Y-5711905D01*
X5413095Y-5697619D01*
X5455952Y-5697619D01*
X5484523Y-5711905D01*
X5498809Y-5740476D01*
X5498809Y-5897619D01*
X5498809Y-5740476D02*
X5513095Y-5711905D01*
X5541666Y-5697619D01*
X5584523Y-5697619D01*
X5613095Y-5711905D01*
X5627381Y-5740476D01*
X5627381Y-5897619D01*
X5770238Y-5897619D02*
X5770238Y-5697619D01*
X5770238Y-5726191D02*
X5784523Y-5711905D01*
X5813095Y-5697619D01*
X5855952Y-5697619D01*
X5884523Y-5711905D01*
X5898809Y-5740476D01*
X5898809Y-5897619D01*
X5898809Y-5740476D02*
X5913095Y-5711905D01*
X5941666Y-5697619D01*
X5984523Y-5697619D01*
X6013095Y-5711905D01*
X6027381Y-5740476D01*
X6027381Y-5897619D01*
X6613095Y-5583334D02*
X6355952Y-5969048D01*
X6998809Y-5597619D02*
X7027381Y-5597619D01*
X7055952Y-5611905D01*
X7070238Y-5626191D01*
X7084523Y-5654762D01*
X7098809Y-5711905D01*
X7098809Y-5783334D01*
X7084523Y-5840476D01*
X7070238Y-5869048D01*
X7055952Y-5883334D01*
X7027381Y-5897619D01*
X6998809Y-5897619D01*
X6970238Y-5883334D01*
X6955952Y-5869048D01*
X6941666Y-5840476D01*
X6927381Y-5783334D01*
X6927381Y-5711905D01*
X6941666Y-5654762D01*
X6955952Y-5626191D01*
X6970238Y-5611905D01*
X6998809Y-5597619D01*
X7227381Y-5869048D02*
X7241666Y-5883334D01*
X7227381Y-5897619D01*
X7213095Y-5883334D01*
X7227381Y-5869048D01*
X7227381Y-5897619D01*
X7427381Y-5597619D02*
X7455952Y-5597619D01*
X7484523Y-5611905D01*
X7498809Y-5626191D01*
X7513095Y-5654762D01*
X7527381Y-5711905D01*
X7527381Y-5783334D01*
X7513095Y-5840476D01*
X7498809Y-5869048D01*
X7484523Y-5883334D01*
X7455952Y-5897619D01*
X7427381Y-5897619D01*
X7398809Y-5883334D01*
X7384523Y-5869048D01*
X7370238Y-5840476D01*
X7355952Y-5783334D01*
X7355952Y-5711905D01*
X7370238Y-5654762D01*
X7384523Y-5626191D01*
X7398809Y-5611905D01*
X7427381Y-5597619D01*
X7813095Y-5897619D02*
X7641666Y-5897619D01*
X7727381Y-5897619D02*
X7727381Y-5597619D01*
X7698809Y-5640476D01*
X7670238Y-5669048D01*
X7641666Y-5683334D01*
X7927381Y-5626191D02*
X7941666Y-5611905D01*
X7970238Y-5597619D01*
X8041666Y-5597619D01*
X8070238Y-5611905D01*
X8084523Y-5626191D01*
X8098809Y-5654762D01*
X8098809Y-5683334D01*
X8084523Y-5726191D01*
X7913095Y-5897619D01*
X8098809Y-5897619D01*
X8270238Y-5726191D02*
X8241666Y-5711905D01*
X8227381Y-5697619D01*
X8213095Y-5669048D01*
X8213095Y-5654762D01*
X8227381Y-5626191D01*
X8241666Y-5611905D01*
X8270238Y-5597619D01*
X8327381Y-5597619D01*
X8355952Y-5611905D01*
X8370238Y-5626191D01*
X8384523Y-5654762D01*
X8384523Y-5669048D01*
X8370238Y-5697619D01*
X8355952Y-5711905D01*
X8327381Y-5726191D01*
X8270238Y-5726191D01*
X8241666Y-5740476D01*
X8227381Y-5754762D01*
X8213095Y-5783334D01*
X8213095Y-5840476D01*
X8227381Y-5869048D01*
X8241666Y-5883334D01*
X8270238Y-5897619D01*
X8327381Y-5897619D01*
X8355952Y-5883334D01*
X8370238Y-5869048D01*
X8384523Y-5840476D01*
X8384523Y-5783334D01*
X8370238Y-5754762D01*
X8355952Y-5740476D01*
X8327381Y-5726191D01*
X8498809Y-5597619D02*
X8498809Y-5654762D01*
X8613095Y-5597619D02*
X8613095Y-5654762D01*
X9055952Y-6011905D02*
X9041666Y-5997619D01*
X9013095Y-5954762D01*
X8998809Y-5926191D01*
X8984523Y-5883334D01*
X8970238Y-5811905D01*
X8970238Y-5754762D01*
X8984523Y-5683334D01*
X8998809Y-5640476D01*
X9013095Y-5611905D01*
X9041666Y-5569048D01*
X9055952Y-5554762D01*
X9327381Y-5897619D02*
X9155952Y-5897619D01*
X9241666Y-5897619D02*
X9241666Y-5597619D01*
X9213095Y-5640476D01*
X9184523Y-5669048D01*
X9155952Y-5683334D01*
X9684523Y-5897619D02*
X9684523Y-5597619D01*
X9813095Y-5897619D02*
X9813095Y-5740476D01*
X9798809Y-5711905D01*
X9770238Y-5697619D01*
X9727381Y-5697619D01*
X9698809Y-5711905D01*
X9684523Y-5726191D01*
X9998809Y-5897619D02*
X9970238Y-5883334D01*
X9955952Y-5869048D01*
X9941666Y-5840476D01*
X9941666Y-5754762D01*
X9955952Y-5726191D01*
X9970238Y-5711905D01*
X9998809Y-5697619D01*
X10041666Y-5697619D01*
X10070238Y-5711905D01*
X10084523Y-5726191D01*
X10098809Y-5754762D01*
X10098809Y-5840476D01*
X10084523Y-5869048D01*
X10070238Y-5883334D01*
X10041666Y-5897619D01*
X9998809Y-5897619D01*
X10270238Y-5897619D02*
X10241666Y-5883334D01*
X10227381Y-5854762D01*
X10227381Y-5597619D01*
X10498809Y-5883334D02*
X10470238Y-5897619D01*
X10413095Y-5897619D01*
X10384523Y-5883334D01*
X10370238Y-5854762D01*
X10370238Y-5740476D01*
X10384523Y-5711905D01*
X10413095Y-5697619D01*
X10470238Y-5697619D01*
X10498809Y-5711905D01*
X10513095Y-5740476D01*
X10513095Y-5769048D01*
X10370238Y-5797619D01*
X10613095Y-6011905D02*
X10627381Y-5997619D01*
X10655952Y-5954762D01*
X10670238Y-5926191D01*
X10684523Y-5883334D01*
X10698809Y-5811905D01*
X10698809Y-5754762D01*
X10684523Y-5683334D01*
X10670238Y-5640476D01*
X10655952Y-5611905D01*
X10627381Y-5569048D01*
X10613095Y-5554762D01*
X11155952Y-6011905D02*
X11141666Y-5997619D01*
X11113095Y-5954762D01*
X11098809Y-5926191D01*
X11084523Y-5883334D01*
X11070238Y-5811905D01*
X11070238Y-5754762D01*
X11084523Y-5683334D01*
X11098809Y-5640476D01*
X11113095Y-5611905D01*
X11141666Y-5569048D01*
X11155952Y-5554762D01*
X11270238Y-5697619D02*
X11270238Y-5897619D01*
X11270238Y-5726191D02*
X11284523Y-5711905D01*
X11313095Y-5697619D01*
X11355952Y-5697619D01*
X11384523Y-5711905D01*
X11398809Y-5740476D01*
X11398809Y-5897619D01*
X11584523Y-5897619D02*
X11555952Y-5883334D01*
X11541666Y-5869048D01*
X11527381Y-5840476D01*
X11527381Y-5754762D01*
X11541666Y-5726191D01*
X11555952Y-5711905D01*
X11584523Y-5697619D01*
X11627381Y-5697619D01*
X11655952Y-5711905D01*
X11670238Y-5726191D01*
X11684523Y-5754762D01*
X11684523Y-5840476D01*
X11670238Y-5869048D01*
X11655952Y-5883334D01*
X11627381Y-5897619D01*
X11584523Y-5897619D01*
X11770238Y-5697619D02*
X11884523Y-5697619D01*
X11813095Y-5597619D02*
X11813095Y-5854762D01*
X11827381Y-5883334D01*
X11855952Y-5897619D01*
X11884523Y-5897619D01*
X12213095Y-5697619D02*
X12213095Y-5997619D01*
X12213095Y-5711905D02*
X12241666Y-5697619D01*
X12298809Y-5697619D01*
X12327381Y-5711905D01*
X12341666Y-5726191D01*
X12355952Y-5754762D01*
X12355952Y-5840476D01*
X12341666Y-5869048D01*
X12327381Y-5883334D01*
X12298809Y-5897619D01*
X12241666Y-5897619D01*
X12213095Y-5883334D01*
X12527381Y-5897619D02*
X12498809Y-5883334D01*
X12484523Y-5854762D01*
X12484523Y-5597619D01*
X12770238Y-5897619D02*
X12770238Y-5740476D01*
X12755952Y-5711905D01*
X12727381Y-5697619D01*
X12670238Y-5697619D01*
X12641666Y-5711905D01*
X12770238Y-5883334D02*
X12741666Y-5897619D01*
X12670238Y-5897619D01*
X12641666Y-5883334D01*
X12627381Y-5854762D01*
X12627381Y-5826191D01*
X12641666Y-5797619D01*
X12670238Y-5783334D01*
X12741666Y-5783334D01*
X12770238Y-5769048D01*
X12870238Y-5697619D02*
X12984523Y-5697619D01*
X12913095Y-5597619D02*
X12913095Y-5854762D01*
X12927381Y-5883334D01*
X12955952Y-5897619D01*
X12984523Y-5897619D01*
X13198809Y-5883334D02*
X13170238Y-5897619D01*
X13113095Y-5897619D01*
X13084523Y-5883334D01*
X13070238Y-5854762D01*
X13070238Y-5740476D01*
X13084523Y-5711905D01*
X13113095Y-5697619D01*
X13170238Y-5697619D01*
X13198809Y-5711905D01*
X13213095Y-5740476D01*
X13213095Y-5769048D01*
X13070238Y-5797619D01*
X13470238Y-5897619D02*
X13470238Y-5597619D01*
X13470238Y-5883334D02*
X13441666Y-5897619D01*
X13384523Y-5897619D01*
X13355952Y-5883334D01*
X13341666Y-5869048D01*
X13327381Y-5840476D01*
X13327381Y-5754762D01*
X13341666Y-5726191D01*
X13355952Y-5711905D01*
X13384523Y-5697619D01*
X13441666Y-5697619D01*
X13470238Y-5711905D01*
X13584523Y-6011905D02*
X13598809Y-5997619D01*
X13627381Y-5954762D01*
X13641666Y-5926191D01*
X13655952Y-5883334D01*
X13670238Y-5811905D01*
X13670238Y-5754762D01*
X13655952Y-5683334D01*
X13641666Y-5640476D01*
X13627381Y-5611905D01*
X13598809Y-5569048D01*
X13584523Y-5554762D01*
X3798095Y-6157905D02*
G75*
G03*
X3798095Y-6157905I-40000J0D01*
G01*
X4141666Y-5993619D02*
X4170238Y-5993619D01*
X4198809Y-6007905D01*
X4213095Y-6022191D01*
X4227381Y-6050762D01*
X4241666Y-6107905D01*
X4241666Y-6179334D01*
X4227381Y-6236476D01*
X4213095Y-6265048D01*
X4198809Y-6279334D01*
X4170238Y-6293619D01*
X4141666Y-6293619D01*
X4113095Y-6279334D01*
X4098809Y-6265048D01*
X4084523Y-6236476D01*
X4070238Y-6179334D01*
X4070238Y-6107905D01*
X4084523Y-6050762D01*
X4098809Y-6022191D01*
X4113095Y-6007905D01*
X4141666Y-5993619D01*
X4370238Y-6265048D02*
X4384523Y-6279334D01*
X4370238Y-6293619D01*
X4355952Y-6279334D01*
X4370238Y-6265048D01*
X4370238Y-6293619D01*
X4555952Y-6122191D02*
X4527381Y-6107905D01*
X4513095Y-6093619D01*
X4498809Y-6065048D01*
X4498809Y-6050762D01*
X4513095Y-6022191D01*
X4527381Y-6007905D01*
X4555952Y-5993619D01*
X4613095Y-5993619D01*
X4641666Y-6007905D01*
X4655952Y-6022191D01*
X4670238Y-6050762D01*
X4670238Y-6065048D01*
X4655952Y-6093619D01*
X4641666Y-6107905D01*
X4613095Y-6122191D01*
X4555952Y-6122191D01*
X4527381Y-6136476D01*
X4513095Y-6150762D01*
X4498809Y-6179334D01*
X4498809Y-6236476D01*
X4513095Y-6265048D01*
X4527381Y-6279334D01*
X4555952Y-6293619D01*
X4613095Y-6293619D01*
X4641666Y-6279334D01*
X4655952Y-6265048D01*
X4670238Y-6236476D01*
X4670238Y-6179334D01*
X4655952Y-6150762D01*
X4641666Y-6136476D01*
X4613095Y-6122191D01*
X4855952Y-5993619D02*
X4884523Y-5993619D01*
X4913095Y-6007905D01*
X4927381Y-6022191D01*
X4941666Y-6050762D01*
X4955952Y-6107905D01*
X4955952Y-6179334D01*
X4941666Y-6236476D01*
X4927381Y-6265048D01*
X4913095Y-6279334D01*
X4884523Y-6293619D01*
X4855952Y-6293619D01*
X4827381Y-6279334D01*
X4813095Y-6265048D01*
X4798809Y-6236476D01*
X4784523Y-6179334D01*
X4784523Y-6107905D01*
X4798809Y-6050762D01*
X4813095Y-6022191D01*
X4827381Y-6007905D01*
X4855952Y-5993619D01*
X5141666Y-5993619D02*
X5170238Y-5993619D01*
X5198809Y-6007905D01*
X5213095Y-6022191D01*
X5227381Y-6050762D01*
X5241666Y-6107905D01*
X5241666Y-6179334D01*
X5227381Y-6236476D01*
X5213095Y-6265048D01*
X5198809Y-6279334D01*
X5170238Y-6293619D01*
X5141666Y-6293619D01*
X5113095Y-6279334D01*
X5098809Y-6265048D01*
X5084523Y-6236476D01*
X5070238Y-6179334D01*
X5070238Y-6107905D01*
X5084523Y-6050762D01*
X5098809Y-6022191D01*
X5113095Y-6007905D01*
X5141666Y-5993619D01*
X5370238Y-6293619D02*
X5370238Y-6093619D01*
X5370238Y-6122191D02*
X5384523Y-6107905D01*
X5413095Y-6093619D01*
X5455952Y-6093619D01*
X5484523Y-6107905D01*
X5498809Y-6136476D01*
X5498809Y-6293619D01*
X5498809Y-6136476D02*
X5513095Y-6107905D01*
X5541666Y-6093619D01*
X5584523Y-6093619D01*
X5613095Y-6107905D01*
X5627381Y-6136476D01*
X5627381Y-6293619D01*
X5770238Y-6293619D02*
X5770238Y-6093619D01*
X5770238Y-6122191D02*
X5784523Y-6107905D01*
X5813095Y-6093619D01*
X5855952Y-6093619D01*
X5884523Y-6107905D01*
X5898809Y-6136476D01*
X5898809Y-6293619D01*
X5898809Y-6136476D02*
X5913095Y-6107905D01*
X5941666Y-6093619D01*
X5984523Y-6093619D01*
X6013095Y-6107905D01*
X6027381Y-6136476D01*
X6027381Y-6293619D01*
X6613095Y-5979334D02*
X6355952Y-6365048D01*
X6998809Y-5993619D02*
X7027381Y-5993619D01*
X7055952Y-6007905D01*
X7070238Y-6022191D01*
X7084523Y-6050762D01*
X7098809Y-6107905D01*
X7098809Y-6179334D01*
X7084523Y-6236476D01*
X7070238Y-6265048D01*
X7055952Y-6279334D01*
X7027381Y-6293619D01*
X6998809Y-6293619D01*
X6970238Y-6279334D01*
X6955952Y-6265048D01*
X6941666Y-6236476D01*
X6927381Y-6179334D01*
X6927381Y-6107905D01*
X6941666Y-6050762D01*
X6955952Y-6022191D01*
X6970238Y-6007905D01*
X6998809Y-5993619D01*
X7227381Y-6265048D02*
X7241666Y-6279334D01*
X7227381Y-6293619D01*
X7213095Y-6279334D01*
X7227381Y-6265048D01*
X7227381Y-6293619D01*
X7427381Y-5993619D02*
X7455952Y-5993619D01*
X7484523Y-6007905D01*
X7498809Y-6022191D01*
X7513095Y-6050762D01*
X7527381Y-6107905D01*
X7527381Y-6179334D01*
X7513095Y-6236476D01*
X7498809Y-6265048D01*
X7484523Y-6279334D01*
X7455952Y-6293619D01*
X7427381Y-6293619D01*
X7398809Y-6279334D01*
X7384523Y-6265048D01*
X7370238Y-6236476D01*
X7355952Y-6179334D01*
X7355952Y-6107905D01*
X7370238Y-6050762D01*
X7384523Y-6022191D01*
X7398809Y-6007905D01*
X7427381Y-5993619D01*
X7627381Y-5993619D02*
X7813095Y-5993619D01*
X7713095Y-6107905D01*
X7755952Y-6107905D01*
X7784523Y-6122191D01*
X7798809Y-6136476D01*
X7813095Y-6165048D01*
X7813095Y-6236476D01*
X7798809Y-6265048D01*
X7784523Y-6279334D01*
X7755952Y-6293619D01*
X7670238Y-6293619D01*
X7641666Y-6279334D01*
X7627381Y-6265048D01*
X8098809Y-6293619D02*
X7927381Y-6293619D01*
X8013095Y-6293619D02*
X8013095Y-5993619D01*
X7984523Y-6036476D01*
X7955952Y-6065048D01*
X7927381Y-6079334D01*
X8370238Y-5993619D02*
X8227381Y-5993619D01*
X8213095Y-6136476D01*
X8227381Y-6122191D01*
X8255952Y-6107905D01*
X8327381Y-6107905D01*
X8355952Y-6122191D01*
X8370238Y-6136476D01*
X8384523Y-6165048D01*
X8384523Y-6236476D01*
X8370238Y-6265048D01*
X8355952Y-6279334D01*
X8327381Y-6293619D01*
X8255952Y-6293619D01*
X8227381Y-6279334D01*
X8213095Y-6265048D01*
X8498809Y-5993619D02*
X8498809Y-6050762D01*
X8613095Y-5993619D02*
X8613095Y-6050762D01*
X9055952Y-6407905D02*
X9041666Y-6393619D01*
X9013095Y-6350762D01*
X8998809Y-6322191D01*
X8984523Y-6279334D01*
X8970238Y-6207905D01*
X8970238Y-6150762D01*
X8984523Y-6079334D01*
X8998809Y-6036476D01*
X9013095Y-6007905D01*
X9041666Y-5965048D01*
X9055952Y-5950762D01*
X9155952Y-6022191D02*
X9170238Y-6007905D01*
X9198809Y-5993619D01*
X9270238Y-5993619D01*
X9298809Y-6007905D01*
X9313095Y-6022191D01*
X9327381Y-6050762D01*
X9327381Y-6079334D01*
X9313095Y-6122191D01*
X9141666Y-6293619D01*
X9327381Y-6293619D01*
X9684523Y-6293619D02*
X9684523Y-5993619D01*
X9813095Y-6293619D02*
X9813095Y-6136476D01*
X9798809Y-6107905D01*
X9770238Y-6093619D01*
X9727381Y-6093619D01*
X9698809Y-6107905D01*
X9684523Y-6122191D01*
X9998809Y-6293619D02*
X9970238Y-6279334D01*
X9955952Y-6265048D01*
X9941666Y-6236476D01*
X9941666Y-6150762D01*
X9955952Y-6122191D01*
X9970238Y-6107905D01*
X9998809Y-6093619D01*
X10041666Y-6093619D01*
X10070238Y-6107905D01*
X10084523Y-6122191D01*
X10098809Y-6150762D01*
X10098809Y-6236476D01*
X10084523Y-6265048D01*
X10070238Y-6279334D01*
X10041666Y-6293619D01*
X9998809Y-6293619D01*
X10270238Y-6293619D02*
X10241666Y-6279334D01*
X10227381Y-6250762D01*
X10227381Y-5993619D01*
X10498809Y-6279334D02*
X10470238Y-6293619D01*
X10413095Y-6293619D01*
X10384523Y-6279334D01*
X10370238Y-6250762D01*
X10370238Y-6136476D01*
X10384523Y-6107905D01*
X10413095Y-6093619D01*
X10470238Y-6093619D01*
X10498809Y-6107905D01*
X10513095Y-6136476D01*
X10513095Y-6165048D01*
X10370238Y-6193619D01*
X10627381Y-6279334D02*
X10655952Y-6293619D01*
X10713095Y-6293619D01*
X10741666Y-6279334D01*
X10755952Y-6250762D01*
X10755952Y-6236476D01*
X10741666Y-6207905D01*
X10713095Y-6193619D01*
X10670238Y-6193619D01*
X10641666Y-6179334D01*
X10627381Y-6150762D01*
X10627381Y-6136476D01*
X10641666Y-6107905D01*
X10670238Y-6093619D01*
X10713095Y-6093619D01*
X10741666Y-6107905D01*
X10855952Y-6407905D02*
X10870238Y-6393619D01*
X10898809Y-6350762D01*
X10913095Y-6322191D01*
X10927381Y-6279334D01*
X10941666Y-6207905D01*
X10941666Y-6150762D01*
X10927381Y-6079334D01*
X10913095Y-6036476D01*
X10898809Y-6007905D01*
X10870238Y-5965048D01*
X10855952Y-5950762D01*
X11398809Y-6407905D02*
X11384523Y-6393619D01*
X11355952Y-6350762D01*
X11341666Y-6322191D01*
X11327381Y-6279334D01*
X11313095Y-6207905D01*
X11313095Y-6150762D01*
X11327381Y-6079334D01*
X11341666Y-6036476D01*
X11355952Y-6007905D01*
X11384523Y-5965048D01*
X11398809Y-5950762D01*
X11513095Y-6093619D02*
X11513095Y-6293619D01*
X11513095Y-6122191D02*
X11527381Y-6107905D01*
X11555952Y-6093619D01*
X11598809Y-6093619D01*
X11627381Y-6107905D01*
X11641666Y-6136476D01*
X11641666Y-6293619D01*
X11827381Y-6293619D02*
X11798809Y-6279334D01*
X11784523Y-6265048D01*
X11770238Y-6236476D01*
X11770238Y-6150762D01*
X11784523Y-6122191D01*
X11798809Y-6107905D01*
X11827381Y-6093619D01*
X11870238Y-6093619D01*
X11898809Y-6107905D01*
X11913095Y-6122191D01*
X11927381Y-6150762D01*
X11927381Y-6236476D01*
X11913095Y-6265048D01*
X11898809Y-6279334D01*
X11870238Y-6293619D01*
X11827381Y-6293619D01*
X12013095Y-6093619D02*
X12127381Y-6093619D01*
X12055952Y-5993619D02*
X12055952Y-6250762D01*
X12070238Y-6279334D01*
X12098809Y-6293619D01*
X12127381Y-6293619D01*
X12455952Y-6093619D02*
X12455952Y-6393619D01*
X12455952Y-6107905D02*
X12484523Y-6093619D01*
X12541666Y-6093619D01*
X12570238Y-6107905D01*
X12584523Y-6122191D01*
X12598809Y-6150762D01*
X12598809Y-6236476D01*
X12584523Y-6265048D01*
X12570238Y-6279334D01*
X12541666Y-6293619D01*
X12484523Y-6293619D01*
X12455952Y-6279334D01*
X12770238Y-6293619D02*
X12741666Y-6279334D01*
X12727381Y-6250762D01*
X12727381Y-5993619D01*
X13013095Y-6293619D02*
X13013095Y-6136476D01*
X12998809Y-6107905D01*
X12970238Y-6093619D01*
X12913095Y-6093619D01*
X12884523Y-6107905D01*
X13013095Y-6279334D02*
X12984523Y-6293619D01*
X12913095Y-6293619D01*
X12884523Y-6279334D01*
X12870238Y-6250762D01*
X12870238Y-6222191D01*
X12884523Y-6193619D01*
X12913095Y-6179334D01*
X12984523Y-6179334D01*
X13013095Y-6165048D01*
X13113095Y-6093619D02*
X13227381Y-6093619D01*
X13155952Y-5993619D02*
X13155952Y-6250762D01*
X13170238Y-6279334D01*
X13198809Y-6293619D01*
X13227381Y-6293619D01*
X13441666Y-6279334D02*
X13413095Y-6293619D01*
X13355952Y-6293619D01*
X13327381Y-6279334D01*
X13313095Y-6250762D01*
X13313095Y-6136476D01*
X13327381Y-6107905D01*
X13355952Y-6093619D01*
X13413095Y-6093619D01*
X13441666Y-6107905D01*
X13455952Y-6136476D01*
X13455952Y-6165048D01*
X13313095Y-6193619D01*
X13713095Y-6293619D02*
X13713095Y-5993619D01*
X13713095Y-6279334D02*
X13684523Y-6293619D01*
X13627381Y-6293619D01*
X13598809Y-6279334D01*
X13584523Y-6265048D01*
X13570238Y-6236476D01*
X13570238Y-6150762D01*
X13584523Y-6122191D01*
X13598809Y-6107905D01*
X13627381Y-6093619D01*
X13684523Y-6093619D01*
X13713095Y-6107905D01*
X13827381Y-6407905D02*
X13841666Y-6393619D01*
X13870238Y-6350762D01*
X13884523Y-6322191D01*
X13898809Y-6279334D01*
X13913095Y-6207905D01*
X13913095Y-6150762D01*
X13898809Y-6079334D01*
X13884523Y-6036476D01*
X13870238Y-6007905D01*
X13841666Y-5965048D01*
X13827381Y-5950762D01*
M02*
