G04 #@! TF.GenerationSoftware,KiCad,Pcbnew,5.1.10-88a1d61d58~90~ubuntu20.04.1*
G04 #@! TF.CreationDate,2022-01-29T20:14:16-05:00*
G04 #@! TF.ProjectId,slg,736c672e-6b69-4636-9164-5f7063625858,v1.0*
G04 #@! TF.SameCoordinates,Original*
G04 #@! TF.FileFunction,Legend,Bot*
G04 #@! TF.FilePolarity,Positive*
%FSLAX46Y46*%
G04 Gerber Fmt 4.6, Leading zero omitted, Abs format (unit mm)*
G04 Created by KiCad (PCBNEW 5.1.10-88a1d61d58~90~ubuntu20.04.1) date 2022-01-29 20:14:16*
%MOMM*%
%LPD*%
G01*
G04 APERTURE LIST*
%ADD10C,0.120000*%
%ADD11C,0.150000*%
%ADD12R,1.700000X1.700000*%
%ADD13C,0.325000*%
%ADD14O,0.800000X0.800000*%
%ADD15O,1.150000X1.800000*%
%ADD16O,1.450000X2.000000*%
G04 APERTURE END LIST*
D10*
X43190000Y-34523000D02*
X44040000Y-34523000D01*
X44040000Y-34523000D02*
X44040000Y-36848000D01*
X44040000Y-36848000D02*
X46430000Y-36848000D01*
X43190000Y-42693000D02*
X44040000Y-42693000D01*
X44040000Y-42693000D02*
X44040000Y-40368000D01*
X39670000Y-34523000D02*
X38820000Y-34523000D01*
X38820000Y-34523000D02*
X38820000Y-42693000D01*
X38820000Y-42693000D02*
X39670000Y-42693000D01*
D11*
X37182380Y-38274666D02*
X37896666Y-38274666D01*
X38039523Y-38227047D01*
X38134761Y-38131809D01*
X38182380Y-37988952D01*
X38182380Y-37893714D01*
X37277619Y-38703238D02*
X37230000Y-38750857D01*
X37182380Y-38846095D01*
X37182380Y-39084190D01*
X37230000Y-39179428D01*
X37277619Y-39227047D01*
X37372857Y-39274666D01*
X37468095Y-39274666D01*
X37610952Y-39227047D01*
X38182380Y-38655619D01*
X38182380Y-39274666D01*
%LPC*%
D12*
X86296500Y-43434000D03*
G36*
G01*
X40180000Y-41208000D02*
X42680000Y-41208000D01*
G75*
G02*
X42930000Y-41458000I0J-250000D01*
G01*
X42930000Y-42558000D01*
G75*
G02*
X42680000Y-42808000I-250000J0D01*
G01*
X40180000Y-42808000D01*
G75*
G02*
X39930000Y-42558000I0J250000D01*
G01*
X39930000Y-41458000D01*
G75*
G02*
X40180000Y-41208000I250000J0D01*
G01*
G37*
G36*
G01*
X40180000Y-34408000D02*
X42680000Y-34408000D01*
G75*
G02*
X42930000Y-34658000I0J-250000D01*
G01*
X42930000Y-35758000D01*
G75*
G02*
X42680000Y-36008000I-250000J0D01*
G01*
X40180000Y-36008000D01*
G75*
G02*
X39930000Y-35758000I0J250000D01*
G01*
X39930000Y-34658000D01*
G75*
G02*
X40180000Y-34408000I250000J0D01*
G01*
G37*
G36*
G01*
X41180000Y-39108000D02*
X46180000Y-39108000D01*
G75*
G02*
X46430000Y-39358000I0J-250000D01*
G01*
X46430000Y-39858000D01*
G75*
G02*
X46180000Y-40108000I-250000J0D01*
G01*
X41180000Y-40108000D01*
G75*
G02*
X40930000Y-39858000I0J250000D01*
G01*
X40930000Y-39358000D01*
G75*
G02*
X41180000Y-39108000I250000J0D01*
G01*
G37*
G36*
G01*
X41180000Y-37108000D02*
X46180000Y-37108000D01*
G75*
G02*
X46430000Y-37358000I0J-250000D01*
G01*
X46430000Y-37858000D01*
G75*
G02*
X46180000Y-38108000I-250000J0D01*
G01*
X41180000Y-38108000D01*
G75*
G02*
X40930000Y-37858000I0J250000D01*
G01*
X40930000Y-37358000D01*
G75*
G02*
X41180000Y-37108000I250000J0D01*
G01*
G37*
X90043000Y-43434000D03*
D13*
X63627000Y-36576000D03*
D14*
X40934000Y-31026000D03*
X45934000Y-31026000D03*
D15*
X39559000Y-28276000D03*
X47309000Y-28276000D03*
D16*
X39709000Y-32076000D03*
X47159000Y-32076000D03*
M02*
